<?xml version="1.0" standalone="no"?>
<!DOCTYPE svg PUBLIC "-//W3C//DTD SVG 1.1//EN" "http://www.w3.org/Graphics/SVG/1.1/DTD/svg11.dtd" >
<svg xmlns="http://www.w3.org/2000/svg" xmlns:xlink="http://www.w3.org/1999/xlink" version="1.1">
<metadata>
Created by FontForge 20230101 at Fri Mar 31 11:56:46 2023
 By Webmaster
Copyright 2016 The Nunito Sans Project Authors (https://github.com/Fonthausen/NunitoSans)
</metadata>
<defs>
<font id="NunitoSans7ptSemiCondensed-Light" horiz-adv-x="0" >
  <font-face 
    font-family="Nunito Sans 7pt SemiCondensed Light"
    font-weight="300"
    font-stretch="semi-condensed"
    units-per-em="1000"
    panose-1="0 0 0 0 0 0 0 0 0 0"
    ascent="800"
    descent="-200"
    x-height="494"
    cap-height="705"
    bbox="-231 -289 1217 1048"
    underline-thickness="32"
    underline-position="-97"
    unicode-range="U+000D-FB02"
  />
<missing-glyph horiz-adv-x="500" 
d="M50 -180v885h400v-885h-400zM100 -130h300v785h-300v-785z" />
    <glyph glyph-name="fi" unicode="fi" horiz-adv-x="587" 
d="M120 0v439h-94v55h112l-18 -23v46q0 89 48 135.5t140 53.5l42 2l5 -57l-48 -4q-31 -2 -59 -12.5t-44.5 -37t-16.5 -76.5v-42l-19 15h330v-494h-68v439h-243v-439h-67zM422 623v80h80v-80h-80z" />
    <glyph glyph-name="fl" unicode="fl" horiz-adv-x="669" 
d="M120 0v439h-94v55h110l-16 -16v38q0 90 48 137t141 53l46 2l6 -57l-54 -4q-31 -2 -58.5 -12.5t-44.5 -37t-17 -76.5v-37l-14 10h165v-55h-151v-439h-67zM590 -8q-60 0 -93.5 36t-33.5 104v573h67v-566q0 -25 7.5 -45t23 -32t39.5 -12q14 0 28 2t26 5l1 -56q-16 -5 -31 -7
t-34 -2z" />
    <glyph glyph-name=".notdef" horiz-adv-x="500" 
d="M50 -180v885h400v-885h-400zM100 -130h300v785h-300v-785z" />
    <glyph glyph-name="A" unicode="A" horiz-adv-x="702" 
d="M41 0l278 705h64l278 -705h-72l-77 202l35 -19h-392l34 19l-77 -202h-71zM349 624l-151 -395l-21 14h348l-22 -14l-151 395h-3z" />
    <glyph glyph-name="Aacute" unicode="&#xc1;" horiz-adv-x="702" 
d="M41 0l278 705h64l278 -705h-72l-77 202l35 -19h-392l34 19l-77 -202h-71zM349 624l-151 -395l-21 14h348l-22 -14l-151 395h-3zM322 765l107 163h85l-134 -163h-58z" />
    <glyph glyph-name="Abreve" unicode="&#x102;" horiz-adv-x="702" 
d="M41 0l278 705h64l278 -705h-72l-77 202l35 -19h-392l34 19l-77 -202h-71zM349 624l-151 -395l-21 14h348l-22 -14l-151 395h-3zM351 760q-65 0 -104.5 42t-44.5 121l49 6q3 -56 28 -85.5t72 -29.5q49 0 73.5 30.5t27.5 84.5l49 -6q-5 -79 -45 -121t-105 -42z" />
    <glyph glyph-name="uni1EAE" unicode="&#x1eae;" horiz-adv-x="702" 
d="M41 0l278 705h64l278 -705h-72l-77 202l35 -19h-392l34 19l-77 -202h-71zM349 624l-151 -395l-21 14h348l-22 -14l-151 395h-3zM351 766q-65 0 -102.5 38t-41.5 106l47 5q3 -50 28.5 -74.5t68.5 -24.5q44 0 69 24.5t29 74.5l46 -5q-3 -68 -40.5 -106t-103.5 -38zM321 883
l79 145h77l-107 -145h-49z" />
    <glyph glyph-name="uni1EB6" unicode="&#x1eb6;" horiz-adv-x="702" 
d="M41 0l278 705h64l278 -705h-72l-77 202l35 -19h-392l34 19l-77 -202h-71zM349 624l-151 -395l-21 14h348l-22 -14l-151 395h-3zM310 -183v80h82v-80h-82zM351 760q-65 0 -104.5 42t-44.5 121l49 6q3 -56 28 -85.5t72 -29.5q49 0 73.5 30.5t27.5 84.5l49 -6
q-5 -79 -45 -121t-105 -42z" />
    <glyph glyph-name="uni1EB0" unicode="&#x1eb0;" horiz-adv-x="702" 
d="M41 0l278 705h64l278 -705h-72l-77 202l35 -19h-392l34 19l-77 -202h-71zM349 624l-151 -395l-21 14h348l-22 -14l-151 395h-3zM351 766q-65 0 -102.5 38t-41.5 106l47 5q3 -50 28.5 -74.5t68.5 -24.5q44 0 69 24.5t29 74.5l46 -5q-3 -68 -40.5 -106t-103.5 -38zM334 883
l-102 145h75l76 -145h-49z" />
    <glyph glyph-name="uni1EB2" unicode="&#x1eb2;" horiz-adv-x="702" 
d="M41 0l278 705h64l278 -705h-72l-77 202l35 -19h-392l34 19l-77 -202h-71zM349 624l-151 -395l-21 14h348l-22 -14l-151 395h-3zM351 766q-65 0 -102.5 38t-41.5 106l47 5q3 -50 28.5 -74.5t68.5 -24.5q44 0 69 24.5t29 74.5l46 -5q-3 -67 -40.5 -105.5t-103.5 -38.5z
M327 882q0 20 8.5 32t19.5 21.5t19 17.5t8 18q0 12 -12 18t-31 6q-12 0 -26 -3.5t-29 -10.5l-12 37q15 9 35 13.5t48 4.5q40 0 62 -14t22 -39q0 -20 -10 -32.5t-22 -21t-22 -19.5t-10 -28h-48z" />
    <glyph glyph-name="uni1EB4" unicode="&#x1eb4;" horiz-adv-x="702" 
d="M41 0l278 705h64l278 -705h-72l-77 202l35 -19h-392l34 19l-77 -202h-71zM349 624l-151 -395l-21 14h348l-22 -14l-151 395h-3zM351 766q-58 0 -96.5 30t-47.5 83l45 7q10 -35 35.5 -53t63.5 -18q40 0 65 18t34 53l45 -7q-9 -53 -47 -83t-97 -30zM248 931l-43 3
q3 32 14 53t29 32.5t42 11.5t41 -10t30 -19q10 -7 23 -15t27 -8q20 0 30 13.5t13 40.5l43 -3q-4 -48 -26 -72.5t-59 -24.5q-23 0 -40 10t-29 18q-14 10 -26 17t-26 7q-19 0 -28.5 -13t-14.5 -41z" />
    <glyph glyph-name="uni01CD" unicode="&#x1cd;" horiz-adv-x="702" 
d="M41 0l278 705h64l278 -705h-72l-77 202l35 -19h-392l34 19l-77 -202h-71zM349 624l-151 -395l-21 14h348l-22 -14l-151 395h-3zM318 765l-114 163h54l93 -115l93 115h54l-114 -163h-66z" />
    <glyph glyph-name="Acircumflex" unicode="&#xc2;" horiz-adv-x="702" 
d="M41 0l278 705h64l278 -705h-72l-77 202l35 -19h-392l34 19l-77 -202h-71zM349 624l-151 -395l-21 14h348l-22 -14l-151 395h-3zM204 765l114 163h66l114 -163h-54l-93 115l-93 -115h-54z" />
    <glyph glyph-name="uni1EA4" unicode="&#x1ea4;" horiz-adv-x="702" 
d="M41 0l278 705h64l278 -705h-72l-77 202l35 -19h-392l34 19l-77 -202h-71zM349 624l-151 -395l-21 14h348l-22 -14l-151 395h-3zM213 769l105 157h67l105 -157h-53l-86 109l-86 -109h-52zM438 877l74 150h73l-99 -150h-48z" />
    <glyph glyph-name="uni1EAC" unicode="&#x1eac;" horiz-adv-x="702" 
d="M41 0l278 705h64l278 -705h-72l-77 202l35 -19h-392l34 19l-77 -202h-71zM349 624l-151 -395l-21 14h348l-22 -14l-151 395h-3zM310 -183v80h82v-80h-82zM204 765l114 163h66l114 -163h-54l-93 115l-93 -115h-54z" />
    <glyph glyph-name="uni1EA6" unicode="&#x1ea6;" horiz-adv-x="702" 
d="M41 0l278 705h64l278 -705h-72l-77 202l35 -19h-392l34 19l-77 -202h-71zM349 624l-151 -395l-21 14h348l-22 -14l-151 395h-3zM213 769l105 157h67l105 -157h-53l-86 109l-86 -109h-52zM476 877l-96 150h70l74 -150h-48z" />
    <glyph glyph-name="uni1EA8" unicode="&#x1ea8;" horiz-adv-x="702" 
d="M41 0l278 705h64l278 -705h-72l-77 202l35 -19h-392l34 19l-77 -202h-71zM349 624l-151 -395l-21 14h348l-22 -14l-151 395h-3zM213 769l105 150h67l105 -150h-53l-86 106l-86 -106h-52zM440 879q0 20 8.5 32t19.5 21.5t19.5 18t8.5 18.5q0 13 -12 18t-31 5q-12 0 -26 -3
t-28 -10l-12 36q14 9 34 13.5t47 4.5q39 0 60.5 -14t21.5 -39q0 -20 -9.5 -32t-21.5 -21.5t-21.5 -20t-9.5 -27.5h-48z" />
    <glyph glyph-name="uni1EAA" unicode="&#x1eaa;" horiz-adv-x="702" 
d="M41 0l278 705h64l278 -705h-72l-77 202l35 -19h-392l34 19l-77 -202h-71zM349 624l-151 -395l-21 14h348l-22 -14l-151 395h-3zM213 769l105 128h67l105 -128h-53l-86 86l-86 -86h-52zM248 928l-43 3q5 48 26.5 73.5t58.5 25.5q24 0 41 -10.5t30 -19.5q10 -7 23 -15
t27 -8q18 0 28.5 12t14.5 43l43 -4q-4 -47 -25.5 -72.5t-59.5 -25.5q-23 0 -40 10t-29 18q-14 10 -26 17.5t-26 7.5q-16 0 -27 -12t-16 -43z" />
    <glyph glyph-name="uni0200" unicode="&#x200;" horiz-adv-x="702" 
d="M41 0l278 705h64l278 -705h-72l-77 202l35 -19h-392l34 19l-77 -202h-71zM349 624l-151 -395l-21 14h348l-22 -14l-151 395h-3zM386 765l-107 163h75l77 -163h-45zM270 765l-111 163h74l81 -163h-44z" />
    <glyph glyph-name="Adieresis" unicode="&#xc4;" horiz-adv-x="702" 
d="M41 0l278 705h64l278 -705h-72l-77 202l35 -19h-392l34 19l-77 -202h-71zM349 624l-151 -395l-21 14h348l-22 -14l-151 395h-3zM398 809v77h80v-77h-80zM224 809v77h80v-77h-80z" />
    <glyph glyph-name="uni0226" unicode="&#x226;" horiz-adv-x="702" 
d="M41 0l278 705h64l278 -705h-72l-77 202l35 -19h-392l34 19l-77 -202h-71zM349 624l-151 -395l-21 14h348l-22 -14l-151 395h-3zM307 811v85h87v-85h-87z" />
    <glyph glyph-name="uni1EA0" unicode="&#x1ea0;" horiz-adv-x="702" 
d="M41 0l278 705h64l278 -705h-72l-77 202l35 -19h-392l34 19l-77 -202h-71zM349 624l-151 -395l-21 14h348l-22 -14l-151 395h-3zM310 -183v80h82v-80h-82z" />
    <glyph glyph-name="Agrave" unicode="&#xc0;" horiz-adv-x="702" 
d="M41 0l278 705h64l278 -705h-72l-77 202l35 -19h-392l34 19l-77 -202h-71zM349 624l-151 -395l-21 14h348l-22 -14l-151 395h-3zM325 765l-134 163h82l107 -163h-55z" />
    <glyph glyph-name="uni1EA2" unicode="&#x1ea2;" horiz-adv-x="702" 
d="M41 0l278 705h64l278 -705h-72l-77 202l35 -19h-392l34 19l-77 -202h-71zM349 624l-151 -395l-21 14h348l-22 -14l-151 395h-3zM326 765v18q0 19 9 31.5t20 22t20 18.5t9 20q0 12 -9 17t-28 5q-15 0 -31.5 -2.5t-33.5 -9.5l-12 40q17 8 38.5 13t46.5 5q41 0 64 -15.5
t23 -43.5q0 -22 -10 -34.5t-23 -22t-23 -20.5t-10 -29v-13h-50z" />
    <glyph glyph-name="uni0202" unicode="&#x202;" horiz-adv-x="702" 
d="M41 0l278 705h64l278 -705h-72l-77 202l35 -19h-392l34 19l-77 -202h-71zM349 624l-151 -395l-21 14h348l-22 -14l-151 395h-3zM252 760l-50 6q5 79 44.5 121t104.5 42q66 0 106 -43t44 -120l-49 -6q-3 53 -27 83.5t-74 30.5q-46 0 -71 -29t-28 -85z" />
    <glyph glyph-name="Amacron" unicode="&#x100;" horiz-adv-x="702" 
d="M41 0l278 705h64l278 -705h-72l-77 202l35 -19h-392l34 19l-77 -202h-71zM349 624l-151 -395l-21 14h348l-22 -14l-151 395h-3zM202 816v56h298v-56h-298z" />
    <glyph glyph-name="Aogonek" unicode="&#x104;" horiz-adv-x="702" 
d="M41 0l278 705h64l278 -705h-72l-77 202l35 -19h-392l34 19l-77 -202h-71zM349 624l-151 -395l-21 14h348l-22 -14l-151 395h-3zM631 -194q-43 0 -71 25t-28 68q0 39 25 73.5t66 57.5l26 -30q-16 -8 -30 -22t-22.5 -31.5t-8.5 -37.5q0 -28 14.5 -40.5t36.5 -12.5
q10 0 22.5 3t24.5 9l15 -46q-13 -7 -30.5 -11.5t-39.5 -4.5z" />
    <glyph glyph-name="Aring" unicode="&#xc5;" horiz-adv-x="702" 
d="M41 0l278 705h64l278 -705h-72l-77 202l35 -19h-392l34 19l-77 -202h-71zM349 624l-151 -395l-21 14h348l-22 -14l-151 395h-3zM351 758q-34 0 -59.5 15.5t-41 41t-15.5 56.5q0 33 15.5 58t41 40.5t59.5 15.5q33 0 59 -15.5t41.5 -41t15.5 -57.5q0 -31 -15.5 -56.5
t-41.5 -41t-59 -15.5zM351 798q31 0 51.5 21t20.5 53t-20.5 52.5t-52.5 20.5q-30 0 -50.5 -20.5t-20.5 -52.5t20.5 -53t51.5 -21z" />
    <glyph glyph-name="Aringacute" unicode="&#x1fa;" horiz-adv-x="702" 
d="M41 0l278 705h64l278 -705h-72l-77 202l35 -19h-392l34 19l-77 -202h-71zM349 624l-151 -395l-21 14h348l-22 -14l-151 395h-3zM351 760q-34 0 -60.5 15.5t-42 41.5t-15.5 59q0 32 15.5 58t42 41.5t60.5 15.5q21 0 38 -5.5t31 -15.5l56 60h74l-99 -93q9 -13 13.5 -28.5
t4.5 -33.5q0 -32 -15.5 -58t-42 -41.5t-60.5 -15.5zM351 801q32 0 52.5 21t20.5 53q0 34 -20.5 54.5t-52.5 20.5t-52.5 -20.5t-20.5 -53.5t20.5 -54t52.5 -21z" />
    <glyph glyph-name="Atilde" unicode="&#xc3;" horiz-adv-x="702" 
d="M41 0l278 705h64l278 -705h-72l-77 202l35 -19h-392l34 19l-77 -202h-71zM349 624l-151 -395l-21 14h348l-22 -14l-151 395h-3zM210 783l-47 3q3 57 31 91t73 34q30 0 55.5 -14.5t43.5 -26.5q15 -10 33 -20.5t35 -10.5q26 0 41 19t18 55l47 -2q-2 -58 -30.5 -91.5
t-73.5 -33.5q-31 0 -55.5 14.5t-42.5 25.5q-15 11 -33.5 21.5t-36.5 10.5q-25 0 -39.5 -19t-18.5 -56z" />
    <glyph glyph-name="AE" unicode="&#xc6;" horiz-adv-x="948" 
d="M5 0l372 705h491v-61h-420l23 36l59 -313l-41 21h361v-61h-351l35 19l60 -318l-36 33h310v-61h-335l-39 205l25 -23h-363l32 24l-109 -206h-74zM408 636l-211 -410l-20 17h324l-11 -17l-77 410h-5z" />
    <glyph glyph-name="AEacute" unicode="&#x1fc;" horiz-adv-x="948" 
d="M5 0l372 705h491v-61h-420l23 36l59 -313l-41 21h361v-61h-351l35 19l60 -318l-36 33h310v-61h-335l-39 205l25 -23h-363l32 24l-109 -206h-74zM408 636l-211 -410l-20 17h324l-11 -17l-77 410h-5zM433 765l107 163h85l-134 -163h-58z" />
    <glyph glyph-name="B" unicode="B" horiz-adv-x="670" 
d="M106 0v705h258q101 0 156 -46.5t55 -135.5q0 -68 -29.5 -108.5t-74.5 -51.5v-2q31 -5 58 -26t44 -57t17 -87q0 -61 -25.5 -104t-73.5 -65t-117 -22h-268zM174 60h197q31 0 55.5 5.5t42.5 16.5t29.5 26.5t17 36.5t5.5 45q0 29 -6 51t-18 38t-30 27t-41.5 16t-52.5 5h-199
v-267zM174 387h185q72 0 109.5 34t37.5 101q0 61 -35.5 92t-113.5 31h-183v-258z" />
    <glyph glyph-name="uni0181" unicode="&#x181;" horiz-adv-x="776" 
d="M212 0v648h-36q-55 0 -76 -23.5t-21 -82.5v-43h-60v47q0 81 39 120t119 39h294q101 0 155 -46.5t54 -135.5q0 -68 -29 -108.5t-74 -51.5v-2q30 -5 57 -26t44 -57t17 -87q0 -61 -25.5 -104t-73.5 -65t-117 -22h-267zM279 60h198q78 0 114 33.5t36 96.5q0 71 -37.5 104
t-111.5 33h-199v-267zM279 386h185q73 0 110.5 34.5t37.5 102.5q0 61 -35.5 91.5t-113.5 30.5h-184v-259z" />
    <glyph glyph-name="C" unicode="C" horiz-adv-x="653" 
d="M371 -9q-92 0 -157.5 42.5t-100.5 123.5t-35 196t35 195.5t100.5 122.5t157.5 42q67 0 121.5 -21.5t95.5 -63.5l-27 -52q-43 39 -87.5 57t-100.5 18q-108 0 -166 -73.5t-58 -224.5t58.5 -225t165.5 -74q56 0 100.5 18t86.5 57l28 -52q-41 -42 -95.5 -64t-121.5 -22z" />
    <glyph glyph-name="Cacute" unicode="&#x106;" horiz-adv-x="653" 
d="M371 -9q-92 0 -157.5 42.5t-100.5 123.5t-35 196t35 195.5t100.5 122.5t157.5 42q67 0 121.5 -21.5t95.5 -63.5l-27 -52q-43 39 -87.5 57t-100.5 18q-108 0 -166 -73.5t-58 -224.5t58.5 -225t165.5 -74q56 0 100.5 18t86.5 57l28 -52q-41 -42 -95.5 -64t-121.5 -22z
M340 765l107 163h85l-134 -163h-58z" />
    <glyph glyph-name="Ccaron" unicode="&#x10c;" horiz-adv-x="653" 
d="M371 -9q-92 0 -157.5 42.5t-100.5 123.5t-35 196t35 195.5t100.5 122.5t157.5 42q67 0 121.5 -21.5t95.5 -63.5l-27 -52q-43 39 -87.5 57t-100.5 18q-108 0 -166 -73.5t-58 -224.5t58.5 -225t165.5 -74q56 0 100.5 18t86.5 57l28 -52q-41 -42 -95.5 -64t-121.5 -22z
M336 765l-114 163h54l93 -115l93 115h54l-114 -163h-66z" />
    <glyph glyph-name="Ccedilla" unicode="&#xc7;" horiz-adv-x="653" 
d="M371 -9q-92 0 -157.5 42.5t-100.5 123.5t-35 196t35 195.5t100.5 122.5t157.5 42q67 0 121.5 -21.5t95.5 -63.5l-27 -52q-43 39 -87.5 57t-100.5 18q-108 0 -166 -73.5t-58 -224.5t58.5 -225t165.5 -74q56 0 100.5 18t86.5 57l28 -52q-41 -42 -95.5 -64t-121.5 -22z
M372 -193q-22 0 -44.5 5t-37.5 14l12 41q16 -9 31.5 -13.5t36.5 -4.5q27 0 42 9.5t15 29.5q0 15 -9.5 23.5t-28.5 8.5q-8 0 -19.5 -2.5t-24.5 -6.5l-15 14l15 95h44l-13 -77l-21 7q10 3 23.5 5t26.5 2q20 0 37.5 -8t27.5 -23.5t10 -37.5q0 -25 -13.5 -43.5t-38 -28
t-56.5 -9.5z" />
    <glyph glyph-name="uni1E08" unicode="&#x1e08;" horiz-adv-x="653" 
d="M371 -9q-92 0 -157.5 42.5t-100.5 123.5t-35 196t35 195.5t100.5 122.5t157.5 42q67 0 121.5 -21.5t95.5 -63.5l-27 -52q-43 39 -87.5 57t-100.5 18q-108 0 -166 -73.5t-58 -224.5t58.5 -225t165.5 -74q56 0 100.5 18t86.5 57l28 -52q-41 -42 -95.5 -64t-121.5 -22z
M372 -193q-22 0 -44.5 5t-37.5 14l12 41q16 -9 31.5 -13.5t36.5 -4.5q27 0 42 9.5t15 29.5q0 15 -9.5 23.5t-28.5 8.5q-8 0 -19.5 -2.5t-24.5 -6.5l-15 14l15 95h44l-13 -77l-21 7q10 3 23.5 5t26.5 2q20 0 37.5 -8t27.5 -23.5t10 -37.5q0 -25 -13.5 -43.5t-38 -28
t-56.5 -9.5zM340 765l107 163h85l-134 -163h-58z" />
    <glyph glyph-name="Ccircumflex" unicode="&#x108;" horiz-adv-x="653" 
d="M371 -9q-92 0 -157.5 42.5t-100.5 123.5t-35 196t35 195.5t100.5 122.5t157.5 42q67 0 121.5 -21.5t95.5 -63.5l-27 -52q-43 39 -87.5 57t-100.5 18q-108 0 -166 -73.5t-58 -224.5t58.5 -225t165.5 -74q56 0 100.5 18t86.5 57l28 -52q-41 -42 -95.5 -64t-121.5 -22z
M222 765l114 163h66l114 -163h-54l-93 115l-93 -115h-54z" />
    <glyph glyph-name="Cdotaccent" unicode="&#x10a;" horiz-adv-x="653" 
d="M371 -9q-92 0 -157.5 42.5t-100.5 123.5t-35 196t35 195.5t100.5 122.5t157.5 42q67 0 121.5 -21.5t95.5 -63.5l-27 -52q-43 39 -87.5 57t-100.5 18q-108 0 -166 -73.5t-58 -224.5t58.5 -225t165.5 -74q56 0 100.5 18t86.5 57l28 -52q-41 -42 -95.5 -64t-121.5 -22z
M325 811v85h87v-85h-87z" />
    <glyph glyph-name="D" unicode="D" horiz-adv-x="719" 
d="M106 0v705h222q101 0 171 -40.5t105.5 -118.5t35.5 -193t-36 -193.5t-105.5 -119t-170.5 -40.5h-222zM174 61h150q123 0 184.5 70t61.5 222t-61.5 221.5t-184.5 69.5h-150v-583z" />
    <glyph glyph-name="uni01C4" unicode="&#x1c4;" horiz-adv-x="1260" 
d="M106 0v705h222q101 0 171 -40.5t105.5 -118.5t35.5 -193t-36 -193.5t-105.5 -119t-170.5 -40.5h-222zM174 61h150q123 0 184.5 70t61.5 222t-61.5 221.5t-184.5 69.5h-150v-583zM755 0v43l388 636l10 -35h-398v61h452v-43l-388 -636l-10 35h408v-61h-462zM949 765
l-114 163h54l93 -115l93 115h54l-114 -163h-66z" />
    <glyph glyph-name="Eth" unicode="&#xd0;" horiz-adv-x="719" 
d="M106 0v705h222q101 0 171 -40.5t105.5 -118.5t35.5 -193t-36 -193.5t-105.5 -119t-170.5 -40.5h-222zM174 61h150q123 0 184.5 70t61.5 222t-61.5 221.5t-184.5 69.5h-150v-583zM29 330v58h336v-58h-336z" />
    <glyph glyph-name="Dcaron" unicode="&#x10e;" horiz-adv-x="719" 
d="M106 0v705h222q101 0 171 -40.5t105.5 -118.5t35.5 -193t-36 -193.5t-105.5 -119t-170.5 -40.5h-222zM174 61h150q123 0 184.5 70t61.5 222t-61.5 221.5t-184.5 69.5h-150v-583zM330 765l-114 163h54l93 -115l93 115h54l-114 -163h-66z" />
    <glyph glyph-name="Dcroat" unicode="&#x110;" horiz-adv-x="719" 
d="M106 0v705h222q101 0 171 -40.5t105.5 -118.5t35.5 -193t-36 -193.5t-105.5 -119t-170.5 -40.5h-222zM174 61h150q123 0 184.5 70t61.5 222t-61.5 221.5t-184.5 69.5h-150v-583zM29 330v58h336v-58h-336z" />
    <glyph glyph-name="uni1E0C" unicode="&#x1e0c;" horiz-adv-x="719" 
d="M106 0v705h222q101 0 171 -40.5t105.5 -118.5t35.5 -193t-36 -193.5t-105.5 -119t-170.5 -40.5h-222zM174 61h150q123 0 184.5 70t61.5 222t-61.5 221.5t-184.5 69.5h-150v-583zM323 -183v80h82v-80h-82z" />
    <glyph glyph-name="uni018A" unicode="&#x18a;" horiz-adv-x="824" 
d="M212 0v648h-36q-55 0 -76 -23.5t-21 -82.5v-43h-60v47q0 81 39.5 120t121.5 39h253q102 0 171.5 -40.5t105 -118.5t35.5 -193t-35.5 -193.5t-105.5 -119t-171 -40.5h-221zM280 61h150q122 0 183.5 70t61.5 222t-61 221.5t-184 69.5h-150v-583z" />
    <glyph glyph-name="uni1E0E" unicode="&#x1e0e;" horiz-adv-x="719" 
d="M106 0v705h222q101 0 171 -40.5t105.5 -118.5t35.5 -193t-36 -193.5t-105.5 -119t-170.5 -40.5h-222zM174 61h150q123 0 184.5 70t61.5 222t-61.5 221.5t-184.5 69.5h-150v-583zM220 -157v55h288v-55h-288z" />
    <glyph glyph-name="uni01C5" unicode="&#x1c5;" horiz-adv-x="1210" 
d="M106 0v705h222q101 0 171 -40.5t105.5 -118.5t35.5 -193t-36 -193.5t-105.5 -119t-170.5 -40.5h-222zM174 61h150q123 0 184.5 70t61.5 222t-61.5 221.5t-184.5 69.5h-150v-583zM778 0v41l299 419l7 -25h-295v59h357v-43l-300 -420l-7 28h318v-59h-379zM936 559l-101 186
h52l83 -137l83 137h52l-101 -186h-68z" />
    <glyph glyph-name="E" unicode="E" horiz-adv-x="598" 
d="M106 0v705h412v-61h-344v-256h322v-61h-322v-266h344v-61h-412z" />
    <glyph glyph-name="Eacute" unicode="&#xc9;" horiz-adv-x="598" 
d="M106 0v705h412v-61h-344v-256h322v-61h-322v-266h344v-61h-412zM290 765l107 163h85l-134 -163h-58z" />
    <glyph glyph-name="Ebreve" unicode="&#x114;" horiz-adv-x="598" 
d="M106 0v705h412v-61h-344v-256h322v-61h-322v-266h344v-61h-412zM319 760q-65 0 -104.5 42t-44.5 121l49 6q3 -56 28 -85.5t72 -29.5q49 0 73.5 30.5t27.5 84.5l49 -6q-5 -79 -45 -121t-105 -42z" />
    <glyph glyph-name="Ecaron" unicode="&#x11a;" horiz-adv-x="598" 
d="M106 0v705h412v-61h-344v-256h322v-61h-322v-266h344v-61h-412zM286 765l-114 163h54l93 -115l93 115h54l-114 -163h-66z" />
    <glyph glyph-name="uni0228" unicode="&#x228;" horiz-adv-x="598" 
d="M106 0v705h412v-61h-344v-256h322v-61h-322v-266h344v-61h-412zM323 -193q-22 0 -44.5 5t-37.5 14l12 41q16 -9 31.5 -13.5t36.5 -4.5q27 0 42 9.5t15 29.5q0 15 -9.5 23.5t-28.5 8.5q-8 0 -19.5 -2.5t-24.5 -6.5l-15 14l15 95h44l-13 -77l-21 7q10 3 23.5 5t26.5 2
q20 0 37.5 -8t27.5 -23.5t10 -37.5q0 -25 -13.5 -43.5t-38 -28t-56.5 -9.5z" />
    <glyph glyph-name="uni1E1C" unicode="&#x1e1c;" horiz-adv-x="598" 
d="M106 0v705h412v-61h-344v-256h322v-61h-322v-266h344v-61h-412zM323 -193q-22 0 -44.5 5t-37.5 14l12 41q16 -9 31.5 -13.5t36.5 -4.5q27 0 42 9.5t15 29.5q0 15 -9.5 23.5t-28.5 8.5q-8 0 -19.5 -2.5t-24.5 -6.5l-15 14l15 95h44l-13 -77l-21 7q10 3 23.5 5t26.5 2
q20 0 37.5 -8t27.5 -23.5t10 -37.5q0 -25 -13.5 -43.5t-38 -28t-56.5 -9.5zM319 760q-65 0 -104.5 42t-44.5 121l49 6q3 -56 28 -85.5t72 -29.5q49 0 73.5 30.5t27.5 84.5l49 -6q-5 -79 -45 -121t-105 -42z" />
    <glyph glyph-name="Ecircumflex" unicode="&#xca;" horiz-adv-x="598" 
d="M106 0v705h412v-61h-344v-256h322v-61h-322v-266h344v-61h-412zM172 765l114 163h66l114 -163h-54l-93 115l-93 -115h-54z" />
    <glyph glyph-name="uni1EBE" unicode="&#x1ebe;" horiz-adv-x="598" 
d="M106 0v705h412v-61h-344v-256h322v-61h-322v-266h344v-61h-412zM181 769l105 157h67l105 -157h-53l-86 109l-86 -109h-52zM406 877l74 150h73l-99 -150h-48z" />
    <glyph glyph-name="uni1EC6" unicode="&#x1ec6;" horiz-adv-x="598" 
d="M106 0v705h412v-61h-344v-256h322v-61h-322v-266h344v-61h-412zM278 -183v80h82v-80h-82zM172 765l114 163h66l114 -163h-54l-93 115l-93 -115h-54z" />
    <glyph glyph-name="uni1EC0" unicode="&#x1ec0;" horiz-adv-x="598" 
d="M106 0v705h412v-61h-344v-256h322v-61h-322v-266h344v-61h-412zM181 769l105 157h67l105 -157h-53l-86 109l-86 -109h-52zM444 877l-96 150h70l74 -150h-48z" />
    <glyph glyph-name="uni1EC2" unicode="&#x1ec2;" horiz-adv-x="598" 
d="M106 0v705h412v-61h-344v-256h322v-61h-322v-266h344v-61h-412zM181 769l105 150h67l105 -150h-53l-86 106l-86 -106h-52zM408 879q0 20 8.5 32t19.5 21.5t19.5 18t8.5 18.5q0 13 -12 18t-31 5q-12 0 -26 -3t-28 -10l-12 36q14 9 34 13.5t47 4.5q39 0 60.5 -14t21.5 -39
q0 -20 -9.5 -32t-21.5 -21.5t-21.5 -20t-9.5 -27.5h-48z" />
    <glyph glyph-name="uni1EC4" unicode="&#x1ec4;" horiz-adv-x="598" 
d="M106 0v705h412v-61h-344v-256h322v-61h-322v-266h344v-61h-412zM181 769l105 128h67l105 -128h-53l-86 86l-86 -86h-52zM216 928l-43 3q5 48 26.5 73.5t58.5 25.5q24 0 41 -10.5t30 -19.5q10 -7 23 -15t27 -8q18 0 28.5 12t14.5 43l43 -4q-4 -47 -25.5 -72.5t-59.5 -25.5
q-23 0 -40 10t-29 18q-14 10 -26 17.5t-26 7.5q-16 0 -27 -12t-16 -43z" />
    <glyph glyph-name="uni0204" unicode="&#x204;" horiz-adv-x="598" 
d="M106 0v705h412v-61h-344v-256h322v-61h-322v-266h344v-61h-412zM354 765l-107 163h75l77 -163h-45zM238 765l-111 163h74l81 -163h-44z" />
    <glyph glyph-name="Edieresis" unicode="&#xcb;" horiz-adv-x="598" 
d="M106 0v705h412v-61h-344v-256h322v-61h-322v-266h344v-61h-412zM366 809v77h80v-77h-80zM192 809v77h80v-77h-80z" />
    <glyph glyph-name="Edotaccent" unicode="&#x116;" horiz-adv-x="598" 
d="M106 0v705h412v-61h-344v-256h322v-61h-322v-266h344v-61h-412zM275 811v85h87v-85h-87z" />
    <glyph glyph-name="uni1EB8" unicode="&#x1eb8;" horiz-adv-x="598" 
d="M106 0v705h412v-61h-344v-256h322v-61h-322v-266h344v-61h-412zM278 -183v80h82v-80h-82z" />
    <glyph glyph-name="Egrave" unicode="&#xc8;" horiz-adv-x="598" 
d="M106 0v705h412v-61h-344v-256h322v-61h-322v-266h344v-61h-412zM293 765l-134 163h82l107 -163h-55z" />
    <glyph glyph-name="uni1EBA" unicode="&#x1eba;" horiz-adv-x="598" 
d="M106 0v705h412v-61h-344v-256h322v-61h-322v-266h344v-61h-412zM294 765v18q0 19 9 31.5t20 22t20 18.5t9 20q0 12 -9 17t-28 5q-15 0 -31.5 -2.5t-33.5 -9.5l-12 40q17 8 38.5 13t46.5 5q41 0 64 -15.5t23 -43.5q0 -22 -10 -34.5t-23 -22t-23 -20.5t-10 -29v-13h-50z
" />
    <glyph glyph-name="uni0206" unicode="&#x206;" horiz-adv-x="598" 
d="M106 0v705h412v-61h-344v-256h322v-61h-322v-266h344v-61h-412zM220 760l-50 6q5 79 44.5 121t104.5 42q66 0 106 -43t44 -120l-49 -6q-3 53 -27 83.5t-74 30.5q-46 0 -71 -29t-28 -85z" />
    <glyph glyph-name="Emacron" unicode="&#x112;" horiz-adv-x="598" 
d="M106 0v705h412v-61h-344v-256h322v-61h-322v-266h344v-61h-412zM170 816v56h298v-56h-298z" />
    <glyph glyph-name="uni1E16" unicode="&#x1e16;" horiz-adv-x="598" 
d="M106 0v705h412v-61h-344v-256h322v-61h-322v-266h344v-61h-412zM182 793v54h274v-54h-274zM289 886l80 146h82l-108 -146h-54z" />
    <glyph glyph-name="uni1E14" unicode="&#x1e14;" horiz-adv-x="598" 
d="M106 0v705h412v-61h-344v-256h322v-61h-322v-266h344v-61h-412zM295 886l-108 146h82l80 -146h-54zM182 793v54h274v-54h-274z" />
    <glyph glyph-name="Eogonek" unicode="&#x118;" horiz-adv-x="598" 
d="M106 0v705h412v-61h-344v-256h322v-61h-322v-266h344v-61h-412zM458 -194q-43 0 -71 25t-28 68q0 39 25 73.5t66 57.5l26 -30q-16 -8 -30 -22t-22.5 -31.5t-8.5 -37.5q0 -28 14.5 -40.5t36.5 -12.5q10 0 22.5 3t24.5 9l15 -46q-13 -7 -30.5 -11.5t-39.5 -4.5z" />
    <glyph glyph-name="uni1EBC" unicode="&#x1ebc;" horiz-adv-x="598" 
d="M106 0v705h412v-61h-344v-256h322v-61h-322v-266h344v-61h-412zM178 783l-47 3q3 57 31 91t73 34q30 0 55.5 -14.5t43.5 -26.5q15 -10 33 -20.5t35 -10.5q26 0 41 19t18 55l47 -2q-2 -58 -30.5 -91.5t-73.5 -33.5q-31 0 -55.5 14.5t-42.5 25.5q-15 11 -33.5 21.5
t-36.5 10.5q-25 0 -39.5 -19t-18.5 -56z" />
    <glyph glyph-name="uni018F" unicode="&#x18f;" horiz-adv-x="742" 
d="M368 -8q-83 0 -148.5 41.5t-103.5 121t-38 193.5v37h552v-58h-505l23 23q0 -149 60 -222.5t160 -73.5q105 0 165.5 76t60.5 224t-58 222.5t-180 74.5q-39 0 -80 -9t-79 -26t-68 -44l-23 56q27 27 69.5 46t91 29t91.5 10q98 0 166 -38.5t103.5 -118t35.5 -201.5
q0 -85 -21.5 -152.5t-60 -114.5t-93 -71.5t-120.5 -24.5z" />
    <glyph glyph-name="F" unicode="F" horiz-adv-x="569" 
d="M106 0v705h411v-61h-343v-258h325v-61h-325v-325h-68z" />
    <glyph glyph-name="G" unicode="G" horiz-adv-x="716" 
d="M390 -8q-99 0 -168.5 41t-106.5 121t-37 198q0 117 35.5 197.5t103.5 122t163 41.5q49 0 92 -10t79 -28.5t62 -46.5l-27 -52q-41 39 -92 57t-114 18q-112 0 -172 -73.5t-60 -225.5q0 -156 62.5 -227.5t182.5 -71.5q53 0 101.5 9t86.5 25l-25 -44v260h-165v61h228v-326
q-25 -14 -62.5 -24t-81 -16t-85.5 -6z" />
    <glyph glyph-name="Gbreve" unicode="&#x11e;" horiz-adv-x="716" 
d="M390 -8q-99 0 -168.5 41t-106.5 121t-37 198q0 117 35.5 197.5t103.5 122t163 41.5q49 0 92 -10t79 -28.5t62 -46.5l-27 -52q-41 39 -92 57t-114 18q-112 0 -172 -73.5t-60 -225.5q0 -156 62.5 -227.5t182.5 -71.5q53 0 101.5 9t86.5 25l-25 -44v260h-165v61h228v-326
q-25 -14 -62.5 -24t-81 -16t-85.5 -6zM381 760q-65 0 -104.5 42t-44.5 121l49 6q3 -56 28 -85.5t72 -29.5q49 0 73.5 30.5t27.5 84.5l49 -6q-5 -79 -45 -121t-105 -42z" />
    <glyph glyph-name="Gcaron" unicode="&#x1e6;" horiz-adv-x="716" 
d="M390 -8q-99 0 -168.5 41t-106.5 121t-37 198q0 117 35.5 197.5t103.5 122t163 41.5q49 0 92 -10t79 -28.5t62 -46.5l-27 -52q-41 39 -92 57t-114 18q-112 0 -172 -73.5t-60 -225.5q0 -156 62.5 -227.5t182.5 -71.5q53 0 101.5 9t86.5 25l-25 -44v260h-165v61h228v-326
q-25 -14 -62.5 -24t-81 -16t-85.5 -6zM348 765l-114 163h54l93 -115l93 115h54l-114 -163h-66z" />
    <glyph glyph-name="Gcircumflex" unicode="&#x11c;" horiz-adv-x="716" 
d="M390 -8q-99 0 -168.5 41t-106.5 121t-37 198q0 117 35.5 197.5t103.5 122t163 41.5q49 0 92 -10t79 -28.5t62 -46.5l-27 -52q-41 39 -92 57t-114 18q-112 0 -172 -73.5t-60 -225.5q0 -156 62.5 -227.5t182.5 -71.5q53 0 101.5 9t86.5 25l-25 -44v260h-165v61h228v-326
q-25 -14 -62.5 -24t-81 -16t-85.5 -6zM234 765l114 163h66l114 -163h-54l-93 115l-93 -115h-54z" />
    <glyph glyph-name="uni0122" unicode="&#x122;" horiz-adv-x="716" 
d="M390 -8q-99 0 -168.5 41t-106.5 121t-37 198q0 117 35.5 197.5t103.5 122t163 41.5q49 0 92 -10t79 -28.5t62 -46.5l-27 -52q-41 39 -92 57t-114 18q-112 0 -172 -73.5t-60 -225.5q0 -156 62.5 -227.5t182.5 -71.5q53 0 101.5 9t86.5 25l-25 -44v260h-165v61h228v-326
q-25 -14 -62.5 -24t-81 -16t-85.5 -6zM381 -281l-33 25q21 21 28.5 46t7.5 54l10 -10h-52v83h87v-64q0 -40 -11 -73.5t-37 -60.5z" />
    <glyph glyph-name="Gdotaccent" unicode="&#x120;" horiz-adv-x="716" 
d="M390 -8q-99 0 -168.5 41t-106.5 121t-37 198q0 117 35.5 197.5t103.5 122t163 41.5q49 0 92 -10t79 -28.5t62 -46.5l-27 -52q-41 39 -92 57t-114 18q-112 0 -172 -73.5t-60 -225.5q0 -156 62.5 -227.5t182.5 -71.5q53 0 101.5 9t86.5 25l-25 -44v260h-165v61h228v-326
q-25 -14 -62.5 -24t-81 -16t-85.5 -6zM337 811v85h87v-85h-87z" />
    <glyph glyph-name="uni1E20" unicode="&#x1e20;" horiz-adv-x="716" 
d="M390 -8q-99 0 -168.5 41t-106.5 121t-37 198q0 117 35.5 197.5t103.5 122t163 41.5q49 0 92 -10t79 -28.5t62 -46.5l-27 -52q-41 39 -92 57t-114 18q-112 0 -172 -73.5t-60 -225.5q0 -156 62.5 -227.5t182.5 -71.5q53 0 101.5 9t86.5 25l-25 -44v260h-165v61h228v-326
q-25 -14 -62.5 -24t-81 -16t-85.5 -6zM232 816v56h298v-56h-298z" />
    <glyph glyph-name="H" unicode="H" horiz-adv-x="737" 
d="M106 0v705h68v-316h389v316h67v-705h-67v328h-389v-328h-68z" />
    <glyph glyph-name="Hbar" unicode="&#x126;" horiz-adv-x="747" 
d="M112 0v519h-94v57h94v129h67v-129h389v129h67v-129h94v-57h-94v-519h-67v325h-389v-325h-67zM179 386h389v133h-389v-133z" />
    <glyph glyph-name="uni1E2A" unicode="&#x1e2a;" horiz-adv-x="737" 
d="M106 0v705h68v-316h389v316h67v-705h-67v328h-389v-328h-68zM369 -208q-62 0 -100 37t-41 105l47 6q3 -47 26.5 -72t67.5 -25q43 0 67.5 25t26.5 72l47 -6q-3 -67 -41 -104.5t-100 -37.5z" />
    <glyph glyph-name="Hcircumflex" unicode="&#x124;" horiz-adv-x="737" 
d="M106 0v705h68v-316h389v316h67v-705h-67v328h-389v-328h-68zM221 765l114 163h66l114 -163h-54l-93 115l-93 -115h-54z" />
    <glyph glyph-name="uni1E24" unicode="&#x1e24;" horiz-adv-x="737" 
d="M106 0v705h68v-316h389v316h67v-705h-67v328h-389v-328h-68zM328 -183v80h82v-80h-82z" />
    <glyph glyph-name="I" unicode="I" horiz-adv-x="280" 
d="M106 0v705h68v-705h-68z" />
    <glyph glyph-name="IJ" unicode="&#x132;" horiz-adv-x="653" 
d="M106 0v705h68v-705h-68zM295 -7l-5 62l74 4q33 2 59 17.5t41 43t15 65.5v520h67v-525q0 -52 -22.5 -92t-61.5 -63.5t-90 -27.5z" />
    <glyph glyph-name="Iacute" unicode="&#xcd;" horiz-adv-x="280" 
d="M106 0v705h68v-705h-68zM111 765l107 163h85l-134 -163h-58z" />
    <glyph glyph-name="Ibreve" unicode="&#x12c;" horiz-adv-x="280" 
d="M106 0v705h68v-705h-68zM140 760q-65 0 -104.5 42t-44.5 121l49 6q3 -56 28 -85.5t72 -29.5q49 0 73.5 30.5t27.5 84.5l49 -6q-5 -79 -45 -121t-105 -42z" />
    <glyph glyph-name="Icircumflex" unicode="&#xce;" horiz-adv-x="280" 
d="M106 0v705h68v-705h-68zM-7 765l114 163h66l114 -163h-54l-93 115l-93 -115h-54z" />
    <glyph glyph-name="uni0208" unicode="&#x208;" horiz-adv-x="280" 
d="M106 0v705h68v-705h-68zM175 765l-107 163h75l77 -163h-45zM59 765l-111 163h74l81 -163h-44z" />
    <glyph glyph-name="Idieresis" unicode="&#xcf;" horiz-adv-x="280" 
d="M106 0v705h68v-705h-68zM187 809v77h80v-77h-80zM13 809v77h80v-77h-80z" />
    <glyph glyph-name="uni1E2E" unicode="&#x1e2e;" horiz-adv-x="280" 
d="M106 0v705h68v-705h-68zM111 884l81 146h82l-108 -146h-55zM18 772v71h84v-71h-84zM178 772v71h84v-71h-84z" />
    <glyph glyph-name="Idotaccent" unicode="&#x130;" horiz-adv-x="280" 
d="M106 0v705h68v-705h-68zM96 811v85h87v-85h-87z" />
    <glyph glyph-name="uni1ECA" unicode="&#x1eca;" horiz-adv-x="280" 
d="M106 0v705h68v-705h-68zM99 -183v80h82v-80h-82z" />
    <glyph glyph-name="Igrave" unicode="&#xcc;" horiz-adv-x="280" 
d="M106 0v705h68v-705h-68zM114 765l-134 163h82l107 -163h-55z" />
    <glyph glyph-name="uni1EC8" unicode="&#x1ec8;" horiz-adv-x="280" 
d="M106 0v705h68v-705h-68zM115 765v18q0 19 9 31.5t20 22t20 18.5t9 20q0 12 -9 17t-28 5q-15 0 -31.5 -2.5t-33.5 -9.5l-12 40q17 8 38.5 13t46.5 5q41 0 64 -15.5t23 -43.5q0 -22 -10 -34.5t-23 -22t-23 -20.5t-10 -29v-13h-50z" />
    <glyph glyph-name="uni020A" unicode="&#x20a;" horiz-adv-x="280" 
d="M106 0v705h68v-705h-68zM41 760l-50 6q5 79 44.5 121t104.5 42q66 0 106 -43t44 -120l-49 -6q-3 53 -27 83.5t-74 30.5q-46 0 -71 -29t-28 -85z" />
    <glyph glyph-name="Imacron" unicode="&#x12a;" horiz-adv-x="280" 
d="M106 0v705h68v-705h-68zM-9 816v56h298v-56h-298z" />
    <glyph glyph-name="Iogonek" unicode="&#x12e;" horiz-adv-x="280" 
d="M106 0v705h68v-705h-68zM150 -194q-43 0 -71 25t-28 68q0 39 25 73.5t66 57.5l26 -30q-16 -8 -30 -22t-22.5 -31.5t-8.5 -37.5q0 -28 14.5 -40.5t36.5 -12.5q10 0 22.5 3t24.5 9l15 -46q-13 -7 -30.5 -11.5t-39.5 -4.5z" />
    <glyph glyph-name="Itilde" unicode="&#x128;" horiz-adv-x="280" 
d="M106 0v705h68v-705h-68zM-1 783l-47 3q3 57 31 91t73 34q30 0 55.5 -14.5t43.5 -26.5q15 -10 33 -20.5t35 -10.5q26 0 41 19t18 55l47 -2q-2 -58 -30.5 -91.5t-73.5 -33.5q-31 0 -55.5 14.5t-42.5 25.5q-15 11 -33.5 21.5t-36.5 10.5q-25 0 -39.5 -19t-18.5 -56z" />
    <glyph glyph-name="J" unicode="J" horiz-adv-x="372" 
d="M15 -7l-5 62l74 4q33 2 59 17.5t41 43t15 65.5v520h67v-525q0 -52 -22.5 -92t-61.5 -63.5t-90 -27.5z" />
    <glyph glyph-name="Jcircumflex" unicode="&#x134;" horiz-adv-x="372" 
d="M15 -7l-5 62l74 4q33 2 59 17.5t41 43t15 65.5v520h67v-525q0 -52 -22.5 -92t-61.5 -63.5t-90 -27.5zM85 765l114 163h66l114 -163h-54l-93 115l-93 -115h-54z" />
    <glyph glyph-name="K" unicode="K" horiz-adv-x="609" 
d="M106 0v705h68v-324h4l312 324h87l-356 -367l4 42l375 -380h-93l-329 335h-4v-335h-68z" />
    <glyph glyph-name="uni0136" unicode="&#x136;" horiz-adv-x="609" 
d="M106 0v705h68v-324h4l312 324h87l-356 -367l4 42l375 -380h-93l-329 335h-4v-335h-68zM312 -281l-33 25q21 21 28.5 46t7.5 54l10 -10h-52v83h87v-64q0 -40 -11 -73.5t-37 -60.5z" />
    <glyph glyph-name="L" unicode="L" horiz-adv-x="539" 
d="M106 0v705h68v-643h330v-62h-398z" />
    <glyph glyph-name="uni01C7" unicode="&#x1c7;" horiz-adv-x="947" 
d="M106 0v705h68v-643h330v-62h-398zM590 -7l-5 62l74 4q33 2 59 17.5t41 43t15 65.5v520h67v-525q0 -52 -22.5 -92t-61.5 -63.5t-90 -27.5z" />
    <glyph glyph-name="Lacute" unicode="&#x139;" horiz-adv-x="539" 
d="M106 0v705h68v-643h330v-62h-398zM112 765l107 163h85l-134 -163h-58z" />
    <glyph glyph-name="Lcaron" unicode="&#x13d;" horiz-adv-x="539" 
d="M106 0v705h68v-643h330v-62h-398zM279 481v224h67l-18 -224h-49z" />
    <glyph glyph-name="uni013B" unicode="&#x13b;" horiz-adv-x="539" 
d="M106 0v705h68v-643h330v-62h-398zM304 -281l-33 25q21 21 28.5 46t7.5 54l10 -10h-52v83h87v-64q0 -40 -11 -73.5t-37 -60.5z" />
    <glyph glyph-name="Ldot" unicode="&#x13f;" horiz-adv-x="539" 
d="M106 0v705h68v-643h330v-62h-398zM340 349v79h89v-79h-89z" />
    <glyph glyph-name="uni1E36" unicode="&#x1e36;" horiz-adv-x="539" 
d="M106 0v705h68v-643h330v-62h-398zM268 -183v80h82v-80h-82z" />
    <glyph glyph-name="uni01C8" unicode="&#x1c8;" horiz-adv-x="767" 
d="M106 0v705h68v-643h330v-62h-398zM613 622v82h83v-82h-83zM492 -193l-5 59l45 6q42 5 65.5 26t23.5 78v518h67v-517q0 -39 -9 -67.5t-26.5 -49t-46 -32t-66.5 -16.5z" />
    <glyph glyph-name="uni1E3A" unicode="&#x1e3a;" horiz-adv-x="539" 
d="M106 0v705h68v-643h330v-62h-398zM165 -157v55h288v-55h-288z" />
    <glyph glyph-name="Lslash" unicode="&#x141;" horiz-adv-x="547" 
d="M114 0v705h68v-643h330v-62h-398zM44 261l-32 50l329 203l31 -51z" />
    <glyph glyph-name="M" unicode="M" horiz-adv-x="841" 
d="M108 0v705h86l227 -512h2l225 512h85v-705h-66v606h-3l-218 -494h-51l-218 494h-3v-606h-66z" />
    <glyph glyph-name="uni1E42" unicode="&#x1e42;" horiz-adv-x="841" 
d="M108 0v705h86l227 -512h2l225 512h85v-705h-66v606h-3l-218 -494h-51l-218 494h-3v-606h-66zM372 -183v80h82v-80h-82z" />
    <glyph glyph-name="N" unicode="N" horiz-adv-x="748" 
d="M106 0v705h65l406 -603v0v603h65v-705h-66l-406 602h2v-602h-66z" />
    <glyph glyph-name="uni01CA" unicode="&#x1ca;" horiz-adv-x="1121" 
d="M106 0v705h65l406 -603v0v603h65v-705h-66l-406 602h2v-602h-66zM763 -7l-5 62l74 4q33 2 59 17.5t41 43t15 65.5v520h67v-525q0 -52 -22.5 -92t-61.5 -63.5t-90 -27.5z" />
    <glyph glyph-name="Nacute" unicode="&#x143;" horiz-adv-x="748" 
d="M106 0v705h65l406 -603v0v603h65v-705h-66l-406 602h2v-602h-66zM349 765l107 163h85l-134 -163h-58z" />
    <glyph glyph-name="Ncaron" unicode="&#x147;" horiz-adv-x="748" 
d="M106 0v705h65l406 -603v0v603h65v-705h-66l-406 602h2v-602h-66zM345 765l-114 163h54l93 -115l93 115h54l-114 -163h-66z" />
    <glyph glyph-name="uni0145" unicode="&#x145;" horiz-adv-x="748" 
d="M106 0v705h65l406 -603v0v603h65v-705h-66l-406 602h2v-602h-66zM372 -281l-33 25q21 21 28.5 46t7.5 54l10 -10h-52v83h87v-64q0 -40 -11 -73.5t-37 -60.5z" />
    <glyph glyph-name="uni1E44" unicode="&#x1e44;" horiz-adv-x="748" 
d="M106 0v705h65l406 -603v0v603h65v-705h-66l-406 602h2v-602h-66zM334 811v85h87v-85h-87z" />
    <glyph glyph-name="uni1E46" unicode="&#x1e46;" horiz-adv-x="748" 
d="M106 0v705h65l406 -603v0v603h65v-705h-66l-406 602h2v-602h-66zM336 -183v80h82v-80h-82z" />
    <glyph glyph-name="uni01CB" unicode="&#x1cb;" horiz-adv-x="977" 
d="M106 0v705h65l406 -603v0v603h65v-705h-66l-406 602h2v-602h-66zM822 622v82h83v-82h-83zM701 -193l-5 59l45 6q42 5 65.5 26t23.5 78v518h67v-517q0 -39 -9 -67.5t-26.5 -49t-46 -32t-66.5 -16.5z" />
    <glyph glyph-name="uni1E48" unicode="&#x1e48;" horiz-adv-x="748" 
d="M106 0v705h65l406 -603v0v603h65v-705h-66l-406 602h2v-602h-66zM233 -157v55h288v-55h-288z" />
    <glyph glyph-name="Ntilde" unicode="&#xd1;" horiz-adv-x="748" 
d="M106 0v705h65l406 -603v0v603h65v-705h-66l-406 602h2v-602h-66zM237 783l-47 3q3 57 31 91t73 34q30 0 55.5 -14.5t43.5 -26.5q15 -10 33 -20.5t35 -10.5q26 0 41 19t18 55l47 -2q-2 -58 -30.5 -91.5t-73.5 -33.5q-31 0 -55.5 14.5t-42.5 25.5q-15 11 -33.5 21.5
t-36.5 10.5q-25 0 -39.5 -19t-18.5 -56z" />
    <glyph glyph-name="Eng" unicode="&#x14a;" horiz-adv-x="748" 
d="M453 -192l-4 57l38 5q42 6 66.5 25.5t24.5 76.5v76l6 -58l-414 612h2v-602h-66v705h64l407 -603v0v603h65v-728q0 -29 -5.5 -53t-16.5 -43.5t-29 -33.5t-42.5 -23t-55.5 -12z" />
    <glyph glyph-name="O" unicode="O" horiz-adv-x="742" 
d="M371 -8q-70 0 -124 23.5t-91.5 70t-57.5 113.5t-20 153t19.5 153t57.5 114t92 70.5t124 23.5t124 -24t92 -70t57.5 -113t19.5 -153t-20 -153.5t-57.5 -114t-91.5 -70t-124 -23.5zM371 54q72 0 121 33t75.5 99.5t26.5 166.5t-26 166t-75.5 99t-121.5 33q-71 0 -120.5 -33
t-76 -99t-26.5 -167q0 -99 26.5 -165.5t76 -99.5t120.5 -33z" />
    <glyph glyph-name="Oacute" unicode="&#xd3;" horiz-adv-x="742" 
d="M371 -8q-70 0 -124 23.5t-91.5 70t-57.5 113.5t-20 153t19.5 153t57.5 114t92 70.5t124 23.5t124 -24t92 -70t57.5 -113t19.5 -153t-20 -153.5t-57.5 -114t-91.5 -70t-124 -23.5zM371 54q72 0 121 33t75.5 99.5t26.5 166.5t-26 166t-75.5 99t-121.5 33q-71 0 -120.5 -33
t-76 -99t-26.5 -167q0 -99 26.5 -165.5t76 -99.5t120.5 -33zM342 765l107 163h85l-134 -163h-58z" />
    <glyph glyph-name="Obreve" unicode="&#x14e;" horiz-adv-x="742" 
d="M371 -8q-70 0 -124 23.5t-91.5 70t-57.5 113.5t-20 153t19.5 153t57.5 114t92 70.5t124 23.5t124 -24t92 -70t57.5 -113t19.5 -153t-20 -153.5t-57.5 -114t-91.5 -70t-124 -23.5zM371 54q72 0 121 33t75.5 99.5t26.5 166.5t-26 166t-75.5 99t-121.5 33q-71 0 -120.5 -33
t-76 -99t-26.5 -167q0 -99 26.5 -165.5t76 -99.5t120.5 -33zM371 760q-65 0 -104.5 42t-44.5 121l49 6q3 -56 28 -85.5t72 -29.5q49 0 73.5 30.5t27.5 84.5l49 -6q-5 -79 -45 -121t-105 -42z" />
    <glyph glyph-name="Ocircumflex" unicode="&#xd4;" horiz-adv-x="742" 
d="M371 -8q-70 0 -124 23.5t-91.5 70t-57.5 113.5t-20 153t19.5 153t57.5 114t92 70.5t124 23.5t124 -24t92 -70t57.5 -113t19.5 -153t-20 -153.5t-57.5 -114t-91.5 -70t-124 -23.5zM371 54q72 0 121 33t75.5 99.5t26.5 166.5t-26 166t-75.5 99t-121.5 33q-71 0 -120.5 -33
t-76 -99t-26.5 -167q0 -99 26.5 -165.5t76 -99.5t120.5 -33zM224 765l114 163h66l114 -163h-54l-93 115l-93 -115h-54z" />
    <glyph glyph-name="uni1ED0" unicode="&#x1ed0;" horiz-adv-x="742" 
d="M371 -8q-70 0 -124 23.5t-91.5 70t-57.5 113.5t-20 153t19.5 153t57.5 114t92 70.5t124 23.5t124 -24t92 -70t57.5 -113t19.5 -153t-20 -153.5t-57.5 -114t-91.5 -70t-124 -23.5zM371 54q72 0 121 33t75.5 99.5t26.5 166.5t-26 166t-75.5 99t-121.5 33q-71 0 -120.5 -33
t-76 -99t-26.5 -167q0 -99 26.5 -165.5t76 -99.5t120.5 -33zM233 769l105 157h67l105 -157h-53l-86 109l-86 -109h-52zM458 877l74 150h73l-99 -150h-48z" />
    <glyph glyph-name="uni1ED8" unicode="&#x1ed8;" horiz-adv-x="742" 
d="M371 -8q-70 0 -124 23.5t-91.5 70t-57.5 113.5t-20 153t19.5 153t57.5 114t92 70.5t124 23.5t124 -24t92 -70t57.5 -113t19.5 -153t-20 -153.5t-57.5 -114t-91.5 -70t-124 -23.5zM371 54q72 0 121 33t75.5 99.5t26.5 166.5t-26 166t-75.5 99t-121.5 33q-71 0 -120.5 -33
t-76 -99t-26.5 -167q0 -99 26.5 -165.5t76 -99.5t120.5 -33zM330 -183v80h82v-80h-82zM224 765l114 163h66l114 -163h-54l-93 115l-93 -115h-54z" />
    <glyph glyph-name="uni1ED2" unicode="&#x1ed2;" horiz-adv-x="742" 
d="M371 -8q-70 0 -124 23.5t-91.5 70t-57.5 113.5t-20 153t19.5 153t57.5 114t92 70.5t124 23.5t124 -24t92 -70t57.5 -113t19.5 -153t-20 -153.5t-57.5 -114t-91.5 -70t-124 -23.5zM371 54q72 0 121 33t75.5 99.5t26.5 166.5t-26 166t-75.5 99t-121.5 33q-71 0 -120.5 -33
t-76 -99t-26.5 -167q0 -99 26.5 -165.5t76 -99.5t120.5 -33zM233 769l105 157h67l105 -157h-53l-86 109l-86 -109h-52zM496 877l-96 150h70l74 -150h-48z" />
    <glyph glyph-name="uni1ED4" unicode="&#x1ed4;" horiz-adv-x="742" 
d="M371 -8q-70 0 -124 23.5t-91.5 70t-57.5 113.5t-20 153t19.5 153t57.5 114t92 70.5t124 23.5t124 -24t92 -70t57.5 -113t19.5 -153t-20 -153.5t-57.5 -114t-91.5 -70t-124 -23.5zM371 54q72 0 121 33t75.5 99.5t26.5 166.5t-26 166t-75.5 99t-121.5 33q-71 0 -120.5 -33
t-76 -99t-26.5 -167q0 -99 26.5 -165.5t76 -99.5t120.5 -33zM233 769l105 150h67l105 -150h-53l-86 106l-86 -106h-52zM460 879q0 20 8.5 32t19.5 21.5t19.5 18t8.5 18.5q0 13 -12 18t-31 5q-12 0 -26 -3t-28 -10l-12 36q14 9 34 13.5t47 4.5q39 0 60.5 -14t21.5 -39
q0 -20 -9.5 -32t-21.5 -21.5t-21.5 -20t-9.5 -27.5h-48z" />
    <glyph glyph-name="uni1ED6" unicode="&#x1ed6;" horiz-adv-x="742" 
d="M371 -8q-70 0 -124 23.5t-91.5 70t-57.5 113.5t-20 153t19.5 153t57.5 114t92 70.5t124 23.5t124 -24t92 -70t57.5 -113t19.5 -153t-20 -153.5t-57.5 -114t-91.5 -70t-124 -23.5zM371 54q72 0 121 33t75.5 99.5t26.5 166.5t-26 166t-75.5 99t-121.5 33q-71 0 -120.5 -33
t-76 -99t-26.5 -167q0 -99 26.5 -165.5t76 -99.5t120.5 -33zM233 769l105 128h67l105 -128h-53l-86 86l-86 -86h-52zM268 928l-43 3q5 48 26.5 73.5t58.5 25.5q24 0 41 -10.5t30 -19.5q10 -7 23 -15t27 -8q18 0 28.5 12t14.5 43l43 -4q-4 -47 -25.5 -72.5t-59.5 -25.5
q-23 0 -40 10t-29 18q-14 10 -26 17.5t-26 7.5q-16 0 -27 -12t-16 -43z" />
    <glyph glyph-name="uni020C" unicode="&#x20c;" horiz-adv-x="742" 
d="M371 -8q-70 0 -124 23.5t-91.5 70t-57.5 113.5t-20 153t19.5 153t57.5 114t92 70.5t124 23.5t124 -24t92 -70t57.5 -113t19.5 -153t-20 -153.5t-57.5 -114t-91.5 -70t-124 -23.5zM371 54q72 0 121 33t75.5 99.5t26.5 166.5t-26 166t-75.5 99t-121.5 33q-71 0 -120.5 -33
t-76 -99t-26.5 -167q0 -99 26.5 -165.5t76 -99.5t120.5 -33zM406 765l-107 163h75l77 -163h-45zM290 765l-111 163h74l81 -163h-44z" />
    <glyph glyph-name="Odieresis" unicode="&#xd6;" horiz-adv-x="742" 
d="M371 -8q-70 0 -124 23.5t-91.5 70t-57.5 113.5t-20 153t19.5 153t57.5 114t92 70.5t124 23.5t124 -24t92 -70t57.5 -113t19.5 -153t-20 -153.5t-57.5 -114t-91.5 -70t-124 -23.5zM371 54q72 0 121 33t75.5 99.5t26.5 166.5t-26 166t-75.5 99t-121.5 33q-71 0 -120.5 -33
t-76 -99t-26.5 -167q0 -99 26.5 -165.5t76 -99.5t120.5 -33zM418 809v77h80v-77h-80zM244 809v77h80v-77h-80z" />
    <glyph glyph-name="uni022A" unicode="&#x22a;" horiz-adv-x="742" 
d="M371 -8q-70 0 -124 23.5t-91.5 70t-57.5 113.5t-20 153t19.5 153t57.5 114t92 70.5t124 23.5t124 -24t92 -70t57.5 -113t19.5 -153t-20 -153.5t-57.5 -114t-91.5 -70t-124 -23.5zM371 54q72 0 121 33t75.5 99.5t26.5 166.5t-26 166t-75.5 99t-121.5 33q-71 0 -120.5 -33
t-76 -99t-26.5 -167q0 -99 26.5 -165.5t76 -99.5t120.5 -33zM227 929v54h288v-54h-288zM245 800v72h80v-72h-80zM417 800v72h80v-72h-80z" />
    <glyph glyph-name="uni0230" unicode="&#x230;" horiz-adv-x="742" 
d="M371 -8q-70 0 -124 23.5t-91.5 70t-57.5 113.5t-20 153t19.5 153t57.5 114t92 70.5t124 23.5t124 -24t92 -70t57.5 -113t19.5 -153t-20 -153.5t-57.5 -114t-91.5 -70t-124 -23.5zM371 54q72 0 121 33t75.5 99.5t26.5 166.5t-26 166t-75.5 99t-121.5 33q-71 0 -120.5 -33
t-76 -99t-26.5 -167q0 -99 26.5 -165.5t76 -99.5t120.5 -33zM236 930v53h270v-53h-270zM330 800v72h83v-72h-83z" />
    <glyph glyph-name="uni1ECC" unicode="&#x1ecc;" horiz-adv-x="742" 
d="M371 -8q-70 0 -124 23.5t-91.5 70t-57.5 113.5t-20 153t19.5 153t57.5 114t92 70.5t124 23.5t124 -24t92 -70t57.5 -113t19.5 -153t-20 -153.5t-57.5 -114t-91.5 -70t-124 -23.5zM371 54q72 0 121 33t75.5 99.5t26.5 166.5t-26 166t-75.5 99t-121.5 33q-71 0 -120.5 -33
t-76 -99t-26.5 -167q0 -99 26.5 -165.5t76 -99.5t120.5 -33zM330 -183v80h82v-80h-82z" />
    <glyph glyph-name="Ograve" unicode="&#xd2;" horiz-adv-x="742" 
d="M371 -8q-70 0 -124 23.5t-91.5 70t-57.5 113.5t-20 153t19.5 153t57.5 114t92 70.5t124 23.5t124 -24t92 -70t57.5 -113t19.5 -153t-20 -153.5t-57.5 -114t-91.5 -70t-124 -23.5zM371 54q72 0 121 33t75.5 99.5t26.5 166.5t-26 166t-75.5 99t-121.5 33q-71 0 -120.5 -33
t-76 -99t-26.5 -167q0 -99 26.5 -165.5t76 -99.5t120.5 -33zM345 765l-134 163h82l107 -163h-55z" />
    <glyph glyph-name="uni1ECE" unicode="&#x1ece;" horiz-adv-x="742" 
d="M371 -8q-70 0 -124 23.5t-91.5 70t-57.5 113.5t-20 153t19.5 153t57.5 114t92 70.5t124 23.5t124 -24t92 -70t57.5 -113t19.5 -153t-20 -153.5t-57.5 -114t-91.5 -70t-124 -23.5zM371 54q72 0 121 33t75.5 99.5t26.5 166.5t-26 166t-75.5 99t-121.5 33q-71 0 -120.5 -33
t-76 -99t-26.5 -167q0 -99 26.5 -165.5t76 -99.5t120.5 -33zM346 765v18q0 19 9 31.5t20 22t20 18.5t9 20q0 12 -9 17t-28 5q-15 0 -31.5 -2.5t-33.5 -9.5l-12 40q17 8 38.5 13t46.5 5q41 0 64 -15.5t23 -43.5q0 -22 -10 -34.5t-23 -22t-23 -20.5t-10 -29v-13h-50z" />
    <glyph glyph-name="Ohorn" unicode="&#x1a0;" horiz-adv-x="742" 
d="M371 -8q-70 0 -124 23.5t-91.5 70t-57.5 113.5t-20 153t19.5 153t57.5 114t92 70.5t124 23.5t124 -24t92 -70t57.5 -113t19.5 -153t-20 -153.5t-57.5 -114t-91.5 -70t-124 -23.5zM371 54q72 0 121 33t75.5 99.5t26.5 166.5t-26 166t-75.5 99t-121.5 33q-71 0 -120.5 -33
t-76 -99t-26.5 -167q0 -99 26.5 -165.5t76 -99.5t120.5 -33zM469 657l-44 52q24 -2 41 -3t33 -1q40 0 61.5 14t29 39.5t7.5 59.5v17h70v-27q0 -45 -16.5 -79t-45.5 -53t-69 -19h-67z" />
    <glyph glyph-name="uni1EDA" unicode="&#x1eda;" horiz-adv-x="742" 
d="M371 -8q-70 0 -124 23.5t-91.5 70t-57.5 113.5t-20 153t19.5 153t57.5 114t92 70.5t124 23.5t124 -24t92 -70t57.5 -113t19.5 -153t-20 -153.5t-57.5 -114t-91.5 -70t-124 -23.5zM371 54q72 0 121 33t75.5 99.5t26.5 166.5t-26 166t-75.5 99t-121.5 33q-71 0 -120.5 -33
t-76 -99t-26.5 -167q0 -99 26.5 -165.5t76 -99.5t120.5 -33zM469 657l-44 52q24 -2 41 -3t33 -1q40 0 61.5 14t29 39.5t7.5 59.5v17h70v-27q0 -45 -16.5 -79t-45.5 -53t-69 -19h-67zM322 765l107 163h85l-134 -163h-58z" />
    <glyph glyph-name="uni1EE2" unicode="&#x1ee2;" horiz-adv-x="742" 
d="M371 -8q-70 0 -124 23.5t-91.5 70t-57.5 113.5t-20 153t19.5 153t57.5 114t92 70.5t124 23.5t124 -24t92 -70t57.5 -113t19.5 -153t-20 -153.5t-57.5 -114t-91.5 -70t-124 -23.5zM371 54q72 0 121 33t75.5 99.5t26.5 166.5t-26 166t-75.5 99t-121.5 33q-71 0 -120.5 -33
t-76 -99t-26.5 -167q0 -99 26.5 -165.5t76 -99.5t120.5 -33zM469 657l-44 52q24 -2 41 -3t33 -1q40 0 61.5 14t29 39.5t7.5 59.5v17h70v-27q0 -45 -16.5 -79t-45.5 -53t-69 -19h-67zM330 -183v80h82v-80h-82z" />
    <glyph glyph-name="uni1EDC" unicode="&#x1edc;" horiz-adv-x="742" 
d="M371 -8q-70 0 -124 23.5t-91.5 70t-57.5 113.5t-20 153t19.5 153t57.5 114t92 70.5t124 23.5t124 -24t92 -70t57.5 -113t19.5 -153t-20 -153.5t-57.5 -114t-91.5 -70t-124 -23.5zM371 54q72 0 121 33t75.5 99.5t26.5 166.5t-26 166t-75.5 99t-121.5 33q-71 0 -120.5 -33
t-76 -99t-26.5 -167q0 -99 26.5 -165.5t76 -99.5t120.5 -33zM469 657l-44 52q24 -2 41 -3t33 -1q40 0 61.5 14t29 39.5t7.5 59.5v17h70v-27q0 -45 -16.5 -79t-45.5 -53t-69 -19h-67zM325 765l-134 163h82l107 -163h-55z" />
    <glyph glyph-name="uni1EDE" unicode="&#x1ede;" horiz-adv-x="742" 
d="M371 -8q-70 0 -124 23.5t-91.5 70t-57.5 113.5t-20 153t19.5 153t57.5 114t92 70.5t124 23.5t124 -24t92 -70t57.5 -113t19.5 -153t-20 -153.5t-57.5 -114t-91.5 -70t-124 -23.5zM371 54q72 0 121 33t75.5 99.5t26.5 166.5t-26 166t-75.5 99t-121.5 33q-71 0 -120.5 -33
t-76 -99t-26.5 -167q0 -99 26.5 -165.5t76 -99.5t120.5 -33zM469 657l-44 52q24 -2 41 -3t33 -1q40 0 61.5 14t29 39.5t7.5 59.5v17h70v-27q0 -45 -16.5 -79t-45.5 -53t-69 -19h-67zM326 765v18q0 19 9 31.5t20 22t20 18.5t9 20q0 12 -9 17t-28 5q-15 0 -31.5 -2.5
t-33.5 -9.5l-12 40q17 8 38.5 13t46.5 5q41 0 64 -15.5t23 -43.5q0 -22 -10 -34.5t-23 -22t-23 -20.5t-10 -29v-13h-50z" />
    <glyph glyph-name="uni1EE0" unicode="&#x1ee0;" horiz-adv-x="742" 
d="M371 -8q-70 0 -124 23.5t-91.5 70t-57.5 113.5t-20 153t19.5 153t57.5 114t92 70.5t124 23.5t124 -24t92 -70t57.5 -113t19.5 -153t-20 -153.5t-57.5 -114t-91.5 -70t-124 -23.5zM371 54q72 0 121 33t75.5 99.5t26.5 166.5t-26 166t-75.5 99t-121.5 33q-71 0 -120.5 -33
t-76 -99t-26.5 -167q0 -99 26.5 -165.5t76 -99.5t120.5 -33zM469 657l-44 52q24 -2 41 -3t33 -1q40 0 61.5 14t29 39.5t7.5 59.5v17h70v-27q0 -45 -16.5 -79t-45.5 -53t-69 -19h-67zM207 784l-46 4q2 37 14.5 64.5t34.5 42.5t52 15t52 -13.5t39 -27.5q15 -10 30.5 -20.5
t33.5 -10.5q27 0 40 21t16 54l46 -3q-2 -37 -14.5 -64.5t-35 -42.5t-51.5 -15t-51 13.5t-40 27.5q-14 10 -30 20.5t-34 10.5q-27 0 -39.5 -20t-16.5 -56z" />
    <glyph glyph-name="Ohungarumlaut" unicode="&#x150;" horiz-adv-x="742" 
d="M371 -8q-70 0 -124 23.5t-91.5 70t-57.5 113.5t-20 153t19.5 153t57.5 114t92 70.5t124 23.5t124 -24t92 -70t57.5 -113t19.5 -153t-20 -153.5t-57.5 -114t-91.5 -70t-124 -23.5zM371 54q72 0 121 33t75.5 99.5t26.5 166.5t-26 166t-75.5 99t-121.5 33q-71 0 -120.5 -33
t-76 -99t-26.5 -167q0 -99 26.5 -165.5t76 -99.5t120.5 -33zM291 765l77 163h75l-107 -163h-45zM407 765l81 163h75l-112 -163h-44z" />
    <glyph glyph-name="uni020E" unicode="&#x20e;" horiz-adv-x="742" 
d="M371 -8q-70 0 -124 23.5t-91.5 70t-57.5 113.5t-20 153t19.5 153t57.5 114t92 70.5t124 23.5t124 -24t92 -70t57.5 -113t19.5 -153t-20 -153.5t-57.5 -114t-91.5 -70t-124 -23.5zM371 54q72 0 121 33t75.5 99.5t26.5 166.5t-26 166t-75.5 99t-121.5 33q-71 0 -120.5 -33
t-76 -99t-26.5 -167q0 -99 26.5 -165.5t76 -99.5t120.5 -33zM272 760l-50 6q5 79 44.5 121t104.5 42q66 0 106 -43t44 -120l-49 -6q-3 53 -27 83.5t-74 30.5q-46 0 -71 -29t-28 -85z" />
    <glyph glyph-name="Omacron" unicode="&#x14c;" horiz-adv-x="742" 
d="M371 -8q-70 0 -124 23.5t-91.5 70t-57.5 113.5t-20 153t19.5 153t57.5 114t92 70.5t124 23.5t124 -24t92 -70t57.5 -113t19.5 -153t-20 -153.5t-57.5 -114t-91.5 -70t-124 -23.5zM371 54q72 0 121 33t75.5 99.5t26.5 166.5t-26 166t-75.5 99t-121.5 33q-71 0 -120.5 -33
t-76 -99t-26.5 -167q0 -99 26.5 -165.5t76 -99.5t120.5 -33zM222 816v56h298v-56h-298z" />
    <glyph glyph-name="uni1E52" unicode="&#x1e52;" horiz-adv-x="742" 
d="M371 -8q-70 0 -124 23.5t-91.5 70t-57.5 113.5t-20 153t19.5 153t57.5 114t92 70.5t124 23.5t124 -24t92 -70t57.5 -113t19.5 -153t-20 -153.5t-57.5 -114t-91.5 -70t-124 -23.5zM371 54q72 0 121 33t75.5 99.5t26.5 166.5t-26 166t-75.5 99t-121.5 33q-71 0 -120.5 -33
t-76 -99t-26.5 -167q0 -99 26.5 -165.5t76 -99.5t120.5 -33zM234 793v54h274v-54h-274zM341 886l80 146h82l-108 -146h-54z" />
    <glyph glyph-name="uni1E50" unicode="&#x1e50;" horiz-adv-x="742" 
d="M371 -8q-70 0 -124 23.5t-91.5 70t-57.5 113.5t-20 153t19.5 153t57.5 114t92 70.5t124 23.5t124 -24t92 -70t57.5 -113t19.5 -153t-20 -153.5t-57.5 -114t-91.5 -70t-124 -23.5zM371 54q72 0 121 33t75.5 99.5t26.5 166.5t-26 166t-75.5 99t-121.5 33q-71 0 -120.5 -33
t-76 -99t-26.5 -167q0 -99 26.5 -165.5t76 -99.5t120.5 -33zM347 886l-108 146h82l80 -146h-54zM234 793v54h274v-54h-274z" />
    <glyph glyph-name="uni01EA" unicode="&#x1ea;" horiz-adv-x="742" 
d="M371 -8q-70 0 -124 23.5t-91.5 70t-57.5 113.5t-20 153t19.5 153t57.5 114t92 70.5t124 23.5t124 -24t92 -70t57.5 -113t19.5 -153t-20 -153.5t-57.5 -114t-91.5 -70t-124 -23.5zM371 54q72 0 121 33t75.5 99.5t26.5 166.5t-26 166t-75.5 99t-121.5 33q-71 0 -120.5 -33
t-76 -99t-26.5 -167q0 -99 26.5 -165.5t76 -99.5t120.5 -33zM415 -194q-43 0 -71 25t-28 68q0 39 25 73.5t66 57.5l26 -30q-16 -8 -30 -22t-22.5 -31.5t-8.5 -37.5q0 -28 14.5 -40.5t36.5 -12.5q10 0 22.5 3t24.5 9l15 -46q-13 -7 -30.5 -11.5t-39.5 -4.5z" />
    <glyph glyph-name="Oslash" unicode="&#xd8;" horiz-adv-x="742" 
d="M371 -8q-70 0 -124 23.5t-91.5 70t-57.5 113.5t-20 153t19.5 153t57.5 114t92 70.5t124 23.5t124 -24t92 -70t57.5 -113t19.5 -153t-20 -153.5t-57.5 -114t-91.5 -70t-124 -23.5zM371 54q72 0 121 33t75.5 99.5t26.5 166.5t-26 166t-75.5 99t-121.5 33q-71 0 -120.5 -33
t-76 -99t-26.5 -167q0 -99 26.5 -165.5t76 -99.5t120.5 -33zM203 -42l-55 30l50 93l24 36l270 514l13 34l49 90l55 -30l-51 -93l-23 -36l-270 -514l-14 -35z" />
    <glyph glyph-name="Oslashacute" unicode="&#x1fe;" horiz-adv-x="742" 
d="M371 -8q-70 0 -124 23.5t-91.5 70t-57.5 113.5t-20 153t19.5 153t57.5 114t92 70.5t124 23.5t124 -24t92 -70t57.5 -113t19.5 -153t-20 -153.5t-57.5 -114t-91.5 -70t-124 -23.5zM371 54q72 0 121 33t75.5 99.5t26.5 166.5t-26 166t-75.5 99t-121.5 33q-71 0 -120.5 -33
t-76 -99t-26.5 -167q0 -99 26.5 -165.5t76 -99.5t120.5 -33zM203 -42l-55 30l50 93l24 36l270 514l13 34l49 90l55 -30l-51 -93l-23 -36l-270 -514l-14 -35zM342 765l107 163h85l-134 -163h-58z" />
    <glyph glyph-name="Otilde" unicode="&#xd5;" horiz-adv-x="742" 
d="M371 -8q-70 0 -124 23.5t-91.5 70t-57.5 113.5t-20 153t19.5 153t57.5 114t92 70.5t124 23.5t124 -24t92 -70t57.5 -113t19.5 -153t-20 -153.5t-57.5 -114t-91.5 -70t-124 -23.5zM371 54q72 0 121 33t75.5 99.5t26.5 166.5t-26 166t-75.5 99t-121.5 33q-71 0 -120.5 -33
t-76 -99t-26.5 -167q0 -99 26.5 -165.5t76 -99.5t120.5 -33zM230 783l-47 3q3 57 31 91t73 34q30 0 55.5 -14.5t43.5 -26.5q15 -10 33 -20.5t35 -10.5q26 0 41 19t18 55l47 -2q-2 -58 -30.5 -91.5t-73.5 -33.5q-31 0 -55.5 14.5t-42.5 25.5q-15 11 -33.5 21.5t-36.5 10.5
q-25 0 -39.5 -19t-18.5 -56z" />
    <glyph glyph-name="uni1E4C" unicode="&#x1e4c;" horiz-adv-x="742" 
d="M371 -8q-70 0 -124 23.5t-91.5 70t-57.5 113.5t-20 153t19.5 153t57.5 114t92 70.5t124 23.5t124 -24t92 -70t57.5 -113t19.5 -153t-20 -153.5t-57.5 -114t-91.5 -70t-124 -23.5zM371 54q72 0 121 33t75.5 99.5t26.5 166.5t-26 166t-75.5 99t-121.5 33q-71 0 -120.5 -33
t-76 -99t-26.5 -167q0 -99 26.5 -165.5t76 -99.5t120.5 -33zM344 884l80 146h82l-108 -146h-54zM432 768q-23 0 -40 10t-30 19q-10 7 -23 15t-28 8q-19 0 -28.5 -13t-14.5 -41l-43 3q3 32 14 54t29 33.5t42 11.5q25 0 42.5 -10.5t30.5 -19.5q10 -7 22.5 -14.5t25.5 -7.5
q20 0 30 13.5t13 40.5l43 -3q-4 -49 -26 -74t-59 -25z" />
    <glyph glyph-name="uni1E4E" unicode="&#x1e4e;" horiz-adv-x="742" 
d="M371 -8q-70 0 -124 23.5t-91.5 70t-57.5 113.5t-20 153t19.5 153t57.5 114t92 70.5t124 23.5t124 -24t92 -70t57.5 -113t19.5 -153t-20 -153.5t-57.5 -114t-91.5 -70t-124 -23.5zM371 54q72 0 121 33t75.5 99.5t26.5 166.5t-26 166t-75.5 99t-121.5 33q-71 0 -120.5 -33
t-76 -99t-26.5 -167q0 -99 26.5 -165.5t76 -99.5t120.5 -33zM432 768q-23 0 -40 10t-30 19q-10 7 -23 15t-28 8q-19 0 -28.5 -13t-14.5 -41l-43 3q3 32 14 54t29 33.5t42 11.5q25 0 42.5 -10.5t30.5 -19.5q10 -7 22.5 -14.5t25.5 -7.5q20 0 30 13.5t13 40.5l43 -3
q-4 -49 -26 -74t-59 -25zM245 916v72h80v-72h-80zM417 916v72h80v-72h-80z" />
    <glyph glyph-name="uni022C" unicode="&#x22c;" horiz-adv-x="742" 
d="M371 -8q-70 0 -124 23.5t-91.5 70t-57.5 113.5t-20 153t19.5 153t57.5 114t92 70.5t124 23.5t124 -24t92 -70t57.5 -113t19.5 -153t-20 -153.5t-57.5 -114t-91.5 -70t-124 -23.5zM371 54q72 0 121 33t75.5 99.5t26.5 166.5t-26 166t-75.5 99t-121.5 33q-71 0 -120.5 -33
t-76 -99t-26.5 -167q0 -99 26.5 -165.5t76 -99.5t120.5 -33zM227 929v52h288v-52h-288zM432 768q-23 0 -40 10t-30 19q-10 7 -23 15t-28 8q-19 0 -28.5 -13t-14.5 -41l-43 3q3 32 14 54t29 33.5t42 11.5q25 0 42.5 -10.5t30.5 -19.5q10 -7 22.5 -14.5t25.5 -7.5
q20 0 30 13.5t13 40.5l43 -3q-4 -49 -26 -74t-59 -25z" />
    <glyph glyph-name="OE" unicode="&#x152;" horiz-adv-x="1032" 
d="M395 0q-77 0 -136.5 23t-99.5 68t-60.5 110.5t-20.5 150.5t21 150.5t61 110.5t99.5 68.5t135.5 23.5h557v-61h-345v-256h327v-61h-327v-266h345v-61h-557zM397 61h143v583h-143q-122 0 -185.5 -70.5t-63.5 -221.5q0 -152 63.5 -221.5t185.5 -69.5z" />
    <glyph glyph-name="P" unicode="P" horiz-adv-x="640" 
d="M106 0v705h254q69 0 117.5 -25t74.5 -71t26 -112q0 -65 -26.5 -112t-74.5 -72.5t-117 -25.5h-186v-287h-68zM174 347h177q77 0 117.5 37t40.5 113q0 75 -40.5 111.5t-117.5 36.5h-177v-298z" />
    <glyph glyph-name="Thorn" unicode="&#xde;" horiz-adv-x="628" 
d="M106 0v705h68v-133h186q69 0 117.5 -24.5t74 -70t25.5 -110.5t-26 -111.5t-74 -71.5t-117 -25h-186v-159h-68zM174 220h177q77 0 117.5 35.5t40.5 111.5q0 75 -40.5 109.5t-117.5 34.5h-177v-291z" />
    <glyph glyph-name="Q" unicode="Q" horiz-adv-x="742" 
d="M556 -195l-71 125q-17 29 -42 45.5t-64 16.5l51 23q31 0 52.5 -5.5t38 -21t33.5 -44.5l61 -108zM371 -8q-70 0 -124 23.5t-91.5 70t-57.5 113.5t-20 153t19.5 153t57.5 114t92 70.5t124 23.5t124 -24t92 -70t57.5 -113t19.5 -153t-20 -153.5t-57.5 -114t-91.5 -70
t-124 -23.5zM371 54q72 0 121.5 33t75.5 99.5t26 166.5t-26 166t-75.5 99t-121.5 33q-71 0 -120.5 -33t-76 -99t-26.5 -166t26.5 -166.5t76 -99.5t120.5 -33z" />
    <glyph glyph-name="R" unicode="R" horiz-adv-x="666" 
d="M106 0v705h256q102 0 158 -50.5t56 -146.5q0 -55 -18.5 -95.5t-51.5 -65.5t-78 -33l-1 -2l6 -2q19 -6 34 -22t30 -49l114 -239h-74l-106 223q-14 30 -30.5 47t-39.5 23.5t-57 6.5h-130v-300h-68zM174 359h188q75 0 110.5 37t35.5 111q0 72 -37 105t-115 33h-182v-286z
" />
    <glyph glyph-name="Racute" unicode="&#x154;" horiz-adv-x="666" 
d="M106 0v705h256q102 0 158 -50.5t56 -146.5q0 -55 -18.5 -95.5t-51.5 -65.5t-78 -33l-1 -2l6 -2q19 -6 34 -22t30 -49l114 -239h-74l-106 223q-14 30 -30.5 47t-39.5 23.5t-57 6.5h-130v-300h-68zM174 359h188q75 0 110.5 37t35.5 111q0 72 -37 105t-115 33h-182v-286z
M304 765l107 163h85l-134 -163h-58z" />
    <glyph glyph-name="Rcaron" unicode="&#x158;" horiz-adv-x="666" 
d="M106 0v705h256q102 0 158 -50.5t56 -146.5q0 -55 -18.5 -95.5t-51.5 -65.5t-78 -33l-1 -2l6 -2q19 -6 34 -22t30 -49l114 -239h-74l-106 223q-14 30 -30.5 47t-39.5 23.5t-57 6.5h-130v-300h-68zM174 359h188q75 0 110.5 37t35.5 111q0 72 -37 105t-115 33h-182v-286z
M300 765l-114 163h54l93 -115l93 115h54l-114 -163h-66z" />
    <glyph glyph-name="uni0156" unicode="&#x156;" horiz-adv-x="666" 
d="M106 0v705h256q102 0 158 -50.5t56 -146.5q0 -55 -18.5 -95.5t-51.5 -65.5t-78 -33l-1 -2l6 -2q19 -6 34 -22t30 -49l114 -239h-74l-106 223q-14 30 -30.5 47t-39.5 23.5t-57 6.5h-130v-300h-68zM174 359h188q75 0 110.5 37t35.5 111q0 72 -37 105t-115 33h-182v-286z
M329 -281l-33 25q21 21 28.5 46t7.5 54l10 -10h-52v83h87v-64q0 -40 -11 -73.5t-37 -60.5z" />
    <glyph glyph-name="uni0210" unicode="&#x210;" horiz-adv-x="666" 
d="M106 0v705h256q102 0 158 -50.5t56 -146.5q0 -55 -18.5 -95.5t-51.5 -65.5t-78 -33l-1 -2l6 -2q19 -6 34 -22t30 -49l114 -239h-74l-106 223q-14 30 -30.5 47t-39.5 23.5t-57 6.5h-130v-300h-68zM174 359h188q75 0 110.5 37t35.5 111q0 72 -37 105t-115 33h-182v-286z
M368 765l-107 163h75l77 -163h-45zM252 765l-111 163h74l81 -163h-44z" />
    <glyph glyph-name="uni1E5A" unicode="&#x1e5a;" horiz-adv-x="666" 
d="M106 0v705h256q102 0 158 -50.5t56 -146.5q0 -55 -18.5 -95.5t-51.5 -65.5t-78 -33l-1 -2l6 -2q19 -6 34 -22t30 -49l114 -239h-74l-106 223q-14 30 -30.5 47t-39.5 23.5t-57 6.5h-130v-300h-68zM174 359h188q75 0 110.5 37t35.5 111q0 72 -37 105t-115 33h-182v-286z
M293 -183v80h82v-80h-82z" />
    <glyph glyph-name="uni0212" unicode="&#x212;" horiz-adv-x="666" 
d="M106 0v705h256q102 0 158 -50.5t56 -146.5q0 -55 -18.5 -95.5t-51.5 -65.5t-78 -33l-1 -2l6 -2q19 -6 34 -22t30 -49l114 -239h-74l-106 223q-14 30 -30.5 47t-39.5 23.5t-57 6.5h-130v-300h-68zM174 359h188q75 0 110.5 37t35.5 111q0 72 -37 105t-115 33h-182v-286z
M234 760l-50 6q5 79 44.5 121t104.5 42q66 0 106 -43t44 -120l-49 -6q-3 53 -27 83.5t-74 30.5q-46 0 -71 -29t-28 -85z" />
    <glyph glyph-name="uni1E5E" unicode="&#x1e5e;" horiz-adv-x="666" 
d="M106 0v705h256q102 0 158 -50.5t56 -146.5q0 -55 -18.5 -95.5t-51.5 -65.5t-78 -33l-1 -2l6 -2q19 -6 34 -22t30 -49l114 -239h-74l-106 223q-14 30 -30.5 47t-39.5 23.5t-57 6.5h-130v-300h-68zM174 359h188q75 0 110.5 37t35.5 111q0 72 -37 105t-115 33h-182v-286z
M190 -157v55h288v-55h-288z" />
    <glyph glyph-name="S" unicode="S" horiz-adv-x="606" 
d="M315 -8q-52 0 -99 8t-86.5 26t-68.5 45l27 56q32 -28 68 -44t76.5 -22.5t83.5 -6.5q75 0 119 34.5t44 99.5q0 35 -14.5 57.5t-44 37.5t-75.5 26l-107 25q-88 21 -125 67.5t-37 115.5q0 60 31.5 104t87 68t127.5 24q45 0 84 -9t71 -27.5t58 -45.5l-27 -57q-38 42 -84 59.5
t-101 17.5q-50 0 -91 -15.5t-64.5 -44.5t-23.5 -74q0 -47 26.5 -76.5t88.5 -44.5l107 -25q93 -21 136.5 -66t43.5 -114q0 -58 -28.5 -103.5t-80.5 -70.5t-122 -25z" />
    <glyph glyph-name="Sacute" unicode="&#x15a;" horiz-adv-x="606" 
d="M315 -8q-52 0 -99 8t-86.5 26t-68.5 45l27 56q32 -28 68 -44t76.5 -22.5t83.5 -6.5q75 0 119 34.5t44 99.5q0 35 -14.5 57.5t-44 37.5t-75.5 26l-107 25q-88 21 -125 67.5t-37 115.5q0 60 31.5 104t87 68t127.5 24q45 0 84 -9t71 -27.5t58 -45.5l-27 -57q-38 42 -84 59.5
t-101 17.5q-50 0 -91 -15.5t-64.5 -44.5t-23.5 -74q0 -47 26.5 -76.5t88.5 -44.5l107 -25q93 -21 136.5 -66t43.5 -114q0 -58 -28.5 -103.5t-80.5 -70.5t-122 -25zM289 765l107 163h85l-134 -163h-58z" />
    <glyph glyph-name="uni1E64" unicode="&#x1e64;" horiz-adv-x="606" 
d="M315 -8q-52 0 -99 8t-86.5 26t-68.5 45l27 56q32 -28 68 -44t76.5 -22.5t83.5 -6.5q75 0 119 34.5t44 99.5q0 35 -14.5 57.5t-44 37.5t-75.5 26l-107 25q-88 21 -125 67.5t-37 115.5q0 60 31.5 104t87 68t127.5 24q45 0 84 -9t71 -27.5t58 -45.5l-27 -57q-38 42 -84 59.5
t-101 17.5q-50 0 -91 -15.5t-64.5 -44.5t-23.5 -74q0 -47 26.5 -76.5t88.5 -44.5l107 -25q93 -21 136.5 -66t43.5 -114q0 -58 -28.5 -103.5t-80.5 -70.5t-122 -25zM236 964v74h83v-74h-83zM290 765l91 196h82l-117 -196h-56z" />
    <glyph glyph-name="Scaron" unicode="&#x160;" horiz-adv-x="606" 
d="M315 -8q-52 0 -99 8t-86.5 26t-68.5 45l27 56q32 -28 68 -44t76.5 -22.5t83.5 -6.5q75 0 119 34.5t44 99.5q0 35 -14.5 57.5t-44 37.5t-75.5 26l-107 25q-88 21 -125 67.5t-37 115.5q0 60 31.5 104t87 68t127.5 24q45 0 84 -9t71 -27.5t58 -45.5l-27 -57q-38 42 -84 59.5
t-101 17.5q-50 0 -91 -15.5t-64.5 -44.5t-23.5 -74q0 -47 26.5 -76.5t88.5 -44.5l107 -25q93 -21 136.5 -66t43.5 -114q0 -58 -28.5 -103.5t-80.5 -70.5t-122 -25zM285 765l-114 163h54l93 -115l93 115h54l-114 -163h-66z" />
    <glyph glyph-name="uni1E66" unicode="&#x1e66;" horiz-adv-x="606" 
d="M315 -8q-52 0 -99 8t-86.5 26t-68.5 45l27 56q32 -28 68 -44t76.5 -22.5t83.5 -6.5q75 0 119 34.5t44 99.5q0 35 -14.5 57.5t-44 37.5t-75.5 26l-107 25q-88 21 -125 67.5t-37 115.5q0 60 31.5 104t87 68t127.5 24q45 0 84 -9t71 -27.5t58 -45.5l-27 -57q-38 42 -84 59.5
t-101 17.5q-50 0 -91 -15.5t-64.5 -44.5t-23.5 -74q0 -47 26.5 -76.5t88.5 -44.5l107 -25q93 -21 136.5 -66t43.5 -114q0 -58 -28.5 -103.5t-80.5 -70.5t-122 -25zM284 767l-103 160h53l84 -113l85 113h52l-103 -160h-68zM276 974v74h86v-74h-86z" />
    <glyph glyph-name="Scedilla" unicode="&#x15e;" horiz-adv-x="606" 
d="M315 -8q-52 0 -99 8t-86.5 26t-68.5 45l27 56q32 -28 68 -44t76.5 -22.5t83.5 -6.5q75 0 119 34.5t44 99.5q0 35 -14.5 57.5t-44 37.5t-75.5 26l-107 25q-88 21 -125 67.5t-37 115.5q0 60 31.5 104t87 68t127.5 24q45 0 84 -9t71 -27.5t58 -45.5l-27 -57q-38 42 -84 59.5
t-101 17.5q-50 0 -91 -15.5t-64.5 -44.5t-23.5 -74q0 -47 26.5 -76.5t88.5 -44.5l107 -25q93 -21 136.5 -66t43.5 -114q0 -58 -28.5 -103.5t-80.5 -70.5t-122 -25zM306 -193q-22 0 -44.5 5t-37.5 14l12 41q16 -9 31.5 -13.5t36.5 -4.5q27 0 42 9.5t15 29.5q0 15 -9.5 23.5
t-28.5 8.5q-8 0 -19.5 -2.5t-24.5 -6.5l-15 14l15 95h44l-13 -77l-21 7q10 3 23.5 5t26.5 2q20 0 37.5 -8t27.5 -23.5t10 -37.5q0 -25 -13.5 -43.5t-38 -28t-56.5 -9.5z" />
    <glyph glyph-name="Scircumflex" unicode="&#x15c;" horiz-adv-x="606" 
d="M315 -8q-52 0 -99 8t-86.5 26t-68.5 45l27 56q32 -28 68 -44t76.5 -22.5t83.5 -6.5q75 0 119 34.5t44 99.5q0 35 -14.5 57.5t-44 37.5t-75.5 26l-107 25q-88 21 -125 67.5t-37 115.5q0 60 31.5 104t87 68t127.5 24q45 0 84 -9t71 -27.5t58 -45.5l-27 -57q-38 42 -84 59.5
t-101 17.5q-50 0 -91 -15.5t-64.5 -44.5t-23.5 -74q0 -47 26.5 -76.5t88.5 -44.5l107 -25q93 -21 136.5 -66t43.5 -114q0 -58 -28.5 -103.5t-80.5 -70.5t-122 -25zM171 765l114 163h66l114 -163h-54l-93 115l-93 -115h-54z" />
    <glyph glyph-name="uni0218" unicode="&#x218;" horiz-adv-x="606" 
d="M315 -8q-52 0 -99 8t-86.5 26t-68.5 45l27 56q32 -28 68 -44t76.5 -22.5t83.5 -6.5q75 0 119 34.5t44 99.5q0 35 -14.5 57.5t-44 37.5t-75.5 26l-107 25q-88 21 -125 67.5t-37 115.5q0 60 31.5 104t87 68t127.5 24q45 0 84 -9t71 -27.5t58 -45.5l-27 -57q-38 42 -84 59.5
t-101 17.5q-50 0 -91 -15.5t-64.5 -44.5t-23.5 -74q0 -47 26.5 -76.5t88.5 -44.5l107 -25q93 -21 136.5 -66t43.5 -114q0 -58 -28.5 -103.5t-80.5 -70.5t-122 -25zM297 -281l-33 25q21 21 28.5 46t7.5 54l10 -10h-52v83h87v-64q0 -40 -11 -73.5t-37 -60.5z" />
    <glyph glyph-name="uni1E60" unicode="&#x1e60;" horiz-adv-x="606" 
d="M315 -8q-52 0 -99 8t-86.5 26t-68.5 45l27 56q32 -28 68 -44t76.5 -22.5t83.5 -6.5q75 0 119 34.5t44 99.5q0 35 -14.5 57.5t-44 37.5t-75.5 26l-107 25q-88 21 -125 67.5t-37 115.5q0 60 31.5 104t87 68t127.5 24q45 0 84 -9t71 -27.5t58 -45.5l-27 -57q-38 42 -84 59.5
t-101 17.5q-50 0 -91 -15.5t-64.5 -44.5t-23.5 -74q0 -47 26.5 -76.5t88.5 -44.5l107 -25q93 -21 136.5 -66t43.5 -114q0 -58 -28.5 -103.5t-80.5 -70.5t-122 -25zM274 811v85h87v-85h-87z" />
    <glyph glyph-name="uni1E62" unicode="&#x1e62;" horiz-adv-x="606" 
d="M315 -8q-52 0 -99 8t-86.5 26t-68.5 45l27 56q32 -28 68 -44t76.5 -22.5t83.5 -6.5q75 0 119 34.5t44 99.5q0 35 -14.5 57.5t-44 37.5t-75.5 26l-107 25q-88 21 -125 67.5t-37 115.5q0 60 31.5 104t87 68t127.5 24q45 0 84 -9t71 -27.5t58 -45.5l-27 -57q-38 42 -84 59.5
t-101 17.5q-50 0 -91 -15.5t-64.5 -44.5t-23.5 -74q0 -47 26.5 -76.5t88.5 -44.5l107 -25q93 -21 136.5 -66t43.5 -114q0 -58 -28.5 -103.5t-80.5 -70.5t-122 -25zM261 -183v80h82v-80h-82z" />
    <glyph glyph-name="uni1E68" unicode="&#x1e68;" horiz-adv-x="606" 
d="M315 -8q-52 0 -99 8t-86.5 26t-68.5 45l27 56q32 -28 68 -44t76.5 -22.5t83.5 -6.5q75 0 119 34.5t44 99.5q0 35 -14.5 57.5t-44 37.5t-75.5 26l-107 25q-88 21 -125 67.5t-37 115.5q0 60 31.5 104t87 68t127.5 24q45 0 84 -9t71 -27.5t58 -45.5l-27 -57q-38 42 -84 59.5
t-101 17.5q-50 0 -91 -15.5t-64.5 -44.5t-23.5 -74q0 -47 26.5 -76.5t88.5 -44.5l107 -25q93 -21 136.5 -66t43.5 -114q0 -58 -28.5 -103.5t-80.5 -70.5t-122 -25zM261 -183v80h82v-80h-82zM274 811v85h87v-85h-87z" />
    <glyph glyph-name="uni1E9E" unicode="&#x1e9e;" horiz-adv-x="705" 
d="M411 -8q-51 0 -92.5 15.5t-79.5 45.5l23 55q39 -30 70.5 -42.5t73.5 -12.5q70 0 110 36t40 103q0 69 -42 102t-118 33h-113v59h89q40 0 72.5 15.5t52 46t19.5 76.5q0 65 -40.5 96.5t-114.5 31.5q-95 0 -141.5 -47t-46.5 -150v-455h-67v460q0 82 29.5 139t86 86t138.5 29
q71 0 121 -23t76.5 -64t26.5 -98q0 -38 -12.5 -70t-34.5 -56t-50 -38v-1q61 -12 99 -58.5t38 -116.5q0 -58 -25.5 -102.5t-73 -69.5t-114.5 -25z" />
    <glyph glyph-name="T" unicode="T" horiz-adv-x="591" 
d="M262 0v643h-233v62h533v-62h-233v-643h-67z" />
    <glyph glyph-name="Tbar" unicode="&#x166;" horiz-adv-x="591" 
d="M262 0v643h-233v62h533v-62h-233v-643h-67zM127 323v58h336v-58h-336z" />
    <glyph glyph-name="Tcaron" unicode="&#x164;" horiz-adv-x="591" 
d="M262 0v643h-233v62h533v-62h-233v-643h-67zM262 765l-114 163h54l93 -115l93 115h54l-114 -163h-66z" />
    <glyph glyph-name="uni0162" unicode="&#x162;" horiz-adv-x="591" 
d="M262 0v643h-233v62h533v-62h-233v-643h-67zM299 -193q-22 0 -44.5 5t-37.5 14l12 41q16 -9 31.5 -13.5t36.5 -4.5q27 0 42 9.5t15 29.5q0 15 -9.5 23.5t-28.5 8.5q-8 0 -19.5 -2.5t-24.5 -6.5l-15 14l15 95h44l-13 -77l-21 7q10 3 23.5 5t26.5 2q20 0 37.5 -8t27.5 -23.5
t10 -37.5q0 -25 -13.5 -43.5t-38 -28t-56.5 -9.5z" />
    <glyph glyph-name="uni021A" unicode="&#x21a;" horiz-adv-x="591" 
d="M262 0v643h-233v62h533v-62h-233v-643h-67zM290 -281l-33 25q21 21 28.5 46t7.5 54l10 -10h-52v83h87v-64q0 -40 -11 -73.5t-37 -60.5z" />
    <glyph glyph-name="uni1E6C" unicode="&#x1e6c;" horiz-adv-x="591" 
d="M262 0v643h-233v62h533v-62h-233v-643h-67zM254 -183v80h82v-80h-82z" />
    <glyph glyph-name="uni1E6E" unicode="&#x1e6e;" horiz-adv-x="591" 
d="M262 0v643h-233v62h533v-62h-233v-643h-67zM151 -157v55h288v-55h-288z" />
    <glyph glyph-name="U" unicode="U" horiz-adv-x="694" 
d="M347 -8q-125 0 -187.5 66t-62.5 200v447h68v-449q0 -106 45.5 -153t136.5 -47t136 47t45 153v449h68v-447q0 -134 -62.5 -200t-186.5 -66z" />
    <glyph glyph-name="Uacute" unicode="&#xda;" horiz-adv-x="694" 
d="M347 -8q-125 0 -187.5 66t-62.5 200v447h68v-449q0 -106 45.5 -153t136.5 -47t136 47t45 153v449h68v-447q0 -134 -62.5 -200t-186.5 -66zM318 765l107 163h85l-134 -163h-58z" />
    <glyph glyph-name="Ubreve" unicode="&#x16c;" horiz-adv-x="694" 
d="M347 -8q-125 0 -187.5 66t-62.5 200v447h68v-449q0 -106 45.5 -153t136.5 -47t136 47t45 153v449h68v-447q0 -134 -62.5 -200t-186.5 -66zM347 760q-65 0 -104.5 42t-44.5 121l49 6q3 -56 28 -85.5t72 -29.5q49 0 73.5 30.5t27.5 84.5l49 -6q-5 -79 -45 -121t-105 -42z
" />
    <glyph glyph-name="Ucircumflex" unicode="&#xdb;" horiz-adv-x="694" 
d="M347 -8q-125 0 -187.5 66t-62.5 200v447h68v-449q0 -106 45.5 -153t136.5 -47t136 47t45 153v449h68v-447q0 -134 -62.5 -200t-186.5 -66zM200 765l114 163h66l114 -163h-54l-93 115l-93 -115h-54z" />
    <glyph glyph-name="uni0214" unicode="&#x214;" horiz-adv-x="694" 
d="M347 -8q-125 0 -187.5 66t-62.5 200v447h68v-449q0 -106 45.5 -153t136.5 -47t136 47t45 153v449h68v-447q0 -134 -62.5 -200t-186.5 -66zM382 765l-107 163h75l77 -163h-45zM266 765l-111 163h74l81 -163h-44z" />
    <glyph glyph-name="Udieresis" unicode="&#xdc;" horiz-adv-x="694" 
d="M347 -8q-125 0 -187.5 66t-62.5 200v447h68v-449q0 -106 45.5 -153t136.5 -47t136 47t45 153v449h68v-447q0 -134 -62.5 -200t-186.5 -66zM394 809v77h80v-77h-80zM220 809v77h80v-77h-80z" />
    <glyph glyph-name="uni1EE4" unicode="&#x1ee4;" horiz-adv-x="694" 
d="M347 -8q-125 0 -187.5 66t-62.5 200v447h68v-449q0 -106 45.5 -153t136.5 -47t136 47t45 153v449h68v-447q0 -134 -62.5 -200t-186.5 -66zM306 -183v80h82v-80h-82z" />
    <glyph glyph-name="Ugrave" unicode="&#xd9;" horiz-adv-x="694" 
d="M347 -8q-125 0 -187.5 66t-62.5 200v447h68v-449q0 -106 45.5 -153t136.5 -47t136 47t45 153v449h68v-447q0 -134 -62.5 -200t-186.5 -66zM321 765l-134 163h82l107 -163h-55z" />
    <glyph glyph-name="uni1EE6" unicode="&#x1ee6;" horiz-adv-x="694" 
d="M347 -8q-125 0 -187.5 66t-62.5 200v447h68v-449q0 -106 45.5 -153t136.5 -47t136 47t45 153v449h68v-447q0 -134 -62.5 -200t-186.5 -66zM322 765v18q0 19 9 31.5t20 22t20 18.5t9 20q0 12 -9 17t-28 5q-15 0 -31.5 -2.5t-33.5 -9.5l-12 40q17 8 38.5 13t46.5 5
q41 0 64 -15.5t23 -43.5q0 -22 -10 -34.5t-23 -22t-23 -20.5t-10 -29v-13h-50z" />
    <glyph glyph-name="Uhorn" unicode="&#x1af;" horiz-adv-x="694" 
d="M347 -8q-125 0 -187.5 66t-62.5 200v447h68v-449q0 -106 45.5 -153t136.5 -47t136 47t45 153v449h68v-447q0 -134 -62.5 -200t-186.5 -66zM576 657l-40 27v21q38 1 59 12.5t30 36.5t9 65v16h70v-28q0 -43 -14.5 -76t-43 -52t-70.5 -22z" />
    <glyph glyph-name="uni1EE8" unicode="&#x1ee8;" horiz-adv-x="694" 
d="M347 -8q-125 0 -187.5 66t-62.5 200v447h68v-449q0 -106 45.5 -153t136.5 -47t136 47t45 153v449h68v-447q0 -134 -62.5 -200t-186.5 -66zM576 657l-40 27v21q38 1 59 12.5t30 36.5t9 65v16h70v-28q0 -43 -14.5 -76t-43 -52t-70.5 -22zM318 765l107 163h85l-134 -163h-58
z" />
    <glyph glyph-name="uni1EF0" unicode="&#x1ef0;" horiz-adv-x="694" 
d="M347 -8q-125 0 -187.5 66t-62.5 200v447h68v-449q0 -106 45.5 -153t136.5 -47t136 47t45 153v449h68v-447q0 -134 -62.5 -200t-186.5 -66zM576 657l-40 27v21q38 1 59 12.5t30 36.5t9 65v16h70v-28q0 -43 -14.5 -76t-43 -52t-70.5 -22zM306 -183v80h82v-80h-82z" />
    <glyph glyph-name="uni1EEA" unicode="&#x1eea;" horiz-adv-x="694" 
d="M347 -8q-125 0 -187.5 66t-62.5 200v447h68v-449q0 -106 45.5 -153t136.5 -47t136 47t45 153v449h68v-447q0 -134 -62.5 -200t-186.5 -66zM576 657l-40 27v21q38 1 59 12.5t30 36.5t9 65v16h70v-28q0 -43 -14.5 -76t-43 -52t-70.5 -22zM321 765l-134 163h82l107 -163h-55
z" />
    <glyph glyph-name="uni1EEC" unicode="&#x1eec;" horiz-adv-x="694" 
d="M347 -8q-125 0 -187.5 66t-62.5 200v447h68v-449q0 -106 45.5 -153t136.5 -47t136 47t45 153v449h68v-447q0 -134 -62.5 -200t-186.5 -66zM576 657l-40 27v21q38 1 59 12.5t30 36.5t9 65v16h70v-28q0 -43 -14.5 -76t-43 -52t-70.5 -22zM322 765v18q0 19 9 31.5t20 22
t20 18.5t9 20q0 12 -9 17t-28 5q-15 0 -31.5 -2.5t-33.5 -9.5l-12 40q17 8 38.5 13t46.5 5q41 0 64 -15.5t23 -43.5q0 -22 -10 -34.5t-23 -22t-23 -20.5t-10 -29v-13h-50z" />
    <glyph glyph-name="uni1EEE" unicode="&#x1eee;" horiz-adv-x="694" 
d="M347 -8q-125 0 -187.5 66t-62.5 200v447h68v-449q0 -106 45.5 -153t136.5 -47t136 47t45 153v449h68v-447q0 -134 -62.5 -200t-186.5 -66zM576 657l-40 27v21q38 1 59 12.5t30 36.5t9 65v16h70v-28q0 -43 -14.5 -76t-43 -52t-70.5 -22zM203 784l-46 4q2 37 14.5 64.5
t34.5 42.5t52 15t52 -13.5t39 -27.5q15 -10 30.5 -20.5t33.5 -10.5q27 0 40 21t16 54l46 -3q-2 -37 -14.5 -64.5t-35 -42.5t-51.5 -15t-51 13.5t-40 27.5q-14 10 -30 20.5t-34 10.5q-27 0 -39.5 -20t-16.5 -56z" />
    <glyph glyph-name="Uhungarumlaut" unicode="&#x170;" horiz-adv-x="694" 
d="M347 -8q-125 0 -187.5 66t-62.5 200v447h68v-449q0 -106 45.5 -153t136.5 -47t136 47t45 153v449h68v-447q0 -134 -62.5 -200t-186.5 -66zM267 765l77 163h75l-107 -163h-45zM383 765l81 163h75l-112 -163h-44z" />
    <glyph glyph-name="uni0216" unicode="&#x216;" horiz-adv-x="694" 
d="M347 -8q-125 0 -187.5 66t-62.5 200v447h68v-449q0 -106 45.5 -153t136.5 -47t136 47t45 153v449h68v-447q0 -134 -62.5 -200t-186.5 -66zM248 760l-50 6q5 79 44.5 121t104.5 42q66 0 106 -43t44 -120l-49 -6q-3 53 -27 83.5t-74 30.5q-46 0 -71 -29t-28 -85z" />
    <glyph glyph-name="Umacron" unicode="&#x16a;" horiz-adv-x="694" 
d="M347 -8q-125 0 -187.5 66t-62.5 200v447h68v-449q0 -106 45.5 -153t136.5 -47t136 47t45 153v449h68v-447q0 -134 -62.5 -200t-186.5 -66zM198 816v56h298v-56h-298z" />
    <glyph glyph-name="uni1E7A" unicode="&#x1e7a;" horiz-adv-x="694" 
d="M347 -8q-125 0 -187.5 66t-62.5 200v447h68v-449q0 -106 45.5 -153t136.5 -47t136 47t45 153v449h68v-447q0 -134 -62.5 -200t-186.5 -66zM203 802v54h288v-54h-288zM221 913v72h80v-72h-80zM393 913v72h80v-72h-80z" />
    <glyph glyph-name="Uogonek" unicode="&#x172;" horiz-adv-x="694" 
d="M347 -8q-125 0 -187.5 66t-62.5 200v447h68v-449q0 -106 45.5 -153t136.5 -47t136 47t45 153v449h68v-447q0 -134 -62.5 -200t-186.5 -66zM381 -194q-43 0 -71 25t-28 68q0 39 25 73.5t66 57.5l26 -30q-16 -8 -30 -22t-22.5 -31.5t-8.5 -37.5q0 -28 14.5 -40.5
t36.5 -12.5q10 0 22.5 3t24.5 9l15 -46q-13 -7 -30.5 -11.5t-39.5 -4.5z" />
    <glyph glyph-name="Uring" unicode="&#x16e;" horiz-adv-x="694" 
d="M347 -8q-125 0 -187.5 66t-62.5 200v447h68v-449q0 -106 45.5 -153t136.5 -47t136 47t45 153v449h68v-447q0 -134 -62.5 -200t-186.5 -66zM347 758q-34 0 -59.5 15.5t-41 41t-15.5 56.5q0 33 15.5 58t41 40.5t59.5 15.5q33 0 59 -15.5t41.5 -41t15.5 -57.5
q0 -31 -15.5 -56.5t-41.5 -41t-59 -15.5zM347 798q31 0 51.5 21t20.5 53t-20.5 52.5t-52.5 20.5q-30 0 -50.5 -20.5t-20.5 -52.5t20.5 -53t51.5 -21z" />
    <glyph glyph-name="Utilde" unicode="&#x168;" horiz-adv-x="694" 
d="M347 -8q-125 0 -187.5 66t-62.5 200v447h68v-449q0 -106 45.5 -153t136.5 -47t136 47t45 153v449h68v-447q0 -134 -62.5 -200t-186.5 -66zM206 783l-47 3q3 57 31 91t73 34q30 0 55.5 -14.5t43.5 -26.5q15 -10 33 -20.5t35 -10.5q26 0 41 19t18 55l47 -2
q-2 -58 -30.5 -91.5t-73.5 -33.5q-31 0 -55.5 14.5t-42.5 25.5q-15 11 -33.5 21.5t-36.5 10.5q-25 0 -39.5 -19t-18.5 -56z" />
    <glyph glyph-name="uni1E78" unicode="&#x1e78;" horiz-adv-x="694" 
d="M347 -8q-125 0 -187.5 66t-62.5 200v447h68v-449q0 -106 45.5 -153t136.5 -47t136 47t45 153v449h68v-447q0 -134 -62.5 -200t-186.5 -66zM320 884l80 146h82l-108 -146h-54zM408 768q-23 0 -40 10t-30 19q-10 7 -23 15t-28 8q-19 0 -28.5 -13t-14.5 -41l-43 3
q3 32 14 54t29 33.5t42 11.5q25 0 42.5 -10.5t30.5 -19.5q10 -7 22.5 -14.5t25.5 -7.5q20 0 30 13.5t13 40.5l43 -3q-4 -49 -26 -74t-59 -25z" />
    <glyph glyph-name="V" unicode="V" horiz-adv-x="626" 
d="M283 0l-274 705h73l231 -620v0l231 620h72l-274 -705h-59z" />
    <glyph glyph-name="W" unicode="W" horiz-adv-x="1003" 
d="M247 0l-197 705h71l162 -619h2l188 619h58l188 -619h2l163 619h68l-197 -705h-67l-185 608h-3l-186 -608h-67z" />
    <glyph glyph-name="Wacute" unicode="&#x1e82;" horiz-adv-x="1003" 
d="M247 0l-197 705h71l162 -619h2l188 619h58l188 -619h2l163 619h68l-197 -705h-67l-185 608h-3l-186 -608h-67zM472 765l107 163h85l-134 -163h-58z" />
    <glyph glyph-name="Wcircumflex" unicode="&#x174;" horiz-adv-x="1003" 
d="M247 0l-197 705h71l162 -619h2l188 619h58l188 -619h2l163 619h68l-197 -705h-67l-185 608h-3l-186 -608h-67zM354 765l114 163h66l114 -163h-54l-93 115l-93 -115h-54z" />
    <glyph glyph-name="Wdieresis" unicode="&#x1e84;" horiz-adv-x="1003" 
d="M247 0l-197 705h71l162 -619h2l188 619h58l188 -619h2l163 619h68l-197 -705h-67l-185 608h-3l-186 -608h-67zM548 809v77h80v-77h-80zM374 809v77h80v-77h-80z" />
    <glyph glyph-name="Wgrave" unicode="&#x1e80;" horiz-adv-x="1003" 
d="M247 0l-197 705h71l162 -619h2l188 619h58l188 -619h2l163 619h68l-197 -705h-67l-185 608h-3l-186 -608h-67zM475 765l-134 163h82l107 -163h-55z" />
    <glyph glyph-name="X" unicode="X" horiz-adv-x="617" 
d="M32 0l232 374l1 -22l-220 353h78l185 -303h1l186 303h78l-222 -353v22l234 -374h-78l-199 325h-1l-198 -325h-77z" />
    <glyph glyph-name="Y" unicode="Y" horiz-adv-x="567" 
d="M250 0v367l13 -57l-253 395h77l196 -315h3l195 315h75l-251 -395l12 57v-367h-67z" />
    <glyph glyph-name="Yacute" unicode="&#xdd;" horiz-adv-x="567" 
d="M250 0v367l13 -57l-253 395h77l196 -315h3l195 315h75l-251 -395l12 57v-367h-67zM254 765l107 163h85l-134 -163h-58z" />
    <glyph glyph-name="Ycircumflex" unicode="&#x176;" horiz-adv-x="567" 
d="M250 0v367l13 -57l-253 395h77l196 -315h3l195 315h75l-251 -395l12 57v-367h-67zM136 765l114 163h66l114 -163h-54l-93 115l-93 -115h-54z" />
    <glyph glyph-name="Ydieresis" unicode="&#x178;" horiz-adv-x="567" 
d="M250 0v367l13 -57l-253 395h77l196 -315h3l195 315h75l-251 -395l12 57v-367h-67zM330 809v77h80v-77h-80zM156 809v77h80v-77h-80z" />
    <glyph glyph-name="uni1E8E" unicode="&#x1e8e;" horiz-adv-x="567" 
d="M250 0v367l13 -57l-253 395h77l196 -315h3l195 315h75l-251 -395l12 57v-367h-67zM239 811v85h87v-85h-87z" />
    <glyph glyph-name="uni1EF4" unicode="&#x1ef4;" horiz-adv-x="567" 
d="M250 0v367l13 -57l-253 395h77l196 -315h3l195 315h75l-251 -395l12 57v-367h-67zM243 -183v80h82v-80h-82z" />
    <glyph glyph-name="Ygrave" unicode="&#x1ef2;" horiz-adv-x="567" 
d="M250 0v367l13 -57l-253 395h77l196 -315h3l195 315h75l-251 -395l12 57v-367h-67zM257 765l-134 163h82l107 -163h-55z" />
    <glyph glyph-name="uni01B3" unicode="&#x1b3;" horiz-adv-x="580" 
d="M250 0v367l13 -57l-253 395h77l196 -315h2l155 248q24 41 54.5 58.5t66.5 17.5q14 0 24.5 -2t23.5 -7v-57q-9 4 -19 6t-23 2q-24 0 -41.5 -11.5t-32.5 -36.5l-188 -298l12 57v-367h-67z" />
    <glyph glyph-name="uni1EF6" unicode="&#x1ef6;" horiz-adv-x="567" 
d="M250 0v367l13 -57l-253 395h77l196 -315h3l195 315h75l-251 -395l12 57v-367h-67zM258 765v18q0 19 9 31.5t20 22t20 18.5t9 20q0 12 -9 17t-28 5q-15 0 -31.5 -2.5t-33.5 -9.5l-12 40q17 8 38.5 13t46.5 5q41 0 64 -15.5t23 -43.5q0 -22 -10 -34.5t-23 -22t-23 -20.5
t-10 -29v-13h-50z" />
    <glyph glyph-name="uni0232" unicode="&#x232;" horiz-adv-x="567" 
d="M250 0v367l13 -57l-253 395h77l196 -315h3l195 315h75l-251 -395l12 57v-367h-67zM134 816v56h298v-56h-298z" />
    <glyph glyph-name="uni1EF8" unicode="&#x1ef8;" horiz-adv-x="567" 
d="M250 0v367l13 -57l-253 395h77l196 -315h3l195 315h75l-251 -395l12 57v-367h-67zM142 783l-47 3q3 57 31 91t73 34q30 0 55.5 -14.5t43.5 -26.5q15 -10 33 -20.5t35 -10.5q26 0 41 19t18 55l47 -2q-2 -58 -30.5 -91.5t-73.5 -33.5q-31 0 -55.5 14.5t-42.5 25.5
q-15 11 -33.5 21.5t-36.5 10.5q-25 0 -39.5 -19t-18.5 -56z" />
    <glyph glyph-name="Z" unicode="Z" horiz-adv-x="554" 
d="M50 0v43l388 636l10 -35h-398v61h452v-43l-388 -636l-10 35h408v-61h-462z" />
    <glyph glyph-name="Zacute" unicode="&#x179;" horiz-adv-x="554" 
d="M50 0v43l388 636l10 -35h-398v61h452v-43l-388 -636l-10 35h408v-61h-462zM248 765l107 163h85l-134 -163h-58z" />
    <glyph glyph-name="Zcaron" unicode="&#x17d;" horiz-adv-x="554" 
d="M50 0v43l388 636l10 -35h-398v61h452v-43l-388 -636l-10 35h408v-61h-462zM244 765l-114 163h54l93 -115l93 115h54l-114 -163h-66z" />
    <glyph glyph-name="Zdotaccent" unicode="&#x17b;" horiz-adv-x="554" 
d="M50 0v43l388 636l10 -35h-398v61h452v-43l-388 -636l-10 35h408v-61h-462zM233 811v85h87v-85h-87z" />
    <glyph glyph-name="uni1E92" unicode="&#x1e92;" horiz-adv-x="554" 
d="M50 0v43l388 636l10 -35h-398v61h452v-43l-388 -636l-10 35h408v-61h-462zM243 -183v80h82v-80h-82z" />
    <glyph glyph-name="Iacute_J.loclNLD" horiz-adv-x="653" 
d="M106 0v705h68v-705h-68zM111 765l107 163h85l-134 -163h-58zM295 -7l-5 62l74 4q33 2 59 17.5t41 43t15 65.5v520h67v-525q0 -52 -22.5 -92t-61.5 -63.5t-90 -27.5zM484 765l107 163h85l-134 -163h-58z" />
    <glyph glyph-name="I_J.loclNLD" horiz-adv-x="653" 
d="M106 0v705h68v-705h-68zM295 -7l-5 62l74 4q33 2 59 17.5t41 43t15 65.5v520h67v-525q0 -52 -22.5 -92t-61.5 -63.5t-90 -27.5z" />
    <glyph glyph-name="a" unicode="a" horiz-adv-x="568" 
d="M243 -8q-49 0 -87.5 19.5t-60 53t-21.5 72.5q0 57 31 89t92 45.5t150 13.5h77v-53h-72q-55 0 -95 -4t-65.5 -14t-38 -28t-12.5 -46q0 -45 33 -68t79 -23q41 0 77 20.5t58.5 55.5t22.5 76v131q0 58 -33 85t-96 27q-41 0 -82 -11.5t-83 -38.5l-25 52q29 19 61.5 31t66.5 19
t68 7q56 0 99 -18.5t67 -57t24 -98.5v-329h-60v107h-4q-14 -29 -38 -55.5t-57.5 -43t-75.5 -16.5z" />
    <glyph glyph-name="aacute" unicode="&#xe1;" horiz-adv-x="568" 
d="M243 -8q-49 0 -87.5 19.5t-60 53t-21.5 72.5q0 57 31 89t92 45.5t150 13.5h77v-53h-72q-55 0 -95 -4t-65.5 -14t-38 -28t-12.5 -46q0 -45 33 -68t79 -23q41 0 77 20.5t58.5 55.5t22.5 76v131q0 58 -33 85t-96 27q-41 0 -82 -11.5t-83 -38.5l-25 52q29 19 61.5 31t66.5 19
t68 7q56 0 99 -18.5t67 -57t24 -98.5v-329h-60v107h-4q-14 -29 -38 -55.5t-57.5 -43t-75.5 -16.5zM259 559l94 186h77l-118 -186h-53z" />
    <glyph glyph-name="abreve" unicode="&#x103;" horiz-adv-x="568" 
d="M243 -8q-49 0 -87.5 19.5t-60 53t-21.5 72.5q0 57 31 89t92 45.5t150 13.5h77v-53h-72q-55 0 -95 -4t-65.5 -14t-38 -28t-12.5 -46q0 -45 33 -68t79 -23q41 0 77 20.5t58.5 55.5t22.5 76v131q0 58 -33 85t-96 27q-41 0 -82 -11.5t-83 -38.5l-25 52q29 19 61.5 31t66.5 19
t68 7q56 0 99 -18.5t67 -57t24 -98.5v-329h-60v107h-4q-14 -29 -38 -55.5t-57.5 -43t-75.5 -16.5zM287 556q-44 0 -74 22t-47 63.5t-19 99.5l49 5q3 -69 24.5 -102.5t66.5 -33.5q44 0 66 33.5t25 102.5l49 -5q-2 -58 -19 -99.5t-47.5 -63.5t-73.5 -22z" />
    <glyph glyph-name="uni1EAF" unicode="&#x1eaf;" horiz-adv-x="568" 
d="M243 -8q-49 0 -87.5 19.5t-60 53t-21.5 72.5q0 57 31 89t92 45.5t150 13.5h77v-53h-72q-55 0 -95 -4t-65.5 -14t-38 -28t-12.5 -46q0 -45 33 -68t79 -23q41 0 77 20.5t58.5 55.5t22.5 76v131q0 58 -33 85t-96 27q-41 0 -82 -11.5t-83 -38.5l-25 52q29 19 61.5 31t66.5 19
t68 7q56 0 99 -18.5t67 -57t24 -98.5v-329h-60v107h-4q-14 -29 -38 -55.5t-57.5 -43t-75.5 -16.5zM287 556q-65 0 -102.5 38t-41.5 106l47 5q3 -50 28.5 -74.5t68.5 -24.5q44 0 69 24t29 75l46 -5q-3 -68 -40.5 -106t-103.5 -38zM257 673l79 145h75l-105 -145h-49z" />
    <glyph glyph-name="uni1EB7" unicode="&#x1eb7;" horiz-adv-x="568" 
d="M243 -8q-49 0 -87.5 19.5t-60 53t-21.5 72.5q0 57 31 89t92 45.5t150 13.5h77v-53h-72q-55 0 -95 -4t-65.5 -14t-38 -28t-12.5 -46q0 -45 33 -68t79 -23q41 0 77 20.5t58.5 55.5t22.5 76v131q0 58 -33 85t-96 27q-41 0 -82 -11.5t-83 -38.5l-25 52q29 19 61.5 31t66.5 19
t68 7q56 0 99 -18.5t67 -57t24 -98.5v-329h-60v107h-4q-14 -29 -38 -55.5t-57.5 -43t-75.5 -16.5zM207 -183v80h82v-80h-82zM287 556q-44 0 -74 22t-47 63.5t-19 99.5l49 5q3 -69 24.5 -102.5t66.5 -33.5q44 0 66 33.5t25 102.5l49 -5q-2 -58 -19 -99.5t-47.5 -63.5
t-73.5 -22z" />
    <glyph glyph-name="uni1EB1" unicode="&#x1eb1;" horiz-adv-x="568" 
d="M243 -8q-49 0 -87.5 19.5t-60 53t-21.5 72.5q0 57 31 89t92 45.5t150 13.5h77v-53h-72q-55 0 -95 -4t-65.5 -14t-38 -28t-12.5 -46q0 -45 33 -68t79 -23q41 0 77 20.5t58.5 55.5t22.5 76v131q0 58 -33 85t-96 27q-41 0 -82 -11.5t-83 -38.5l-25 52q29 19 61.5 31t66.5 19
t68 7q56 0 99 -18.5t67 -57t24 -98.5v-329h-60v107h-4q-14 -29 -38 -55.5t-57.5 -43t-75.5 -16.5zM287 556q-65 0 -102.5 38t-41.5 106l47 5q3 -50 28.5 -74.5t68.5 -24.5q44 0 69 24t29 75l46 -5q-3 -68 -40.5 -106t-103.5 -38zM270 673l-102 145h75l76 -145h-49z" />
    <glyph glyph-name="uni1EB3" unicode="&#x1eb3;" horiz-adv-x="568" 
d="M243 -8q-49 0 -87.5 19.5t-60 53t-21.5 72.5q0 57 31 89t92 45.5t150 13.5h77v-53h-72q-55 0 -95 -4t-65.5 -14t-38 -28t-12.5 -46q0 -45 33 -68t79 -23q41 0 77 20.5t58.5 55.5t22.5 76v131q0 58 -33 85t-96 27q-41 0 -82 -11.5t-83 -38.5l-25 52q29 19 61.5 31t66.5 19
t68 7q56 0 99 -18.5t67 -57t24 -98.5v-329h-60v107h-4q-14 -29 -38 -55.5t-57.5 -43t-75.5 -16.5zM287 556q-65 0 -102.5 38t-41.5 106l47 5q3 -50 28.5 -74.5t68.5 -24.5q44 0 69 24t29 75l46 -5q-3 -67 -40.5 -105.5t-103.5 -38.5zM262 673q0 20 8.5 32.5t20 22t19.5 18
t8 18.5q0 13 -12 18.5t-31 5.5q-12 0 -26 -3.5t-29 -10.5l-12 37q15 9 35 14t48 5q40 0 62 -14.5t22 -39.5q0 -20 -10 -32.5t-22 -22t-22 -20.5t-10 -28h-49z" />
    <glyph glyph-name="uni1EB5" unicode="&#x1eb5;" horiz-adv-x="568" 
d="M243 -8q-49 0 -87.5 19.5t-60 53t-21.5 72.5q0 57 31 89t92 45.5t150 13.5h77v-53h-72q-55 0 -95 -4t-65.5 -14t-38 -28t-12.5 -46q0 -45 33 -68t79 -23q41 0 77 20.5t58.5 55.5t22.5 76v131q0 58 -33 85t-96 27q-41 0 -82 -11.5t-83 -38.5l-25 52q29 19 61.5 31t66.5 19
t68 7q56 0 99 -18.5t67 -57t24 -98.5v-329h-60v107h-4q-14 -29 -38 -55.5t-57.5 -43t-75.5 -16.5zM287 556q-58 0 -96.5 30t-47.5 84l45 7q10 -35 35.5 -53t63.5 -18q40 0 65 18t34 53l45 -7q-9 -53 -47 -83.5t-97 -30.5zM184 723l-43 3q3 32 14 53.5t29 33.5t42 12
t41 -10.5t30 -19.5q10 -7 23 -15t27 -8q20 0 30 13.5t13 40.5l43 -2q-4 -49 -26 -74.5t-59 -25.5q-23 0 -40 10.5t-29 18.5q-14 10 -26 17t-26 7q-19 0 -28.5 -13t-14.5 -41z" />
    <glyph glyph-name="uni01CE" unicode="&#x1ce;" horiz-adv-x="568" 
d="M243 -8q-49 0 -87.5 19.5t-60 53t-21.5 72.5q0 57 31 89t92 45.5t150 13.5h77v-53h-72q-55 0 -95 -4t-65.5 -14t-38 -28t-12.5 -46q0 -45 33 -68t79 -23q41 0 77 20.5t58.5 55.5t22.5 76v131q0 58 -33 85t-96 27q-41 0 -82 -11.5t-83 -38.5l-25 52q29 19 61.5 31t66.5 19
t68 7q56 0 99 -18.5t67 -57t24 -98.5v-329h-60v107h-4q-14 -29 -38 -55.5t-57.5 -43t-75.5 -16.5zM253 559l-101 186h52l83 -137l83 137h52l-101 -186h-68z" />
    <glyph glyph-name="acircumflex" unicode="&#xe2;" horiz-adv-x="568" 
d="M243 -8q-49 0 -87.5 19.5t-60 53t-21.5 72.5q0 57 31 89t92 45.5t150 13.5h77v-53h-72q-55 0 -95 -4t-65.5 -14t-38 -28t-12.5 -46q0 -45 33 -68t79 -23q41 0 77 20.5t58.5 55.5t22.5 76v131q0 58 -33 85t-96 27q-41 0 -82 -11.5t-83 -38.5l-25 52q29 19 61.5 31t66.5 19
t68 7q56 0 99 -18.5t67 -57t24 -98.5v-329h-60v107h-4q-14 -29 -38 -55.5t-57.5 -43t-75.5 -16.5zM152 566l101 179h68l101 -179h-52l-83 130l-83 -130h-52z" />
    <glyph glyph-name="uni1EA5" unicode="&#x1ea5;" horiz-adv-x="568" 
d="M243 -8q-49 0 -87.5 19.5t-60 53t-21.5 72.5q0 57 31 89t92 45.5t150 13.5h77v-53h-72q-55 0 -95 -4t-65.5 -14t-38 -28t-12.5 -46q0 -45 33 -68t79 -23q41 0 77 20.5t58.5 55.5t22.5 76v131q0 58 -33 85t-96 27q-41 0 -82 -11.5t-83 -38.5l-25 52q29 19 61.5 31t66.5 19
t68 7q56 0 99 -18.5t67 -57t24 -98.5v-329h-60v107h-4q-14 -29 -38 -55.5t-57.5 -43t-75.5 -16.5zM149 567l105 158h67l105 -158h-53l-86 110l-86 -110h-52zM374 675l74 151h70l-97 -151h-47z" />
    <glyph glyph-name="uni1EAD" unicode="&#x1ead;" horiz-adv-x="568" 
d="M243 -8q-49 0 -87.5 19.5t-60 53t-21.5 72.5q0 57 31 89t92 45.5t150 13.5h77v-53h-72q-55 0 -95 -4t-65.5 -14t-38 -28t-12.5 -46q0 -45 33 -68t79 -23q41 0 77 20.5t58.5 55.5t22.5 76v131q0 58 -33 85t-96 27q-41 0 -82 -11.5t-83 -38.5l-25 52q29 19 61.5 31t66.5 19
t68 7q56 0 99 -18.5t67 -57t24 -98.5v-329h-60v107h-4q-14 -29 -38 -55.5t-57.5 -43t-75.5 -16.5zM207 -183v80h82v-80h-82zM152 566l101 179h68l101 -179h-52l-83 130l-83 -130h-52z" />
    <glyph glyph-name="uni1EA7" unicode="&#x1ea7;" horiz-adv-x="568" 
d="M243 -8q-49 0 -87.5 19.5t-60 53t-21.5 72.5q0 57 31 89t92 45.5t150 13.5h77v-53h-72q-55 0 -95 -4t-65.5 -14t-38 -28t-12.5 -46q0 -45 33 -68t79 -23q41 0 77 20.5t58.5 55.5t22.5 76v131q0 58 -33 85t-96 27q-41 0 -82 -11.5t-83 -38.5l-25 52q29 19 61.5 31t66.5 19
t68 7q56 0 99 -18.5t67 -57t24 -98.5v-329h-60v107h-4q-14 -29 -38 -55.5t-57.5 -43t-75.5 -16.5zM149 567l105 158h67l105 -158h-53l-86 110l-86 -110h-52zM412 675l-96 151h70l74 -151h-48z" />
    <glyph glyph-name="uni1EA9" unicode="&#x1ea9;" horiz-adv-x="568" 
d="M243 -8q-49 0 -87.5 19.5t-60 53t-21.5 72.5q0 57 31 89t92 45.5t150 13.5h77v-53h-72q-55 0 -95 -4t-65.5 -14t-38 -28t-12.5 -46q0 -45 33 -68t79 -23q41 0 77 20.5t58.5 55.5t22.5 76v131q0 58 -33 85t-96 27q-41 0 -82 -11.5t-83 -38.5l-25 52q29 19 61.5 31t66.5 19
t68 7q56 0 99 -18.5t67 -57t24 -98.5v-329h-60v107h-4q-14 -29 -38 -55.5t-57.5 -43t-75.5 -16.5zM149 568l105 158h67l105 -158h-53l-86 110l-86 -110h-52zM377 679q0 20 8.5 32.5t20 22t19.5 17.5t8 19q0 12 -12 17.5t-31 5.5q-12 0 -26 -3.5t-28 -10.5l-12 37
q15 8 34.5 13t46.5 5q39 0 61 -14.5t22 -38.5q0 -20 -9.5 -32.5t-22 -21.5t-22 -20t-9.5 -28h-48z" />
    <glyph glyph-name="uni1EAB" unicode="&#x1eab;" horiz-adv-x="568" 
d="M243 -8q-49 0 -87.5 19.5t-60 53t-21.5 72.5q0 57 31 89t92 45.5t150 13.5h77v-53h-72q-55 0 -95 -4t-65.5 -14t-38 -28t-12.5 -46q0 -45 33 -68t79 -23q41 0 77 20.5t58.5 55.5t22.5 76v131q0 58 -33 85t-96 27q-41 0 -82 -11.5t-83 -38.5l-25 52q29 19 61.5 31t66.5 19
t68 7q56 0 99 -18.5t67 -57t24 -98.5v-329h-60v107h-4q-14 -29 -38 -55.5t-57.5 -43t-75.5 -16.5zM149 567l105 133h67l105 -133h-53l-86 89l-86 -89h-52zM184 729l-43 3q3 32 13.5 54t28.5 34t43 12q24 0 41 -10t30 -19q10 -8 23 -16t27 -8q18 0 28.5 12.5t14.5 42.5l43 -4
q-4 -46 -25 -72.5t-60 -26.5q-23 0 -40 10t-29 18q-14 11 -26 18t-26 7q-16 0 -27 -12t-16 -43z" />
    <glyph glyph-name="uni0201" unicode="&#x201;" horiz-adv-x="568" 
d="M243 -8q-49 0 -87.5 19.5t-60 53t-21.5 72.5q0 57 31 89t92 45.5t150 13.5h77v-53h-72q-55 0 -95 -4t-65.5 -14t-38 -28t-12.5 -46q0 -45 33 -68t79 -23q41 0 77 20.5t58.5 55.5t22.5 76v131q0 58 -33 85t-96 27q-41 0 -82 -11.5t-83 -38.5l-25 52q29 19 61.5 31t66.5 19
t68 7q56 0 99 -18.5t67 -57t24 -98.5v-329h-60v107h-4q-14 -29 -38 -55.5t-57.5 -43t-75.5 -16.5zM325 559l-75 186h66l49 -186h-40zM210 559l-75 186h66l49 -186h-40z" />
    <glyph glyph-name="adieresis" unicode="&#xe4;" horiz-adv-x="568" 
d="M243 -8q-49 0 -87.5 19.5t-60 53t-21.5 72.5q0 57 31 89t92 45.5t150 13.5h77v-53h-72q-55 0 -95 -4t-65.5 -14t-38 -28t-12.5 -46q0 -45 33 -68t79 -23q41 0 77 20.5t58.5 55.5t22.5 76v131q0 58 -33 85t-96 27q-41 0 -82 -11.5t-83 -38.5l-25 52q29 19 61.5 31t66.5 19
t68 7q56 0 99 -18.5t67 -57t24 -98.5v-329h-60v107h-4q-14 -29 -38 -55.5t-57.5 -43t-75.5 -16.5zM334 623v78h80v-78h-80zM160 623v78h80v-78h-80z" />
    <glyph glyph-name="uni0227" unicode="&#x227;" horiz-adv-x="568" 
d="M243 -8q-49 0 -87.5 19.5t-60 53t-21.5 72.5q0 57 31 89t92 45.5t150 13.5h77v-53h-72q-55 0 -95 -4t-65.5 -14t-38 -28t-12.5 -46q0 -45 33 -68t79 -23q41 0 77 20.5t58.5 55.5t22.5 76v131q0 58 -33 85t-96 27q-41 0 -82 -11.5t-83 -38.5l-25 52q29 19 61.5 31t66.5 19
t68 7q56 0 99 -18.5t67 -57t24 -98.5v-329h-60v107h-4q-14 -29 -38 -55.5t-57.5 -43t-75.5 -16.5zM246 623v80h82v-80h-82z" />
    <glyph glyph-name="uni1EA1" unicode="&#x1ea1;" horiz-adv-x="568" 
d="M243 -8q-49 0 -87.5 19.5t-60 53t-21.5 72.5q0 57 31 89t92 45.5t150 13.5h77v-53h-72q-55 0 -95 -4t-65.5 -14t-38 -28t-12.5 -46q0 -45 33 -68t79 -23q41 0 77 20.5t58.5 55.5t22.5 76v131q0 58 -33 85t-96 27q-41 0 -82 -11.5t-83 -38.5l-25 52q29 19 61.5 31t66.5 19
t68 7q56 0 99 -18.5t67 -57t24 -98.5v-329h-60v107h-4q-14 -29 -38 -55.5t-57.5 -43t-75.5 -16.5zM207 -183v80h82v-80h-82z" />
    <glyph glyph-name="agrave" unicode="&#xe0;" horiz-adv-x="568" 
d="M243 -8q-49 0 -87.5 19.5t-60 53t-21.5 72.5q0 57 31 89t92 45.5t150 13.5h77v-53h-72q-55 0 -95 -4t-65.5 -14t-38 -28t-12.5 -46q0 -45 33 -68t79 -23q41 0 77 20.5t58.5 55.5t22.5 76v131q0 58 -33 85t-96 27q-41 0 -82 -11.5t-83 -38.5l-25 52q29 19 61.5 31t66.5 19
t68 7q56 0 99 -18.5t67 -57t24 -98.5v-329h-60v107h-4q-14 -29 -38 -55.5t-57.5 -43t-75.5 -16.5zM262 560l-118 185h77l94 -185h-53z" />
    <glyph glyph-name="uni1EA3" unicode="&#x1ea3;" horiz-adv-x="568" 
d="M243 -8q-49 0 -87.5 19.5t-60 53t-21.5 72.5q0 57 31 89t92 45.5t150 13.5h77v-53h-72q-55 0 -95 -4t-65.5 -14t-38 -28t-12.5 -46q0 -45 33 -68t79 -23q41 0 77 20.5t58.5 55.5t22.5 76v131q0 58 -33 85t-96 27q-41 0 -82 -11.5t-83 -38.5l-25 52q29 19 61.5 31t66.5 19
t68 7q56 0 99 -18.5t67 -57t24 -98.5v-329h-60v107h-4q-14 -29 -38 -55.5t-57.5 -43t-75.5 -16.5zM261 560v20q0 24 9 39t20.5 25.5t20.5 21.5t9 26t-11 23t-33 8q-14 0 -28 -3.5t-30 -11.5l-13 41q18 10 38.5 15t46.5 5q43 0 67 -17.5t24 -50.5q0 -25 -10.5 -40.5
t-24 -26.5t-24 -24t-10.5 -35v-15h-51z" />
    <glyph glyph-name="uni0203" unicode="&#x203;" horiz-adv-x="568" 
d="M243 -8q-49 0 -87.5 19.5t-60 53t-21.5 72.5q0 57 31 89t92 45.5t150 13.5h77v-53h-72q-55 0 -95 -4t-65.5 -14t-38 -28t-12.5 -46q0 -45 33 -68t79 -23q41 0 77 20.5t58.5 55.5t22.5 76v131q0 58 -33 85t-96 27q-41 0 -82 -11.5t-83 -38.5l-25 52q29 19 61.5 31t66.5 19
t68 7q56 0 99 -18.5t67 -57t24 -98.5v-329h-60v107h-4q-14 -29 -38 -55.5t-57.5 -43t-75.5 -16.5zM196 556l-49 5q3 59 19.5 100t47 63t73.5 22q44 0 74.5 -22t47 -63t18.5 -100l-49 -5q-3 69 -24.5 103t-66.5 34q-44 0 -66 -34t-25 -103z" />
    <glyph glyph-name="amacron" unicode="&#x101;" horiz-adv-x="568" 
d="M243 -8q-49 0 -87.5 19.5t-60 53t-21.5 72.5q0 57 31 89t92 45.5t150 13.5h77v-53h-72q-55 0 -95 -4t-65.5 -14t-38 -28t-12.5 -46q0 -45 33 -68t79 -23q41 0 77 20.5t58.5 55.5t22.5 76v131q0 58 -33 85t-96 27q-41 0 -82 -11.5t-83 -38.5l-25 52q29 19 61.5 31t66.5 19
t68 7q56 0 99 -18.5t67 -57t24 -98.5v-329h-60v107h-4q-14 -29 -38 -55.5t-57.5 -43t-75.5 -16.5zM143 635v56h288v-56h-288z" />
    <glyph glyph-name="aogonek" unicode="&#x105;" horiz-adv-x="568" 
d="M243 -8q-49 0 -87.5 19.5t-60 53t-21.5 72.5q0 57 31 89t92 45.5t150 13.5h77v-53h-72q-55 0 -95 -4t-65.5 -14t-38 -28t-12.5 -46q0 -45 33 -68t79 -23q41 0 77 20.5t58.5 55.5t22.5 76v131q0 58 -33 85t-96 27q-41 0 -82 -11.5t-83 -38.5l-25 52q29 19 61.5 31t66.5 19
t68 7q56 0 99 -18.5t67 -57t24 -98.5v-329h-60v107h-4q-14 -29 -38 -55.5t-57.5 -43t-75.5 -16.5zM447 -194q-43 0 -71 25t-28 68q0 39 25 73.5t66 57.5l26 -30q-16 -8 -30 -22t-22.5 -31.5t-8.5 -37.5q0 -28 14.5 -40.5t36.5 -12.5q10 0 22.5 3t24.5 9l15 -46
q-13 -7 -30.5 -11.5t-39.5 -4.5z" />
    <glyph glyph-name="aring" unicode="&#xe5;" horiz-adv-x="568" 
d="M243 -8q-49 0 -87.5 19.5t-60 53t-21.5 72.5q0 57 31 89t92 45.5t150 13.5h77v-53h-72q-55 0 -95 -4t-65.5 -14t-38 -28t-12.5 -46q0 -45 33 -68t79 -23q41 0 77 20.5t58.5 55.5t22.5 76v131q0 58 -33 85t-96 27q-41 0 -82 -11.5t-83 -38.5l-25 52q29 19 61.5 31t66.5 19
t68 7q56 0 99 -18.5t67 -57t24 -98.5v-329h-60v107h-4q-14 -29 -38 -55.5t-57.5 -43t-75.5 -16.5zM287 556q-34 0 -60 15.5t-42 41.5t-16 58q0 33 15.5 58.5t42 41t60.5 15.5t60.5 -15.5t42 -41t15.5 -58.5q0 -32 -15.5 -58t-42 -41.5t-60.5 -15.5zM287 597q32 0 52.5 21
t20.5 54t-20.5 53.5t-53.5 20.5q-31 0 -51.5 -21t-20.5 -53q0 -33 20.5 -54t52.5 -21z" />
    <glyph glyph-name="aringacute" unicode="&#x1fb;" horiz-adv-x="568" 
d="M243 -8q-49 0 -87.5 19.5t-60 53t-21.5 72.5q0 57 31 89t92 45.5t150 13.5h77v-53h-72q-55 0 -95 -4t-65.5 -14t-38 -28t-12.5 -46q0 -45 33 -68t79 -23q41 0 77 20.5t58.5 55.5t22.5 76v131q0 58 -33 85t-96 27q-41 0 -82 -11.5t-83 -38.5l-25 52q29 19 61.5 31t66.5 19
t68 7q56 0 99 -18.5t67 -57t24 -98.5v-329h-60v107h-4q-14 -29 -38 -55.5t-57.5 -43t-75.5 -16.5zM287 555q-34 0 -60.5 15.5t-42 41.5t-15.5 58q0 33 15.5 59t42 41.5t60.5 15.5q21 0 38 -5.5t31 -15.5l56 60h74l-99 -93q9 -13 13.5 -28.5t4.5 -33.5q0 -32 -15.5 -58
t-42 -41.5t-60.5 -15.5zM287 596q32 0 52.5 21.5t20.5 52.5q0 34 -20.5 54.5t-52.5 20.5t-52.5 -20.5t-20.5 -53.5t20.5 -54t52.5 -21z" />
    <glyph glyph-name="atilde" unicode="&#xe3;" horiz-adv-x="568" 
d="M243 -8q-49 0 -87.5 19.5t-60 53t-21.5 72.5q0 57 31 89t92 45.5t150 13.5h77v-53h-72q-55 0 -95 -4t-65.5 -14t-38 -28t-12.5 -46q0 -45 33 -68t79 -23q41 0 77 20.5t58.5 55.5t22.5 76v131q0 58 -33 85t-96 27q-41 0 -82 -11.5t-83 -38.5l-25 52q29 19 61.5 31t66.5 19
t68 7q56 0 99 -18.5t67 -57t24 -98.5v-329h-60v107h-4q-14 -29 -38 -55.5t-57.5 -43t-75.5 -16.5zM169 598l-44 3q2 56 26.5 89.5t64.5 33.5q28 0 48.5 -14.5t35.5 -27.5q12 -9 26 -20t30 -11q23 0 34.5 19.5t14.5 56.5l44 -4q-2 -57 -26 -90t-64 -33q-29 0 -50 15t-35 27
q-12 11 -26 21t-30 10q-22 0 -33.5 -19t-15.5 -56z" />
    <glyph glyph-name="ae" unicode="&#xe6;" horiz-adv-x="899" 
d="M239 -8q-46 0 -84 19t-59.5 52.5t-21.5 75.5q0 57 32.5 89t92.5 44.5t143 12.5h92v-52h-89q-68 0 -113.5 -8t-68 -27.5t-22.5 -57.5q0 -44 32 -67.5t74 -23.5q46 0 83.5 21.5t59.5 55.5t22 73v138q0 51 -33 79t-98 28q-41 0 -82 -12t-82 -39l-25 53q28 19 61 31t67 19
t68 7q68 0 111 -31.5t56 -84.5h2q25 58 70 87t106 29q66 0 111.5 -30t68 -86.5t22.5 -133.5v-23h-379v53h340l-21 -24q0 58 -16 100t-47 64.5t-79 22.5q-74 0 -116 -50.5t-42 -141.5v-13q0 -89 44.5 -139.5t129.5 -50.5q48 0 82.5 11.5t67.5 37.5l28 -49q-34 -31 -81 -45
t-99 -14q-55 0 -95.5 16.5t-67 47.5t-38.5 73h-3q-16 -38 -44 -69.5t-67.5 -49.5t-92.5 -18z" />
    <glyph glyph-name="aeacute" unicode="&#x1fd;" horiz-adv-x="899" 
d="M239 -8q-46 0 -84 19t-59.5 52.5t-21.5 75.5q0 57 32.5 89t92.5 44.5t143 12.5h92v-52h-89q-68 0 -113.5 -8t-68 -27.5t-22.5 -57.5q0 -44 32 -67.5t74 -23.5q46 0 83.5 21.5t59.5 55.5t22 73v138q0 51 -33 79t-98 28q-41 0 -82 -12t-82 -39l-25 53q28 19 61 31t67 19
t68 7q68 0 111 -31.5t56 -84.5h2q25 58 70 87t106 29q66 0 111.5 -30t68 -86.5t22.5 -133.5v-23h-379v53h340l-21 -24q0 58 -16 100t-47 64.5t-79 22.5q-74 0 -116 -50.5t-42 -141.5v-13q0 -89 44.5 -139.5t129.5 -50.5q48 0 82.5 11.5t67.5 37.5l28 -49q-34 -31 -81 -45
t-99 -14q-55 0 -95.5 16.5t-67 47.5t-38.5 73h-3q-16 -38 -44 -69.5t-67.5 -49.5t-92.5 -18zM430 559l94 186h77l-118 -186h-53z" />
    <glyph glyph-name="b" unicode="b" horiz-adv-x="597" 
d="M323 -8q-59 0 -101.5 29.5t-64.5 86.5h-3v-108h-62v705h67v-315h4q20 55 61 84t100 29q64 0 111 -32t72 -89t25 -135q0 -77 -25 -134.5t-72 -89t-112 -31.5zM312 50q73 0 113 52.5t40 144.5t-40.5 144.5t-113.5 52.5t-112.5 -52.5t-39.5 -144.5t39.5 -144.5t113.5 -52.5z
" />
    <glyph glyph-name="uni0253" unicode="&#x253;" horiz-adv-x="597" 
d="M323 -8q-59 0 -101.5 29.5t-64.5 86.5h-4v-108h-61v558q0 48 15.5 82.5t47 53.5t78.5 19q19 0 38.5 -2.5t30.5 -7.5l-6 -55q-8 4 -25.5 6t-32.5 2q-42 0 -60.5 -24.5t-18.5 -72.5v-169h3q21 55 62 84t99 29q64 0 111 -32t72.5 -89t25.5 -135q0 -77 -25.5 -134.5
t-72.5 -89t-111 -31.5zM311 50q73 0 113.5 52.5t40.5 144.5t-40.5 144.5t-114.5 52.5q-72 0 -112 -52.5t-40 -144.5t40 -144.5t113 -52.5z" />
    <glyph glyph-name="c" unicode="c" horiz-adv-x="477" 
d="M290 -8q-69 0 -120 30t-78.5 86.5t-27.5 137.5q0 80 28 137.5t79 88.5t120 31q48 0 89 -17t69 -46l-27 -51q-25 25 -57.5 39t-68.5 14q-77 0 -120.5 -50.5t-43.5 -147.5q0 -94 44 -143t119 -49q36 0 68 14t56 36l27 -50q-27 -29 -67 -44.5t-89 -15.5z" />
    <glyph glyph-name="cacute" unicode="&#x107;" horiz-adv-x="477" 
d="M290 -8q-69 0 -120 30t-78.5 86.5t-27.5 137.5q0 80 28 137.5t79 88.5t120 31q48 0 89 -17t69 -46l-27 -51q-25 25 -57.5 39t-68.5 14q-77 0 -120.5 -50.5t-43.5 -147.5q0 -94 44 -143t119 -49q36 0 68 14t56 36l27 -50q-27 -29 -67 -44.5t-89 -15.5zM257 559l94 186h77
l-118 -186h-53z" />
    <glyph glyph-name="ccaron" unicode="&#x10d;" horiz-adv-x="477" 
d="M290 -8q-69 0 -120 30t-78.5 86.5t-27.5 137.5q0 80 28 137.5t79 88.5t120 31q48 0 89 -17t69 -46l-27 -51q-25 25 -57.5 39t-68.5 14q-77 0 -120.5 -50.5t-43.5 -147.5q0 -94 44 -143t119 -49q36 0 68 14t56 36l27 -50q-27 -29 -67 -44.5t-89 -15.5zM251 559l-101 186
h52l83 -137l83 137h52l-101 -186h-68z" />
    <glyph glyph-name="ccedilla" unicode="&#xe7;" horiz-adv-x="477" 
d="M290 -8q-69 0 -120 30t-78.5 86.5t-27.5 137.5q0 80 28 137.5t79 88.5t120 31q48 0 89 -17t69 -46l-27 -51q-25 25 -57.5 39t-68.5 14q-77 0 -120.5 -50.5t-43.5 -147.5q0 -94 44 -143t119 -49q36 0 68 14t56 36l27 -50q-27 -29 -67 -44.5t-89 -15.5zM291 -193
q-22 0 -44.5 5t-37.5 14l12 41q16 -9 31.5 -13.5t36.5 -4.5q27 0 42 9.5t15 29.5q0 15 -9.5 23.5t-28.5 8.5q-8 0 -19.5 -2.5t-24.5 -6.5l-15 14l15 95h44l-13 -77l-21 7q10 3 23.5 5t26.5 2q20 0 37.5 -8t27.5 -23.5t10 -37.5q0 -25 -13.5 -43.5t-38 -28t-56.5 -9.5z" />
    <glyph glyph-name="uni1E09" unicode="&#x1e09;" horiz-adv-x="477" 
d="M290 -8q-69 0 -120 30t-78.5 86.5t-27.5 137.5q0 80 28 137.5t79 88.5t120 31q48 0 89 -17t69 -46l-27 -51q-25 25 -57.5 39t-68.5 14q-77 0 -120.5 -50.5t-43.5 -147.5q0 -94 44 -143t119 -49q36 0 68 14t56 36l27 -50q-27 -29 -67 -44.5t-89 -15.5zM291 -193
q-22 0 -44.5 5t-37.5 14l12 41q16 -9 31.5 -13.5t36.5 -4.5q27 0 42 9.5t15 29.5q0 15 -9.5 23.5t-28.5 8.5q-8 0 -19.5 -2.5t-24.5 -6.5l-15 14l15 95h44l-13 -77l-21 7q10 3 23.5 5t26.5 2q20 0 37.5 -8t27.5 -23.5t10 -37.5q0 -25 -13.5 -43.5t-38 -28t-56.5 -9.5z
M257 559l94 186h77l-118 -186h-53z" />
    <glyph glyph-name="ccircumflex" unicode="&#x109;" horiz-adv-x="477" 
d="M290 -8q-69 0 -120 30t-78.5 86.5t-27.5 137.5q0 80 28 137.5t79 88.5t120 31q48 0 89 -17t69 -46l-27 -51q-25 25 -57.5 39t-68.5 14q-77 0 -120.5 -50.5t-43.5 -147.5q0 -94 44 -143t119 -49q36 0 68 14t56 36l27 -50q-27 -29 -67 -44.5t-89 -15.5zM150 566l101 179h68
l101 -179h-52l-83 130l-83 -130h-52z" />
    <glyph glyph-name="cdotaccent" unicode="&#x10b;" horiz-adv-x="477" 
d="M290 -8q-69 0 -120 30t-78.5 86.5t-27.5 137.5q0 80 28 137.5t79 88.5t120 31q48 0 89 -17t69 -46l-27 -51q-25 25 -57.5 39t-68.5 14q-77 0 -120.5 -50.5t-43.5 -147.5q0 -94 44 -143t119 -49q36 0 68 14t56 36l27 -50q-27 -29 -67 -44.5t-89 -15.5zM244 623v80h82v-80
h-82z" />
    <glyph glyph-name="d" unicode="d" horiz-adv-x="597" 
d="M274 -8q-64 0 -111 31.5t-73 89t-26 134.5q0 78 26 135t72.5 89t110.5 32q59 0 100.5 -29t60.5 -84h3v315h68v-705h-62v108h-4q-21 -57 -63.5 -86.5t-101.5 -29.5zM285 50q74 0 113.5 52.5t39.5 144.5t-39.5 144.5t-112.5 52.5q-74 0 -114 -52.5t-40 -144.5t39.5 -144.5
t113.5 -52.5z" />
    <glyph glyph-name="eth" unicode="&#xf0;" horiz-adv-x="559" 
d="M283 -8q-67 0 -116 28t-76 81t-27 126t26 126t74 81.5t113 28.5q56 0 98.5 -30.5t58.5 -82.5h2q-6 82 -42.5 145t-100.5 107l14 -2l-143 -66l-20 44l117 56l-1 -12q-21 13 -46 23.5t-52 17.5l16 49q42 -9 77.5 -24.5t67.5 -35.5h-19l128 60l20 -44l-99 -47l1 9
q50 -40 83.5 -94t50.5 -120t17 -143q0 -90 -26 -152.5t-75.5 -95.5t-120.5 -33zM283 51q74 0 113 45t39 132t-39 132t-112 45q-71 0 -111.5 -46.5t-40.5 -130.5q0 -83 41 -130t110 -47z" />
    <glyph glyph-name="dcaron" unicode="&#x10f;" horiz-adv-x="597" 
d="M274 -8q-64 0 -111 31.5t-73 89t-26 134.5q0 78 26 135t72.5 89t110.5 32q59 0 100.5 -29t60.5 -84h3v315h68v-705h-62v108h-4q-21 -57 -63.5 -86.5t-101.5 -29.5zM285 50q74 0 113.5 52.5t39.5 144.5t-39.5 144.5t-112.5 52.5q-74 0 -114 -52.5t-40 -144.5t39.5 -144.5
t113.5 -52.5zM550 515v190h61l-21 -190h-40z" />
    <glyph glyph-name="dcroat" unicode="&#x111;" horiz-adv-x="608" 
d="M274 -8q-64 0 -111 30.5t-73 87t-26 132.5t26 132.5t73 87.5t110 31q59 0 100.5 -28.5t60.5 -83.5h3v177h-175v50h175v97h68v-96h80v-51h-80v-558h-62v108h-4q-21 -57 -63.5 -86.5t-101.5 -29.5zM285 49q74 0 113.5 51t39.5 142q0 89 -39.5 141.5t-112.5 52.5
q-49 0 -83.5 -24t-52.5 -67.5t-18 -102.5q0 -91 39.5 -142t113.5 -51z" />
    <glyph glyph-name="uni1E0D" unicode="&#x1e0d;" horiz-adv-x="597" 
d="M274 -8q-64 0 -111 31.5t-73 89t-26 134.5q0 78 26 135t72.5 89t110.5 32q59 0 100.5 -29t60.5 -84h3v315h68v-705h-62v108h-4q-21 -57 -63.5 -86.5t-101.5 -29.5zM285 50q74 0 113.5 52.5t39.5 144.5t-39.5 144.5t-112.5 52.5q-74 0 -114 -52.5t-40 -144.5t39.5 -144.5
t113.5 -52.5zM239 -183v80h82v-80h-82z" />
    <glyph glyph-name="uni0257" unicode="&#x257;" horiz-adv-x="597" 
d="M273 -8q-64 0 -111 31.5t-72.5 89t-25.5 134.5q0 78 26 135t72.5 89t110.5 32q59 0 100 -29t61 -84h3v168q0 48 15.5 83t47 53.5t78.5 18.5q19 0 38.5 -2.5t30.5 -7.5l-6 -55q-8 4 -25.5 6t-32.5 2q-42 0 -60 -25t-18 -72v-559h-62v108h-4q-22 -57 -64 -86.5t-102 -29.5z
M285 50q73 0 113 52.5t40 144.5t-40 144.5t-113 52.5t-113 -52.5t-40 -144.5t39.5 -144.5t113.5 -52.5z" />
    <glyph glyph-name="uni1E0F" unicode="&#x1e0f;" horiz-adv-x="597" 
d="M274 -8q-64 0 -111 31.5t-73 89t-26 134.5q0 78 26 135t72.5 89t110.5 32q59 0 100.5 -29t60.5 -84h3v315h68v-705h-62v108h-4q-21 -57 -63.5 -86.5t-101.5 -29.5zM285 50q74 0 113.5 52.5t39.5 144.5t-39.5 144.5t-112.5 52.5q-74 0 -114 -52.5t-40 -144.5t39.5 -144.5
t113.5 -52.5zM136 -157v55h288v-55h-288z" />
    <glyph glyph-name="uni01C6" unicode="&#x1c6;" horiz-adv-x="1088" 
d="M274 -8q-64 0 -111 31.5t-73 89t-26 134.5q0 78 26 135t72.5 89t110.5 32q59 0 100.5 -29t60.5 -84h3v315h68v-705h-62v108h-4q-21 -57 -63.5 -86.5t-101.5 -29.5zM285 50q74 0 113.5 52.5t39.5 144.5t-39.5 144.5t-112.5 52.5q-74 0 -114 -52.5t-40 -144.5t39.5 -144.5
t113.5 -52.5zM656 0v41l299 419l7 -25h-295v59h357v-43l-300 -420l-7 28h318v-59h-379zM814 559l-101 186h52l83 -137l83 137h52l-101 -186h-68z" />
    <glyph glyph-name="e" unicode="e" horiz-adv-x="554" 
d="M305 -8q-73 0 -127.5 28t-84 85t-29.5 143q0 75 26 132.5t75.5 90t120.5 32.5q69 0 114.5 -30.5t68 -86.5t22.5 -133v-24h-378v53h337l-20 -22q0 94 -37.5 140t-107.5 46q-44 0 -79 -21t-55.5 -63t-20.5 -105v-12q0 -66 22 -109t61.5 -64.5t92.5 -21.5q36 0 76 10.5
t73 39.5l28 -49q-37 -32 -84.5 -45.5t-93.5 -13.5z" />
    <glyph glyph-name="eacute" unicode="&#xe9;" horiz-adv-x="554" 
d="M305 -8q-73 0 -127.5 28t-84 85t-29.5 143q0 75 26 132.5t75.5 90t120.5 32.5q69 0 114.5 -30.5t68 -86.5t22.5 -133v-24h-378v53h337l-20 -22q0 94 -37.5 140t-107.5 46q-44 0 -79 -21t-55.5 -63t-20.5 -105v-12q0 -66 22 -109t61.5 -64.5t92.5 -21.5q36 0 76 10.5
t73 39.5l28 -49q-37 -32 -84.5 -45.5t-93.5 -13.5zM257 559l94 186h77l-118 -186h-53z" />
    <glyph glyph-name="ebreve" unicode="&#x115;" horiz-adv-x="554" 
d="M305 -8q-73 0 -127.5 28t-84 85t-29.5 143q0 75 26 132.5t75.5 90t120.5 32.5q69 0 114.5 -30.5t68 -86.5t22.5 -133v-24h-378v53h337l-20 -22q0 94 -37.5 140t-107.5 46q-44 0 -79 -21t-55.5 -63t-20.5 -105v-12q0 -66 22 -109t61.5 -64.5t92.5 -21.5q36 0 76 10.5
t73 39.5l28 -49q-37 -32 -84.5 -45.5t-93.5 -13.5zM285 556q-44 0 -74 22t-47 63.5t-19 99.5l49 5q3 -69 24.5 -102.5t66.5 -33.5q44 0 66 33.5t25 102.5l49 -5q-2 -58 -19 -99.5t-47.5 -63.5t-73.5 -22z" />
    <glyph glyph-name="ecaron" unicode="&#x11b;" horiz-adv-x="554" 
d="M305 -8q-73 0 -127.5 28t-84 85t-29.5 143q0 75 26 132.5t75.5 90t120.5 32.5q69 0 114.5 -30.5t68 -86.5t22.5 -133v-24h-378v53h337l-20 -22q0 94 -37.5 140t-107.5 46q-44 0 -79 -21t-55.5 -63t-20.5 -105v-12q0 -66 22 -109t61.5 -64.5t92.5 -21.5q36 0 76 10.5
t73 39.5l28 -49q-37 -32 -84.5 -45.5t-93.5 -13.5zM251 559l-101 186h52l83 -137l83 137h52l-101 -186h-68z" />
    <glyph glyph-name="uni1E1D" unicode="&#x1e1d;" horiz-adv-x="554" 
d="M305 -8q-73 0 -127.5 28t-84 85t-29.5 143q0 75 26 132.5t75.5 90t120.5 32.5q69 0 114.5 -30.5t68 -86.5t22.5 -133v-24h-378v53h337l-20 -22q0 94 -37.5 140t-107.5 46q-44 0 -79 -21t-55.5 -63t-20.5 -105v-12q0 -66 22 -109t61.5 -64.5t92.5 -21.5q36 0 76 10.5
t73 39.5l28 -49q-37 -32 -84.5 -45.5t-93.5 -13.5zM289 -193q-22 0 -44.5 5t-37.5 14l12 41q16 -9 31.5 -13.5t36.5 -4.5q27 0 42 9.5t15 29.5q0 15 -9.5 23.5t-28.5 8.5q-8 0 -19.5 -2.5t-24.5 -6.5l-15 14l15 95h44l-13 -77l-21 7q10 3 23.5 5t26.5 2q20 0 37.5 -8
t27.5 -23.5t10 -37.5q0 -25 -13.5 -43.5t-38 -28t-56.5 -9.5zM285 556q-44 0 -74 22t-47 63.5t-19 99.5l49 5q3 -69 24.5 -102.5t66.5 -33.5q44 0 66 33.5t25 102.5l49 -5q-2 -58 -19 -99.5t-47.5 -63.5t-73.5 -22z" />
    <glyph glyph-name="ecircumflex" unicode="&#xea;" horiz-adv-x="554" 
d="M305 -8q-73 0 -127.5 28t-84 85t-29.5 143q0 75 26 132.5t75.5 90t120.5 32.5q69 0 114.5 -30.5t68 -86.5t22.5 -133v-24h-378v53h337l-20 -22q0 94 -37.5 140t-107.5 46q-44 0 -79 -21t-55.5 -63t-20.5 -105v-12q0 -66 22 -109t61.5 -64.5t92.5 -21.5q36 0 76 10.5
t73 39.5l28 -49q-37 -32 -84.5 -45.5t-93.5 -13.5zM150 566l101 179h68l101 -179h-52l-83 130l-83 -130h-52z" />
    <glyph glyph-name="uni1EBF" unicode="&#x1ebf;" horiz-adv-x="554" 
d="M305 -8q-73 0 -127.5 28t-84 85t-29.5 143q0 75 26 132.5t75.5 90t120.5 32.5q69 0 114.5 -30.5t68 -86.5t22.5 -133v-24h-378v53h337l-20 -22q0 94 -37.5 140t-107.5 46q-44 0 -79 -21t-55.5 -63t-20.5 -105v-12q0 -66 22 -109t61.5 -64.5t92.5 -21.5q36 0 76 10.5
t73 39.5l28 -49q-37 -32 -84.5 -45.5t-93.5 -13.5zM147 567l105 158h67l105 -158h-53l-86 110l-86 -110h-52zM372 675l74 151h70l-97 -151h-47z" />
    <glyph glyph-name="uni1EC7" unicode="&#x1ec7;" horiz-adv-x="554" 
d="M305 -8q-73 0 -127.5 28t-84 85t-29.5 143q0 75 26 132.5t75.5 90t120.5 32.5q69 0 114.5 -30.5t68 -86.5t22.5 -133v-24h-378v53h337l-20 -22q0 94 -37.5 140t-107.5 46q-44 0 -79 -21t-55.5 -63t-20.5 -105v-12q0 -66 22 -109t61.5 -64.5t92.5 -21.5q36 0 76 10.5
t73 39.5l28 -49q-37 -32 -84.5 -45.5t-93.5 -13.5zM244 -183v80h82v-80h-82zM150 566l101 179h68l101 -179h-52l-83 130l-83 -130h-52z" />
    <glyph glyph-name="uni1EC1" unicode="&#x1ec1;" horiz-adv-x="554" 
d="M305 -8q-73 0 -127.5 28t-84 85t-29.5 143q0 75 26 132.5t75.5 90t120.5 32.5q69 0 114.5 -30.5t68 -86.5t22.5 -133v-24h-378v53h337l-20 -22q0 94 -37.5 140t-107.5 46q-44 0 -79 -21t-55.5 -63t-20.5 -105v-12q0 -66 22 -109t61.5 -64.5t92.5 -21.5q36 0 76 10.5
t73 39.5l28 -49q-37 -32 -84.5 -45.5t-93.5 -13.5zM147 567l105 158h67l105 -158h-53l-86 110l-86 -110h-52zM410 675l-96 151h70l74 -151h-48z" />
    <glyph glyph-name="uni1EC3" unicode="&#x1ec3;" horiz-adv-x="554" 
d="M305 -8q-73 0 -127.5 28t-84 85t-29.5 143q0 75 26 132.5t75.5 90t120.5 32.5q69 0 114.5 -30.5t68 -86.5t22.5 -133v-24h-378v53h337l-20 -22q0 94 -37.5 140t-107.5 46q-44 0 -79 -21t-55.5 -63t-20.5 -105v-12q0 -66 22 -109t61.5 -64.5t92.5 -21.5q36 0 76 10.5
t73 39.5l28 -49q-37 -32 -84.5 -45.5t-93.5 -13.5zM147 568l105 158h67l105 -158h-53l-86 110l-86 -110h-52zM375 679q0 20 8.5 32.5t20 22t19.5 17.5t8 19q0 12 -12 17.5t-31 5.5q-12 0 -26 -3.5t-28 -10.5l-12 37q15 8 34.5 13t46.5 5q39 0 61 -14.5t22 -38.5
q0 -20 -9.5 -32.5t-22 -21.5t-22 -20t-9.5 -28h-48z" />
    <glyph glyph-name="uni1EC5" unicode="&#x1ec5;" horiz-adv-x="554" 
d="M305 -8q-73 0 -127.5 28t-84 85t-29.5 143q0 75 26 132.5t75.5 90t120.5 32.5q69 0 114.5 -30.5t68 -86.5t22.5 -133v-24h-378v53h337l-20 -22q0 94 -37.5 140t-107.5 46q-44 0 -79 -21t-55.5 -63t-20.5 -105v-12q0 -66 22 -109t61.5 -64.5t92.5 -21.5q36 0 76 10.5
t73 39.5l28 -49q-37 -32 -84.5 -45.5t-93.5 -13.5zM147 567l105 133h67l105 -133h-53l-86 89l-86 -89h-52zM182 729l-43 3q3 32 13.5 54t28.5 34t43 12q24 0 41 -10t30 -19q10 -8 23 -16t27 -8q18 0 28.5 12.5t14.5 42.5l43 -4q-4 -46 -25 -72.5t-60 -26.5q-23 0 -40 10
t-29 18q-14 11 -26 18t-26 7q-16 0 -27 -12t-16 -43z" />
    <glyph glyph-name="uni0205" unicode="&#x205;" horiz-adv-x="554" 
d="M305 -8q-73 0 -127.5 28t-84 85t-29.5 143q0 75 26 132.5t75.5 90t120.5 32.5q69 0 114.5 -30.5t68 -86.5t22.5 -133v-24h-378v53h337l-20 -22q0 94 -37.5 140t-107.5 46q-44 0 -79 -21t-55.5 -63t-20.5 -105v-12q0 -66 22 -109t61.5 -64.5t92.5 -21.5q36 0 76 10.5
t73 39.5l28 -49q-37 -32 -84.5 -45.5t-93.5 -13.5zM323 559l-75 186h66l49 -186h-40zM208 559l-75 186h66l49 -186h-40z" />
    <glyph glyph-name="edieresis" unicode="&#xeb;" horiz-adv-x="554" 
d="M305 -8q-73 0 -127.5 28t-84 85t-29.5 143q0 75 26 132.5t75.5 90t120.5 32.5q69 0 114.5 -30.5t68 -86.5t22.5 -133v-24h-378v53h337l-20 -22q0 94 -37.5 140t-107.5 46q-44 0 -79 -21t-55.5 -63t-20.5 -105v-12q0 -66 22 -109t61.5 -64.5t92.5 -21.5q36 0 76 10.5
t73 39.5l28 -49q-37 -32 -84.5 -45.5t-93.5 -13.5zM332 623v78h80v-78h-80zM158 623v78h80v-78h-80z" />
    <glyph glyph-name="edotaccent" unicode="&#x117;" horiz-adv-x="554" 
d="M305 -8q-73 0 -127.5 28t-84 85t-29.5 143q0 75 26 132.5t75.5 90t120.5 32.5q69 0 114.5 -30.5t68 -86.5t22.5 -133v-24h-378v53h337l-20 -22q0 94 -37.5 140t-107.5 46q-44 0 -79 -21t-55.5 -63t-20.5 -105v-12q0 -66 22 -109t61.5 -64.5t92.5 -21.5q36 0 76 10.5
t73 39.5l28 -49q-37 -32 -84.5 -45.5t-93.5 -13.5zM244 623v80h82v-80h-82z" />
    <glyph glyph-name="uni1EB9" unicode="&#x1eb9;" horiz-adv-x="554" 
d="M305 -8q-73 0 -127.5 28t-84 85t-29.5 143q0 75 26 132.5t75.5 90t120.5 32.5q69 0 114.5 -30.5t68 -86.5t22.5 -133v-24h-378v53h337l-20 -22q0 94 -37.5 140t-107.5 46q-44 0 -79 -21t-55.5 -63t-20.5 -105v-12q0 -66 22 -109t61.5 -64.5t92.5 -21.5q36 0 76 10.5
t73 39.5l28 -49q-37 -32 -84.5 -45.5t-93.5 -13.5zM244 -183v80h82v-80h-82z" />
    <glyph glyph-name="egrave" unicode="&#xe8;" horiz-adv-x="554" 
d="M305 -8q-73 0 -127.5 28t-84 85t-29.5 143q0 75 26 132.5t75.5 90t120.5 32.5q69 0 114.5 -30.5t68 -86.5t22.5 -133v-24h-378v53h337l-20 -22q0 94 -37.5 140t-107.5 46q-44 0 -79 -21t-55.5 -63t-20.5 -105v-12q0 -66 22 -109t61.5 -64.5t92.5 -21.5q36 0 76 10.5
t73 39.5l28 -49q-37 -32 -84.5 -45.5t-93.5 -13.5zM260 560l-118 185h77l94 -185h-53z" />
    <glyph glyph-name="uni1EBB" unicode="&#x1ebb;" horiz-adv-x="554" 
d="M305 -8q-73 0 -127.5 28t-84 85t-29.5 143q0 75 26 132.5t75.5 90t120.5 32.5q69 0 114.5 -30.5t68 -86.5t22.5 -133v-24h-378v53h337l-20 -22q0 94 -37.5 140t-107.5 46q-44 0 -79 -21t-55.5 -63t-20.5 -105v-12q0 -66 22 -109t61.5 -64.5t92.5 -21.5q36 0 76 10.5
t73 39.5l28 -49q-37 -32 -84.5 -45.5t-93.5 -13.5zM259 560v20q0 24 9 39t20.5 25.5t20.5 21.5t9 26t-11 23t-33 8q-14 0 -28 -3.5t-30 -11.5l-13 41q18 10 38.5 15t46.5 5q43 0 67 -17.5t24 -50.5q0 -25 -10.5 -40.5t-24 -26.5t-24 -24t-10.5 -35v-15h-51z" />
    <glyph glyph-name="uni0207" unicode="&#x207;" horiz-adv-x="554" 
d="M305 -8q-73 0 -127.5 28t-84 85t-29.5 143q0 75 26 132.5t75.5 90t120.5 32.5q69 0 114.5 -30.5t68 -86.5t22.5 -133v-24h-378v53h337l-20 -22q0 94 -37.5 140t-107.5 46q-44 0 -79 -21t-55.5 -63t-20.5 -105v-12q0 -66 22 -109t61.5 -64.5t92.5 -21.5q36 0 76 10.5
t73 39.5l28 -49q-37 -32 -84.5 -45.5t-93.5 -13.5zM194 556l-49 5q3 59 19.5 100t47 63t73.5 22q44 0 74.5 -22t47 -63t18.5 -100l-49 -5q-3 69 -24.5 103t-66.5 34q-44 0 -66 -34t-25 -103z" />
    <glyph glyph-name="emacron" unicode="&#x113;" horiz-adv-x="554" 
d="M305 -8q-73 0 -127.5 28t-84 85t-29.5 143q0 75 26 132.5t75.5 90t120.5 32.5q69 0 114.5 -30.5t68 -86.5t22.5 -133v-24h-378v53h337l-20 -22q0 94 -37.5 140t-107.5 46q-44 0 -79 -21t-55.5 -63t-20.5 -105v-12q0 -66 22 -109t61.5 -64.5t92.5 -21.5q36 0 76 10.5
t73 39.5l28 -49q-37 -32 -84.5 -45.5t-93.5 -13.5zM141 635v56h288v-56h-288z" />
    <glyph glyph-name="uni1E17" unicode="&#x1e17;" horiz-adv-x="554" 
d="M305 -8q-73 0 -127.5 28t-84 85t-29.5 143q0 75 26 132.5t75.5 90t120.5 32.5q69 0 114.5 -30.5t68 -86.5t22.5 -133v-24h-378v53h337l-20 -22q0 94 -37.5 140t-107.5 46q-44 0 -79 -21t-55.5 -63t-20.5 -105v-12q0 -66 22 -109t61.5 -64.5t92.5 -21.5q36 0 76 10.5
t73 39.5l28 -49q-37 -32 -84.5 -45.5t-93.5 -13.5zM150 585v52h270v-52h-270zM245 676l83 147h76l-108 -147h-51z" />
    <glyph glyph-name="uni1E15" unicode="&#x1e15;" horiz-adv-x="554" 
d="M305 -8q-73 0 -127.5 28t-84 85t-29.5 143q0 75 26 132.5t75.5 90t120.5 32.5q69 0 114.5 -30.5t68 -86.5t22.5 -133v-24h-378v53h337l-20 -22q0 94 -37.5 140t-107.5 46q-44 0 -79 -21t-55.5 -63t-20.5 -105v-12q0 -66 22 -109t61.5 -64.5t92.5 -21.5q36 0 76 10.5
t73 39.5l28 -49q-37 -32 -84.5 -45.5t-93.5 -13.5zM150 585v52h270v-52h-270zM274 676l-108 147h76l83 -147h-51z" />
    <glyph glyph-name="eogonek" unicode="&#x119;" horiz-adv-x="554" 
d="M305 -8q-73 0 -127.5 28t-84 85t-29.5 143q0 75 26 132.5t75.5 90t120.5 32.5q69 0 114.5 -30.5t68 -86.5t22.5 -133v-24h-378v53h337l-20 -22q0 94 -37.5 140t-107.5 46q-44 0 -79 -21t-55.5 -63t-20.5 -105v-12q0 -66 22 -109t61.5 -64.5t92.5 -21.5q36 0 76 10.5
t73 39.5l28 -49q-37 -32 -84.5 -45.5t-93.5 -13.5zM340 -194q-43 0 -71 25t-28 68q0 39 25 73.5t66 57.5l26 -30q-16 -8 -30 -22t-22.5 -31.5t-8.5 -37.5q0 -28 14.5 -40.5t36.5 -12.5q10 0 22.5 3t24.5 9l15 -46q-13 -7 -30.5 -11.5t-39.5 -4.5z" />
    <glyph glyph-name="uni1EBD" unicode="&#x1ebd;" horiz-adv-x="554" 
d="M305 -8q-73 0 -127.5 28t-84 85t-29.5 143q0 75 26 132.5t75.5 90t120.5 32.5q69 0 114.5 -30.5t68 -86.5t22.5 -133v-24h-378v53h337l-20 -22q0 94 -37.5 140t-107.5 46q-44 0 -79 -21t-55.5 -63t-20.5 -105v-12q0 -66 22 -109t61.5 -64.5t92.5 -21.5q36 0 76 10.5
t73 39.5l28 -49q-37 -32 -84.5 -45.5t-93.5 -13.5zM167 598l-44 3q2 56 26.5 89.5t64.5 33.5q28 0 48.5 -14.5t35.5 -27.5q12 -9 26 -20t30 -11q23 0 34.5 19.5t14.5 56.5l44 -4q-2 -57 -26 -90t-64 -33q-29 0 -50 15t-35 27q-12 11 -26 21t-30 10q-22 0 -33.5 -19
t-15.5 -56z" />
    <glyph glyph-name="uni0259" unicode="&#x259;" horiz-adv-x="554" 
d="M267 -8q-69 0 -114 30.5t-67 86t-22 132.5v24h377v-53h-337l19 22q0 -94 38 -140t107 -46q45 0 80 22t55.5 65t20.5 103v11q0 67 -22 110t-61 64t-93 21q-36 0 -75.5 -10t-73.5 -40l-27 49q36 32 83.5 46t93.5 14q73 0 127.5 -28t84 -85t29.5 -144q0 -74 -26 -131.5
t-75.5 -90t-121.5 -32.5z" />
    <glyph glyph-name="uni0292" unicode="&#x292;" horiz-adv-x="518" 
d="M239 -191q-62 0 -115.5 16.5t-88.5 45.5l26 54q32 -27 75.5 -42t97.5 -15q85 0 127 36.5t42 110.5q0 72 -43.5 105t-126.5 33h-90l-3 47l233 259l2 -23h-323v58h387v-46l-226 -251l-10 12h47q106 0 163.5 -49t57.5 -141q0 -65 -28 -112.5t-79 -72.5t-125 -25z" />
    <glyph glyph-name="uni01EF" unicode="&#x1ef;" horiz-adv-x="518" 
d="M239 -191q-62 0 -115.5 16.5t-88.5 45.5l26 54q32 -27 75.5 -42t97.5 -15q85 0 127 36.5t42 110.5q0 72 -43.5 105t-126.5 33h-90l-3 47l233 259l2 -23h-323v58h387v-46l-226 -251l-10 12h47q106 0 163.5 -49t57.5 -141q0 -65 -28 -112.5t-79 -72.5t-125 -25zM211 559
l-101 186h52l83 -137l83 137h52l-101 -186h-68z" />
    <glyph glyph-name="f" unicode="f" horiz-adv-x="371" 
d="M120 0v439h-94v55h110l-16 -16v38q0 90 48 137t141 53l46 2l6 -57l-54 -4q-31 -2 -58.5 -12.5t-44.5 -37t-17 -76.5v-37l-14 10h165v-55h-151v-439h-67z" />
    <glyph glyph-name="g" unicode="g" horiz-adv-x="595" 
d="M281 -188q-51 0 -103.5 17t-91.5 46l24 54q26 -18 55 -30.5t59 -19.5t57 -7q74 0 116 40t42 113v99h-5q-18 -51 -59 -81t-99 -30q-65 0 -112.5 29t-73.5 84.5t-26 131.5t26 131t73.5 84.5t112.5 29.5q58 0 100 -31t60 -86h4v108h63v-465q0 -66 -27 -115t-77 -75.5
t-118 -26.5zM285 72q72 0 112.5 49.5t40.5 136.5q0 88 -40.5 137t-112.5 49q-73 0 -113 -49t-40 -137q0 -87 40 -136.5t113 -49.5z" />
    <glyph glyph-name="gbreve" unicode="&#x11f;" horiz-adv-x="595" 
d="M281 -188q-51 0 -103.5 17t-91.5 46l24 54q26 -18 55 -30.5t59 -19.5t57 -7q74 0 116 40t42 113v99h-5q-18 -51 -59 -81t-99 -30q-65 0 -112.5 29t-73.5 84.5t-26 131.5t26 131t73.5 84.5t112.5 29.5q58 0 100 -31t60 -86h4v108h63v-465q0 -66 -27 -115t-77 -75.5
t-118 -26.5zM285 72q72 0 112.5 49.5t40.5 136.5q0 88 -40.5 137t-112.5 49q-73 0 -113 -49t-40 -137q0 -87 40 -136.5t113 -49.5zM281 556q-44 0 -74 22t-47 63.5t-19 99.5l49 5q3 -69 24.5 -102.5t66.5 -33.5q44 0 66 33.5t25 102.5l49 -5q-2 -58 -19 -99.5t-47.5 -63.5
t-73.5 -22z" />
    <glyph glyph-name="gcaron" unicode="&#x1e7;" horiz-adv-x="595" 
d="M281 -188q-51 0 -103.5 17t-91.5 46l24 54q26 -18 55 -30.5t59 -19.5t57 -7q74 0 116 40t42 113v99h-5q-18 -51 -59 -81t-99 -30q-65 0 -112.5 29t-73.5 84.5t-26 131.5t26 131t73.5 84.5t112.5 29.5q58 0 100 -31t60 -86h4v108h63v-465q0 -66 -27 -115t-77 -75.5
t-118 -26.5zM285 72q72 0 112.5 49.5t40.5 136.5q0 88 -40.5 137t-112.5 49q-73 0 -113 -49t-40 -137q0 -87 40 -136.5t113 -49.5zM247 559l-101 186h52l83 -137l83 137h52l-101 -186h-68z" />
    <glyph glyph-name="gcircumflex" unicode="&#x11d;" horiz-adv-x="595" 
d="M281 -188q-51 0 -103.5 17t-91.5 46l24 54q26 -18 55 -30.5t59 -19.5t57 -7q74 0 116 40t42 113v99h-5q-18 -51 -59 -81t-99 -30q-65 0 -112.5 29t-73.5 84.5t-26 131.5t26 131t73.5 84.5t112.5 29.5q58 0 100 -31t60 -86h4v108h63v-465q0 -66 -27 -115t-77 -75.5
t-118 -26.5zM285 72q72 0 112.5 49.5t40.5 136.5q0 88 -40.5 137t-112.5 49q-73 0 -113 -49t-40 -137q0 -87 40 -136.5t113 -49.5zM146 566l101 179h68l101 -179h-52l-83 130l-83 -130h-52z" />
    <glyph glyph-name="uni0123" unicode="&#x123;" horiz-adv-x="595" 
d="M281 -188q-51 0 -103.5 17t-91.5 46l24 54q26 -18 55 -30.5t59 -19.5t57 -7q74 0 116 40t42 113v99h-5q-18 -51 -59 -81t-99 -30q-65 0 -112.5 29t-73.5 84.5t-26 131.5t26 131t73.5 84.5t112.5 29.5q58 0 100 -31t60 -86h4v108h63v-465q0 -66 -27 -115t-77 -75.5
t-118 -26.5zM285 72q72 0 112.5 49.5t40.5 136.5q0 88 -40.5 137t-112.5 49q-73 0 -113 -49t-40 -137q0 -87 40 -136.5t113 -49.5zM238 579v64q0 40 11.5 74.5t35.5 61.5l34 -26q-22 -24 -30 -49t-8 -52l-11 10h54v-83h-86z" />
    <glyph glyph-name="gdotaccent" unicode="&#x121;" horiz-adv-x="595" 
d="M281 -188q-51 0 -103.5 17t-91.5 46l24 54q26 -18 55 -30.5t59 -19.5t57 -7q74 0 116 40t42 113v99h-5q-18 -51 -59 -81t-99 -30q-65 0 -112.5 29t-73.5 84.5t-26 131.5t26 131t73.5 84.5t112.5 29.5q58 0 100 -31t60 -86h4v108h63v-465q0 -66 -27 -115t-77 -75.5
t-118 -26.5zM285 72q72 0 112.5 49.5t40.5 136.5q0 88 -40.5 137t-112.5 49q-73 0 -113 -49t-40 -137q0 -87 40 -136.5t113 -49.5zM240 623v80h82v-80h-82z" />
    <glyph glyph-name="uni1E21" unicode="&#x1e21;" horiz-adv-x="595" 
d="M281 -188q-51 0 -103.5 17t-91.5 46l24 54q26 -18 55 -30.5t59 -19.5t57 -7q74 0 116 40t42 113v99h-5q-18 -51 -59 -81t-99 -30q-65 0 -112.5 29t-73.5 84.5t-26 131.5t26 131t73.5 84.5t112.5 29.5q58 0 100 -31t60 -86h4v108h63v-465q0 -66 -27 -115t-77 -75.5
t-118 -26.5zM285 72q72 0 112.5 49.5t40.5 136.5q0 88 -40.5 137t-112.5 49q-73 0 -113 -49t-40 -137q0 -87 40 -136.5t113 -49.5zM137 635v56h288v-56h-288z" />
    <glyph glyph-name="uni01E5" unicode="&#x1e5;" horiz-adv-x="595" 
d="M280 -188q-51 0 -103.5 13.5t-91.5 42.5l23 51q26 -18 55.5 -28.5t59.5 -15.5t57 -5q50 0 85.5 18t53.5 55l1 -9h-154v46h177l-12 -6q3 11 5 23t2 26v124h-5q-17 -52 -59 -82.5t-99 -30.5q-65 0 -112.5 28.5t-73 81.5t-25.5 124q0 72 25.5 124.5t73 81.5t112.5 29
q57 0 100 -32t61 -87h4v110h63v-465q0 -18 -2 -32.5t-6 -28.5l-9 12h90v-46h-96l7 8q-21 -63 -75 -96.5t-132 -33.5zM285 91q48 0 82 21.5t52.5 59.5t18.5 88q0 86 -40.5 135t-112.5 49q-48 0 -82.5 -21.5t-52.5 -61.5t-18 -93t18 -93t52.5 -62t82.5 -22z" />
    <glyph glyph-name="h" unicode="h" horiz-adv-x="582" 
d="M92 0v705h66v-310h4q19 46 61.5 77t100.5 31q54 0 91 -19.5t56.5 -59.5t19.5 -104v-320h-67v316q0 40 -11.5 68t-36 43t-63.5 15q-42 0 -77 -20.5t-56 -53.5t-21 -73v-295h-67z" />
    <glyph glyph-name="hbar" unicode="&#x127;" horiz-adv-x="590" 
d="M101 0v558h-82v51h82v96h65v-96h176v-51h-176v-178h4q19 51 61.5 82t100.5 31q84 0 126 -46t42 -138v-309h-67v305q0 38 -11 67t-35 45t-66 16q-44 0 -78.5 -21.5t-54.5 -56t-20 -75.5v-280h-67z" />
    <glyph glyph-name="uni1E2B" unicode="&#x1e2b;" horiz-adv-x="582" 
d="M92 0v705h66v-310h4q19 46 61.5 77t100.5 31q54 0 91 -19.5t56.5 -59.5t19.5 -104v-320h-67v316q0 40 -11.5 68t-36 43t-63.5 15q-42 0 -77 -20.5t-56 -53.5t-21 -73v-295h-67zM297 -208q-62 0 -100 37t-41 105l47 6q3 -47 26.5 -72t67.5 -25q43 0 67.5 25t26.5 72l47 -6
q-3 -67 -41 -104.5t-100 -37.5z" />
    <glyph glyph-name="uni021F" unicode="&#x21f;" horiz-adv-x="582" 
d="M92 0v705h66v-310h4q19 46 61.5 77t100.5 31q54 0 91 -19.5t56.5 -59.5t19.5 -104v-320h-67v316q0 40 -11.5 68t-36 43t-63.5 15q-42 0 -77 -20.5t-56 -53.5t-21 -73v-295h-67zM247 765l-114 163h54l93 -115l93 115h54l-114 -163h-66z" />
    <glyph glyph-name="hcircumflex" unicode="&#x125;" horiz-adv-x="582" 
d="M92 0v705h66v-310h4q19 46 61.5 77t100.5 31q54 0 91 -19.5t56.5 -59.5t19.5 -104v-320h-67v316q0 40 -11.5 68t-36 43t-63.5 15q-42 0 -77 -20.5t-56 -53.5t-21 -73v-295h-67zM133 765l114 163h66l114 -163h-54l-93 115l-93 -115h-54z" />
    <glyph glyph-name="uni1E25" unicode="&#x1e25;" horiz-adv-x="582" 
d="M92 0v705h66v-310h4q19 46 61.5 77t100.5 31q54 0 91 -19.5t56.5 -59.5t19.5 -104v-320h-67v316q0 40 -11.5 68t-36 43t-63.5 15q-42 0 -77 -20.5t-56 -53.5t-21 -73v-295h-67zM256 -183v80h82v-80h-82z" />
    <glyph glyph-name="i" unicode="i" horiz-adv-x="251" 
d="M83 622v82h84v-82h-84zM92 0v494h67v-494h-67z" />
    <glyph glyph-name="dotlessi" unicode="&#x131;" horiz-adv-x="251" 
d="M92 0v494h67v-494h-67z" />
    <glyph glyph-name="iacute" unicode="&#xed;" horiz-adv-x="251" 
d="M92 0v494h67v-494h-67zM97 559l94 186h77l-118 -186h-53z" />
    <glyph glyph-name="ibreve" unicode="&#x12d;" horiz-adv-x="251" 
d="M92 0v494h67v-494h-67zM125 556q-44 0 -74 22t-47 63.5t-19 99.5l49 5q3 -69 24.5 -102.5t66.5 -33.5q44 0 66 33.5t25 102.5l49 -5q-2 -58 -19 -99.5t-47.5 -63.5t-73.5 -22z" />
    <glyph glyph-name="icircumflex" unicode="&#xee;" horiz-adv-x="251" 
d="M92 0v494h67v-494h-67zM-10 566l101 179h68l101 -179h-52l-83 130l-83 -130h-52z" />
    <glyph glyph-name="uni0209" unicode="&#x209;" horiz-adv-x="251" 
d="M92 0v494h67v-494h-67zM163 559l-75 186h66l49 -186h-40zM48 559l-75 186h66l49 -186h-40z" />
    <glyph glyph-name="idieresis" unicode="&#xef;" horiz-adv-x="251" 
d="M92 0v494h67v-494h-67zM172 623v78h80v-78h-80zM-2 623v78h80v-78h-80z" />
    <glyph glyph-name="uni1E2F" unicode="&#x1e2f;" horiz-adv-x="251" 
d="M92 0v494h67v-494h-67zM99 670l82 147h76l-108 -147h-50zM-1 560v72h80v-72h-80zM171 560v72h80v-72h-80z" />
    <glyph glyph-name="i.loclTRK" horiz-adv-x="251" 
d="M92 0v494h67v-494h-67zM84 623v80h82v-80h-82z" />
    <glyph glyph-name="uni1ECB" unicode="&#x1ecb;" horiz-adv-x="251" 
d="M83 622v82h84v-82h-84zM92 0v494h67v-494h-67zM81 -183v80h82v-80h-82z" />
    <glyph glyph-name="igrave" unicode="&#xec;" horiz-adv-x="251" 
d="M92 0v494h67v-494h-67zM100 560l-118 185h77l94 -185h-53z" />
    <glyph glyph-name="uni1EC9" unicode="&#x1ec9;" horiz-adv-x="251" 
d="M92 0v494h67v-494h-67zM99 560v20q0 24 9 39t20.5 25.5t20.5 21.5t9 26t-11 23t-33 8q-14 0 -28 -3.5t-30 -11.5l-13 41q18 10 38.5 15t46.5 5q43 0 67 -17.5t24 -50.5q0 -25 -10.5 -40.5t-24 -26.5t-24 -24t-10.5 -35v-15h-51z" />
    <glyph glyph-name="uni020B" unicode="&#x20b;" horiz-adv-x="251" 
d="M92 0v494h67v-494h-67zM34 556l-49 5q3 59 19.5 100t47 63t73.5 22q44 0 74.5 -22t47 -63t18.5 -100l-49 -5q-3 69 -24.5 103t-66.5 34q-44 0 -66 -34t-25 -103z" />
    <glyph glyph-name="ij" unicode="&#x133;" horiz-adv-x="480" 
d="M83 622v82h84v-82h-84zM92 0v494h67v-494h-67zM325 622v82h83v-82h-83zM204 -193l-5 59l45 6q42 5 65.5 26t23.5 78v518h67v-517q0 -39 -9 -67.5t-26.5 -49t-46 -32t-66.5 -16.5z" />
    <glyph glyph-name="imacron" unicode="&#x12b;" horiz-adv-x="251" 
d="M92 0v494h67v-494h-67zM-19 635v56h288v-56h-288z" />
    <glyph glyph-name="iogonek" unicode="&#x12f;" horiz-adv-x="251" 
d="M92 0v494h67v-494h-67zM83 622v82h84v-82h-84zM135 -194q-43 0 -71 25t-28 68q0 39 25 73.5t66 57.5l26 -30q-16 -8 -30 -22t-22.5 -31.5t-8.5 -37.5q0 -28 14.5 -40.5t36.5 -12.5q10 0 22.5 3t24.5 9l15 -46q-13 -7 -30.5 -11.5t-39.5 -4.5z" />
    <glyph glyph-name="itilde" unicode="&#x129;" horiz-adv-x="251" 
d="M92 0v494h67v-494h-67zM7 598l-44 3q2 56 26.5 89.5t64.5 33.5q28 0 48.5 -14.5t35.5 -27.5q12 -9 26 -20t30 -11q23 0 34.5 19.5t14.5 56.5l44 -4q-2 -57 -26 -90t-64 -33q-29 0 -50 15t-35 27q-12 11 -26 21t-30 10q-22 0 -33.5 -19t-15.5 -56z" />
    <glyph glyph-name="j" unicode="j" horiz-adv-x="229" 
d="M74 622v82h83v-82h-83zM-47 -193l-5 59l45 6q42 5 65.5 26t23.5 78v518h67v-517q0 -39 -9 -67.5t-26.5 -49t-46 -32t-66.5 -16.5z" />
    <glyph glyph-name="uni0237" unicode="&#x237;" horiz-adv-x="229" 
d="M-47 -193l-5 59l45 6q42 5 65.5 26t23.5 78v518h67v-517q0 -39 -9 -67.5t-26.5 -49t-46 -32t-66.5 -16.5z" />
    <glyph glyph-name="jcircumflex" unicode="&#x135;" horiz-adv-x="229" 
d="M-47 -193l-5 59l45 6q42 5 65.5 26t23.5 78v518h67v-517q0 -39 -9 -67.5t-26.5 -49t-46 -32t-66.5 -16.5zM-19 566l101 179h68l101 -179h-52l-83 130l-83 -130h-52z" />
    <glyph glyph-name="k" unicode="k" horiz-adv-x="492" 
d="M92 0v705h67v-435h4l213 224h85l-248 -256l2 35l272 -273h-89l-235 234h-4v-234h-67z" />
    <glyph glyph-name="uni01E9" unicode="&#x1e9;" horiz-adv-x="492" 
d="M92 0v705h67v-435h4l213 224h85l-248 -256l2 35l272 -273h-89l-235 234h-4v-234h-67zM247 765l-114 163h54l93 -115l93 115h54l-114 -163h-66z" />
    <glyph glyph-name="uni0137" unicode="&#x137;" horiz-adv-x="492" 
d="M92 0v705h67v-435h4l213 224h85l-248 -256l2 35l272 -273h-89l-235 234h-4v-234h-67zM242 -281l-33 25q21 21 28.5 46t7.5 54l10 -10h-52v83h87v-64q0 -40 -11 -73.5t-37 -60.5z" />
    <glyph glyph-name="kgreenlandic" unicode="&#x138;" horiz-adv-x="492" 
d="M92 0v494h67v-224h4l213 224h85l-248 -256l2 35l272 -273h-89l-235 234h-4v-234h-67z" />
    <glyph glyph-name="l" unicode="l" horiz-adv-x="299" 
d="M219 -8q-60 0 -93.5 36t-33.5 104v573h67v-566q0 -25 7.5 -45t23 -32t39.5 -12q14 0 28 2t26 5l1 -56q-16 -5 -31 -7t-34 -2z" />
    <glyph glyph-name="lacute" unicode="&#x13a;" horiz-adv-x="299" 
d="M219 -8q-60 0 -93.5 36t-33.5 104v573h67v-566q0 -25 7.5 -45t23 -32t39.5 -12q14 0 28 2t26 5l1 -56q-16 -5 -31 -7t-34 -2zM97 765l107 163h85l-134 -163h-58z" />
    <glyph glyph-name="lcaron" unicode="&#x13e;" horiz-adv-x="299" 
d="M219 -8q-60 0 -93.5 36t-33.5 104v573h67v-566q0 -25 7.5 -45t23 -32t39.5 -12q14 0 28 2t26 5l1 -56q-16 -5 -31 -7t-34 -2zM204 515v190h61l-21 -190h-40z" />
    <glyph glyph-name="uni013C" unicode="&#x13c;" horiz-adv-x="299" 
d="M219 -8q-60 0 -93.5 36t-33.5 104v573h67v-566q0 -25 7.5 -45t23 -32t39.5 -12q14 0 28 2t26 5l1 -56q-16 -5 -31 -7t-34 -2zM182 -280l-33 25q21 21 28.5 46t7.5 54l10 -10h-52v83h87v-64q0 -40 -11 -73.5t-37 -60.5z" />
    <glyph glyph-name="ldot" unicode="&#x140;" horiz-adv-x="316" 
d="M219 -8q-60 0 -93.5 36t-33.5 104v573h67v-566q0 -25 7.5 -45t23 -32t39.5 -12q14 0 28 2t26 5l1 -56q-16 -5 -31 -7t-34 -2zM240 318v79h89v-79h-89z" />
    <glyph glyph-name="uni1E37" unicode="&#x1e37;" horiz-adv-x="299" 
d="M219 -8q-60 0 -93.5 36t-33.5 104v573h67v-566q0 -25 7.5 -45t23 -32t39.5 -12q14 0 28 2t26 5l1 -56q-16 -5 -31 -7t-34 -2zM146 -182v80h82v-80h-82z" />
    <glyph glyph-name="uni01C9" unicode="&#x1c9;" horiz-adv-x="527" 
d="M219 -8q-60 0 -93.5 36t-33.5 104v573h67v-566q0 -25 7.5 -45t23 -32t39.5 -12q14 0 28 2t26 5l1 -56q-16 -5 -31 -7t-34 -2zM373 622v82h83v-82h-83zM252 -193l-5 59l45 6q42 5 65.5 26t23.5 78v518h67v-517q0 -39 -9 -67.5t-26.5 -49t-46 -32t-66.5 -16.5z" />
    <glyph glyph-name="uni1E3B" unicode="&#x1e3b;" horiz-adv-x="299" 
d="M219 -8q-60 0 -93.5 36t-33.5 104v573h67v-566q0 -25 7.5 -45t23 -32t39.5 -12q14 0 28 2t26 5l1 -56q-16 -5 -31 -7t-34 -2zM43 -156v55h288v-55h-288z" />
    <glyph glyph-name="lslash" unicode="&#x142;" horiz-adv-x="299" 
d="M219 -8q-60 0 -93.5 36t-33.5 104v573h67v-566q0 -25 7.5 -45t23 -32t39.5 -12q14 0 28 2t26 5l1 -56q-16 -5 -31 -7t-34 -2zM32 259l-30 49l237 148l29 -49z" />
    <glyph glyph-name="m" unicode="m" horiz-adv-x="876" 
d="M94 0v494h62v-101h3q12 27 33 52t52 41.5t70 16.5q59 0 99 -31t48 -78h5q19 44 57.5 76.5t100.5 32.5q48 0 84 -19t55.5 -59.5t19.5 -104.5v-320h-66v313q0 67 -23.5 98t-78.5 31q-44 0 -76.5 -20t-49.5 -53.5t-17 -76.5v-292h-67v313q0 66 -28 97.5t-73 31.5
q-43 0 -75 -22t-50 -56t-18 -68v-296h-67z" />
    <glyph glyph-name="uni1E43" unicode="&#x1e43;" horiz-adv-x="876" 
d="M94 0v494h62v-101h3q12 27 33 52t52 41.5t70 16.5q59 0 99 -31t48 -78h5q19 44 57.5 76.5t100.5 32.5q48 0 84 -19t55.5 -59.5t19.5 -104.5v-320h-66v313q0 67 -23.5 98t-78.5 31q-44 0 -76.5 -20t-49.5 -53.5t-17 -76.5v-292h-67v313q0 66 -28 97.5t-73 31.5
q-43 0 -75 -22t-50 -56t-18 -68v-296h-67zM396 -183v80h82v-80h-82z" />
    <glyph glyph-name="n" unicode="n" horiz-adv-x="582" 
d="M92 0v494h62v-101h4q22 48 65 79t101 31q54 0 91 -19.5t56.5 -60t19.5 -103.5v-320h-67v316q0 40 -11.5 68t-36 43t-63.5 15q-42 0 -77 -20t-56 -53.5t-21 -73.5v-295h-67z" />
    <glyph glyph-name="nacute" unicode="&#x144;" horiz-adv-x="582" 
d="M92 0v494h62v-101h4q22 48 65 79t101 31q54 0 91 -19.5t56.5 -60t19.5 -103.5v-320h-67v316q0 40 -11.5 68t-36 43t-63.5 15q-42 0 -77 -20t-56 -53.5t-21 -73.5v-295h-67zM272 559l94 186h77l-118 -186h-53z" />
    <glyph glyph-name="napostrophe" unicode="&#x149;" horiz-adv-x="607" 
d="M-1 551l-34 26q21 21 29.5 45.5t8.5 54.5l8 -10h-51v82h88v-64q0 -40 -12.5 -73.5t-36.5 -60.5zM117 0v494h62v-101h4q22 48 65 79t101 31q54 0 91 -19.5t56.5 -60t19.5 -103.5v-320h-67v316q0 40 -11.5 68t-36 43t-63.5 15q-42 0 -77 -20t-56 -53.5t-21 -73.5v-295h-67z
" />
    <glyph glyph-name="ncaron" unicode="&#x148;" horiz-adv-x="582" 
d="M92 0v494h62v-101h4q22 48 65 79t101 31q54 0 91 -19.5t56.5 -60t19.5 -103.5v-320h-67v316q0 40 -11.5 68t-36 43t-63.5 15q-42 0 -77 -20t-56 -53.5t-21 -73.5v-295h-67zM266 559l-101 186h52l83 -137l83 137h52l-101 -186h-68z" />
    <glyph glyph-name="uni0146" unicode="&#x146;" horiz-adv-x="582" 
d="M92 0v494h62v-101h4q22 48 65 79t101 31q54 0 91 -19.5t56.5 -60t19.5 -103.5v-320h-67v316q0 40 -11.5 68t-36 43t-63.5 15q-42 0 -77 -20t-56 -53.5t-21 -73.5v-295h-67zM279 -281l-33 25q21 21 28.5 46t7.5 54l10 -10h-52v83h87v-64q0 -40 -11 -73.5t-37 -60.5z" />
    <glyph glyph-name="uni1E45" unicode="&#x1e45;" horiz-adv-x="582" 
d="M92 0v494h62v-101h4q22 48 65 79t101 31q54 0 91 -19.5t56.5 -60t19.5 -103.5v-320h-67v316q0 40 -11.5 68t-36 43t-63.5 15q-42 0 -77 -20t-56 -53.5t-21 -73.5v-295h-67zM259 623v80h82v-80h-82z" />
    <glyph glyph-name="uni1E47" unicode="&#x1e47;" horiz-adv-x="582" 
d="M92 0v494h62v-101h4q22 48 65 79t101 31q54 0 91 -19.5t56.5 -60t19.5 -103.5v-320h-67v316q0 40 -11.5 68t-36 43t-63.5 15q-42 0 -77 -20t-56 -53.5t-21 -73.5v-295h-67zM243 -183v80h82v-80h-82z" />
    <glyph glyph-name="uni01CC" unicode="&#x1cc;" horiz-adv-x="810" 
d="M92 0v494h62v-101h4q22 48 65 79t101 31q54 0 91 -19.5t56.5 -60t19.5 -103.5v-320h-67v316q0 40 -11.5 68t-36 43t-63.5 15q-42 0 -77 -20t-56 -53.5t-21 -73.5v-295h-67zM656 622v82h83v-82h-83zM535 -193l-5 59l45 6q42 5 65.5 26t23.5 78v518h67v-517q0 -39 -9 -67.5
t-26.5 -49t-46 -32t-66.5 -16.5z" />
    <glyph glyph-name="uni1E49" unicode="&#x1e49;" horiz-adv-x="582" 
d="M92 0v494h62v-101h4q22 48 65 79t101 31q54 0 91 -19.5t56.5 -60t19.5 -103.5v-320h-67v316q0 40 -11.5 68t-36 43t-63.5 15q-42 0 -77 -20t-56 -53.5t-21 -73.5v-295h-67zM140 -157v55h288v-55h-288z" />
    <glyph glyph-name="ntilde" unicode="&#xf1;" horiz-adv-x="582" 
d="M92 0v494h62v-101h4q22 48 65 79t101 31q54 0 91 -19.5t56.5 -60t19.5 -103.5v-320h-67v316q0 40 -11.5 68t-36 43t-63.5 15q-42 0 -77 -20t-56 -53.5t-21 -73.5v-295h-67zM182 598l-44 3q2 56 26.5 89.5t64.5 33.5q28 0 48.5 -14.5t35.5 -27.5q12 -9 26 -20t30 -11
q23 0 34.5 19.5t14.5 56.5l44 -4q-2 -57 -26 -90t-64 -33q-29 0 -50 15t-35 27q-12 11 -26 21t-30 10q-22 0 -33.5 -19t-15.5 -56z" />
    <glyph glyph-name="eng" unicode="&#x14b;" horiz-adv-x="582" 
d="M295 -193l-5 59l46 6q41 5 64.5 26t23.5 78v340q0 40 -11.5 68t-36 43t-64.5 15q-43 0 -77.5 -20.5t-55 -53.5t-20.5 -73v-295h-67v494h62v-101h4q22 48 64.5 79t99.5 31q54 0 91.5 -19.5t57.5 -60t20 -103.5v-344q0 -38 -9 -67t-27 -49t-46 -31.5t-66 -16.5z" />
    <glyph glyph-name="o" unicode="o" horiz-adv-x="569" 
d="M285 -8q-68 0 -117.5 30t-76.5 87.5t-27 138.5q0 80 27 137t76.5 87.5t116.5 30.5q69 0 118 -30.5t75.5 -87.5t26.5 -137q0 -81 -26.5 -138.5t-75.5 -87.5t-117 -30zM284 52q72 0 112.5 50.5t40.5 145.5q0 94 -40.5 144t-112.5 50q-71 0 -112 -50t-41 -144
q0 -95 41 -145.5t112 -50.5z" />
    <glyph glyph-name="oacute" unicode="&#xf3;" horiz-adv-x="569" 
d="M285 -8q-68 0 -117.5 30t-76.5 87.5t-27 138.5q0 80 27 137t76.5 87.5t116.5 30.5q69 0 118 -30.5t75.5 -87.5t26.5 -137q0 -81 -26.5 -138.5t-75.5 -87.5t-117 -30zM284 52q72 0 112.5 50.5t40.5 145.5q0 94 -40.5 144t-112.5 50q-71 0 -112 -50t-41 -144
q0 -95 41 -145.5t112 -50.5zM257 559l94 186h77l-118 -186h-53z" />
    <glyph glyph-name="obreve" unicode="&#x14f;" horiz-adv-x="569" 
d="M285 -8q-68 0 -117.5 30t-76.5 87.5t-27 138.5q0 80 27 137t76.5 87.5t116.5 30.5q69 0 118 -30.5t75.5 -87.5t26.5 -137q0 -81 -26.5 -138.5t-75.5 -87.5t-117 -30zM284 52q72 0 112.5 50.5t40.5 145.5q0 94 -40.5 144t-112.5 50q-71 0 -112 -50t-41 -144
q0 -95 41 -145.5t112 -50.5zM285 556q-44 0 -74 22t-47 63.5t-19 99.5l49 5q3 -69 24.5 -102.5t66.5 -33.5q44 0 66 33.5t25 102.5l49 -5q-2 -58 -19 -99.5t-47.5 -63.5t-73.5 -22z" />
    <glyph glyph-name="ocircumflex" unicode="&#xf4;" horiz-adv-x="569" 
d="M285 -8q-68 0 -117.5 30t-76.5 87.5t-27 138.5q0 80 27 137t76.5 87.5t116.5 30.5q69 0 118 -30.5t75.5 -87.5t26.5 -137q0 -81 -26.5 -138.5t-75.5 -87.5t-117 -30zM284 52q72 0 112.5 50.5t40.5 145.5q0 94 -40.5 144t-112.5 50q-71 0 -112 -50t-41 -144
q0 -95 41 -145.5t112 -50.5zM150 566l101 179h68l101 -179h-52l-83 130l-83 -130h-52z" />
    <glyph glyph-name="uni1ED1" unicode="&#x1ed1;" horiz-adv-x="569" 
d="M285 -8q-68 0 -117.5 30t-76.5 87.5t-27 138.5q0 80 27 137t76.5 87.5t116.5 30.5q69 0 118 -30.5t75.5 -87.5t26.5 -137q0 -81 -26.5 -138.5t-75.5 -87.5t-117 -30zM284 52q72 0 112.5 50.5t40.5 145.5q0 94 -40.5 144t-112.5 50q-71 0 -112 -50t-41 -144
q0 -95 41 -145.5t112 -50.5zM147 567l105 158h67l105 -158h-53l-86 110l-86 -110h-52zM372 675l74 151h70l-97 -151h-47z" />
    <glyph glyph-name="uni1ED9" unicode="&#x1ed9;" horiz-adv-x="569" 
d="M285 -8q-68 0 -117.5 30t-76.5 87.5t-27 138.5q0 80 27 137t76.5 87.5t116.5 30.5q69 0 118 -30.5t75.5 -87.5t26.5 -137q0 -81 -26.5 -138.5t-75.5 -87.5t-117 -30zM284 52q72 0 112.5 50.5t40.5 145.5q0 94 -40.5 144t-112.5 50q-71 0 -112 -50t-41 -144
q0 -95 41 -145.5t112 -50.5zM243 -190v80h82v-80h-82zM150 566l101 179h68l101 -179h-52l-83 130l-83 -130h-52z" />
    <glyph glyph-name="uni1ED3" unicode="&#x1ed3;" horiz-adv-x="569" 
d="M285 -8q-68 0 -117.5 30t-76.5 87.5t-27 138.5q0 80 27 137t76.5 87.5t116.5 30.5q69 0 118 -30.5t75.5 -87.5t26.5 -137q0 -81 -26.5 -138.5t-75.5 -87.5t-117 -30zM284 52q72 0 112.5 50.5t40.5 145.5q0 94 -40.5 144t-112.5 50q-71 0 -112 -50t-41 -144
q0 -95 41 -145.5t112 -50.5zM147 567l105 158h67l105 -158h-53l-86 110l-86 -110h-52zM410 675l-96 151h70l74 -151h-48z" />
    <glyph glyph-name="uni1ED5" unicode="&#x1ed5;" horiz-adv-x="569" 
d="M285 -8q-68 0 -117.5 30t-76.5 87.5t-27 138.5q0 80 27 137t76.5 87.5t116.5 30.5q69 0 118 -30.5t75.5 -87.5t26.5 -137q0 -81 -26.5 -138.5t-75.5 -87.5t-117 -30zM284 52q72 0 112.5 50.5t40.5 145.5q0 94 -40.5 144t-112.5 50q-71 0 -112 -50t-41 -144
q0 -95 41 -145.5t112 -50.5zM147 568l105 158h67l105 -158h-53l-86 110l-86 -110h-52zM375 679q0 20 8.5 32.5t20 22t19.5 17.5t8 19q0 12 -12 17.5t-31 5.5q-12 0 -26 -3.5t-28 -10.5l-12 37q15 8 34.5 13t46.5 5q39 0 61 -14.5t22 -38.5q0 -20 -9.5 -32.5t-22 -21.5
t-22 -20t-9.5 -28h-48z" />
    <glyph glyph-name="uni1ED7" unicode="&#x1ed7;" horiz-adv-x="569" 
d="M285 -8q-68 0 -117.5 30t-76.5 87.5t-27 138.5q0 80 27 137t76.5 87.5t116.5 30.5q69 0 118 -30.5t75.5 -87.5t26.5 -137q0 -81 -26.5 -138.5t-75.5 -87.5t-117 -30zM284 52q72 0 112.5 50.5t40.5 145.5q0 94 -40.5 144t-112.5 50q-71 0 -112 -50t-41 -144
q0 -95 41 -145.5t112 -50.5zM147 567l105 133h67l105 -133h-53l-86 89l-86 -89h-52zM182 729l-43 3q3 32 13.5 54t28.5 34t43 12q24 0 41 -10t30 -19q10 -8 23 -16t27 -8q18 0 28.5 12.5t14.5 42.5l43 -4q-4 -46 -25 -72.5t-60 -26.5q-23 0 -40 10t-29 18q-14 11 -26 18
t-26 7q-16 0 -27 -12t-16 -43z" />
    <glyph glyph-name="uni020D" unicode="&#x20d;" horiz-adv-x="569" 
d="M285 -8q-68 0 -117.5 30t-76.5 87.5t-27 138.5q0 80 27 137t76.5 87.5t116.5 30.5q69 0 118 -30.5t75.5 -87.5t26.5 -137q0 -81 -26.5 -138.5t-75.5 -87.5t-117 -30zM284 52q72 0 112.5 50.5t40.5 145.5q0 94 -40.5 144t-112.5 50q-71 0 -112 -50t-41 -144
q0 -95 41 -145.5t112 -50.5zM323 559l-75 186h66l49 -186h-40zM208 559l-75 186h66l49 -186h-40z" />
    <glyph glyph-name="odieresis" unicode="&#xf6;" horiz-adv-x="569" 
d="M285 -8q-68 0 -117.5 30t-76.5 87.5t-27 138.5q0 80 27 137t76.5 87.5t116.5 30.5q69 0 118 -30.5t75.5 -87.5t26.5 -137q0 -81 -26.5 -138.5t-75.5 -87.5t-117 -30zM284 52q72 0 112.5 50.5t40.5 145.5q0 94 -40.5 144t-112.5 50q-71 0 -112 -50t-41 -144
q0 -95 41 -145.5t112 -50.5zM332 623v78h80v-78h-80zM158 623v78h80v-78h-80z" />
    <glyph glyph-name="uni022B" unicode="&#x22b;" horiz-adv-x="569" 
d="M285 -8q-68 0 -117.5 30t-76.5 87.5t-27 138.5q0 80 27 137t76.5 87.5t116.5 30.5q69 0 118 -30.5t75.5 -87.5t26.5 -137q0 -81 -26.5 -138.5t-75.5 -87.5t-117 -30zM284 52q72 0 112.5 50.5t40.5 145.5q0 94 -40.5 144t-112.5 50q-71 0 -112 -50t-41 -144
q0 -95 41 -145.5t112 -50.5zM141 720v53h288v-53h-288zM159 590v72h80v-72h-80zM331 590v72h80v-72h-80z" />
    <glyph glyph-name="uni0231" unicode="&#x231;" horiz-adv-x="569" 
d="M285 -8q-68 0 -117.5 30t-76.5 87.5t-27 138.5q0 80 27 137t76.5 87.5t116.5 30.5q69 0 118 -30.5t75.5 -87.5t26.5 -137q0 -81 -26.5 -138.5t-75.5 -87.5t-117 -30zM284 52q72 0 112.5 50.5t40.5 145.5q0 94 -40.5 144t-112.5 50q-71 0 -112 -50t-41 -144
q0 -95 41 -145.5t112 -50.5zM150 723v52h270v-52h-270zM245 589v74h81v-74h-81z" />
    <glyph glyph-name="uni1ECD" unicode="&#x1ecd;" horiz-adv-x="569" 
d="M285 -8q-68 0 -117.5 30t-76.5 87.5t-27 138.5q0 80 27 137t76.5 87.5t116.5 30.5q69 0 118 -30.5t75.5 -87.5t26.5 -137q0 -81 -26.5 -138.5t-75.5 -87.5t-117 -30zM284 52q72 0 112.5 50.5t40.5 145.5q0 94 -40.5 144t-112.5 50q-71 0 -112 -50t-41 -144
q0 -95 41 -145.5t112 -50.5zM243 -190v80h82v-80h-82z" />
    <glyph glyph-name="ograve" unicode="&#xf2;" horiz-adv-x="569" 
d="M285 -8q-68 0 -117.5 30t-76.5 87.5t-27 138.5q0 80 27 137t76.5 87.5t116.5 30.5q69 0 118 -30.5t75.5 -87.5t26.5 -137q0 -81 -26.5 -138.5t-75.5 -87.5t-117 -30zM284 52q72 0 112.5 50.5t40.5 145.5q0 94 -40.5 144t-112.5 50q-71 0 -112 -50t-41 -144
q0 -95 41 -145.5t112 -50.5zM260 560l-118 185h77l94 -185h-53z" />
    <glyph glyph-name="uni1ECF" unicode="&#x1ecf;" horiz-adv-x="569" 
d="M285 -8q-68 0 -117.5 30t-76.5 87.5t-27 138.5q0 80 27 137t76.5 87.5t116.5 30.5q69 0 118 -30.5t75.5 -87.5t26.5 -137q0 -81 -26.5 -138.5t-75.5 -87.5t-117 -30zM284 52q72 0 112.5 50.5t40.5 145.5q0 94 -40.5 144t-112.5 50q-71 0 -112 -50t-41 -144
q0 -95 41 -145.5t112 -50.5zM259 560v20q0 24 9 39t20.5 25.5t20.5 21.5t9 26t-11 23t-33 8q-14 0 -28 -3.5t-30 -11.5l-13 41q18 10 38.5 15t46.5 5q43 0 67 -17.5t24 -50.5q0 -25 -10.5 -40.5t-24 -26.5t-24 -24t-10.5 -35v-15h-51z" />
    <glyph glyph-name="ohorn" unicode="&#x1a1;" horiz-adv-x="569" 
d="M285 -8q-68 0 -117.5 30t-76.5 87.5t-27 138.5q0 80 27 137t76.5 87.5t116.5 30.5q69 0 118 -30.5t75.5 -87.5t26.5 -137q0 -81 -26.5 -138.5t-75.5 -87.5t-117 -30zM284 52q72 0 112.5 50.5t40.5 145.5q0 94 -40.5 144t-112.5 50q-71 0 -112 -50t-41 -144
q0 -95 41 -145.5t112 -50.5zM368 449l-35 24v21q41 1 62.5 13t29.5 37.5t8 64.5v14h63v-24q0 -46 -14.5 -78.5t-43 -50t-70.5 -21.5z" />
    <glyph glyph-name="uni1EDB" unicode="&#x1edb;" horiz-adv-x="569" 
d="M285 -8q-68 0 -117.5 30t-76.5 87.5t-27 138.5q0 80 27 137t76.5 87.5t116.5 30.5q69 0 118 -30.5t75.5 -87.5t26.5 -137q0 -81 -26.5 -138.5t-75.5 -87.5t-117 -30zM284 52q72 0 112.5 50.5t40.5 145.5q0 94 -40.5 144t-112.5 50q-71 0 -112 -50t-41 -144
q0 -95 41 -145.5t112 -50.5zM368 449l-35 24v21q41 1 62.5 13t29.5 37.5t8 64.5v14h63v-24q0 -46 -14.5 -78.5t-43 -50t-70.5 -21.5zM238 559l94 186h77l-118 -186h-53z" />
    <glyph glyph-name="uni1EE3" unicode="&#x1ee3;" horiz-adv-x="569" 
d="M285 -8q-68 0 -117.5 30t-76.5 87.5t-27 138.5q0 80 27 137t76.5 87.5t116.5 30.5q69 0 118 -30.5t75.5 -87.5t26.5 -137q0 -81 -26.5 -138.5t-75.5 -87.5t-117 -30zM284 52q72 0 112.5 50.5t40.5 145.5q0 94 -40.5 144t-112.5 50q-71 0 -112 -50t-41 -144
q0 -95 41 -145.5t112 -50.5zM368 449l-35 24v21q41 1 62.5 13t29.5 37.5t8 64.5v14h63v-24q0 -46 -14.5 -78.5t-43 -50t-70.5 -21.5zM243 -183v80h82v-80h-82z" />
    <glyph glyph-name="uni1EDD" unicode="&#x1edd;" horiz-adv-x="569" 
d="M285 -8q-68 0 -117.5 30t-76.5 87.5t-27 138.5q0 80 27 137t76.5 87.5t116.5 30.5q69 0 118 -30.5t75.5 -87.5t26.5 -137q0 -81 -26.5 -138.5t-75.5 -87.5t-117 -30zM284 52q72 0 112.5 50.5t40.5 145.5q0 94 -40.5 144t-112.5 50q-71 0 -112 -50t-41 -144
q0 -95 41 -145.5t112 -50.5zM368 449l-35 24v21q41 1 62.5 13t29.5 37.5t8 64.5v14h63v-24q0 -46 -14.5 -78.5t-43 -50t-70.5 -21.5zM241 560l-118 185h77l94 -185h-53z" />
    <glyph glyph-name="uni1EDF" unicode="&#x1edf;" horiz-adv-x="569" 
d="M285 -8q-68 0 -117.5 30t-76.5 87.5t-27 138.5q0 80 27 137t76.5 87.5t116.5 30.5q69 0 118 -30.5t75.5 -87.5t26.5 -137q0 -81 -26.5 -138.5t-75.5 -87.5t-117 -30zM284 52q72 0 112.5 50.5t40.5 145.5q0 94 -40.5 144t-112.5 50q-71 0 -112 -50t-41 -144
q0 -95 41 -145.5t112 -50.5zM368 449l-35 24v21q41 1 62.5 13t29.5 37.5t8 64.5v14h63v-24q0 -46 -14.5 -78.5t-43 -50t-70.5 -21.5zM240 560v20q0 24 9 39t20.5 25.5t20.5 21.5t9 26t-11 23t-33 8q-14 0 -28 -3.5t-30 -11.5l-13 41q18 10 38.5 15t46.5 5q43 0 67 -17.5
t24 -50.5q0 -25 -10.5 -40.5t-24 -26.5t-24 -24t-10.5 -35v-15h-51z" />
    <glyph glyph-name="uni1EE1" unicode="&#x1ee1;" horiz-adv-x="569" 
d="M285 -8q-68 0 -117.5 30t-76.5 87.5t-27 138.5q0 80 27 137t76.5 87.5t116.5 30.5q69 0 118 -30.5t75.5 -87.5t26.5 -137q0 -81 -26.5 -138.5t-75.5 -87.5t-117 -30zM284 52q72 0 112.5 50.5t40.5 145.5q0 94 -40.5 144t-112.5 50q-71 0 -112 -50t-41 -144
q0 -95 41 -145.5t112 -50.5zM368 449l-35 24v21q41 1 62.5 13t29.5 37.5t8 64.5v14h63v-24q0 -46 -14.5 -78.5t-43 -50t-70.5 -21.5zM140 601l-44 2q2 59 25 91t64 32q29 0 49 -15t33 -27q11 -10 25.5 -21t30.5 -11q21 0 33 20t15 57l45 -3q-2 -59 -25 -91t-63 -32
q-28 0 -48 15t-35 27q-11 11 -25 21.5t-31 10.5q-23 0 -34.5 -20.5t-14.5 -55.5z" />
    <glyph glyph-name="ohungarumlaut" unicode="&#x151;" horiz-adv-x="569" 
d="M285 -8q-68 0 -117.5 30t-76.5 87.5t-27 138.5q0 80 27 137t76.5 87.5t116.5 30.5q69 0 118 -30.5t75.5 -87.5t26.5 -137q0 -81 -26.5 -138.5t-75.5 -87.5t-117 -30zM284 52q72 0 112.5 50.5t40.5 145.5q0 94 -40.5 144t-112.5 50q-71 0 -112 -50t-41 -144
q0 -95 41 -145.5t112 -50.5zM322 560l49 185h66l-75 -185h-40zM207 560l49 185h66l-75 -185h-40z" />
    <glyph glyph-name="uni020F" unicode="&#x20f;" horiz-adv-x="569" 
d="M285 -8q-68 0 -117.5 30t-76.5 87.5t-27 138.5q0 80 27 137t76.5 87.5t116.5 30.5q69 0 118 -30.5t75.5 -87.5t26.5 -137q0 -81 -26.5 -138.5t-75.5 -87.5t-117 -30zM284 52q72 0 112.5 50.5t40.5 145.5q0 94 -40.5 144t-112.5 50q-71 0 -112 -50t-41 -144
q0 -95 41 -145.5t112 -50.5zM194 556l-49 5q3 59 19.5 100t47 63t73.5 22q44 0 74.5 -22t47 -63t18.5 -100l-49 -5q-3 69 -24.5 103t-66.5 34q-44 0 -66 -34t-25 -103z" />
    <glyph glyph-name="omacron" unicode="&#x14d;" horiz-adv-x="569" 
d="M285 -8q-68 0 -117.5 30t-76.5 87.5t-27 138.5q0 80 27 137t76.5 87.5t116.5 30.5q69 0 118 -30.5t75.5 -87.5t26.5 -137q0 -81 -26.5 -138.5t-75.5 -87.5t-117 -30zM284 52q72 0 112.5 50.5t40.5 145.5q0 94 -40.5 144t-112.5 50q-71 0 -112 -50t-41 -144
q0 -95 41 -145.5t112 -50.5zM141 635v56h288v-56h-288z" />
    <glyph glyph-name="uni1E53" unicode="&#x1e53;" horiz-adv-x="569" 
d="M285 -8q-68 0 -117.5 30t-76.5 87.5t-27 138.5q0 80 27 137t76.5 87.5t116.5 30.5q69 0 118 -30.5t75.5 -87.5t26.5 -137q0 -81 -26.5 -138.5t-75.5 -87.5t-117 -30zM284 52q72 0 112.5 50.5t40.5 145.5q0 94 -40.5 144t-112.5 50q-71 0 -112 -50t-41 -144
q0 -95 41 -145.5t112 -50.5zM150 585v52h270v-52h-270zM245 676l83 147h76l-108 -147h-51z" />
    <glyph glyph-name="uni1E51" unicode="&#x1e51;" horiz-adv-x="569" 
d="M285 -8q-68 0 -117.5 30t-76.5 87.5t-27 138.5q0 80 27 137t76.5 87.5t116.5 30.5q69 0 118 -30.5t75.5 -87.5t26.5 -137q0 -81 -26.5 -138.5t-75.5 -87.5t-117 -30zM284 52q72 0 112.5 50.5t40.5 145.5q0 94 -40.5 144t-112.5 50q-71 0 -112 -50t-41 -144
q0 -95 41 -145.5t112 -50.5zM150 585v52h270v-52h-270zM274 676l-108 147h76l83 -147h-51z" />
    <glyph glyph-name="uni01EB" unicode="&#x1eb;" horiz-adv-x="569" 
d="M285 -8q-68 0 -117.5 30t-76.5 87.5t-27 138.5q0 80 27 137t76.5 87.5t116.5 30.5q69 0 118 -30.5t75.5 -87.5t26.5 -137q0 -81 -26.5 -138.5t-75.5 -87.5t-117 -30zM284 52q72 0 112.5 50.5t40.5 145.5q0 94 -40.5 144t-112.5 50q-71 0 -112 -50t-41 -144
q0 -95 41 -145.5t112 -50.5zM318 -194q-43 0 -71 25t-28 68q0 39 25 73.5t66 57.5l26 -30q-16 -8 -30 -22t-22.5 -31.5t-8.5 -37.5q0 -28 14.5 -40.5t36.5 -12.5q10 0 22.5 3t24.5 9l15 -46q-13 -7 -30.5 -11.5t-39.5 -4.5z" />
    <glyph glyph-name="oslash" unicode="&#xf8;" horiz-adv-x="569" 
d="M284 -8q-67 0 -116.5 30t-76.5 87.5t-27 138.5q0 80 27 137t76.5 87.5t116.5 30.5q69 0 118 -30.5t75.5 -87.5t26.5 -137q0 -81 -26.5 -138.5t-75.5 -87.5t-118 -30zM284 49q73 0 114 51.5t41 147.5q0 95 -40.5 146t-114.5 51q-73 0 -113.5 -51t-40.5 -146
q0 -96 40.5 -147.5t113.5 -51.5zM159 -44l-45 25l296 555l45 -23z" />
    <glyph glyph-name="oslashacute" unicode="&#x1ff;" horiz-adv-x="569" 
d="M284 -8q-67 0 -116.5 30t-76.5 87.5t-27 138.5q0 80 27 137t76.5 87.5t116.5 30.5q69 0 118 -30.5t75.5 -87.5t26.5 -137q0 -81 -26.5 -138.5t-75.5 -87.5t-118 -30zM284 49q73 0 114 51.5t41 147.5q0 95 -40.5 146t-114.5 51q-73 0 -113.5 -51t-40.5 -146
q0 -96 40.5 -147.5t113.5 -51.5zM159 -44l-45 25l296 555l45 -23zM257 559l94 186h77l-118 -186h-53z" />
    <glyph glyph-name="otilde" unicode="&#xf5;" horiz-adv-x="569" 
d="M285 -8q-68 0 -117.5 30t-76.5 87.5t-27 138.5q0 80 27 137t76.5 87.5t116.5 30.5q69 0 118 -30.5t75.5 -87.5t26.5 -137q0 -81 -26.5 -138.5t-75.5 -87.5t-117 -30zM284 52q72 0 112.5 50.5t40.5 145.5q0 94 -40.5 144t-112.5 50q-71 0 -112 -50t-41 -144
q0 -95 41 -145.5t112 -50.5zM167 598l-44 3q2 56 26.5 89.5t64.5 33.5q28 0 48.5 -14.5t35.5 -27.5q12 -9 26 -20t30 -11q23 0 34.5 19.5t14.5 56.5l44 -4q-2 -57 -26 -90t-64 -33q-29 0 -50 15t-35 27q-12 11 -26 21t-30 10q-22 0 -33.5 -19t-15.5 -56z" />
    <glyph glyph-name="uni1E4D" unicode="&#x1e4d;" horiz-adv-x="569" 
d="M285 -8q-68 0 -117.5 30t-76.5 87.5t-27 138.5q0 80 27 137t76.5 87.5t116.5 30.5q69 0 118 -30.5t75.5 -87.5t26.5 -137q0 -81 -26.5 -138.5t-75.5 -87.5t-117 -30zM284 52q72 0 112.5 50.5t40.5 145.5q0 94 -40.5 144t-112.5 50q-71 0 -112 -50t-41 -144
q0 -95 41 -145.5t112 -50.5zM182 554l-43 3q3 32 14 54t29 33.5t42 11.5t41.5 -10.5t30.5 -19.5q11 -7 23.5 -14.5t25.5 -7.5q20 0 30 13.5t13 40.5l43 -3q-4 -49 -26 -74t-59 -25q-23 0 -40 10t-31 19q-11 8 -23 15.5t-27 7.5q-19 0 -28.5 -13t-14.5 -41zM259 678l83 147
h76l-108 -147h-51z" />
    <glyph glyph-name="uni1E4F" unicode="&#x1e4f;" horiz-adv-x="569" 
d="M285 -8q-68 0 -117.5 30t-76.5 87.5t-27 138.5q0 80 27 137t76.5 87.5t116.5 30.5q69 0 118 -30.5t75.5 -87.5t26.5 -137q0 -81 -26.5 -138.5t-75.5 -87.5t-117 -30zM284 52q72 0 112.5 50.5t40.5 145.5q0 94 -40.5 144t-112.5 50q-71 0 -112 -50t-41 -144
q0 -95 41 -145.5t112 -50.5zM182 554l-43 3q3 32 14 54t29 33.5t42 11.5t41.5 -10.5t30.5 -19.5q11 -7 23.5 -14.5t25.5 -7.5q20 0 30 13.5t13 40.5l43 -3q-4 -49 -26 -74t-59 -25q-23 0 -40 10t-31 19q-11 8 -23 15.5t-27 7.5q-19 0 -28.5 -13t-14.5 -41zM159 704v72h80
v-72h-80zM331 704v72h80v-72h-80z" />
    <glyph glyph-name="uni022D" unicode="&#x22d;" horiz-adv-x="569" 
d="M285 -8q-68 0 -117.5 30t-76.5 87.5t-27 138.5q0 80 27 137t76.5 87.5t116.5 30.5q69 0 118 -30.5t75.5 -87.5t26.5 -137q0 -81 -26.5 -138.5t-75.5 -87.5t-117 -30zM284 52q72 0 112.5 50.5t40.5 145.5q0 94 -40.5 144t-112.5 50q-71 0 -112 -50t-41 -144
q0 -95 41 -145.5t112 -50.5zM141 717v52h288v-52h-288zM182 554l-43 3q3 32 14 54t29 33.5t42 11.5t41.5 -10.5t30.5 -19.5q11 -7 23.5 -14.5t25.5 -7.5q20 0 30 13.5t13 40.5l43 -3q-4 -49 -26 -74t-59 -25q-23 0 -40 10t-31 19q-11 8 -23 15.5t-27 7.5q-19 0 -28.5 -13
t-14.5 -41z" />
    <glyph glyph-name="oe" unicode="&#x153;" horiz-adv-x="927" 
d="M283 -8q-67 0 -116 30.5t-76 88.5t-27 137t27 136t76 88t116 31q66 0 117 -39t69 -112v0q18 72 68.5 111.5t123.5 39.5q64 0 109 -30.5t69 -83.5t24 -122v-38h-379v53h339l-20 -22q0 56 -15 98t-46 65t-81 23q-48 0 -84 -21.5t-56 -63.5t-20 -105v-11q0 -70 22 -112.5
t61 -62t89 -19.5q46 0 84 10t70 39l28 -49q-37 -32 -83 -45.5t-100 -13.5q-50 0 -91 15t-70 48t-44 85h1q-10 -42 -35 -75.5t-63 -53t-87 -19.5zM284 52q48 0 82 23.5t52.5 67.5t18.5 105t-18 104.5t-52 66.5t-82 23q-49 0 -83 -23t-52.5 -66.5t-18.5 -104.5t18.5 -105
t53 -67.5t81.5 -23.5z" />
    <glyph glyph-name="p" unicode="p" horiz-adv-x="597" 
d="M92 -180v674h62v-107h4q21 57 63.5 86.5t101.5 29.5q64 0 111.5 -32t72.5 -88.5t25 -135.5q0 -77 -25 -134.5t-72 -89t-111 -31.5q-59 0 -100 28.5t-61 83.5h-4v-284h-67zM311 50q74 0 114 53t40 145q0 91 -40 143.5t-113 52.5q-74 0 -113.5 -52.5t-39.5 -143.5
q0 -92 39.5 -145t112.5 -53z" />
    <glyph glyph-name="thorn" unicode="&#xfe;" horiz-adv-x="597" 
d="M92 -180v885h65v-316h4q21 55 62.5 84.5t99.5 29.5q65 0 112 -32t72 -89t25 -135t-25.5 -135t-72 -88.5t-110.5 -31.5q-58 0 -99 28t-62 84h-4v-284h-67zM311 50q74 0 114 53t40 145q0 91 -40 143.5t-113 52.5q-74 0 -113.5 -52.5t-39.5 -143.5q0 -92 39.5 -145
t112.5 -53z" />
    <glyph glyph-name="q" unicode="q" horiz-adv-x="597" 
d="M437 -180v284h-3q-19 -55 -60.5 -83.5t-100.5 -28.5q-64 0 -110.5 31.5t-72.5 89t-26 134.5q0 78 26 135t73 89t111 32q59 0 101.5 -29.5t63.5 -87.5h4v108h62v-674h-68zM286 50q73 0 112.5 53t39.5 145q0 91 -39.5 143.5t-113.5 52.5t-113.5 -52.5t-39.5 -143.5
q0 -92 40 -145t114 -53z" />
    <glyph glyph-name="r" unicode="r" horiz-adv-x="395" 
d="M92 0v494h62v-105h4q17 49 59 78t102 34l42 2l6 -63l-66 -5q-65 -5 -103.5 -46.5t-38.5 -101.5v-287h-67z" />
    <glyph glyph-name="racute" unicode="&#x155;" horiz-adv-x="395" 
d="M92 0v494h62v-105h4q17 49 59 78t102 34l42 2l6 -63l-66 -5q-65 -5 -103.5 -46.5t-38.5 -101.5v-287h-67zM191 559l94 186h77l-118 -186h-53z" />
    <glyph glyph-name="rcaron" unicode="&#x159;" horiz-adv-x="395" 
d="M92 0v494h62v-105h4q17 49 59 78t102 34l42 2l6 -63l-66 -5q-65 -5 -103.5 -46.5t-38.5 -101.5v-287h-67zM185 559l-101 186h52l83 -137l83 137h52l-101 -186h-68z" />
    <glyph glyph-name="uni0157" unicode="&#x157;" horiz-adv-x="395" 
d="M92 0v494h62v-105h4q17 49 59 78t102 34l42 2l6 -63l-66 -5q-65 -5 -103.5 -46.5t-38.5 -101.5v-287h-67zM121 -281l-33 25q21 21 28.5 46t7.5 54l10 -10h-52v83h87v-64q0 -40 -11 -73.5t-37 -60.5z" />
    <glyph glyph-name="uni0211" unicode="&#x211;" horiz-adv-x="395" 
d="M92 0v494h62v-105h4q17 49 59 78t102 34l42 2l6 -63l-66 -5q-65 -5 -103.5 -46.5t-38.5 -101.5v-287h-67zM257 559l-75 186h66l49 -186h-40zM142 559l-75 186h66l49 -186h-40z" />
    <glyph glyph-name="uni1E5B" unicode="&#x1e5b;" horiz-adv-x="395" 
d="M92 0v494h62v-105h4q17 49 59 78t102 34l42 2l6 -63l-66 -5q-65 -5 -103.5 -46.5t-38.5 -101.5v-287h-67zM85 -183v80h82v-80h-82z" />
    <glyph glyph-name="uni0213" unicode="&#x213;" horiz-adv-x="395" 
d="M92 0v494h62v-105h4q17 49 59 78t102 34l42 2l6 -63l-66 -5q-65 -5 -103.5 -46.5t-38.5 -101.5v-287h-67zM128 556l-49 5q3 59 19.5 100t47 63t73.5 22q44 0 74.5 -22t47 -63t18.5 -100l-49 -5q-3 69 -24.5 103t-66.5 34q-44 0 -66 -34t-25 -103z" />
    <glyph glyph-name="uni1E5F" unicode="&#x1e5f;" horiz-adv-x="395" 
d="M92 0v494h62v-105h4q17 49 59 78t102 34l42 2l6 -63l-66 -5q-65 -5 -103.5 -46.5t-38.5 -101.5v-287h-67zM-18 -157v55h288v-55h-288z" />
    <glyph glyph-name="s" unicode="s" horiz-adv-x="512" 
d="M260 -8q-38 0 -74.5 7t-68 20.5t-52.5 32.5l25 50q25 -19 53.5 -30.5t58.5 -16.5t58 -5q57 0 91.5 21t34.5 58q0 34 -20 53t-65 27l-92 16q-64 12 -97.5 45.5t-33.5 88.5q0 44 22.5 76t64 50t97.5 18q31 0 65.5 -7t64.5 -20.5t49 -33.5l-26 -48q-21 19 -47 29.5t-53.5 16
t-52.5 5.5q-54 0 -87 -22t-33 -62q0 -32 18.5 -50.5t61.5 -26.5l89 -17q70 -13 104.5 -47t34.5 -89q0 -42 -23.5 -73.5t-66.5 -48.5t-100 -17z" />
    <glyph glyph-name="sacute" unicode="&#x15b;" horiz-adv-x="512" 
d="M260 -8q-38 0 -74.5 7t-68 20.5t-52.5 32.5l25 50q25 -19 53.5 -30.5t58.5 -16.5t58 -5q57 0 91.5 21t34.5 58q0 34 -20 53t-65 27l-92 16q-64 12 -97.5 45.5t-33.5 88.5q0 44 22.5 76t64 50t97.5 18q31 0 65.5 -7t64.5 -20.5t49 -33.5l-26 -48q-21 19 -47 29.5t-53.5 16
t-52.5 5.5q-54 0 -87 -22t-33 -62q0 -32 18.5 -50.5t61.5 -26.5l89 -17q70 -13 104.5 -47t34.5 -89q0 -42 -23.5 -73.5t-66.5 -48.5t-100 -17zM231 559l94 186h77l-118 -186h-53z" />
    <glyph glyph-name="uni1E65" unicode="&#x1e65;" horiz-adv-x="512" 
d="M260 -8q-38 0 -74.5 7t-68 20.5t-52.5 32.5l25 50q25 -19 53.5 -30.5t58.5 -16.5t58 -5q57 0 91.5 21t34.5 58q0 34 -20 53t-65 27l-92 16q-64 12 -97.5 45.5t-33.5 88.5q0 44 22.5 76t64 50t97.5 18q31 0 65.5 -7t64.5 -20.5t49 -33.5l-26 -48q-21 19 -47 29.5t-53.5 16
t-52.5 5.5q-54 0 -87 -22t-33 -62q0 -32 18.5 -50.5t61.5 -26.5l89 -17q70 -13 104.5 -47t34.5 -89q0 -42 -23.5 -73.5t-66.5 -48.5t-100 -17zM232 559l95 194h77l-120 -194h-52zM179 758v71h81v-71h-81z" />
    <glyph glyph-name="scaron" unicode="&#x161;" horiz-adv-x="512" 
d="M260 -8q-38 0 -74.5 7t-68 20.5t-52.5 32.5l25 50q25 -19 53.5 -30.5t58.5 -16.5t58 -5q57 0 91.5 21t34.5 58q0 34 -20 53t-65 27l-92 16q-64 12 -97.5 45.5t-33.5 88.5q0 44 22.5 76t64 50t97.5 18q31 0 65.5 -7t64.5 -20.5t49 -33.5l-26 -48q-21 19 -47 29.5t-53.5 16
t-52.5 5.5q-54 0 -87 -22t-33 -62q0 -32 18.5 -50.5t61.5 -26.5l89 -17q70 -13 104.5 -47t34.5 -89q0 -42 -23.5 -73.5t-66.5 -48.5t-100 -17zM225 559l-101 186h52l83 -137l83 137h52l-101 -186h-68z" />
    <glyph glyph-name="uni1E67" unicode="&#x1e67;" horiz-adv-x="512" 
d="M260 -8q-38 0 -74.5 7t-68 20.5t-52.5 32.5l25 50q25 -19 53.5 -30.5t58.5 -16.5t58 -5q57 0 91.5 21t34.5 58q0 34 -20 53t-65 27l-92 16q-64 12 -97.5 45.5t-33.5 88.5q0 44 22.5 76t64 50t97.5 18q31 0 65.5 -7t64.5 -20.5t49 -33.5l-26 -48q-21 19 -47 29.5t-53.5 16
t-52.5 5.5q-54 0 -87 -22t-33 -62q0 -32 18.5 -50.5t61.5 -26.5l89 -17q70 -13 104.5 -47t34.5 -89q0 -42 -23.5 -73.5t-66.5 -48.5t-100 -17zM225 559l-99 159h51l82 -115l82 115h51l-99 -159h-68zM219 766v71h81v-71h-81z" />
    <glyph glyph-name="scedilla" unicode="&#x15f;" horiz-adv-x="512" 
d="M260 -8q-38 0 -74.5 7t-68 20.5t-52.5 32.5l25 50q25 -19 53.5 -30.5t58.5 -16.5t58 -5q57 0 91.5 21t34.5 58q0 34 -20 53t-65 27l-92 16q-64 12 -97.5 45.5t-33.5 88.5q0 44 22.5 76t64 50t97.5 18q31 0 65.5 -7t64.5 -20.5t49 -33.5l-26 -48q-21 19 -47 29.5t-53.5 16
t-52.5 5.5q-54 0 -87 -22t-33 -62q0 -32 18.5 -50.5t61.5 -26.5l89 -17q70 -13 104.5 -47t34.5 -89q0 -42 -23.5 -73.5t-66.5 -48.5t-100 -17zM261 -193q-22 0 -44.5 5t-37.5 14l12 41q16 -9 31.5 -13.5t36.5 -4.5q27 0 42 9.5t15 29.5q0 15 -9.5 23.5t-28.5 8.5
q-8 0 -19.5 -2.5t-24.5 -6.5l-15 14l15 95h44l-13 -77l-21 7q10 3 23.5 5t26.5 2q20 0 37.5 -8t27.5 -23.5t10 -37.5q0 -25 -13.5 -43.5t-38 -28t-56.5 -9.5z" />
    <glyph glyph-name="scircumflex" unicode="&#x15d;" horiz-adv-x="512" 
d="M260 -8q-38 0 -74.5 7t-68 20.5t-52.5 32.5l25 50q25 -19 53.5 -30.5t58.5 -16.5t58 -5q57 0 91.5 21t34.5 58q0 34 -20 53t-65 27l-92 16q-64 12 -97.5 45.5t-33.5 88.5q0 44 22.5 76t64 50t97.5 18q31 0 65.5 -7t64.5 -20.5t49 -33.5l-26 -48q-21 19 -47 29.5t-53.5 16
t-52.5 5.5q-54 0 -87 -22t-33 -62q0 -32 18.5 -50.5t61.5 -26.5l89 -17q70 -13 104.5 -47t34.5 -89q0 -42 -23.5 -73.5t-66.5 -48.5t-100 -17zM124 566l101 179h68l101 -179h-52l-83 130l-83 -130h-52z" />
    <glyph glyph-name="uni0219" unicode="&#x219;" horiz-adv-x="512" 
d="M260 -8q-38 0 -74.5 7t-68 20.5t-52.5 32.5l25 50q25 -19 53.5 -30.5t58.5 -16.5t58 -5q57 0 91.5 21t34.5 58q0 34 -20 53t-65 27l-92 16q-64 12 -97.5 45.5t-33.5 88.5q0 44 22.5 76t64 50t97.5 18q31 0 65.5 -7t64.5 -20.5t49 -33.5l-26 -48q-21 19 -47 29.5t-53.5 16
t-52.5 5.5q-54 0 -87 -22t-33 -62q0 -32 18.5 -50.5t61.5 -26.5l89 -17q70 -13 104.5 -47t34.5 -89q0 -42 -23.5 -73.5t-66.5 -48.5t-100 -17zM252 -281l-33 25q21 21 28.5 46t7.5 54l10 -10h-52v83h87v-64q0 -40 -11 -73.5t-37 -60.5z" />
    <glyph glyph-name="uni1E61" unicode="&#x1e61;" horiz-adv-x="512" 
d="M260 -8q-38 0 -74.5 7t-68 20.5t-52.5 32.5l25 50q25 -19 53.5 -30.5t58.5 -16.5t58 -5q57 0 91.5 21t34.5 58q0 34 -20 53t-65 27l-92 16q-64 12 -97.5 45.5t-33.5 88.5q0 44 22.5 76t64 50t97.5 18q31 0 65.5 -7t64.5 -20.5t49 -33.5l-26 -48q-21 19 -47 29.5t-53.5 16
t-52.5 5.5q-54 0 -87 -22t-33 -62q0 -32 18.5 -50.5t61.5 -26.5l89 -17q70 -13 104.5 -47t34.5 -89q0 -42 -23.5 -73.5t-66.5 -48.5t-100 -17zM218 623v80h82v-80h-82z" />
    <glyph glyph-name="uni1E63" unicode="&#x1e63;" horiz-adv-x="512" 
d="M260 -8q-38 0 -74.5 7t-68 20.5t-52.5 32.5l25 50q25 -19 53.5 -30.5t58.5 -16.5t58 -5q57 0 91.5 21t34.5 58q0 34 -20 53t-65 27l-92 16q-64 12 -97.5 45.5t-33.5 88.5q0 44 22.5 76t64 50t97.5 18q31 0 65.5 -7t64.5 -20.5t49 -33.5l-26 -48q-21 19 -47 29.5t-53.5 16
t-52.5 5.5q-54 0 -87 -22t-33 -62q0 -32 18.5 -50.5t61.5 -26.5l89 -17q70 -13 104.5 -47t34.5 -89q0 -42 -23.5 -73.5t-66.5 -48.5t-100 -17zM216 -183v80h82v-80h-82z" />
    <glyph glyph-name="uni1E69" unicode="&#x1e69;" horiz-adv-x="512" 
d="M260 -8q-38 0 -74.5 7t-68 20.5t-52.5 32.5l25 50q25 -19 53.5 -30.5t58.5 -16.5t58 -5q57 0 91.5 21t34.5 58q0 34 -20 53t-65 27l-92 16q-64 12 -97.5 45.5t-33.5 88.5q0 44 22.5 76t64 50t97.5 18q31 0 65.5 -7t64.5 -20.5t49 -33.5l-26 -48q-21 19 -47 29.5t-53.5 16
t-52.5 5.5q-54 0 -87 -22t-33 -62q0 -32 18.5 -50.5t61.5 -26.5l89 -17q70 -13 104.5 -47t34.5 -89q0 -42 -23.5 -73.5t-66.5 -48.5t-100 -17zM216 -183v80h82v-80h-82zM218 623v80h82v-80h-82z" />
    <glyph glyph-name="germandbls" unicode="&#xdf;" horiz-adv-x="605" 
d="M395 -8q-35 0 -70.5 6.5t-65.5 19t-51 31.5l21 52q36 -28 78.5 -40t83.5 -12q50 0 77.5 20t27.5 61q0 35 -20.5 54.5t-74.5 39.5q-40 15 -64.5 33t-35 40t-10.5 50q0 35 16.5 63t49.5 66q24 27 38 49.5t14 52.5q0 25 -15 41.5t-40 25t-55 8.5q-65 0 -102.5 -36
t-37.5 -113v-504h-67v500q0 67 26.5 114.5t73 72t107.5 24.5q51 0 90.5 -15.5t62 -44t22.5 -68.5q0 -28 -8.5 -50t-23.5 -41.5t-34 -41.5q-26 -29 -41.5 -51.5t-15.5 -42.5q0 -19 7.5 -32.5t25 -25t46.5 -23.5q69 -27 100 -59.5t31 -83.5q0 -42 -21.5 -74t-59 -49t-85.5 -17
z" />
    <glyph glyph-name="t" unicode="t" horiz-adv-x="398" 
d="M275 -8q-76 0 -116.5 41t-40.5 122v282h-93v57h94v149h66v-149h171v-57h-171v-274q0 -61 25 -86t72 -25q22 0 41 4t38 13l12 -55q-19 -12 -45.5 -17t-52.5 -5z" />
    <glyph glyph-name="tbar" unicode="&#x167;" horiz-adv-x="398" 
d="M275 -8q-76 0 -116.5 41t-40.5 122v282h-93v57h94v149h66v-149h171v-57h-171v-274q0 -61 25 -86t72 -25q22 0 41 4t38 13l12 -55q-19 -12 -45.5 -17t-52.5 -5zM45 254v53h249v-53h-249z" />
    <glyph glyph-name="tcaron" unicode="&#x165;" horiz-adv-x="398" 
d="M275 -8q-76 0 -116.5 41t-40.5 122v282h-93v57h94v149h66v-149h171v-57h-171v-274q0 -61 25 -86t72 -25q22 0 41 4t38 13l12 -55q-19 -12 -45.5 -17t-52.5 -5zM233 545v160h61l-21 -160h-40z" />
    <glyph glyph-name="uni0163" unicode="&#x163;" horiz-adv-x="398" 
d="M275 -8q-76 0 -116.5 41t-40.5 122v282h-93v57h94v149h66v-149h171v-57h-171v-274q0 -61 25 -86t72 -25q22 0 41 4t38 13l12 -55q-19 -12 -45.5 -17t-52.5 -5zM241 -201q-22 0 -44.5 5t-37.5 14l12 41q16 -9 31.5 -13.5t36.5 -4.5q27 0 42 9.5t15 29.5q0 15 -9.5 23.5
t-28.5 8.5q-8 0 -19.5 -2.5t-24.5 -6.5l-15 14l15 95h44l-13 -77l-21 7q10 3 23.5 5t26.5 2q20 0 37.5 -8t27.5 -23.5t10 -37.5q0 -25 -13.5 -43.5t-38 -28t-56.5 -9.5z" />
    <glyph glyph-name="uni021B" unicode="&#x21b;" horiz-adv-x="398" 
d="M275 -8q-76 0 -116.5 41t-40.5 122v282h-93v57h94v149h66v-149h171v-57h-171v-274q0 -61 25 -86t72 -25q22 0 41 4t38 13l12 -55q-19 -12 -45.5 -17t-52.5 -5zM232 -289l-33 25q21 21 28.5 46t7.5 54l10 -10h-52v83h87v-64q0 -40 -11 -73.5t-37 -60.5z" />
    <glyph glyph-name="uni1E97" unicode="&#x1e97;" horiz-adv-x="398" 
d="M275 -8q-76 0 -116.5 41t-40.5 122v282h-93v57h94v149h66v-149h171v-57h-171v-274q0 -61 25 -86t72 -25q22 0 41 4t38 13l12 -55q-19 -12 -45.5 -17t-52.5 -5zM194 753v77h80v-77h-80zM20 753v77h80v-77h-80z" />
    <glyph glyph-name="uni1E6D" unicode="&#x1e6d;" horiz-adv-x="398" 
d="M275 -8q-76 0 -116.5 41t-40.5 122v282h-93v57h94v149h66v-149h171v-57h-171v-274q0 -61 25 -86t72 -25q22 0 41 4t38 13l12 -55q-19 -12 -45.5 -17t-52.5 -5zM196 -191v80h82v-80h-82z" />
    <glyph glyph-name="uni1E6F" unicode="&#x1e6f;" horiz-adv-x="398" 
d="M275 -8q-76 0 -116.5 41t-40.5 122v282h-93v57h94v149h66v-149h171v-57h-171v-274q0 -61 25 -86t72 -25q22 0 41 4t38 13l12 -55q-19 -12 -45.5 -17t-52.5 -5zM93 -165v55h288v-55h-288z" />
    <glyph glyph-name="u" unicode="u" horiz-adv-x="578" 
d="M258 -8q-52 0 -90 19t-58 59.5t-20 102.5v321h68v-316q0 -39 11.5 -67.5t36 -43.5t63.5 -15q42 0 76 20.5t54 54t20 71.5v296h67v-494h-62v100h-5q-24 -47 -62.5 -77.5t-98.5 -30.5z" />
    <glyph glyph-name="uacute" unicode="&#xfa;" horiz-adv-x="578" 
d="M258 -8q-52 0 -90 19t-58 59.5t-20 102.5v321h68v-316q0 -39 11.5 -67.5t36 -43.5t63.5 -15q42 0 76 20.5t54 54t20 71.5v296h67v-494h-62v100h-5q-24 -47 -62.5 -77.5t-98.5 -30.5zM260 559l94 186h77l-118 -186h-53z" />
    <glyph glyph-name="ubreve" unicode="&#x16d;" horiz-adv-x="578" 
d="M258 -8q-52 0 -90 19t-58 59.5t-20 102.5v321h68v-316q0 -39 11.5 -67.5t36 -43.5t63.5 -15q42 0 76 20.5t54 54t20 71.5v296h67v-494h-62v100h-5q-24 -47 -62.5 -77.5t-98.5 -30.5zM288 556q-44 0 -74 22t-47 63.5t-19 99.5l49 5q3 -69 24.5 -102.5t66.5 -33.5
q44 0 66 33.5t25 102.5l49 -5q-2 -58 -19 -99.5t-47.5 -63.5t-73.5 -22z" />
    <glyph glyph-name="uni01D4" unicode="&#x1d4;" horiz-adv-x="578" 
d="M258 -8q-52 0 -90 19t-58 59.5t-20 102.5v321h68v-316q0 -39 11.5 -67.5t36 -43.5t63.5 -15q42 0 76 20.5t54 54t20 71.5v296h67v-494h-62v100h-5q-24 -47 -62.5 -77.5t-98.5 -30.5zM254 559l-101 186h52l83 -137l83 137h52l-101 -186h-68z" />
    <glyph glyph-name="ucircumflex" unicode="&#xfb;" horiz-adv-x="578" 
d="M258 -8q-52 0 -90 19t-58 59.5t-20 102.5v321h68v-316q0 -39 11.5 -67.5t36 -43.5t63.5 -15q42 0 76 20.5t54 54t20 71.5v296h67v-494h-62v100h-5q-24 -47 -62.5 -77.5t-98.5 -30.5zM153 566l101 179h68l101 -179h-52l-83 130l-83 -130h-52z" />
    <glyph glyph-name="uni0215" unicode="&#x215;" horiz-adv-x="578" 
d="M258 -8q-52 0 -90 19t-58 59.5t-20 102.5v321h68v-316q0 -39 11.5 -67.5t36 -43.5t63.5 -15q42 0 76 20.5t54 54t20 71.5v296h67v-494h-62v100h-5q-24 -47 -62.5 -77.5t-98.5 -30.5zM326 559l-75 186h66l49 -186h-40zM211 559l-75 186h66l49 -186h-40z" />
    <glyph glyph-name="udieresis" unicode="&#xfc;" horiz-adv-x="578" 
d="M258 -8q-52 0 -90 19t-58 59.5t-20 102.5v321h68v-316q0 -39 11.5 -67.5t36 -43.5t63.5 -15q42 0 76 20.5t54 54t20 71.5v296h67v-494h-62v100h-5q-24 -47 -62.5 -77.5t-98.5 -30.5zM335 623v78h80v-78h-80zM161 623v78h80v-78h-80z" />
    <glyph glyph-name="uni1EE5" unicode="&#x1ee5;" horiz-adv-x="578" 
d="M258 -8q-52 0 -90 19t-58 59.5t-20 102.5v321h68v-316q0 -39 11.5 -67.5t36 -43.5t63.5 -15q42 0 76 20.5t54 54t20 71.5v296h67v-494h-62v100h-5q-24 -47 -62.5 -77.5t-98.5 -30.5zM231 -183v80h82v-80h-82z" />
    <glyph glyph-name="ugrave" unicode="&#xf9;" horiz-adv-x="578" 
d="M258 -8q-52 0 -90 19t-58 59.5t-20 102.5v321h68v-316q0 -39 11.5 -67.5t36 -43.5t63.5 -15q42 0 76 20.5t54 54t20 71.5v296h67v-494h-62v100h-5q-24 -47 -62.5 -77.5t-98.5 -30.5zM263 560l-118 185h77l94 -185h-53z" />
    <glyph glyph-name="uni1EE7" unicode="&#x1ee7;" horiz-adv-x="578" 
d="M258 -8q-52 0 -90 19t-58 59.5t-20 102.5v321h68v-316q0 -39 11.5 -67.5t36 -43.5t63.5 -15q42 0 76 20.5t54 54t20 71.5v296h67v-494h-62v100h-5q-24 -47 -62.5 -77.5t-98.5 -30.5zM262 560v20q0 24 9 39t20.5 25.5t20.5 21.5t9 26t-11 23t-33 8q-14 0 -28 -3.5
t-30 -11.5l-13 41q18 10 38.5 15t46.5 5q43 0 67 -17.5t24 -50.5q0 -25 -10.5 -40.5t-24 -26.5t-24 -24t-10.5 -35v-15h-51z" />
    <glyph glyph-name="uhorn" unicode="&#x1b0;" horiz-adv-x="578" 
d="M258 -8q-52 0 -90 19t-58 59.5t-20 102.5v321h68v-316q0 -39 11.5 -67.5t36 -43.5t63.5 -15q42 0 76 20.5t54 54t20 71.5v296h67v-494h-62v100h-5q-24 -47 -62.5 -77.5t-98.5 -30.5zM463 449l-35 24v21q41 1 62.5 13t29.5 37.5t8 64.5v14h63v-24q0 -46 -14.5 -78.5
t-43 -50t-70.5 -21.5z" />
    <glyph glyph-name="uni1EE9" unicode="&#x1ee9;" horiz-adv-x="578" 
d="M258 -8q-52 0 -90 19t-58 59.5t-20 102.5v321h68v-316q0 -39 11.5 -67.5t36 -43.5t63.5 -15q42 0 76 20.5t54 54t20 71.5v296h67v-494h-62v100h-5q-24 -47 -62.5 -77.5t-98.5 -30.5zM463 449l-35 24v21q41 1 62.5 13t29.5 37.5t8 64.5v14h63v-24q0 -46 -14.5 -78.5
t-43 -50t-70.5 -21.5zM260 559l94 186h77l-118 -186h-53z" />
    <glyph glyph-name="uni1EF1" unicode="&#x1ef1;" horiz-adv-x="578" 
d="M258 -8q-52 0 -90 19t-58 59.5t-20 102.5v321h68v-316q0 -39 11.5 -67.5t36 -43.5t63.5 -15q42 0 76 20.5t54 54t20 71.5v296h67v-494h-62v100h-5q-24 -47 -62.5 -77.5t-98.5 -30.5zM463 449l-35 24v21q41 1 62.5 13t29.5 37.5t8 64.5v14h63v-24q0 -46 -14.5 -78.5
t-43 -50t-70.5 -21.5zM231 -183v80h82v-80h-82z" />
    <glyph glyph-name="uni1EEB" unicode="&#x1eeb;" horiz-adv-x="578" 
d="M258 -8q-52 0 -90 19t-58 59.5t-20 102.5v321h68v-316q0 -39 11.5 -67.5t36 -43.5t63.5 -15q42 0 76 20.5t54 54t20 71.5v296h67v-494h-62v100h-5q-24 -47 -62.5 -77.5t-98.5 -30.5zM463 449l-35 24v21q41 1 62.5 13t29.5 37.5t8 64.5v14h63v-24q0 -46 -14.5 -78.5
t-43 -50t-70.5 -21.5zM263 560l-118 185h77l94 -185h-53z" />
    <glyph glyph-name="uni1EED" unicode="&#x1eed;" horiz-adv-x="578" 
d="M258 -8q-52 0 -90 19t-58 59.5t-20 102.5v321h68v-316q0 -39 11.5 -67.5t36 -43.5t63.5 -15q42 0 76 20.5t54 54t20 71.5v296h67v-494h-62v100h-5q-24 -47 -62.5 -77.5t-98.5 -30.5zM463 449l-35 24v21q41 1 62.5 13t29.5 37.5t8 64.5v14h63v-24q0 -46 -14.5 -78.5
t-43 -50t-70.5 -21.5zM262 560v20q0 24 9 39t20.5 25.5t20.5 21.5t9 26t-11 23t-33 8q-14 0 -28 -3.5t-30 -11.5l-13 41q18 10 38.5 15t46.5 5q43 0 67 -17.5t24 -50.5q0 -25 -10.5 -40.5t-24 -26.5t-24 -24t-10.5 -35v-15h-51z" />
    <glyph glyph-name="uni1EEF" unicode="&#x1eef;" horiz-adv-x="578" 
d="M258 -8q-52 0 -90 19t-58 59.5t-20 102.5v321h68v-316q0 -39 11.5 -67.5t36 -43.5t63.5 -15q42 0 76 20.5t54 54t20 71.5v296h67v-494h-62v100h-5q-24 -47 -62.5 -77.5t-98.5 -30.5zM463 449l-35 24v21q41 1 62.5 13t29.5 37.5t8 64.5v14h63v-24q0 -46 -14.5 -78.5
t-43 -50t-70.5 -21.5zM162 601l-44 2q2 59 25 91t64 32q29 0 49 -15t33 -27q11 -10 25.5 -21t30.5 -11q21 0 33 20t15 57l45 -3q-2 -59 -25 -91t-63 -32q-28 0 -48 15t-35 27q-11 11 -25 21.5t-31 10.5q-23 0 -34.5 -20.5t-14.5 -55.5z" />
    <glyph glyph-name="uhungarumlaut" unicode="&#x171;" horiz-adv-x="578" 
d="M258 -8q-52 0 -90 19t-58 59.5t-20 102.5v321h68v-316q0 -39 11.5 -67.5t36 -43.5t63.5 -15q42 0 76 20.5t54 54t20 71.5v296h67v-494h-62v100h-5q-24 -47 -62.5 -77.5t-98.5 -30.5zM325 560l49 185h66l-75 -185h-40zM210 560l49 185h66l-75 -185h-40z" />
    <glyph glyph-name="uni0217" unicode="&#x217;" horiz-adv-x="578" 
d="M258 -8q-52 0 -90 19t-58 59.5t-20 102.5v321h68v-316q0 -39 11.5 -67.5t36 -43.5t63.5 -15q42 0 76 20.5t54 54t20 71.5v296h67v-494h-62v100h-5q-24 -47 -62.5 -77.5t-98.5 -30.5zM197 556l-49 5q3 59 19.5 100t47 63t73.5 22q44 0 74.5 -22t47 -63t18.5 -100l-49 -5
q-3 69 -24.5 103t-66.5 34q-44 0 -66 -34t-25 -103z" />
    <glyph glyph-name="umacron" unicode="&#x16b;" horiz-adv-x="578" 
d="M258 -8q-52 0 -90 19t-58 59.5t-20 102.5v321h68v-316q0 -39 11.5 -67.5t36 -43.5t63.5 -15q42 0 76 20.5t54 54t20 71.5v296h67v-494h-62v100h-5q-24 -47 -62.5 -77.5t-98.5 -30.5zM144 635v56h288v-56h-288z" />
    <glyph glyph-name="uni1E7B" unicode="&#x1e7b;" horiz-adv-x="578" 
d="M258 -8q-52 0 -90 19t-58 59.5t-20 102.5v321h68v-316q0 -39 11.5 -67.5t36 -43.5t63.5 -15q42 0 76 20.5t54 54t20 71.5v296h67v-494h-62v100h-5q-24 -47 -62.5 -77.5t-98.5 -30.5zM144 593v54h288v-54h-288zM162 704v72h80v-72h-80zM334 704v72h80v-72h-80z" />
    <glyph glyph-name="uogonek" unicode="&#x173;" horiz-adv-x="578" 
d="M258 -8q-52 0 -90 19t-58 59.5t-20 102.5v321h68v-316q0 -39 11.5 -67.5t36 -43.5t63.5 -15q42 0 76 20.5t54 54t20 71.5v296h67v-494h-62v100h-5q-24 -47 -62.5 -77.5t-98.5 -30.5zM461 -194q-43 0 -71 25t-28 68q0 39 25 73.5t66 57.5l26 -30q-16 -8 -30 -22
t-22.5 -31.5t-8.5 -37.5q0 -28 14.5 -40.5t36.5 -12.5q10 0 22.5 3t24.5 9l15 -46q-13 -7 -30.5 -11.5t-39.5 -4.5z" />
    <glyph glyph-name="uring" unicode="&#x16f;" horiz-adv-x="578" 
d="M258 -8q-52 0 -90 19t-58 59.5t-20 102.5v321h68v-316q0 -39 11.5 -67.5t36 -43.5t63.5 -15q42 0 76 20.5t54 54t20 71.5v296h67v-494h-62v100h-5q-24 -47 -62.5 -77.5t-98.5 -30.5zM288 556q-34 0 -60 15.5t-42 41.5t-16 58q0 33 15.5 58.5t42 41t60.5 15.5t60.5 -15.5
t42 -41t15.5 -58.5q0 -32 -15.5 -58t-42 -41.5t-60.5 -15.5zM288 597q32 0 52.5 21t20.5 54t-20.5 53.5t-53.5 20.5q-31 0 -51.5 -21t-20.5 -53q0 -33 20.5 -54t52.5 -21z" />
    <glyph glyph-name="utilde" unicode="&#x169;" horiz-adv-x="578" 
d="M258 -8q-52 0 -90 19t-58 59.5t-20 102.5v321h68v-316q0 -39 11.5 -67.5t36 -43.5t63.5 -15q42 0 76 20.5t54 54t20 71.5v296h67v-494h-62v100h-5q-24 -47 -62.5 -77.5t-98.5 -30.5zM170 598l-44 3q2 56 26.5 89.5t64.5 33.5q28 0 48.5 -14.5t35.5 -27.5q12 -9 26 -20
t30 -11q23 0 34.5 19.5t14.5 56.5l44 -4q-2 -57 -26 -90t-64 -33q-29 0 -50 15t-35 27q-12 11 -26 21t-30 10q-22 0 -33.5 -19t-15.5 -56z" />
    <glyph glyph-name="uni1E79" unicode="&#x1e79;" horiz-adv-x="578" 
d="M258 -8q-52 0 -90 19t-58 59.5t-20 102.5v321h68v-316q0 -39 11.5 -67.5t36 -43.5t63.5 -15q42 0 76 20.5t54 54t20 71.5v296h67v-494h-62v100h-5q-24 -47 -62.5 -77.5t-98.5 -30.5zM185 554l-43 3q3 32 14 54t29 33.5t42 11.5t41.5 -10.5t30.5 -19.5q11 -7 23.5 -14.5
t25.5 -7.5q20 0 30 13.5t13 40.5l43 -3q-4 -49 -26 -74t-59 -25q-23 0 -40 10t-31 19q-11 8 -23 15.5t-27 7.5q-19 0 -28.5 -13t-14.5 -41zM262 678l83 147h76l-108 -147h-51z" />
    <glyph glyph-name="v" unicode="v" horiz-adv-x="507" 
d="M220 0l-188 494h72l152 -425h-2l153 425h69l-188 -494h-68z" />
    <glyph glyph-name="w" unicode="w" horiz-adv-x="791" 
d="M189 0l-153 494h68l123 -421v0l138 421h62l137 -421v0l123 421h68l-154 -494h-66l-137 415h-5l-137 -415h-67z" />
    <glyph glyph-name="wacute" unicode="&#x1e83;" horiz-adv-x="791" 
d="M189 0l-153 494h68l123 -421v0l138 421h62l137 -421v0l123 421h68l-154 -494h-66l-137 415h-5l-137 -415h-67zM369 559l94 186h77l-118 -186h-53z" />
    <glyph glyph-name="wcircumflex" unicode="&#x175;" horiz-adv-x="791" 
d="M189 0l-153 494h68l123 -421v0l138 421h62l137 -421v0l123 421h68l-154 -494h-66l-137 415h-5l-137 -415h-67zM262 566l101 179h68l101 -179h-52l-83 130l-83 -130h-52z" />
    <glyph glyph-name="wdieresis" unicode="&#x1e85;" horiz-adv-x="791" 
d="M189 0l-153 494h68l123 -421v0l138 421h62l137 -421v0l123 421h68l-154 -494h-66l-137 415h-5l-137 -415h-67zM444 623v78h80v-78h-80zM270 623v78h80v-78h-80z" />
    <glyph glyph-name="wgrave" unicode="&#x1e81;" horiz-adv-x="791" 
d="M189 0l-153 494h68l123 -421v0l138 421h62l137 -421v0l123 421h68l-154 -494h-66l-137 415h-5l-137 -415h-67zM372 560l-118 185h77l94 -185h-53z" />
    <glyph glyph-name="x" unicode="x" horiz-adv-x="501" 
d="M35 0l182 272l1 -36l-175 258h79l129 -199v0l129 199h77l-174 -256l1 31l182 -269h-78l-137 210h-2l-137 -210h-77z" />
    <glyph glyph-name="y" unicode="y" horiz-adv-x="508" 
d="M150 -180l84 207v-61l-202 528h72l150 -420h3l150 420h69l-255 -674h-71z" />
    <glyph glyph-name="yacute" unicode="&#xfd;" horiz-adv-x="508" 
d="M150 -180l84 207v-61l-202 528h72l150 -420h3l150 420h69l-255 -674h-71zM225 559l94 186h77l-118 -186h-53z" />
    <glyph glyph-name="ycircumflex" unicode="&#x177;" horiz-adv-x="508" 
d="M150 -180l84 207v-61l-202 528h72l150 -420h3l150 420h69l-255 -674h-71zM118 566l101 179h68l101 -179h-52l-83 130l-83 -130h-52z" />
    <glyph glyph-name="ydieresis" unicode="&#xff;" horiz-adv-x="508" 
d="M150 -180l84 207v-61l-202 528h72l150 -420h3l150 420h69l-255 -674h-71zM300 623v78h80v-78h-80zM126 623v78h80v-78h-80z" />
    <glyph glyph-name="uni1E8F" unicode="&#x1e8f;" horiz-adv-x="508" 
d="M150 -180l84 207v-61l-202 528h72l150 -420h3l150 420h69l-255 -674h-71zM212 623v80h82v-80h-82z" />
    <glyph glyph-name="uni1EF5" unicode="&#x1ef5;" horiz-adv-x="508" 
d="M150 -180l84 207v-61l-202 528h72l150 -420h3l150 420h69l-255 -674h-71zM320 -183v80h82v-80h-82z" />
    <glyph glyph-name="ygrave" unicode="&#x1ef3;" horiz-adv-x="508" 
d="M150 -180l84 207v-61l-202 528h72l150 -420h3l150 420h69l-255 -674h-71zM228 560l-118 185h77l94 -185h-53z" />
    <glyph glyph-name="uni01B4" unicode="&#x1b4;" horiz-adv-x="552" 
d="M369 388q14 40 31.5 65t42 37.5t58.5 12.5q15 0 27 -2t23 -6l-11 -56q-7 2 -16.5 3.5t-17.5 1.5q-21 0 -35 -8t-24 -25t-20 -44l-206 -547h-71l82 203v-51l-200 522h72l150 -420h3z" />
    <glyph glyph-name="uni1EF7" unicode="&#x1ef7;" horiz-adv-x="508" 
d="M150 -180l84 207v-61l-202 528h72l150 -420h3l150 420h69l-255 -674h-71zM227 560v20q0 24 9 39t20.5 25.5t20.5 21.5t9 26t-11 23t-33 8q-14 0 -28 -3.5t-30 -11.5l-13 41q18 10 38.5 15t46.5 5q43 0 67 -17.5t24 -50.5q0 -25 -10.5 -40.5t-24 -26.5t-24 -24t-10.5 -35
v-15h-51z" />
    <glyph glyph-name="uni0233" unicode="&#x233;" horiz-adv-x="508" 
d="M150 -180l84 207v-61l-202 528h72l150 -420h3l150 420h69l-255 -674h-71zM109 635v56h288v-56h-288z" />
    <glyph glyph-name="uni1EF9" unicode="&#x1ef9;" horiz-adv-x="508" 
d="M150 -180l84 207v-61l-202 528h72l150 -420h3l150 420h69l-255 -674h-71zM135 598l-44 3q2 56 26.5 89.5t64.5 33.5q28 0 48.5 -14.5t35.5 -27.5q12 -9 26 -20t30 -11q23 0 34.5 19.5t14.5 56.5l44 -4q-2 -57 -26 -90t-64 -33q-29 0 -50 15t-35 27q-12 11 -26 21t-30 10
q-22 0 -33.5 -19t-15.5 -56z" />
    <glyph glyph-name="z" unicode="z" horiz-adv-x="491" 
d="M59 0v41l299 419l7 -25h-295v59h357v-43l-300 -420l-7 28h318v-59h-379z" />
    <glyph glyph-name="zacute" unicode="&#x17a;" horiz-adv-x="491" 
d="M59 0v41l299 419l7 -25h-295v59h357v-43l-300 -420l-7 28h318v-59h-379zM224 559l94 186h77l-118 -186h-53z" />
    <glyph glyph-name="zcaron" unicode="&#x17e;" horiz-adv-x="491" 
d="M59 0v41l299 419l7 -25h-295v59h357v-43l-300 -420l-7 28h318v-59h-379zM218 559l-101 186h52l83 -137l83 137h52l-101 -186h-68z" />
    <glyph glyph-name="zdotaccent" unicode="&#x17c;" horiz-adv-x="491" 
d="M59 0v41l299 419l7 -25h-295v59h357v-43l-300 -420l-7 28h318v-59h-379zM211 623v80h82v-80h-82z" />
    <glyph glyph-name="uni1E93" unicode="&#x1e93;" horiz-adv-x="491" 
d="M59 0v41l299 419l7 -25h-295v59h357v-43l-300 -420l-7 28h318v-59h-379zM209 -183v80h82v-80h-82z" />
    <glyph glyph-name="germandbls.calt" horiz-adv-x="705" 
d="M411 -8q-51 0 -92.5 15.5t-79.5 45.5l23 55q39 -30 70.5 -42.5t73.5 -12.5q70 0 110 36t40 103q0 69 -42 102t-118 33h-113v59h89q40 0 72.5 15.5t52 46t19.5 76.5q0 65 -40.5 96.5t-114.5 31.5q-95 0 -141.5 -47t-46.5 -150v-455h-67v460q0 82 29.5 139t86 86t138.5 29
q71 0 121 -23t76.5 -64t26.5 -98q0 -38 -12.5 -70t-34.5 -56t-50 -38v-1q61 -12 99 -58.5t38 -116.5q0 -58 -25.5 -102.5t-73 -69.5t-114.5 -25z" />
    <glyph glyph-name="iacute_j.loclNLD" horiz-adv-x="480" 
d="M92 0v494h67v-494h-67zM97 559l94 186h77l-118 -186h-53zM204 -193l-5 59l45 6q42 5 65.5 26t23.5 78v518h67v-517q0 -39 -9 -67.5t-26.5 -49t-46 -32t-66.5 -16.5zM339 559l94 186h77l-118 -186h-53z" />
    <glyph glyph-name="a.ss01" horiz-adv-x="597" 
d="M273 -8q-64 0 -110.5 31t-72.5 88.5t-26 135.5q0 79 26 135.5t72.5 88.5t109.5 32q59 0 101.5 -30t62.5 -84h4v105h65v-494h-62v107h-4q-22 -56 -64 -85.5t-102 -29.5zM285 50q73 0 113 52.5t40 144.5t-39.5 144.5t-112.5 52.5q-74 0 -114 -52.5t-40 -144.5t39.5 -144.5
t113.5 -52.5z" />
    <glyph glyph-name="aacute.ss01" horiz-adv-x="597" 
d="M273 -8q-64 0 -110.5 31t-72.5 88.5t-26 135.5q0 79 26 135.5t72.5 88.5t109.5 32q59 0 101.5 -30t62.5 -84h4v105h65v-494h-62v107h-4q-22 -56 -64 -85.5t-102 -29.5zM285 50q73 0 113 52.5t40 144.5t-39.5 144.5t-112.5 52.5q-74 0 -114 -52.5t-40 -144.5t39.5 -144.5
t113.5 -52.5zM251 559l94 186h77l-118 -186h-53z" />
    <glyph glyph-name="abreve.ss01" horiz-adv-x="597" 
d="M273 -8q-64 0 -110.5 31t-72.5 88.5t-26 135.5q0 79 26 135.5t72.5 88.5t109.5 32q59 0 101.5 -30t62.5 -84h4v105h65v-494h-62v107h-4q-22 -56 -64 -85.5t-102 -29.5zM285 50q73 0 113 52.5t40 144.5t-39.5 144.5t-112.5 52.5q-74 0 -114 -52.5t-40 -144.5t39.5 -144.5
t113.5 -52.5zM279 556q-44 0 -74 22t-47 63.5t-19 99.5l49 5q3 -69 24.5 -102.5t66.5 -33.5q44 0 66 33.5t25 102.5l49 -5q-2 -58 -19 -99.5t-47.5 -63.5t-73.5 -22z" />
    <glyph glyph-name="uni1EAF.ss01" horiz-adv-x="597" 
d="M273 -8q-64 0 -110.5 31t-72.5 88.5t-26 135.5q0 79 26 135.5t72.5 88.5t109.5 32q59 0 101.5 -30t62.5 -84h4v105h65v-494h-62v107h-4q-22 -56 -64 -85.5t-102 -29.5zM285 50q73 0 113 52.5t40 144.5t-39.5 144.5t-112.5 52.5q-74 0 -114 -52.5t-40 -144.5t39.5 -144.5
t113.5 -52.5zM279 556q-65 0 -102.5 38t-41.5 106l47 5q3 -50 28.5 -74.5t68.5 -24.5q44 0 69 24t29 75l46 -5q-3 -68 -40.5 -106t-103.5 -38zM249 673l79 145h75l-105 -145h-49z" />
    <glyph glyph-name="uni1EB7.ss01" horiz-adv-x="597" 
d="M273 -8q-64 0 -110.5 31t-72.5 88.5t-26 135.5q0 79 26 135.5t72.5 88.5t109.5 32q59 0 101.5 -30t62.5 -84h4v105h65v-494h-62v107h-4q-22 -56 -64 -85.5t-102 -29.5zM285 50q73 0 113 52.5t40 144.5t-39.5 144.5t-112.5 52.5q-74 0 -114 -52.5t-40 -144.5t39.5 -144.5
t113.5 -52.5zM234 -183v80h82v-80h-82zM279 556q-44 0 -74 22t-47 63.5t-19 99.5l49 5q3 -69 24.5 -102.5t66.5 -33.5q44 0 66 33.5t25 102.5l49 -5q-2 -58 -19 -99.5t-47.5 -63.5t-73.5 -22z" />
    <glyph glyph-name="uni1EB1.ss01" horiz-adv-x="597" 
d="M273 -8q-64 0 -110.5 31t-72.5 88.5t-26 135.5q0 79 26 135.5t72.5 88.5t109.5 32q59 0 101.5 -30t62.5 -84h4v105h65v-494h-62v107h-4q-22 -56 -64 -85.5t-102 -29.5zM285 50q73 0 113 52.5t40 144.5t-39.5 144.5t-112.5 52.5q-74 0 -114 -52.5t-40 -144.5t39.5 -144.5
t113.5 -52.5zM279 556q-65 0 -102.5 38t-41.5 106l47 5q3 -50 28.5 -74.5t68.5 -24.5q44 0 69 24t29 75l46 -5q-3 -68 -40.5 -106t-103.5 -38zM262 673l-102 145h75l76 -145h-49z" />
    <glyph glyph-name="uni1EB3.ss01" horiz-adv-x="597" 
d="M273 -8q-64 0 -110.5 31t-72.5 88.5t-26 135.5q0 79 26 135.5t72.5 88.5t109.5 32q59 0 101.5 -30t62.5 -84h4v105h65v-494h-62v107h-4q-22 -56 -64 -85.5t-102 -29.5zM285 50q73 0 113 52.5t40 144.5t-39.5 144.5t-112.5 52.5q-74 0 -114 -52.5t-40 -144.5t39.5 -144.5
t113.5 -52.5zM279 556q-65 0 -102.5 38t-41.5 106l47 5q3 -50 28.5 -74.5t68.5 -24.5q44 0 69 24t29 75l46 -5q-3 -67 -40.5 -105.5t-103.5 -38.5zM254 673q0 20 8.5 32.5t20 22t19.5 18t8 18.5q0 13 -12 18.5t-31 5.5q-12 0 -26 -3.5t-29 -10.5l-12 37q15 9 35 14t48 5
q40 0 62 -14.5t22 -39.5q0 -20 -10 -32.5t-22 -22t-22 -20.5t-10 -28h-49z" />
    <glyph glyph-name="uni1EB5.ss01" horiz-adv-x="597" 
d="M273 -8q-64 0 -110.5 31t-72.5 88.5t-26 135.5q0 79 26 135.5t72.5 88.5t109.5 32q59 0 101.5 -30t62.5 -84h4v105h65v-494h-62v107h-4q-22 -56 -64 -85.5t-102 -29.5zM285 50q73 0 113 52.5t40 144.5t-39.5 144.5t-112.5 52.5q-74 0 -114 -52.5t-40 -144.5t39.5 -144.5
t113.5 -52.5zM279 556q-58 0 -96.5 30t-47.5 84l45 7q10 -35 35.5 -53t63.5 -18q40 0 65 18t34 53l45 -7q-9 -53 -47 -83.5t-97 -30.5zM176 723l-43 3q3 32 14 53.5t29 33.5t42 12t41 -10.5t30 -19.5q10 -7 23 -15t27 -8q20 0 30 13.5t13 40.5l43 -2q-4 -49 -26 -74.5
t-59 -25.5q-23 0 -40 10.5t-29 18.5q-14 10 -26 17t-26 7q-19 0 -28.5 -13t-14.5 -41z" />
    <glyph glyph-name="uni01CE.ss01" horiz-adv-x="597" 
d="M273 -8q-64 0 -110.5 31t-72.5 88.5t-26 135.5q0 79 26 135.5t72.5 88.5t109.5 32q59 0 101.5 -30t62.5 -84h4v105h65v-494h-62v107h-4q-22 -56 -64 -85.5t-102 -29.5zM285 50q73 0 113 52.5t40 144.5t-39.5 144.5t-112.5 52.5q-74 0 -114 -52.5t-40 -144.5t39.5 -144.5
t113.5 -52.5zM245 559l-101 186h52l83 -137l83 137h52l-101 -186h-68z" />
    <glyph glyph-name="acircumflex.ss01" horiz-adv-x="597" 
d="M273 -8q-64 0 -110.5 31t-72.5 88.5t-26 135.5q0 79 26 135.5t72.5 88.5t109.5 32q59 0 101.5 -30t62.5 -84h4v105h65v-494h-62v107h-4q-22 -56 -64 -85.5t-102 -29.5zM285 50q73 0 113 52.5t40 144.5t-39.5 144.5t-112.5 52.5q-74 0 -114 -52.5t-40 -144.5t39.5 -144.5
t113.5 -52.5zM144 566l101 179h68l101 -179h-52l-83 130l-83 -130h-52z" />
    <glyph glyph-name="uni1EA5.ss01" horiz-adv-x="597" 
d="M273 -8q-64 0 -110.5 31t-72.5 88.5t-26 135.5q0 79 26 135.5t72.5 88.5t109.5 32q59 0 101.5 -30t62.5 -84h4v105h65v-494h-62v107h-4q-22 -56 -64 -85.5t-102 -29.5zM285 50q73 0 113 52.5t40 144.5t-39.5 144.5t-112.5 52.5q-74 0 -114 -52.5t-40 -144.5t39.5 -144.5
t113.5 -52.5zM141 567l105 158h67l105 -158h-53l-86 110l-86 -110h-52zM366 675l74 151h70l-97 -151h-47z" />
    <glyph glyph-name="uni1EAD.ss01" horiz-adv-x="597" 
d="M273 -8q-64 0 -110.5 31t-72.5 88.5t-26 135.5q0 79 26 135.5t72.5 88.5t109.5 32q59 0 101.5 -30t62.5 -84h4v105h65v-494h-62v107h-4q-22 -56 -64 -85.5t-102 -29.5zM285 50q73 0 113 52.5t40 144.5t-39.5 144.5t-112.5 52.5q-74 0 -114 -52.5t-40 -144.5t39.5 -144.5
t113.5 -52.5zM234 -183v80h82v-80h-82zM144 566l101 179h68l101 -179h-52l-83 130l-83 -130h-52z" />
    <glyph glyph-name="uni1EA7.ss01" horiz-adv-x="597" 
d="M273 -8q-64 0 -110.5 31t-72.5 88.5t-26 135.5q0 79 26 135.5t72.5 88.5t109.5 32q59 0 101.5 -30t62.5 -84h4v105h65v-494h-62v107h-4q-22 -56 -64 -85.5t-102 -29.5zM285 50q73 0 113 52.5t40 144.5t-39.5 144.5t-112.5 52.5q-74 0 -114 -52.5t-40 -144.5t39.5 -144.5
t113.5 -52.5zM141 567l105 158h67l105 -158h-53l-86 110l-86 -110h-52zM404 675l-96 151h70l74 -151h-48z" />
    <glyph glyph-name="uni1EA9.ss01" horiz-adv-x="597" 
d="M273 -8q-64 0 -110.5 31t-72.5 88.5t-26 135.5q0 79 26 135.5t72.5 88.5t109.5 32q59 0 101.5 -30t62.5 -84h4v105h65v-494h-62v107h-4q-22 -56 -64 -85.5t-102 -29.5zM285 50q73 0 113 52.5t40 144.5t-39.5 144.5t-112.5 52.5q-74 0 -114 -52.5t-40 -144.5t39.5 -144.5
t113.5 -52.5zM141 568l105 158h67l105 -158h-53l-86 110l-86 -110h-52zM369 679q0 20 8.5 32.5t20 22t19.5 17.5t8 19q0 12 -12 17.5t-31 5.5q-12 0 -26 -3.5t-28 -10.5l-12 37q15 8 34.5 13t46.5 5q39 0 61 -14.5t22 -38.5q0 -20 -9.5 -32.5t-22 -21.5t-22 -20t-9.5 -28
h-48z" />
    <glyph glyph-name="uni1EAB.ss01" horiz-adv-x="597" 
d="M273 -8q-64 0 -110.5 31t-72.5 88.5t-26 135.5q0 79 26 135.5t72.5 88.5t109.5 32q59 0 101.5 -30t62.5 -84h4v105h65v-494h-62v107h-4q-22 -56 -64 -85.5t-102 -29.5zM285 50q73 0 113 52.5t40 144.5t-39.5 144.5t-112.5 52.5q-74 0 -114 -52.5t-40 -144.5t39.5 -144.5
t113.5 -52.5zM141 567l105 133h67l105 -133h-53l-86 89l-86 -89h-52zM176 729l-43 3q3 32 13.5 54t28.5 34t43 12q24 0 41 -10t30 -19q10 -8 23 -16t27 -8q18 0 28.5 12.5t14.5 42.5l43 -4q-4 -46 -25 -72.5t-60 -26.5q-23 0 -40 10t-29 18q-14 11 -26 18t-26 7
q-16 0 -27 -12t-16 -43z" />
    <glyph glyph-name="uni0201.ss01" horiz-adv-x="597" 
d="M273 -8q-64 0 -110.5 31t-72.5 88.5t-26 135.5q0 79 26 135.5t72.5 88.5t109.5 32q59 0 101.5 -30t62.5 -84h4v105h65v-494h-62v107h-4q-22 -56 -64 -85.5t-102 -29.5zM285 50q73 0 113 52.5t40 144.5t-39.5 144.5t-112.5 52.5q-74 0 -114 -52.5t-40 -144.5t39.5 -144.5
t113.5 -52.5zM317 559l-75 186h66l49 -186h-40zM202 559l-75 186h66l49 -186h-40z" />
    <glyph glyph-name="adieresis.ss01" horiz-adv-x="597" 
d="M273 -8q-64 0 -110.5 31t-72.5 88.5t-26 135.5q0 79 26 135.5t72.5 88.5t109.5 32q59 0 101.5 -30t62.5 -84h4v105h65v-494h-62v107h-4q-22 -56 -64 -85.5t-102 -29.5zM285 50q73 0 113 52.5t40 144.5t-39.5 144.5t-112.5 52.5q-74 0 -114 -52.5t-40 -144.5t39.5 -144.5
t113.5 -52.5zM326 623v78h80v-78h-80zM152 623v78h80v-78h-80z" />
    <glyph glyph-name="uni0227.ss01" horiz-adv-x="597" 
d="M273 -8q-64 0 -110.5 31t-72.5 88.5t-26 135.5q0 79 26 135.5t72.5 88.5t109.5 32q59 0 101.5 -30t62.5 -84h4v105h65v-494h-62v107h-4q-22 -56 -64 -85.5t-102 -29.5zM285 50q73 0 113 52.5t40 144.5t-39.5 144.5t-112.5 52.5q-74 0 -114 -52.5t-40 -144.5t39.5 -144.5
t113.5 -52.5zM238 623v80h82v-80h-82z" />
    <glyph glyph-name="uni1EA1.ss01" horiz-adv-x="597" 
d="M273 -8q-64 0 -110.5 31t-72.5 88.5t-26 135.5q0 79 26 135.5t72.5 88.5t109.5 32q59 0 101.5 -30t62.5 -84h4v105h65v-494h-62v107h-4q-22 -56 -64 -85.5t-102 -29.5zM285 50q73 0 113 52.5t40 144.5t-39.5 144.5t-112.5 52.5q-74 0 -114 -52.5t-40 -144.5t39.5 -144.5
t113.5 -52.5zM234 -183v80h82v-80h-82z" />
    <glyph glyph-name="agrave.ss01" horiz-adv-x="597" 
d="M273 -8q-64 0 -110.5 31t-72.5 88.5t-26 135.5q0 79 26 135.5t72.5 88.5t109.5 32q59 0 101.5 -30t62.5 -84h4v105h65v-494h-62v107h-4q-22 -56 -64 -85.5t-102 -29.5zM285 50q73 0 113 52.5t40 144.5t-39.5 144.5t-112.5 52.5q-74 0 -114 -52.5t-40 -144.5t39.5 -144.5
t113.5 -52.5zM254 560l-118 185h77l94 -185h-53z" />
    <glyph glyph-name="uni1EA3.ss01" horiz-adv-x="597" 
d="M273 -8q-64 0 -110.5 31t-72.5 88.5t-26 135.5q0 79 26 135.5t72.5 88.5t109.5 32q59 0 101.5 -30t62.5 -84h4v105h65v-494h-62v107h-4q-22 -56 -64 -85.5t-102 -29.5zM285 50q73 0 113 52.5t40 144.5t-39.5 144.5t-112.5 52.5q-74 0 -114 -52.5t-40 -144.5t39.5 -144.5
t113.5 -52.5zM253 560v20q0 24 9 39t20.5 25.5t20.5 21.5t9 26t-11 23t-33 8q-14 0 -28 -3.5t-30 -11.5l-13 41q18 10 38.5 15t46.5 5q43 0 67 -17.5t24 -50.5q0 -25 -10.5 -40.5t-24 -26.5t-24 -24t-10.5 -35v-15h-51z" />
    <glyph glyph-name="uni0203.ss01" horiz-adv-x="597" 
d="M273 -8q-64 0 -110.5 31t-72.5 88.5t-26 135.5q0 79 26 135.5t72.5 88.5t109.5 32q59 0 101.5 -30t62.5 -84h4v105h65v-494h-62v107h-4q-22 -56 -64 -85.5t-102 -29.5zM285 50q73 0 113 52.5t40 144.5t-39.5 144.5t-112.5 52.5q-74 0 -114 -52.5t-40 -144.5t39.5 -144.5
t113.5 -52.5zM188 556l-49 5q3 59 19.5 100t47 63t73.5 22q44 0 74.5 -22t47 -63t18.5 -100l-49 -5q-3 69 -24.5 103t-66.5 34q-44 0 -66 -34t-25 -103z" />
    <glyph glyph-name="amacron.ss01" horiz-adv-x="597" 
d="M273 -8q-64 0 -110.5 31t-72.5 88.5t-26 135.5q0 79 26 135.5t72.5 88.5t109.5 32q59 0 101.5 -30t62.5 -84h4v105h65v-494h-62v107h-4q-22 -56 -64 -85.5t-102 -29.5zM285 50q73 0 113 52.5t40 144.5t-39.5 144.5t-112.5 52.5q-74 0 -114 -52.5t-40 -144.5t39.5 -144.5
t113.5 -52.5zM135 635v56h288v-56h-288z" />
    <glyph glyph-name="aogonek.ss01" horiz-adv-x="597" 
d="M273 -8q-64 0 -110.5 31t-72.5 88.5t-26 135.5q0 79 26 135.5t72.5 88.5t109.5 32q59 0 101.5 -30t62.5 -84h4v105h65v-494h-62v107h-4q-22 -56 -64 -85.5t-102 -29.5zM285 50q73 0 113 52.5t40 144.5t-39.5 144.5t-112.5 52.5q-74 0 -114 -52.5t-40 -144.5t39.5 -144.5
t113.5 -52.5zM481 -194q-43 0 -71 25t-28 68q0 39 25 73.5t66 57.5l26 -30q-16 -8 -30 -22t-22.5 -31.5t-8.5 -37.5q0 -28 14.5 -40.5t36.5 -12.5q10 0 22.5 3t24.5 9l15 -46q-13 -7 -30.5 -11.5t-39.5 -4.5z" />
    <glyph glyph-name="aring.ss01" horiz-adv-x="597" 
d="M273 -8q-64 0 -110.5 31t-72.5 88.5t-26 135.5q0 79 26 135.5t72.5 88.5t109.5 32q59 0 101.5 -30t62.5 -84h4v105h65v-494h-62v107h-4q-22 -56 -64 -85.5t-102 -29.5zM285 50q73 0 113 52.5t40 144.5t-39.5 144.5t-112.5 52.5q-74 0 -114 -52.5t-40 -144.5t39.5 -144.5
t113.5 -52.5zM279 556q-34 0 -60 15.5t-42 41.5t-16 58q0 33 15.5 58.5t42 41t60.5 15.5t60.5 -15.5t42 -41t15.5 -58.5q0 -32 -15.5 -58t-42 -41.5t-60.5 -15.5zM279 597q32 0 52.5 21t20.5 54t-20.5 53.5t-53.5 20.5q-31 0 -51.5 -21t-20.5 -53q0 -33 20.5 -54t52.5 -21z
" />
    <glyph glyph-name="aringacute.ss01" horiz-adv-x="597" 
d="M273 -8q-64 0 -110.5 31t-72.5 88.5t-26 135.5q0 79 26 135.5t72.5 88.5t109.5 32q59 0 101.5 -30t62.5 -84h4v105h65v-494h-62v107h-4q-22 -56 -64 -85.5t-102 -29.5zM285 50q73 0 113 52.5t40 144.5t-39.5 144.5t-112.5 52.5q-74 0 -114 -52.5t-40 -144.5t39.5 -144.5
t113.5 -52.5zM279 555q-34 0 -60.5 15.5t-42 41.5t-15.5 58q0 33 15.5 59t42 41.5t60.5 15.5q21 0 38 -5.5t31 -15.5l56 60h74l-99 -93q9 -13 13.5 -28.5t4.5 -33.5q0 -32 -15.5 -58t-42 -41.5t-60.5 -15.5zM279 596q32 0 52.5 21.5t20.5 52.5q0 34 -20.5 54.5t-52.5 20.5
t-52.5 -20.5t-20.5 -53.5t20.5 -54t52.5 -21z" />
    <glyph glyph-name="atilde.ss01" horiz-adv-x="597" 
d="M273 -8q-64 0 -110.5 31t-72.5 88.5t-26 135.5q0 79 26 135.5t72.5 88.5t109.5 32q59 0 101.5 -30t62.5 -84h4v105h65v-494h-62v107h-4q-22 -56 -64 -85.5t-102 -29.5zM285 50q73 0 113 52.5t40 144.5t-39.5 144.5t-112.5 52.5q-74 0 -114 -52.5t-40 -144.5t39.5 -144.5
t113.5 -52.5zM161 598l-44 3q2 56 26.5 89.5t64.5 33.5q28 0 48.5 -14.5t35.5 -27.5q12 -9 26 -20t30 -11q23 0 34.5 19.5t14.5 56.5l44 -4q-2 -57 -26 -90t-64 -33q-29 0 -50 15t-35 27q-12 11 -26 21t-30 10q-22 0 -33.5 -19t-15.5 -56z" />
    <glyph glyph-name="l.ss02" horiz-adv-x="251" 
d="M92 0v705h67v-705h-67z" />
    <glyph glyph-name="lacute.ss02" horiz-adv-x="251" 
d="M92 0v705h67v-705h-67zM97 765l107 163h85l-134 -163h-58z" />
    <glyph glyph-name="lcaron.ss02" horiz-adv-x="251" 
d="M92 0v705h67v-705h-67zM204 515v190h61l-21 -190h-40z" />
    <glyph glyph-name="uni013C.ss02" horiz-adv-x="251" 
d="M92 0v705h67v-705h-67zM121 -280l-33 25q21 21 28.5 46t7.5 54l10 -10h-52v83h87v-64q0 -40 -11 -73.5t-37 -60.5z" />
    <glyph glyph-name="ldot.ss02" horiz-adv-x="303" 
d="M92 0v705h67v-705h-67zM233 318v79h89v-79h-89z" />
    <glyph glyph-name="uni1E37.ss02" horiz-adv-x="251" 
d="M92 0v705h67v-705h-67zM85 -182v80h82v-80h-82z" />
    <glyph glyph-name="uni01C9.ss02" horiz-adv-x="480" 
d="M92 0v705h67v-705h-67zM325 622v82h83v-82h-83zM204 -193l-5 59l45 6q42 5 65.5 26t23.5 78v518h67v-517q0 -39 -9 -67.5t-26.5 -49t-46 -32t-66.5 -16.5z" />
    <glyph glyph-name="uni1E3B.ss02" horiz-adv-x="251" 
d="M92 0v705h67v-705h-67zM-18 -156v55h288v-55h-288z" />
    <glyph glyph-name="lslash.ss02" horiz-adv-x="293" 
d="M113 0v705h67v-705h-67zM43 259l-30 49l237 148l29 -49z" />
    <glyph glyph-name="i_j.loclNLD" horiz-adv-x="480" 
d="M83 622v82h84v-82h-84zM92 0v494h67v-494h-67zM325 622v82h83v-82h-83zM204 -193l-5 59l45 6q42 5 65.5 26t23.5 78v518h67v-517q0 -39 -9 -67.5t-26.5 -49t-46 -32t-66.5 -16.5z" />
    <glyph glyph-name="fl.ss02" horiz-adv-x="622" 
d="M120 0v439h-94v55h110l-16 -16v38q0 90 48 137t141 53l46 2l6 -57l-54 -4q-31 -2 -58.5 -12.5t-44.5 -37t-17 -76.5v-37l-14 10h165v-55h-151v-439h-67zM463 0v705h67v-705h-67z" />
    <glyph glyph-name="ordfeminine" unicode="&#xaa;" horiz-adv-x="333" 
d="M144 387q-46 0 -76 27t-30 69q0 49 41.5 72t121.5 23h47v-39h-45q-41 0 -66.5 -5.5t-37 -17.5t-11.5 -32q0 -25 17.5 -40t46.5 -15q25 0 45 12.5t31.5 34.5t11.5 53v68q0 39 -17.5 55t-55.5 16q-26 0 -53 -7.5t-49 -22.5l-17 42q26 16 59 24.5t65 8.5q58 0 87 -28.5
t29 -88.5v-204h-47v69h1q-14 -38 -39.5 -56t-58.5 -18z" />
    <glyph glyph-name="ordmasculine" unicode="&#xba;" horiz-adv-x="345" 
d="M172 387q-39 0 -71.5 19.5t-50.5 56t-18 88.5q0 50 18 86.5t50.5 56t71.5 19.5q41 0 73 -19.5t50 -56t18 -86.5q0 -52 -18 -88.5t-50 -56t-73 -19.5zM173 434q39 0 64 29t25 88q0 58 -25 86.5t-64 28.5q-40 0 -64.5 -28.5t-24.5 -86.5q0 -59 24.5 -88t64.5 -29z" />
    <glyph glyph-name="uni0410" unicode="&#x410;" horiz-adv-x="702" 
d="M41 0l278 705h64l278 -705h-72l-77 202l35 -19h-392l34 19l-77 -202h-71zM349 624l-151 -395l-21 14h348l-22 -14l-151 395h-3z" />
    <glyph glyph-name="uni0411" unicode="&#x411;" horiz-adv-x="649" 
d="M106 0v705h423v-61h-355v-255h201q68 0 116 -22t73.5 -65.5t25.5 -106.5t-26 -106.5t-74 -66t-116 -22.5h-268zM174 59h194q78 0 115.5 33.5t37.5 101.5q0 69 -38 102t-114 33h-195v-270z" />
    <glyph glyph-name="uni0412" unicode="&#x412;" horiz-adv-x="670" 
d="M106 0v705h258q101 0 156 -46.5t55 -135.5q0 -68 -29.5 -108.5t-74.5 -51.5v-2q31 -5 58 -26t44 -57t17 -87q0 -61 -25.5 -104t-73.5 -65t-117 -22h-268zM174 60h197q31 0 55.5 5.5t42.5 16.5t29.5 26.5t17 36.5t5.5 45q0 29 -6 51t-18 38t-30 27t-41.5 16t-52.5 5h-199
v-267zM174 387h185q72 0 109.5 34t37.5 101q0 61 -35.5 92t-113.5 31h-183v-258z" />
    <glyph glyph-name="uni0413" unicode="&#x413;" horiz-adv-x="550" 
d="M106 0v705h410v-62h-342v-643h-68z" />
    <glyph glyph-name="uni0403" unicode="&#x403;" horiz-adv-x="550" 
d="M106 0v705h410v-62h-342v-643h-68zM249 765l107 163h85l-134 -163h-58z" />
    <glyph glyph-name="uni0490" unicode="&#x490;" horiz-adv-x="551" 
d="M106 0v705h348v152h63v-214h-343v-643h-68z" />
    <glyph glyph-name="uni04F6" unicode="&#x4f6;" horiz-adv-x="550" 
d="M201 -151v151h-91v57h155v-208h-64zM106 0v705h410v-62h-342v-643h-68z" />
    <glyph glyph-name="uni0492" unicode="&#x492;" horiz-adv-x="556" 
d="M114 0v323h-96v59h96v323h407v-62h-340v-261l192 -1v-59l-192 1v-323h-67z" />
    <glyph glyph-name="uni0494" unicode="&#x494;" horiz-adv-x="657" 
d="M410 -188q-31 0 -58 5t-48 15l14 57q20 -8 41 -12t44 -4q60 0 94.5 38.5t34.5 123.5l1 117q0 105 -48 160.5t-152 55.5q-30 0 -59.5 -5t-55 -14.5t-44.5 -23.5v-325h-68v705h366v-62h-298v-253q19 12 46 21t59 13.5t63 4.5q122 0 189.5 -67t67.5 -204v-121
q0 -74 -23 -124t-65.5 -75.5t-100.5 -25.5z" />
    <glyph glyph-name="uni0414" unicode="&#x414;" horiz-adv-x="738" 
d="M29 -154v216h63q35 48 55.5 115t29.5 153t9 191v184h429v-643h90v-216h-63v154h-549v-154h-64zM164 61h384v583h-298v-126q0 -109 -9 -193t-27.5 -148.5t-49.5 -115.5z" />
    <glyph glyph-name="uni0415" unicode="&#x415;" horiz-adv-x="598" 
d="M106 0v705h412v-61h-344v-256h322v-61h-322v-266h344v-61h-412z" />
    <glyph glyph-name="uni0400" unicode="&#x400;" horiz-adv-x="598" 
d="M106 0v705h412v-61h-344v-256h322v-61h-322v-266h344v-61h-412zM293 765l-134 163h82l107 -163h-55z" />
    <glyph glyph-name="uni0401" unicode="&#x401;" horiz-adv-x="598" 
d="M106 0v705h412v-61h-344v-256h322v-61h-322v-266h344v-61h-412zM366 809v77h80v-77h-80zM192 809v77h80v-77h-80z" />
    <glyph glyph-name="uni0416" unicode="&#x416;" horiz-adv-x="911" 
d="M22 0l107 242q20 43 43.5 74t53.5 48.5t66 20.5l-27 -22l-209 342h78l199 -333l-19 17h108v316h67v-316h109l-20 -17l200 333h77l-209 -342l-26 22q38 -3 68 -22t53 -49.5t41 -70.5l107 -243h-75l-89 208q-26 61 -59.5 90.5t-88.5 29.5h-88v-328h-67v328h-88
q-50 0 -85 -26.5t-64 -93.5l-88 -208h-75z" />
    <glyph glyph-name="uni0417" unicode="&#x417;" horiz-adv-x="624" 
d="M289 -8q-52 0 -99.5 9t-85.5 27t-63 43l26 55q42 -38 97.5 -55.5t121.5 -17.5q95 0 142 35.5t47 106.5q0 67 -39 99.5t-120 32.5h-163v60h153q76 0 115 35t39 99t-43.5 97.5t-129.5 33.5q-58 0 -111 -18.5t-94 -58.5l-26 56q27 28 64.5 46t82 27t89.5 9q77 0 129.5 -22
t79.5 -64.5t27 -100.5q0 -55 -24 -98.5t-72 -63.5v-3q53 -18 82 -61.5t29 -107.5q0 -62 -28 -107.5t-84.5 -69t-141.5 -23.5z" />
    <glyph glyph-name="uni0418" unicode="&#x418;" horiz-adv-x="748" 
d="M106 0v705h66v-604h-2l406 604h66v-705h-65v605h2l-408 -605h-65z" />
    <glyph glyph-name="uni0419" unicode="&#x419;" horiz-adv-x="748" 
d="M106 0v705h66v-604h-2l406 604h66v-705h-65v605h2l-408 -605h-65zM373 767q-44 0 -79 16t-58.5 47t-33.5 75l47 13q14 -52 46 -75t77 -23q50 0 80.5 23.5t47.5 74.5l46 -13q-18 -69 -63 -103.5t-110 -34.5z" />
    <glyph glyph-name="uni040D" unicode="&#x40d;" horiz-adv-x="748" 
d="M106 0v705h66v-604h-2l406 604h66v-705h-65v605h2l-408 -605h-65zM349 765l-134 163h82l107 -163h-55z" />
    <glyph glyph-name="uni048A" unicode="&#x48a;" horiz-adv-x="767" 
d="M607 -151l47 151h-77v596l-3 1l-403 -597h-65v705h66v-597l2 -1l402 598h66v-648h92l-64 -208h-63zM373 767q-44 0 -79 16t-58.5 47t-33.5 75l47 13q15 -52 47 -75t77 -23q49 0 79.5 23.5t48.5 74.5l45 -13q-18 -69 -63 -103.5t-110 -34.5z" />
    <glyph glyph-name="uni041A" unicode="&#x41a;" horiz-adv-x="629" 
d="M106 0v705h68v-316h142l-21 -18l200 334h78l-210 -343l-25 23q35 -3 64.5 -20.5t54 -48t42.5 -73.5l108 -243h-75l-90 208q-26 61 -59 90.5t-88 29.5h-121v-328h-68z" />
    <glyph glyph-name="uni040C" unicode="&#x40c;" horiz-adv-x="629" 
d="M106 0v705h68v-316h142l-21 -18l200 334h78l-210 -343l-25 23q35 -3 64.5 -20.5t54 -48t42.5 -73.5l108 -243h-75l-90 208q-26 61 -59 90.5t-88 29.5h-121v-328h-68zM291 765l107 163h85l-134 -163h-58z" />
    <glyph glyph-name="uni041B" unicode="&#x41b;" horiz-adv-x="710" 
d="M53 -14l-34 52q43 25 72.5 61t48 89.5t26.5 128.5t8 176v212h429v-705h-67v644h-298v-167q0 -103 -10 -183t-32 -139t-57.5 -100t-85.5 -69z" />
    <glyph glyph-name="uni041C" unicode="&#x41c;" horiz-adv-x="841" 
d="M108 0v705h86l227 -512h2l225 512h85v-705h-66v606h-3l-218 -494h-51l-218 494h-3v-606h-66z" />
    <glyph glyph-name="uni041D" unicode="&#x41d;" horiz-adv-x="737" 
d="M106 0v705h68v-316h389v316h67v-705h-67v328h-389v-328h-68z" />
    <glyph glyph-name="uni041E" unicode="&#x41e;" horiz-adv-x="742" 
d="M371 -8q-70 0 -124 23.5t-91.5 70t-57.5 113.5t-20 153t19.5 153t57.5 114t92 70.5t124 23.5t124 -24t92 -70t57.5 -113t19.5 -153t-20 -153.5t-57.5 -114t-91.5 -70t-124 -23.5zM371 54q72 0 121 33t75.5 99.5t26.5 166.5t-26 166t-75.5 99t-121.5 33q-71 0 -120.5 -33
t-76 -99t-26.5 -167q0 -99 26.5 -165.5t76 -99.5t120.5 -33z" />
    <glyph glyph-name="uni041F" unicode="&#x41f;" horiz-adv-x="735" 
d="M106 0v705h523v-705h-67v644h-388v-644h-68z" />
    <glyph glyph-name="uni0420" unicode="&#x420;" horiz-adv-x="640" 
d="M106 0v705h254q69 0 117.5 -25t74.5 -71t26 -112q0 -65 -26.5 -112t-74.5 -72.5t-117 -25.5h-186v-287h-68zM174 347h177q77 0 117.5 37t40.5 113q0 75 -40.5 111.5t-117.5 36.5h-177v-298z" />
    <glyph glyph-name="uni0421" unicode="&#x421;" horiz-adv-x="653" 
d="M371 -9q-92 0 -157.5 42.5t-100.5 123.5t-35 196t35 195.5t100.5 122.5t157.5 42q67 0 121.5 -21.5t95.5 -63.5l-27 -52q-43 39 -87.5 57t-100.5 18q-108 0 -166 -73.5t-58 -224.5t58.5 -225t165.5 -74q56 0 100.5 18t86.5 57l28 -52q-41 -42 -95.5 -64t-121.5 -22z" />
    <glyph glyph-name="uni0422" unicode="&#x422;" horiz-adv-x="591" 
d="M262 0v643h-233v62h533v-62h-233v-643h-67z" />
    <glyph glyph-name="uni0423" unicode="&#x423;" horiz-adv-x="586" 
d="M186 0l106 227l-2 -30l-287 508h75l238 -430v0l199 430h71l-328 -705h-72z" />
    <glyph glyph-name="uni040E" unicode="&#x40e;" horiz-adv-x="586" 
d="M186 0l106 227l-2 -30l-287 508h75l238 -430v0l199 430h71l-328 -705h-72zM292 767q-44 0 -79 16t-58.5 47t-33.5 75l47 13q14 -52 46 -75t77 -23q50 0 80.5 23.5t47.5 74.5l46 -13q-18 -69 -63 -103.5t-110 -34.5z" />
    <glyph glyph-name="uni0424" unicode="&#x424;" horiz-adv-x="853" 
d="M392 -23v120l19 -16h-24q-89 0 -159 30t-110 92t-40 156q0 95 40 155.5t109.5 90.5t159.5 30h24l-19 -18v116h68v-116l-18 18h23q91 0 160.5 -30t109 -90.5t39.5 -155.5q0 -94 -40.5 -156t-109.5 -92t-159 -30h-23l18 16v-120h-68zM393 120v475l17 -21h-33
q-63 0 -115.5 -21t-83.5 -68t-31 -126q0 -57 18.5 -98.5t50.5 -68t73.5 -39t87.5 -12.5h33zM460 120l-17 21h32q48 0 89 12.5t73 39t50 68t18 98.5q0 78 -30.5 125.5t-82.5 68.5t-117 21h-32l17 21v-475z" />
    <glyph glyph-name="uni0425" unicode="&#x425;" horiz-adv-x="617" 
d="M32 0l232 374l1 -22l-220 353h78l185 -303h1l186 303h78l-222 -353v22l234 -374h-78l-199 325h-1l-198 -325h-77z" />
    <glyph glyph-name="uni0427" unicode="&#x427;" horiz-adv-x="670" 
d="M496 0v306q-19 -12 -47.5 -21t-60.5 -13.5t-63 -4.5q-123 0 -188.5 67.5t-65.5 204.5v166h68v-160q0 -114 49.5 -165t145.5 -51q41 0 84 10t78 32v334h68v-705h-68z" />
    <glyph glyph-name="uni0426" unicode="&#x426;" horiz-adv-x="753" 
d="M656 -154v154h-550v705h68v-643h386v643h68v-646h92v-213h-64z" />
    <glyph glyph-name="uni0428" unicode="&#x428;" horiz-adv-x="1004" 
d="M106 0v705h68v-643h294v643h68v-643h295v643h67v-705h-792z" />
    <glyph glyph-name="uni0429" unicode="&#x429;" horiz-adv-x="1021" 
d="M925 -154v154h-819v705h68v-643h294v643h68v-643h295v643h67v-647h90v-212h-63z" />
    <glyph glyph-name="uni040F" unicode="&#x40f;" horiz-adv-x="734" 
d="M336 -154v154h-230v705h68v-643h386v643h67v-705h-228v-154h-63z" />
    <glyph glyph-name="uni042C" unicode="&#x42c;" horiz-adv-x="651" 
d="M106 0v705h68v-315h201q68 0 116 -22t73.5 -65.5t25.5 -106.5t-26 -107t-74 -66.5t-116 -22.5h-268zM174 60h194q78 0 115.5 33t37.5 102q0 70 -38 102.5t-114 32.5h-195v-270z" />
    <glyph glyph-name="uni042B" unicode="&#x42b;" horiz-adv-x="842" 
d="M106 0v705h68v-315h189q67 0 115 -22t73.5 -65.5t25.5 -106.5t-25.5 -107t-74 -66.5t-115.5 -22.5h-256zM174 60h182q78 0 115 33t37 102q0 70 -38 102.5t-113 32.5h-183v-270zM668 0v705h68v-705h-68z" />
    <glyph glyph-name="uni042A" unicode="&#x42a;" horiz-adv-x="778" 
d="M240 0v643h-211v62h279v-315h194q68 0 115.5 -22t73 -65t25.5 -106t-25.5 -107.5t-73.5 -67t-116 -22.5h-261zM308 60h187q76 0 114 33.5t38 101.5q0 70 -37.5 102.5t-113.5 32.5h-188v-270z" />
    <glyph glyph-name="uni0409" unicode="&#x409;" horiz-adv-x="1057" 
d="M53 -14l-34 52q43 25 72.5 61t48 89.5t26.5 128.5t8 176v212h413v-315h194q68 0 115.5 -22t73 -65.5t25.5 -106.5t-25.5 -107t-73.5 -66.5t-116 -22.5h-260v644h-281v-167q0 -103 -10.5 -183t-32 -139t-57.5 -100t-86 -69zM587 60h187q78 0 115.5 33t37.5 102
q0 70 -38 102.5t-114 32.5h-188v-270z" />
    <glyph glyph-name="uni040A" unicode="&#x40a;" horiz-adv-x="1086" 
d="M106 0v705h68v-314h375v314h67v-313h194q68 0 115.5 -22.5t73 -66t25.5 -106.5t-25.5 -107t-73.5 -67t-116 -23h-260v329h-375v-329h-68zM616 60h187q78 0 115 33.5t37 102.5q0 70 -37.5 103t-113.5 33h-188v-272z" />
    <glyph glyph-name="uni0405" unicode="&#x405;" horiz-adv-x="606" 
d="M315 -8q-52 0 -99 8t-86.5 26t-68.5 45l27 56q32 -28 68 -44t76.5 -22.5t83.5 -6.5q75 0 119 34.5t44 99.5q0 35 -14.5 57.5t-44 37.5t-75.5 26l-107 25q-88 21 -125 67.5t-37 115.5q0 60 31.5 104t87 68t127.5 24q45 0 84 -9t71 -27.5t58 -45.5l-27 -57q-38 42 -84 59.5
t-101 17.5q-50 0 -91 -15.5t-64.5 -44.5t-23.5 -74q0 -47 26.5 -76.5t88.5 -44.5l107 -25q93 -21 136.5 -66t43.5 -114q0 -58 -28.5 -103.5t-80.5 -70.5t-122 -25z" />
    <glyph glyph-name="uni0404" unicode="&#x404;" horiz-adv-x="655" 
d="M372 -8q-92 0 -158 42t-101 123t-35 196t35 195.5t101 122.5t158 42q67 0 121 -21t97 -64l-27 -51q-43 39 -88 56.5t-102 17.5q-107 0 -165 -70.5t-60 -216.5l-21 24h365v-61h-366l22 23q0 -150 59 -223t166 -73q57 0 102 17.5t88 56.5l27 -51q-43 -43 -97 -64t-121 -21z
" />
    <glyph glyph-name="uni042D" unicode="&#x42d;" horiz-adv-x="655" 
d="M283 -8q-66 0 -120.5 21t-96.5 64l27 51q43 -39 88 -56.5t101 -17.5q108 0 166.5 73t58.5 222l22 -22h-365v61h364l-21 -25q-1 146 -58 217t-168 71q-56 0 -102 -19.5t-86 -54.5l-27 51q40 40 95 62.5t121 22.5q94 0 160 -41.5t100.5 -122t34.5 -197.5q0 -115 -35 -195.5
t-100.5 -122.5t-158.5 -42z" />
    <glyph glyph-name="uni0406" unicode="&#x406;" horiz-adv-x="280" 
d="M106 0v705h68v-705h-68z" />
    <glyph glyph-name="uni0407" unicode="&#x407;" horiz-adv-x="280" 
d="M106 0v705h68v-705h-68zM187 809v77h80v-77h-80zM13 809v77h80v-77h-80z" />
    <glyph glyph-name="uni0408" unicode="&#x408;" horiz-adv-x="372" 
d="M15 -7l-5 62l74 4q33 2 59 17.5t41 43t15 65.5v520h67v-525q0 -52 -22.5 -92t-61.5 -63.5t-90 -27.5z" />
    <glyph glyph-name="uni040B" unicode="&#x40b;" horiz-adv-x="818" 
d="M262 0v643h-233v62h533v-62h-233v-253q20 12 49 21t61 13.5t62 4.5q82 0 139.5 -29.5t88.5 -90t31 -150.5v-159h-68v153q0 113 -52 163.5t-148 50.5q-42 0 -86 -10.5t-77 -31.5v-325h-67z" />
    <glyph glyph-name="uni042E" unicode="&#x42e;" horiz-adv-x="967" 
d="M604 -8q-84 0 -146 39.5t-97 115t-40 181.5h-146v-328h-69v705h69v-317h146q7 103 42 176t96.5 111t144.5 38q89 0 152.5 -42.5t97.5 -123t34 -194.5q0 -85 -19 -152t-56 -114t-89.5 -71t-119.5 -24zM605 53q69 0 116.5 35t71.5 102t24 163q0 145 -54.5 222t-157.5 77
q-69 0 -116.5 -34.5t-72.5 -101t-25 -164.5q0 -145 55.5 -222t158.5 -77z" />
    <glyph glyph-name="uni042F" unicode="&#x42f;" horiz-adv-x="669" 
d="M67 0l113 239q16 33 29.5 49.5t29.5 21.5l3 2v2q-45 6 -78.5 31t-52 66t-18.5 97q0 96 56.5 146.5t157.5 50.5h256v-705h-68v300h-127q-33 0 -55 -6.5t-37 -23.5t-29 -47l-106 -223h-74zM308 359h187v286h-181q-78 0 -115 -33t-37 -105q0 -74 35 -111t111 -37z" />
    <glyph glyph-name="uni0402" unicode="&#x402;" horiz-adv-x="813" 
d="M565 -188q-31 0 -58 5t-48 15l15 57q20 -8 40 -12t43 -4q60 0 94.5 38.5t34.5 123.5l1 117q0 105 -47.5 160t-151.5 55q-30 0 -59.5 -4.5t-54.5 -14t-45 -23.5v-325h-67v643h-233v62h532v-62h-232v-253q19 12 46 21t59 13.5t64 4.5q121 0 188.5 -67t67.5 -204v-121
q0 -74 -23 -124t-65 -75.5t-101 -25.5z" />
    <glyph glyph-name="uni0462" unicode="&#x462;" horiz-adv-x="714" 
d="M168 0v536h-149v60h149v109h68v-109h234v-60h-234v-150h202q68 0 115.5 -22t73 -64.5t25.5 -105.5t-25.5 -106.5t-73.5 -65.5t-116 -22h-269zM236 59h195q78 0 115 33t37 100q0 69 -37.5 101.5t-113.5 32.5h-196v-267z" />
    <glyph glyph-name="uni046A" unicode="&#x46a;" horiz-adv-x="911" 
d="M22 0l106 242q23 49 51 81.5t67.5 48t90.5 15.5h71l-9 -28l-284 346h679l-283 -346l-10 28h73q52 0 91 -15.5t68 -48t50 -81.5l106 -242h-75l-88 208q-27 67 -62.5 93.5t-86.5 26.5h-88v-328h-67v328h-88q-51 0 -86 -26.5t-63 -93.5l-88 -208h-75zM454 384h2l244 299
l10 -37h-510l10 37z" />
    <glyph glyph-name="uni0472" unicode="&#x472;" horiz-adv-x="742" 
d="M127 334v56h507v-56h-507zM371 -8q-70 0 -124 23.5t-91.5 70t-57.5 113.5t-20 153t19.5 153.5t57.5 114t92 70t124 23.5t124 -24t92 -70t57.5 -113t19.5 -153t-20 -153.5t-57.5 -114t-91.5 -70t-124 -23.5zM371 54q72 0 121 33t75.5 99.5t26.5 166.5t-26 166t-75.5 99
t-121.5 33q-71 0 -120.5 -33t-76 -99t-26.5 -167q0 -99 26.5 -165.5t76 -99.5t120.5 -33z" />
    <glyph glyph-name="uni0474" unicode="&#x474;" horiz-adv-x="696" 
d="M283 0l-274 705h73l231 -620v0l164 446q17 48 36 82t44 56.5t58.5 33t79.5 10.5l6 -60q-42 0 -70.5 -10.5t-49 -40t-41.5 -84.5l-197 -518h-60z" />
    </font>
</defs>
</svg>
