<?xml version="1.0" standalone="no"?>
<!DOCTYPE svg PUBLIC "-//W3C//DTD SVG 1.1//EN" "http://www.w3.org/Graphics/SVG/1.1/DTD/svg11.dtd" >
<svg xmlns="http://www.w3.org/2000/svg" xmlns:xlink="http://www.w3.org/1999/xlink" version="1.1">
<metadata>
Created by FontForge 20230101 at Fri Mar 31 11:56:46 2023
 By Webmaster
Copyright 2016 The Nunito Sans Project Authors (https://github.com/Fonthausen/NunitoSans)
</metadata>
<defs>
<font id="NunitoSans7ptExpanded-Light" horiz-adv-x="0" >
  <font-face 
    font-family="Nunito Sans 7pt Expanded Light"
    font-weight="300"
    font-stretch="expanded"
    units-per-em="1000"
    panose-1="0 0 0 0 0 0 0 0 0 0"
    ascent="800"
    descent="-200"
    x-height="494"
    cap-height="705"
    bbox="-312 -300 1628 1052"
    underline-thickness="32"
    underline-position="-97"
    unicode-range="U+000D-FB02"
  />
<missing-glyph horiz-adv-x="500" 
d="M50 -180v885h400v-885h-400zM100 -130h300v785h-300v-785z" />
    <glyph glyph-name="fi" unicode="fi" horiz-adv-x="746" 
d="M150 0v432h-129v62h147l-18 -24v35q0 92 62.5 142.5t180.5 57.5l52 3l8 -64l-66 -4q-43 -2 -79.5 -13t-59 -38t-22.5 -79v-33l-27 17h431v-494h-76v432h-328v-432h-76zM540 620v87h99v-87h-99z" />
    <glyph glyph-name="fl" unicode="fl" horiz-adv-x="836" 
d="M150 0v432h-129v62h145l-16 -15v24q0 94 63 144.5t180 57.5l59 3l7 -64l-72 -4q-42 -1 -79 -12.5t-59.5 -38.5t-22.5 -79v-26l-16 10h218v-62h-202v-432h-76zM745 -8q-78 0 -124 41t-46 114v558h76v-548q0 -30 13 -52.5t36.5 -35t56.5 -12.5q15 0 33 1.5t36 5.5l-1 -62
q-18 -5 -37.5 -7.5t-42.5 -2.5z" />
    <glyph glyph-name=".notdef" horiz-adv-x="500" 
d="M50 -180v885h400v-885h-400zM100 -130h300v785h-300v-785z" />
    <glyph glyph-name="A" unicode="A" horiz-adv-x="932" 
d="M48 0l381 705h74l381 -705h-84l-109 202l46 -23h-543l46 23l-110 -202h-82zM463 624l-210 -395l-33 17h491l-35 -17l-209 395h-4z" />
    <glyph glyph-name="Aacute" unicode="&#xc1;" horiz-adv-x="932" 
d="M48 0l381 705h74l381 -705h-84l-109 202l46 -23h-543l46 23l-110 -202h-82zM463 624l-210 -395l-33 17h491l-35 -17l-209 395h-4zM432 765l147 179h99l-178 -179h-68z" />
    <glyph glyph-name="Abreve" unicode="&#x102;" horiz-adv-x="932" 
d="M48 0l381 705h74l381 -705h-84l-109 202l46 -23h-543l46 23l-110 -202h-82zM463 624l-210 -395l-33 17h491l-35 -17l-209 395h-4zM465 760q-93 0 -145.5 45.5t-59.5 132.5l59 7q4 -61 40 -94t106 -33q73 0 107.5 34t39.5 93l59 -7q-7 -87 -60.5 -132.5t-145.5 -45.5z" />
    <glyph glyph-name="uni1EAE" unicode="&#x1eae;" horiz-adv-x="932" 
d="M48 0l381 705h74l381 -705h-84l-109 202l46 -23h-543l46 23l-110 -202h-82zM463 624l-210 -395l-33 17h491l-35 -17l-209 395h-4zM466 766q-89 0 -137.5 41t-54.5 118l55 6q6 -57 40 -83.5t97 -26.5q64 0 98.5 26.5t39.5 83.5l55 -6q-6 -77 -55 -118t-138 -41zM427 884
l115 144h92l-148 -144h-59z" />
    <glyph glyph-name="uni1EB6" unicode="&#x1eb6;" horiz-adv-x="932" 
d="M48 0l381 705h74l381 -705h-84l-109 202l46 -23h-543l46 23l-110 -202h-82zM463 624l-210 -395l-33 17h491l-35 -17l-209 395h-4zM419 -189v90h94v-90h-94zM465 760q-93 0 -145.5 45.5t-59.5 132.5l59 7q4 -61 40 -94t106 -33q73 0 107.5 34t39.5 93l59 -7
q-7 -87 -60.5 -132.5t-145.5 -45.5z" />
    <glyph glyph-name="uni1EB0" unicode="&#x1eb0;" horiz-adv-x="932" 
d="M48 0l381 705h74l381 -705h-84l-109 202l46 -23h-543l46 23l-110 -202h-82zM463 624l-210 -395l-33 17h491l-35 -17l-209 395h-4zM466 766q-89 0 -137.5 41t-54.5 118l55 6q6 -57 40 -83.5t97 -26.5q64 0 98.5 26.5t39.5 83.5l55 -6q-6 -77 -55 -118t-138 -41zM448 884
l-142 144h90l111 -144h-59z" />
    <glyph glyph-name="uni1EB2" unicode="&#x1eb2;" horiz-adv-x="932" 
d="M48 0l381 705h74l381 -705h-84l-109 202l46 -23h-543l46 23l-110 -202h-82zM463 624l-210 -395l-33 17h491l-35 -17l-209 395h-4zM466 766q-89 0 -137.5 41t-54.5 118l55 6q6 -57 40 -83.5t97 -26.5q64 0 98.5 26.5t39.5 83.5l55 -6q-6 -77 -55 -118t-138 -41zM438 883
q0 23 11.5 35t27.5 20t28 15t12 17q0 12 -15 18t-40 6q-20 0 -40 -4t-42 -12l-15 38q19 10 46.5 15t66.5 5q54 0 79.5 -13.5t25.5 -39.5q0 -22 -13.5 -34t-30.5 -20t-30.5 -17.5t-12.5 -28.5h-58z" />
    <glyph glyph-name="uni1EB4" unicode="&#x1eb4;" horiz-adv-x="932" 
d="M48 0l381 705h74l381 -705h-84l-109 202l46 -23h-543l46 23l-110 -202h-82zM463 624l-210 -395l-33 17h491l-35 -17l-209 395h-4zM466 766q-74 0 -123.5 30t-68.5 85l53 11q18 -35 53 -54t86 -19q52 0 87 19t52 54l53 -11q-18 -55 -67 -85t-125 -30zM325 932l-53 3
q5 33 19 55t37.5 34t55.5 12q33 0 55.5 -10.5t38.5 -17.5q10 -4 28 -14t43 -10t39 13.5t20 40.5l53 -3q-7 -50 -36 -76t-77 -26q-32 0 -53.5 11t-33.5 15q-19 12 -36.5 19t-40.5 7q-24 0 -38 -12.5t-21 -40.5z" />
    <glyph glyph-name="uni01CD" unicode="&#x1cd;" horiz-adv-x="932" 
d="M48 0l381 705h74l381 -705h-84l-109 202l46 -23h-543l46 23l-110 -202h-82zM463 624l-210 -395l-33 17h491l-35 -17l-209 395h-4zM426 765l-153 179h62l131 -127l132 127h61l-153 -179h-80z" />
    <glyph glyph-name="Acircumflex" unicode="&#xc2;" horiz-adv-x="932" 
d="M48 0l381 705h74l381 -705h-84l-109 202l46 -23h-543l46 23l-110 -202h-82zM463 624l-210 -395l-33 17h491l-35 -17l-209 395h-4zM273 765l153 179h80l153 -179h-62l-131 127l-132 -127h-61z" />
    <glyph glyph-name="uni1EA4" unicode="&#x1ea4;" horiz-adv-x="932" 
d="M48 0l381 705h74l381 -705h-84l-109 202l46 -23h-543l46 23l-110 -202h-82zM463 624l-210 -395l-33 17h491l-35 -17l-209 395h-4zM280 769l142 173h80l141 -173h-62l-119 120l-120 -120h-62zM575 878l103 149h88l-133 -149h-58z" />
    <glyph glyph-name="uni1EAC" unicode="&#x1eac;" horiz-adv-x="932" 
d="M48 0l381 705h74l381 -705h-84l-109 202l46 -23h-543l46 23l-110 -202h-82zM463 624l-210 -395l-33 17h491l-35 -17l-209 395h-4zM419 -189v90h94v-90h-94zM273 765l153 179h80l153 -179h-62l-131 127l-132 -127h-61z" />
    <glyph glyph-name="uni1EA6" unicode="&#x1ea6;" horiz-adv-x="932" 
d="M48 0l381 705h74l381 -705h-84l-109 202l46 -23h-543l46 23l-110 -202h-82zM463 624l-210 -395l-33 17h491l-35 -17l-209 395h-4zM280 769l142 173h80l141 -173h-62l-119 120l-120 -120h-62zM627 878l-131 149h85l102 -149h-56z" />
    <glyph glyph-name="uni1EA8" unicode="&#x1ea8;" horiz-adv-x="932" 
d="M48 0l381 705h74l381 -705h-84l-109 202l46 -23h-543l46 23l-110 -202h-82zM463 624l-210 -395l-33 17h491l-35 -17l-209 395h-4zM280 769l142 166h80l141 -166h-62l-119 117l-120 -117h-62zM586 879q0 23 11.5 35.5t27.5 21t28 15.5t12 17q0 12 -15 17.5t-39 5.5
q-20 0 -39.5 -4t-41.5 -12l-15 38q19 10 46 15t66 5q53 0 77.5 -13.5t24.5 -38.5q0 -22 -13 -34.5t-30 -21t-29.5 -18t-12.5 -28.5h-58z" />
    <glyph glyph-name="uni1EAA" unicode="&#x1eaa;" horiz-adv-x="932" 
d="M48 0l381 705h74l381 -705h-84l-109 202l46 -23h-543l46 23l-110 -202h-82zM463 624l-210 -395l-33 17h491l-35 -17l-209 395h-4zM285 769l142 132h79l142 -132h-63l-118 83l-120 -83h-62zM325 930l-53 4q8 50 35.5 76t76.5 26q33 0 55.5 -10.5t38.5 -17.5q10 -4 28 -14
t43 -10q23 0 37.5 12t21.5 42l53 -5q-7 -47 -35 -74t-78 -27q-32 0 -53.5 11t-33.5 14q-19 12 -36.5 19.5t-40.5 7.5q-21 0 -36.5 -11.5t-22.5 -42.5z" />
    <glyph glyph-name="uni0200" unicode="&#x200;" horiz-adv-x="932" 
d="M48 0l381 705h74l381 -705h-84l-109 202l46 -23h-543l46 23l-110 -202h-82zM463 624l-210 -395l-33 17h491l-35 -17l-209 395h-4zM515 765l-145 179h90l106 -179h-51zM364 765l-148 179h89l110 -179h-51z" />
    <glyph glyph-name="Adieresis" unicode="&#xc4;" horiz-adv-x="932" 
d="M48 0l381 705h74l381 -705h-84l-109 202l46 -23h-543l46 23l-110 -202h-82zM463 624l-210 -395l-33 17h491l-35 -17l-209 395h-4zM536 808v87h93v-87h-93zM303 808v87h93v-87h-93z" />
    <glyph glyph-name="uni0226" unicode="&#x226;" horiz-adv-x="932" 
d="M48 0l381 705h74l381 -705h-84l-109 202l46 -23h-543l46 23l-110 -202h-82zM463 624l-210 -395l-33 17h491l-35 -17l-209 395h-4zM415 805v95h101v-95h-101z" />
    <glyph glyph-name="uni1EA0" unicode="&#x1ea0;" horiz-adv-x="932" 
d="M48 0l381 705h74l381 -705h-84l-109 202l46 -23h-543l46 23l-110 -202h-82zM463 624l-210 -395l-33 17h491l-35 -17l-209 395h-4zM419 -189v90h94v-90h-94z" />
    <glyph glyph-name="Agrave" unicode="&#xc0;" horiz-adv-x="932" 
d="M48 0l381 705h74l381 -705h-84l-109 202l46 -23h-543l46 23l-110 -202h-82zM463 624l-210 -395l-33 17h491l-35 -17l-209 395h-4zM435 765l-178 179h96l147 -179h-65z" />
    <glyph glyph-name="uni1EA2" unicode="&#x1ea2;" horiz-adv-x="932" 
d="M48 0l381 705h74l381 -705h-84l-109 202l46 -23h-543l46 23l-110 -202h-82zM463 624l-210 -395l-33 17h491l-35 -17l-209 395h-4zM437 765v21q0 18 12.5 29.5t28.5 20t28 17.5t12 19q0 12 -13 17t-40 5q-24 0 -45.5 -3t-43.5 -10l-16 42q20 10 48 15t62 5
q57 0 87.5 -15.5t30.5 -44.5q0 -22 -14 -34.5t-32.5 -22.5t-32.5 -20.5t-14 -27.5v-13h-58z" />
    <glyph glyph-name="uni0202" unicode="&#x202;" horiz-adv-x="932" 
d="M48 0l381 705h74l381 -705h-84l-109 202l46 -23h-543l46 23l-110 -202h-82zM463 624l-210 -395l-33 17h491l-35 -17l-209 395h-4zM320 760l-60 7q7 87 59.5 132.5t145.5 45.5q94 0 147 -46.5t59 -131.5l-59 -7q-5 60 -39.5 93t-107.5 33q-69 0 -105 -32t-40 -94z" />
    <glyph glyph-name="Amacron" unicode="&#x100;" horiz-adv-x="932" 
d="M48 0l381 705h74l381 -705h-84l-109 202l46 -23h-543l46 23l-110 -202h-82zM463 624l-210 -395l-33 17h491l-35 -17l-209 395h-4zM266 814v61h400v-61h-400z" />
    <glyph glyph-name="Aogonek" unicode="&#x104;" horiz-adv-x="932" 
d="M48 0l381 705h74l381 -705h-84l-109 202l46 -23h-543l46 23l-110 -202h-82zM463 624l-210 -395l-33 17h491l-35 -17l-209 395h-4zM852 -194q-61 0 -95.5 25.5t-34.5 69.5q0 41 32 73.5t94 53.5l26 -28q-28 -10 -48 -24.5t-30.5 -31t-10.5 -34.5q0 -24 19 -37.5t53 -13.5
q16 0 33 3.5t34 10.5l19 -49q-17 -8 -40.5 -13t-50.5 -5z" />
    <glyph glyph-name="Aring" unicode="&#xc5;" horiz-adv-x="932" 
d="M48 0l381 705h74l381 -705h-84l-109 202l46 -23h-543l46 23l-110 -202h-82zM463 624l-210 -395l-33 17h491l-35 -17l-209 395h-4zM465 758q-39 0 -68.5 16t-46.5 43t-17 62t17 62.5t47 43.5t68 16q39 0 68.5 -16t46.5 -43.5t17 -62.5t-17 -62t-47 -43t-68 -16zM465 801
q35 0 58 22t23 58q0 35 -23 56.5t-58 21.5t-58 -21.5t-23 -56.5q0 -36 23 -58t58 -22z" />
    <glyph glyph-name="Aringacute" unicode="&#x1fa;" horiz-adv-x="932" 
d="M48 0l381 705h74l381 -705h-84l-109 202l46 -23h-543l46 23l-110 -202h-82zM463 624l-210 -395l-33 17h491l-35 -17l-209 395h-4zM465 760q-39 0 -69.5 16t-48 44t-17.5 64t17.5 64t48 44.5t69.5 16.5q22 0 42 -5.5t36 -16.5l77 65h82l-123 -100q10 -14 15.5 -30.5
t5.5 -37.5q0 -36 -17 -64t-47.5 -44t-70.5 -16zM465 804q36 0 59 22.5t23 57.5q0 37 -23 59t-59 22q-35 0 -58.5 -22t-23.5 -59q0 -35 23.5 -57.5t58.5 -22.5z" />
    <glyph glyph-name="Atilde" unicode="&#xc3;" horiz-adv-x="932" 
d="M48 0l381 705h74l381 -705h-84l-109 202l46 -23h-543l46 23l-110 -202h-82zM463 624l-210 -395l-33 17h491l-35 -17l-209 395h-4zM271 783l-59 3q6 63 44.5 102t94.5 39q40 0 74.5 -18t55.5 -29q17 -8 44.5 -22t53.5 -14q32 0 54 22.5t29 62.5l59 -2q-6 -64 -44 -102.5
t-95 -38.5q-41 0 -75 18t-54 27q-19 10 -46.5 24t-53.5 14q-32 0 -53 -23t-29 -63z" />
    <glyph glyph-name="AE" unicode="&#xc6;" horiz-adv-x="1268" 
d="M1 0l518 705h659v-68h-580l25 37l82 -306l-45 24h493v-68h-480l38 22l85 -313l-42 35h424v-68h-453l-56 206l31 -28h-495l39 26l-150 -204h-93zM550 632l-291 -405l-28 19h445l-13 -19l-108 405h-5z" />
    <glyph glyph-name="AEacute" unicode="&#x1fc;" horiz-adv-x="1268" 
d="M1 0l518 705h659v-68h-580l25 37l82 -306l-45 24h493v-68h-480l38 22l85 -313l-42 35h424v-68h-453l-56 206l31 -28h-495l39 26l-150 -204h-93zM550 632l-291 -405l-28 19h445l-13 -19l-108 405h-5zM589 765l147 179h99l-178 -179h-68z" />
    <glyph glyph-name="B" unicode="B" horiz-adv-x="887" 
d="M135 0v705h361q133 0 201.5 -46t68.5 -135q0 -71 -41.5 -110.5t-114.5 -50.5v-1q50 -5 90 -25t63.5 -56.5t23.5 -90.5q0 -61 -31.5 -103t-92.5 -64.5t-153 -22.5h-375zM212 67h296q19 0 44.5 1.5t53 7.5t50.5 20t37.5 37.5t14.5 59.5q0 39 -14.5 64t-38 39t-50.5 19.5
t-52 7t-42 1.5h-299v-257zM212 391h280q102 0 148.5 30.5t46.5 97.5q0 61 -46 90t-150 29h-279v-247z" />
    <glyph glyph-name="uni0181" unicode="&#x181;" horiz-adv-x="1030" 
d="M278 0v642h-48q-80 0 -111 -21.5t-31 -76.5v-49h-69v50q0 83 52 121.5t160 38.5h410q131 0 200 -45t69 -136q0 -70 -41.5 -110t-115.5 -51v-1q52 -5 91.5 -26t62.5 -57t23 -89q0 -61 -31.5 -103.5t-93.5 -64.5t-152 -22h-375zM355 66h297q100 0 149.5 34.5t49.5 92.5
q0 64 -50.5 97.5t-146.5 33.5h-299v-258zM355 390h281q101 0 148 31t47 98q0 62 -46.5 91t-150.5 29h-279v-249z" />
    <glyph glyph-name="C" unicode="C" horiz-adv-x="870" 
d="M491 -9q-121 0 -209.5 43t-137 124.5t-48.5 193.5q0 113 48 194t137.5 124t211.5 43q92 0 168 -25t131 -74l-36 -59q-58 46 -120.5 67t-142.5 21q-147 0 -231.5 -74.5t-84.5 -217.5q0 -142 84 -215.5t232 -73.5q80 0 142.5 21t120.5 67l36 -59q-55 -49 -131 -74.5
t-170 -25.5z" />
    <glyph glyph-name="Cacute" unicode="&#x106;" horiz-adv-x="870" 
d="M491 -9q-121 0 -209.5 43t-137 124.5t-48.5 193.5q0 113 48 194t137.5 124t211.5 43q92 0 168 -25t131 -74l-36 -59q-58 46 -120.5 67t-142.5 21q-147 0 -231.5 -74.5t-84.5 -217.5q0 -142 84 -215.5t232 -73.5q80 0 142.5 21t120.5 67l36 -59q-55 -49 -131 -74.5
t-170 -25.5zM457 765l147 179h99l-178 -179h-68z" />
    <glyph glyph-name="Ccaron" unicode="&#x10c;" horiz-adv-x="870" 
d="M491 -9q-121 0 -209.5 43t-137 124.5t-48.5 193.5q0 113 48 194t137.5 124t211.5 43q92 0 168 -25t131 -74l-36 -59q-58 46 -120.5 67t-142.5 21q-147 0 -231.5 -74.5t-84.5 -217.5q0 -142 84 -215.5t232 -73.5q80 0 142.5 21t120.5 67l36 -59q-55 -49 -131 -74.5
t-170 -25.5zM451 765l-153 179h62l131 -127l132 127h61l-153 -179h-80z" />
    <glyph glyph-name="Ccedilla" unicode="&#xc7;" horiz-adv-x="870" 
d="M491 -9q-121 0 -209.5 43t-137 124.5t-48.5 193.5q0 113 48 194t137.5 124t211.5 43q92 0 168 -25t131 -74l-36 -59q-58 46 -120.5 67t-142.5 21q-147 0 -231.5 -74.5t-84.5 -217.5q0 -142 84 -215.5t232 -73.5q80 0 142.5 21t120.5 67l36 -59q-55 -49 -131 -74.5
t-170 -25.5zM501 -193q-29 0 -58 5t-47 15l15 44q25 -9 45 -13.5t46 -4.5q42 0 61.5 9t19.5 28q0 15 -13 22t-38 7q-14 0 -31.5 -2t-33.5 -7l-18 16l15 94h53l-12 -77l-25 7q20 5 36 7t29 2q31 0 53.5 -8t34.5 -23.5t12 -38.5q0 -27 -17 -45t-49.5 -27.5t-77.5 -9.5z" />
    <glyph glyph-name="uni1E08" unicode="&#x1e08;" horiz-adv-x="870" 
d="M491 -9q-121 0 -209.5 43t-137 124.5t-48.5 193.5q0 113 48 194t137.5 124t211.5 43q92 0 168 -25t131 -74l-36 -59q-58 46 -120.5 67t-142.5 21q-147 0 -231.5 -74.5t-84.5 -217.5q0 -142 84 -215.5t232 -73.5q80 0 142.5 21t120.5 67l36 -59q-55 -49 -131 -74.5
t-170 -25.5zM501 -193q-29 0 -58 5t-47 15l15 44q25 -9 45 -13.5t46 -4.5q42 0 61.5 9t19.5 28q0 15 -13 22t-38 7q-14 0 -31.5 -2t-33.5 -7l-18 16l15 94h53l-12 -77l-25 7q20 5 36 7t29 2q31 0 53.5 -8t34.5 -23.5t12 -38.5q0 -27 -17 -45t-49.5 -27.5t-77.5 -9.5z
M457 765l147 179h99l-178 -179h-68z" />
    <glyph glyph-name="Ccircumflex" unicode="&#x108;" horiz-adv-x="870" 
d="M491 -9q-121 0 -209.5 43t-137 124.5t-48.5 193.5q0 113 48 194t137.5 124t211.5 43q92 0 168 -25t131 -74l-36 -59q-58 46 -120.5 67t-142.5 21q-147 0 -231.5 -74.5t-84.5 -217.5q0 -142 84 -215.5t232 -73.5q80 0 142.5 21t120.5 67l36 -59q-55 -49 -131 -74.5
t-170 -25.5zM298 765l153 179h80l153 -179h-62l-131 127l-132 -127h-61z" />
    <glyph glyph-name="Cdotaccent" unicode="&#x10a;" horiz-adv-x="870" 
d="M491 -9q-121 0 -209.5 43t-137 124.5t-48.5 193.5q0 113 48 194t137.5 124t211.5 43q92 0 168 -25t131 -74l-36 -59q-58 46 -120.5 67t-142.5 21q-147 0 -231.5 -74.5t-84.5 -217.5q0 -142 84 -215.5t232 -73.5q80 0 142.5 21t120.5 67l36 -59q-55 -49 -131 -74.5
t-170 -25.5zM440 805v95h101v-95h-101z" />
    <glyph glyph-name="D" unicode="D" horiz-adv-x="954" 
d="M135 0v705h303q139 0 232.5 -40.5t140.5 -118.5t47 -193t-48 -194t-141 -119t-231 -40h-303zM212 68h223q173 0 257.5 67t84.5 218q0 150 -84 217t-258 67h-223v-569z" />
    <glyph glyph-name="uni01C4" unicode="&#x1c4;" horiz-adv-x="1672" 
d="M135 0v705h303q139 0 232.5 -40.5t140.5 -118.5t47 -193t-48 -194t-141 -119t-231 -40h-303zM212 68h223q173 0 257.5 67t84.5 218q0 150 -84 217t-258 67h-223v-569zM995 0v50l543 624l10 -37h-553v68h620v-50l-542 -624l-10 37h565v-68h-633zM1269 765l-153 179h62
l131 -127l132 127h61l-153 -179h-80z" />
    <glyph glyph-name="Eth" unicode="&#xd0;" horiz-adv-x="954" 
d="M135 0v705h303q139 0 232.5 -40.5t140.5 -118.5t47 -193t-48 -194t-141 -119t-231 -40h-303zM212 68h223q173 0 257.5 67t84.5 218q0 150 -84 217t-258 67h-223v-569zM21 327v64h448v-64h-448z" />
    <glyph glyph-name="Dcaron" unicode="&#x10e;" horiz-adv-x="954" 
d="M135 0v705h303q139 0 232.5 -40.5t140.5 -118.5t47 -193t-48 -194t-141 -119t-231 -40h-303zM212 68h223q173 0 257.5 67t84.5 218q0 150 -84 217t-258 67h-223v-569zM440 765l-153 179h62l131 -127l132 127h61l-153 -179h-80z" />
    <glyph glyph-name="Dcroat" unicode="&#x110;" horiz-adv-x="954" 
d="M135 0v705h303q139 0 232.5 -40.5t140.5 -118.5t47 -193t-48 -194t-141 -119t-231 -40h-303zM212 68h223q173 0 257.5 67t84.5 218q0 150 -84 217t-258 67h-223v-569zM21 327v64h448v-64h-448z" />
    <glyph glyph-name="uni1E0C" unicode="&#x1e0c;" horiz-adv-x="954" 
d="M135 0v705h303q139 0 232.5 -40.5t140.5 -118.5t47 -193t-48 -194t-141 -119t-231 -40h-303zM212 68h223q173 0 257.5 67t84.5 218q0 150 -84 217t-258 67h-223v-569zM433 -189v90h94v-90h-94z" />
    <glyph glyph-name="uni018A" unicode="&#x18a;" horiz-adv-x="1097" 
d="M278 0v642h-48q-80 0 -111 -21.5t-31 -76.5v-49h-69v50q0 83 52.5 121.5t166.5 38.5h344q139 0 232 -40.5t140 -118.5t47 -193t-48 -194t-141 -119t-230 -40h-304zM355 68h223q173 0 257.5 67t84.5 218q0 150 -84 217t-258 67h-223v-569z" />
    <glyph glyph-name="uni1E0E" unicode="&#x1e0e;" horiz-adv-x="954" 
d="M135 0v705h303q139 0 232.5 -40.5t140.5 -118.5t47 -193t-48 -194t-141 -119t-231 -40h-303zM212 68h223q173 0 257.5 67t84.5 218q0 150 -84 217t-258 67h-223v-569zM288 -161v61h384v-61h-384z" />
    <glyph glyph-name="uni01C5" unicode="&#x1c5;" horiz-adv-x="1587" 
d="M135 0v705h303q139 0 232.5 -40.5t140.5 -118.5t47 -193t-48 -194t-141 -119t-231 -40h-303zM212 68h223q173 0 257.5 67t84.5 218q0 150 -84 217t-258 67h-223v-569zM1028 0v47l407 412l8 -30h-404v65h475v-49l-408 -412l-7 32h430v-65h-501zM1239 559l-138 202h61
l117 -149l117 149h60l-137 -202h-80z" />
    <glyph glyph-name="E" unicode="E" horiz-adv-x="780" 
d="M135 0v705h555v-68h-478v-245h441v-68h-441v-256h478v-68h-555z" />
    <glyph glyph-name="Eacute" unicode="&#xc9;" horiz-adv-x="780" 
d="M135 0v705h555v-68h-478v-245h441v-68h-441v-256h478v-68h-555zM388 765l147 179h99l-178 -179h-68z" />
    <glyph glyph-name="Ebreve" unicode="&#x114;" horiz-adv-x="780" 
d="M135 0v705h555v-68h-478v-245h441v-68h-441v-256h478v-68h-555zM421 760q-93 0 -145.5 45.5t-59.5 132.5l59 7q4 -61 40 -94t106 -33q73 0 107.5 34t39.5 93l59 -7q-7 -87 -60.5 -132.5t-145.5 -45.5z" />
    <glyph glyph-name="Ecaron" unicode="&#x11a;" horiz-adv-x="780" 
d="M135 0v705h555v-68h-478v-245h441v-68h-441v-256h478v-68h-555zM382 765l-153 179h62l131 -127l132 127h61l-153 -179h-80z" />
    <glyph glyph-name="uni0228" unicode="&#x228;" horiz-adv-x="780" 
d="M135 0v705h555v-68h-478v-245h441v-68h-441v-256h478v-68h-555zM433 -193q-29 0 -58 5t-47 15l15 44q25 -9 45 -13.5t46 -4.5q42 0 61.5 9t19.5 28q0 15 -13 22t-38 7q-14 0 -31.5 -2t-33.5 -7l-18 16l15 94h53l-12 -77l-25 7q20 5 36 7t29 2q31 0 53.5 -8t34.5 -23.5
t12 -38.5q0 -27 -17 -45t-49.5 -27.5t-77.5 -9.5z" />
    <glyph glyph-name="uni1E1C" unicode="&#x1e1c;" horiz-adv-x="780" 
d="M135 0v705h555v-68h-478v-245h441v-68h-441v-256h478v-68h-555zM433 -193q-29 0 -58 5t-47 15l15 44q25 -9 45 -13.5t46 -4.5q42 0 61.5 9t19.5 28q0 15 -13 22t-38 7q-14 0 -31.5 -2t-33.5 -7l-18 16l15 94h53l-12 -77l-25 7q20 5 36 7t29 2q31 0 53.5 -8t34.5 -23.5
t12 -38.5q0 -27 -17 -45t-49.5 -27.5t-77.5 -9.5zM421 760q-93 0 -145.5 45.5t-59.5 132.5l59 7q4 -61 40 -94t106 -33q73 0 107.5 34t39.5 93l59 -7q-7 -87 -60.5 -132.5t-145.5 -45.5z" />
    <glyph glyph-name="Ecircumflex" unicode="&#xca;" horiz-adv-x="780" 
d="M135 0v705h555v-68h-478v-245h441v-68h-441v-256h478v-68h-555zM229 765l153 179h80l153 -179h-62l-131 127l-132 -127h-61z" />
    <glyph glyph-name="uni1EBE" unicode="&#x1ebe;" horiz-adv-x="780" 
d="M135 0v705h555v-68h-478v-245h441v-68h-441v-256h478v-68h-555zM236 769l142 173h80l141 -173h-62l-119 120l-120 -120h-62zM531 878l103 149h88l-133 -149h-58z" />
    <glyph glyph-name="uni1EC6" unicode="&#x1ec6;" horiz-adv-x="780" 
d="M135 0v705h555v-68h-478v-245h441v-68h-441v-256h478v-68h-555zM375 -189v90h94v-90h-94zM229 765l153 179h80l153 -179h-62l-131 127l-132 -127h-61z" />
    <glyph glyph-name="uni1EC0" unicode="&#x1ec0;" horiz-adv-x="780" 
d="M135 0v705h555v-68h-478v-245h441v-68h-441v-256h478v-68h-555zM236 769l142 173h80l141 -173h-62l-119 120l-120 -120h-62zM583 878l-131 149h85l102 -149h-56z" />
    <glyph glyph-name="uni1EC2" unicode="&#x1ec2;" horiz-adv-x="780" 
d="M135 0v705h555v-68h-478v-245h441v-68h-441v-256h478v-68h-555zM236 769l142 166h80l141 -166h-62l-119 117l-120 -117h-62zM542 879q0 23 11.5 35.5t27.5 21t28 15.5t12 17q0 12 -15 17.5t-39 5.5q-20 0 -39.5 -4t-41.5 -12l-15 38q19 10 46 15t66 5q53 0 77.5 -13.5
t24.5 -38.5q0 -22 -13 -34.5t-30 -21t-29.5 -18t-12.5 -28.5h-58z" />
    <glyph glyph-name="uni1EC4" unicode="&#x1ec4;" horiz-adv-x="780" 
d="M135 0v705h555v-68h-478v-245h441v-68h-441v-256h478v-68h-555zM241 769l142 132h79l142 -132h-63l-118 83l-120 -83h-62zM281 930l-53 4q8 50 35.5 76t76.5 26q33 0 55.5 -10.5t38.5 -17.5q10 -4 28 -14t43 -10q23 0 37.5 12t21.5 42l53 -5q-7 -47 -35 -74t-78 -27
q-32 0 -53.5 11t-33.5 14q-19 12 -36.5 19.5t-40.5 7.5q-21 0 -36.5 -11.5t-22.5 -42.5z" />
    <glyph glyph-name="uni0204" unicode="&#x204;" horiz-adv-x="780" 
d="M135 0v705h555v-68h-478v-245h441v-68h-441v-256h478v-68h-555zM471 765l-145 179h90l106 -179h-51zM320 765l-148 179h89l110 -179h-51z" />
    <glyph glyph-name="Edieresis" unicode="&#xcb;" horiz-adv-x="780" 
d="M135 0v705h555v-68h-478v-245h441v-68h-441v-256h478v-68h-555zM492 808v87h93v-87h-93zM259 808v87h93v-87h-93z" />
    <glyph glyph-name="Edotaccent" unicode="&#x116;" horiz-adv-x="780" 
d="M135 0v705h555v-68h-478v-245h441v-68h-441v-256h478v-68h-555zM371 805v95h101v-95h-101z" />
    <glyph glyph-name="uni1EB8" unicode="&#x1eb8;" horiz-adv-x="780" 
d="M135 0v705h555v-68h-478v-245h441v-68h-441v-256h478v-68h-555zM375 -189v90h94v-90h-94z" />
    <glyph glyph-name="Egrave" unicode="&#xc8;" horiz-adv-x="780" 
d="M135 0v705h555v-68h-478v-245h441v-68h-441v-256h478v-68h-555zM391 765l-178 179h96l147 -179h-65z" />
    <glyph glyph-name="uni1EBA" unicode="&#x1eba;" horiz-adv-x="780" 
d="M135 0v705h555v-68h-478v-245h441v-68h-441v-256h478v-68h-555zM393 765v21q0 18 12.5 29.5t28.5 20t28 17.5t12 19q0 12 -13 17t-40 5q-24 0 -45.5 -3t-43.5 -10l-16 42q20 10 48 15t62 5q57 0 87.5 -15.5t30.5 -44.5q0 -22 -14 -34.5t-32.5 -22.5t-32.5 -20.5
t-14 -27.5v-13h-58z" />
    <glyph glyph-name="uni0206" unicode="&#x206;" horiz-adv-x="780" 
d="M135 0v705h555v-68h-478v-245h441v-68h-441v-256h478v-68h-555zM276 760l-60 7q7 87 59.5 132.5t145.5 45.5q94 0 147 -46.5t59 -131.5l-59 -7q-5 60 -39.5 93t-107.5 33q-69 0 -105 -32t-40 -94z" />
    <glyph glyph-name="Emacron" unicode="&#x112;" horiz-adv-x="780" 
d="M135 0v705h555v-68h-478v-245h441v-68h-441v-256h478v-68h-555zM222 814v61h400v-61h-400z" />
    <glyph glyph-name="uni1E16" unicode="&#x1e16;" horiz-adv-x="780" 
d="M135 0v705h555v-68h-478v-245h441v-68h-441v-256h478v-68h-555zM237 793v59h370v-59h-370zM388 887l114 145h97l-148 -145h-63z" />
    <glyph glyph-name="uni1E14" unicode="&#x1e14;" horiz-adv-x="780" 
d="M135 0v705h555v-68h-478v-245h441v-68h-441v-256h478v-68h-555zM393 887l-148 145h97l114 -145h-63zM237 793v59h370v-59h-370z" />
    <glyph glyph-name="Eogonek" unicode="&#x118;" horiz-adv-x="780" 
d="M135 0v705h555v-68h-478v-245h441v-68h-441v-256h478v-68h-555zM617 -194q-61 0 -95.5 25.5t-34.5 69.5q0 41 32 73.5t94 53.5l26 -28q-28 -10 -48 -24.5t-30.5 -31t-10.5 -34.5q0 -24 19 -37.5t53 -13.5q16 0 33 3.5t34 10.5l19 -49q-17 -8 -40.5 -13t-50.5 -5z" />
    <glyph glyph-name="uni1EBC" unicode="&#x1ebc;" horiz-adv-x="780" 
d="M135 0v705h555v-68h-478v-245h441v-68h-441v-256h478v-68h-555zM227 783l-59 3q6 63 44.5 102t94.5 39q40 0 74.5 -18t55.5 -29q17 -8 44.5 -22t53.5 -14q32 0 54 22.5t29 62.5l59 -2q-6 -64 -44 -102.5t-95 -38.5q-41 0 -75 18t-54 27q-19 10 -46.5 24t-53.5 14
q-32 0 -53 -23t-29 -63z" />
    <glyph glyph-name="uni018F" unicode="&#x18f;" horiz-adv-x="985" 
d="M489 -8q-109 0 -198 42.5t-142 123.5t-53 192v38h751v-65h-700l28 30q0 -141 88 -216.5t226 -75.5q149 0 235 76.5t86 219.5q0 141 -82.5 214t-253.5 73q-54 0 -109.5 -10t-107.5 -30.5t-93 -51.5l-32 63q39 31 96.5 53.5t123 33.5t126.5 11q133 0 224 -38.5t139 -117.5
t48 -199q0 -87 -30 -155t-82.5 -115t-126 -71.5t-161.5 -24.5z" />
    <glyph glyph-name="F" unicode="F" horiz-adv-x="739" 
d="M135 0v705h550v-68h-473v-248h448v-68h-448v-321h-77z" />
    <glyph glyph-name="G" unicode="G" horiz-adv-x="950" 
d="M518 -8q-130 0 -225 41.5t-146 122t-51 195.5t49 196t140.5 123.5t216.5 42.5q65 0 122.5 -11.5t106 -33.5t83.5 -54l-36 -58q-55 45 -123.5 66t-153.5 21q-153 0 -239 -74t-86 -219q0 -148 90.5 -219t256.5 -71q71 0 135.5 10t117.5 31l-22 -32v231h-234v67h307v-322
q-35 -17 -84.5 -28.5t-107.5 -18t-117 -6.5z" />
    <glyph glyph-name="Gbreve" unicode="&#x11e;" horiz-adv-x="950" 
d="M518 -8q-130 0 -225 41.5t-146 122t-51 195.5t49 196t140.5 123.5t216.5 42.5q65 0 122.5 -11.5t106 -33.5t83.5 -54l-36 -58q-55 45 -123.5 66t-153.5 21q-153 0 -239 -74t-86 -219q0 -148 90.5 -219t256.5 -71q71 0 135.5 10t117.5 31l-22 -32v231h-234v67h307v-322
q-35 -17 -84.5 -28.5t-107.5 -18t-117 -6.5zM504 760q-93 0 -145.5 45.5t-59.5 132.5l59 7q4 -61 40 -94t106 -33q73 0 107.5 34t39.5 93l59 -7q-7 -87 -60.5 -132.5t-145.5 -45.5z" />
    <glyph glyph-name="Gcaron" unicode="&#x1e6;" horiz-adv-x="950" 
d="M518 -8q-130 0 -225 41.5t-146 122t-51 195.5t49 196t140.5 123.5t216.5 42.5q65 0 122.5 -11.5t106 -33.5t83.5 -54l-36 -58q-55 45 -123.5 66t-153.5 21q-153 0 -239 -74t-86 -219q0 -148 90.5 -219t256.5 -71q71 0 135.5 10t117.5 31l-22 -32v231h-234v67h307v-322
q-35 -17 -84.5 -28.5t-107.5 -18t-117 -6.5zM465 765l-153 179h62l131 -127l132 127h61l-153 -179h-80z" />
    <glyph glyph-name="Gcircumflex" unicode="&#x11c;" horiz-adv-x="950" 
d="M518 -8q-130 0 -225 41.5t-146 122t-51 195.5t49 196t140.5 123.5t216.5 42.5q65 0 122.5 -11.5t106 -33.5t83.5 -54l-36 -58q-55 45 -123.5 66t-153.5 21q-153 0 -239 -74t-86 -219q0 -148 90.5 -219t256.5 -71q71 0 135.5 10t117.5 31l-22 -32v231h-234v67h307v-322
q-35 -17 -84.5 -28.5t-107.5 -18t-117 -6.5zM312 765l153 179h80l153 -179h-62l-131 127l-132 -127h-61z" />
    <glyph glyph-name="uni0122" unicode="&#x122;" horiz-adv-x="950" 
d="M518 -8q-130 0 -225 41.5t-146 122t-51 195.5t49 196t140.5 123.5t216.5 42.5q65 0 122.5 -11.5t106 -33.5t83.5 -54l-36 -58q-55 45 -123.5 66t-153.5 21q-153 0 -239 -74t-86 -219q0 -148 90.5 -219t256.5 -71q71 0 135.5 10t117.5 31l-22 -32v231h-234v67h307v-322
q-35 -17 -84.5 -28.5t-107.5 -18t-117 -6.5zM504 -292l-36 30q23 20 32 44t9 53l13 -11h-56v95h96v-70q0 -46 -13.5 -79.5t-44.5 -61.5z" />
    <glyph glyph-name="Gdotaccent" unicode="&#x120;" horiz-adv-x="950" 
d="M518 -8q-130 0 -225 41.5t-146 122t-51 195.5t49 196t140.5 123.5t216.5 42.5q65 0 122.5 -11.5t106 -33.5t83.5 -54l-36 -58q-55 45 -123.5 66t-153.5 21q-153 0 -239 -74t-86 -219q0 -148 90.5 -219t256.5 -71q71 0 135.5 10t117.5 31l-22 -32v231h-234v67h307v-322
q-35 -17 -84.5 -28.5t-107.5 -18t-117 -6.5zM454 805v95h101v-95h-101z" />
    <glyph glyph-name="uni1E20" unicode="&#x1e20;" horiz-adv-x="950" 
d="M518 -8q-130 0 -225 41.5t-146 122t-51 195.5t49 196t140.5 123.5t216.5 42.5q65 0 122.5 -11.5t106 -33.5t83.5 -54l-36 -58q-55 45 -123.5 66t-153.5 21q-153 0 -239 -74t-86 -219q0 -148 90.5 -219t256.5 -71q71 0 135.5 10t117.5 31l-22 -32v231h-234v67h307v-322
q-35 -17 -84.5 -28.5t-107.5 -18t-117 -6.5zM305 814v61h400v-61h-400z" />
    <glyph glyph-name="H" unicode="H" horiz-adv-x="982" 
d="M135 0v705h77v-312h558v312h77v-705h-77v325h-558v-325h-77z" />
    <glyph glyph-name="Hbar" unicode="&#x126;" horiz-adv-x="1009" 
d="M148 0v516h-128v64h128v125h78v-126h557v126h78v-125h128v-64h-128v-516h-78v318h-557v-318h-78zM226 387h557v130h-557v-130z" />
    <glyph glyph-name="uni1E2A" unicode="&#x1e2a;" horiz-adv-x="982" 
d="M135 0v705h77v-312h558v312h77v-705h-77v325h-558v-325h-77zM490 -215q-81 0 -130.5 40t-59.5 117l56 6q8 -53 41 -80t93 -27q59 0 92.5 27t41.5 80l56 -6q-9 -76 -58 -116.5t-132 -40.5z" />
    <glyph glyph-name="Hcircumflex" unicode="&#x124;" horiz-adv-x="982" 
d="M135 0v705h77v-312h558v312h77v-705h-77v325h-558v-325h-77zM298 765l153 179h80l153 -179h-62l-131 127l-132 -127h-61z" />
    <glyph glyph-name="uni1E24" unicode="&#x1e24;" horiz-adv-x="982" 
d="M135 0v705h77v-312h558v312h77v-705h-77v325h-558v-325h-77zM444 -189v90h94v-90h-94z" />
    <glyph glyph-name="I" unicode="I" horiz-adv-x="347" 
d="M135 0v705h77v-705h-77z" />
    <glyph glyph-name="IJ" unicode="&#x132;" horiz-adv-x="806" 
d="M135 0v705h77v-705h-77zM353 -7l-5 69l90 4q46 2 81 19t55 46.5t20 69.5v504h77v-508q0 -56 -28.5 -100t-79.5 -70t-118 -30z" />
    <glyph glyph-name="Iacute" unicode="&#xcd;" horiz-adv-x="347" 
d="M135 0v705h77v-705h-77zM139 765l147 179h99l-178 -179h-68z" />
    <glyph glyph-name="Ibreve" unicode="&#x12c;" horiz-adv-x="347" 
d="M135 0v705h77v-705h-77zM172 760q-93 0 -145.5 45.5t-59.5 132.5l59 7q4 -61 40 -94t106 -33q73 0 107.5 34t39.5 93l59 -7q-7 -87 -60.5 -132.5t-145.5 -45.5z" />
    <glyph glyph-name="Icircumflex" unicode="&#xce;" horiz-adv-x="347" 
d="M135 0v705h77v-705h-77zM-20 765l153 179h80l153 -179h-62l-131 127l-132 -127h-61z" />
    <glyph glyph-name="uni0208" unicode="&#x208;" horiz-adv-x="347" 
d="M135 0v705h77v-705h-77zM222 765l-145 179h90l106 -179h-51zM71 765l-148 179h89l110 -179h-51z" />
    <glyph glyph-name="Idieresis" unicode="&#xcf;" horiz-adv-x="347" 
d="M135 0v705h77v-705h-77zM243 808v87h93v-87h-93zM10 808v87h93v-87h-93z" />
    <glyph glyph-name="uni1E2E" unicode="&#x1e2e;" horiz-adv-x="347" 
d="M135 0v705h77v-705h-77zM140 885l114 145h97l-148 -145h-63zM15 772v76h98v-76h-98zM233 772v76h98v-76h-98z" />
    <glyph glyph-name="Idotaccent" unicode="&#x130;" horiz-adv-x="347" 
d="M135 0v705h77v-705h-77zM122 805v95h101v-95h-101z" />
    <glyph glyph-name="uni1ECA" unicode="&#x1eca;" horiz-adv-x="347" 
d="M135 0v705h77v-705h-77zM126 -189v90h94v-90h-94z" />
    <glyph glyph-name="Igrave" unicode="&#xcc;" horiz-adv-x="347" 
d="M135 0v705h77v-705h-77zM142 765l-178 179h96l147 -179h-65z" />
    <glyph glyph-name="uni1EC8" unicode="&#x1ec8;" horiz-adv-x="347" 
d="M135 0v705h77v-705h-77zM144 765v21q0 18 12.5 29.5t28.5 20t28 17.5t12 19q0 12 -13 17t-40 5q-24 0 -45.5 -3t-43.5 -10l-16 42q20 10 48 15t62 5q57 0 87.5 -15.5t30.5 -44.5q0 -22 -14 -34.5t-32.5 -22.5t-32.5 -20.5t-14 -27.5v-13h-58z" />
    <glyph glyph-name="uni020A" unicode="&#x20a;" horiz-adv-x="347" 
d="M135 0v705h77v-705h-77zM27 760l-60 7q7 87 59.5 132.5t145.5 45.5q94 0 147 -46.5t59 -131.5l-59 -7q-5 60 -39.5 93t-107.5 33q-69 0 -105 -32t-40 -94z" />
    <glyph glyph-name="Imacron" unicode="&#x12a;" horiz-adv-x="347" 
d="M135 0v705h77v-705h-77zM-27 814v61h400v-61h-400z" />
    <glyph glyph-name="Iogonek" unicode="&#x12e;" horiz-adv-x="347" 
d="M135 0v705h77v-705h-77zM184 -194q-61 0 -95.5 25.5t-34.5 69.5q0 41 32 73.5t94 53.5l26 -28q-28 -10 -48 -24.5t-30.5 -31t-10.5 -34.5q0 -24 19 -37.5t53 -13.5q16 0 33 3.5t34 10.5l19 -49q-17 -8 -40.5 -13t-50.5 -5z" />
    <glyph glyph-name="Itilde" unicode="&#x128;" horiz-adv-x="347" 
d="M135 0v705h77v-705h-77zM-22 783l-59 3q6 63 44.5 102t94.5 39q40 0 74.5 -18t55.5 -29q17 -8 44.5 -22t53.5 -14q32 0 54 22.5t29 62.5l59 -2q-6 -64 -44 -102.5t-95 -38.5q-41 0 -75 18t-54 27q-19 10 -46.5 24t-53.5 14q-32 0 -53 -23t-29 -63z" />
    <glyph glyph-name="J" unicode="J" horiz-adv-x="459" 
d="M6 -7l-5 69l90 4q46 2 81 19t55 46.5t20 69.5v504h77v-508q0 -56 -28.5 -100t-79.5 -70t-118 -30z" />
    <glyph glyph-name="Jcircumflex" unicode="&#x134;" horiz-adv-x="459" 
d="M6 -7l-5 69l90 4q46 2 81 19t55 46.5t20 69.5v504h77v-508q0 -56 -28.5 -100t-79.5 -70t-118 -30zM93 765l153 179h80l153 -179h-62l-131 127l-132 -127h-61z" />
    <glyph glyph-name="K" unicode="K" horiz-adv-x="795" 
d="M135 0v705h77v-323h4l436 323h109l-493 -361l3 30l520 -374h-117l-458 335h-4v-335h-77z" />
    <glyph glyph-name="uni0136" unicode="&#x136;" horiz-adv-x="795" 
d="M135 0v705h77v-323h4l436 323h109l-493 -361l3 30l520 -374h-117l-458 335h-4v-335h-77zM402 -292l-36 30q23 20 32 44t9 53l13 -11h-56v95h96v-70q0 -46 -13.5 -79.5t-44.5 -61.5z" />
    <glyph glyph-name="L" unicode="L" horiz-adv-x="705" 
d="M135 0v705h77v-636h460v-69h-537z" />
    <glyph glyph-name="uni01C7" unicode="&#x1c7;" horiz-adv-x="1214" 
d="M135 0v705h77v-636h460v-69h-537zM761 -7l-5 69l90 4q46 2 81 19t55 46.5t20 69.5v504h77v-508q0 -56 -28.5 -100t-79.5 -70t-118 -30z" />
    <glyph glyph-name="Lacute" unicode="&#x139;" horiz-adv-x="705" 
d="M135 0v705h77v-636h460v-69h-537zM140 765l147 179h99l-178 -179h-68z" />
    <glyph glyph-name="Lcaron" unicode="&#x13d;" horiz-adv-x="705" 
d="M135 0v705h77v-636h460v-69h-537zM359 481v224h80l-24 -224h-56z" />
    <glyph glyph-name="uni013B" unicode="&#x13b;" horiz-adv-x="705" 
d="M135 0v705h77v-636h460v-69h-537zM399 -292l-36 30q23 20 32 44t9 53l13 -11h-56v95h96v-70q0 -46 -13.5 -79.5t-44.5 -61.5z" />
    <glyph glyph-name="Ldot" unicode="&#x13f;" horiz-adv-x="705" 
d="M135 0v705h77v-636h460v-69h-537zM456 344v89h103v-89h-103z" />
    <glyph glyph-name="uni1E36" unicode="&#x1e36;" horiz-adv-x="705" 
d="M135 0v705h77v-636h460v-69h-537zM361 -189v90h94v-90h-94z" />
    <glyph glyph-name="uni01C8" unicode="&#x1c8;" horiz-adv-x="991" 
d="M135 0v705h77v-636h460v-69h-537zM799 619v89h102v-89h-102zM631 -193l-5 65l61 6q60 6 92.5 31t32.5 79v506h76v-504q0 -40 -12 -71.5t-35.5 -53.5t-60 -35t-85.5 -17z" />
    <glyph glyph-name="uni1E3A" unicode="&#x1e3a;" horiz-adv-x="705" 
d="M135 0v705h77v-636h460v-69h-537zM216 -161v61h384v-61h-384z" />
    <glyph glyph-name="Lslash" unicode="&#x141;" horiz-adv-x="705" 
d="M135 0v705h77v-636h460v-69h-537zM28 254l-28 57l435 208l28 -58z" />
    <glyph glyph-name="M" unicode="M" horiz-adv-x="1117" 
d="M137 0v705h94l331 -512h-6l331 512h94v-705h-76v601h-2l-315 -490h-57l-317 491h-1v-602h-76z" />
    <glyph glyph-name="uni1E42" unicode="&#x1e42;" horiz-adv-x="1117" 
d="M137 0v705h94l331 -512h-6l331 512h94v-705h-76v601h-2l-315 -490h-57l-317 491h-1v-602h-76zM505 -189v90h94v-90h-94z" />
    <glyph glyph-name="N" unicode="N" horiz-adv-x="988" 
d="M135 0v705h75l565 -597h2v597h76v-705h-77l-563 595h-3v-595h-75z" />
    <glyph glyph-name="uni01CA" unicode="&#x1ca;" horiz-adv-x="1447" 
d="M135 0v705h75l565 -597h2v597h76v-705h-77l-563 595h-3v-595h-75zM994 -7l-5 69l90 4q46 2 81 19t55 46.5t20 69.5v504h77v-508q0 -56 -28.5 -100t-79.5 -70t-118 -30z" />
    <glyph glyph-name="Nacute" unicode="&#x143;" horiz-adv-x="988" 
d="M135 0v705h75l565 -597h2v597h76v-705h-77l-563 595h-3v-595h-75zM464 765l147 179h99l-178 -179h-68z" />
    <glyph glyph-name="Ncaron" unicode="&#x147;" horiz-adv-x="988" 
d="M135 0v705h75l565 -597h2v597h76v-705h-77l-563 595h-3v-595h-75zM458 765l-153 179h62l131 -127l132 127h61l-153 -179h-80z" />
    <glyph glyph-name="uni0145" unicode="&#x145;" horiz-adv-x="988" 
d="M135 0v705h75l565 -597h2v597h76v-705h-77l-563 595h-3v-595h-75zM488 -292l-36 30q23 20 32 44t9 53l13 -11h-56v95h96v-70q0 -46 -13.5 -79.5t-44.5 -61.5z" />
    <glyph glyph-name="uni1E44" unicode="&#x1e44;" horiz-adv-x="988" 
d="M135 0v705h75l565 -597h2v597h76v-705h-77l-563 595h-3v-595h-75zM447 805v95h101v-95h-101z" />
    <glyph glyph-name="uni1E46" unicode="&#x1e46;" horiz-adv-x="988" 
d="M135 0v705h75l565 -597h2v597h76v-705h-77l-563 595h-3v-595h-75zM450 -189v90h94v-90h-94z" />
    <glyph glyph-name="uni01CB" unicode="&#x1cb;" horiz-adv-x="1274" 
d="M135 0v705h75l565 -597h2v597h76v-705h-77l-563 595h-3v-595h-75zM1082 619v89h102v-89h-102zM914 -193l-5 65l61 6q60 6 92.5 31t32.5 79v506h76v-504q0 -40 -12 -71.5t-35.5 -53.5t-60 -35t-85.5 -17z" />
    <glyph glyph-name="uni1E48" unicode="&#x1e48;" horiz-adv-x="988" 
d="M135 0v705h75l565 -597h2v597h76v-705h-77l-563 595h-3v-595h-75zM305 -161v61h384v-61h-384z" />
    <glyph glyph-name="Ntilde" unicode="&#xd1;" horiz-adv-x="988" 
d="M135 0v705h75l565 -597h2v597h76v-705h-77l-563 595h-3v-595h-75zM303 783l-59 3q6 63 44.5 102t94.5 39q40 0 74.5 -18t55.5 -29q17 -8 44.5 -22t53.5 -14q32 0 54 22.5t29 62.5l59 -2q-6 -64 -44 -102.5t-95 -38.5q-41 0 -75 18t-54 27q-19 10 -46.5 24t-53.5 14
q-32 0 -53 -23t-29 -63z" />
    <glyph glyph-name="Eng" unicode="&#x14a;" horiz-adv-x="988" 
d="M605 -192l-5 64l52 5q61 5 93.5 29t32.5 77v69l7 -62l-573 605h-2v-595h-75v705h73l568 -597h1v597h76v-715q0 -30 -7.5 -56t-22 -47t-37.5 -36t-54.5 -25.5t-71.5 -13.5z" />
    <glyph glyph-name="O" unicode="O" horiz-adv-x="985" 
d="M493 -8q-93 0 -166 24.5t-124.5 71t-79 113t-27.5 150.5q0 85 27.5 151.5t79 114t125 72t165.5 24.5t165.5 -25t124.5 -71t78.5 -113t27.5 -151q0 -85 -27.5 -152t-78.5 -113.5t-124.5 -71t-165.5 -24.5zM493 61q98 0 168.5 34t108.5 99t38 159t-37 159t-108.5 98.5
t-169.5 33.5q-100 0 -170 -34t-108.5 -98.5t-38.5 -159.5q0 -94 38 -158.5t109 -98.5t170 -34z" />
    <glyph glyph-name="Oacute" unicode="&#xd3;" horiz-adv-x="985" 
d="M493 -8q-93 0 -166 24.5t-124.5 71t-79 113t-27.5 150.5q0 85 27.5 151.5t79 114t125 72t165.5 24.5t165.5 -25t124.5 -71t78.5 -113t27.5 -151q0 -85 -27.5 -152t-78.5 -113.5t-124.5 -71t-165.5 -24.5zM493 61q98 0 168.5 34t108.5 99t38 159t-37 159t-108.5 98.5
t-169.5 33.5q-100 0 -170 -34t-108.5 -98.5t-38.5 -159.5q0 -94 38 -158.5t109 -98.5t170 -34zM459 765l147 179h99l-178 -179h-68z" />
    <glyph glyph-name="Obreve" unicode="&#x14e;" horiz-adv-x="985" 
d="M493 -8q-93 0 -166 24.5t-124.5 71t-79 113t-27.5 150.5q0 85 27.5 151.5t79 114t125 72t165.5 24.5t165.5 -25t124.5 -71t78.5 -113t27.5 -151q0 -85 -27.5 -152t-78.5 -113.5t-124.5 -71t-165.5 -24.5zM493 61q98 0 168.5 34t108.5 99t38 159t-37 159t-108.5 98.5
t-169.5 33.5q-100 0 -170 -34t-108.5 -98.5t-38.5 -159.5q0 -94 38 -158.5t109 -98.5t170 -34zM492 760q-93 0 -145.5 45.5t-59.5 132.5l59 7q4 -61 40 -94t106 -33q73 0 107.5 34t39.5 93l59 -7q-7 -87 -60.5 -132.5t-145.5 -45.5z" />
    <glyph glyph-name="Ocircumflex" unicode="&#xd4;" horiz-adv-x="985" 
d="M493 -8q-93 0 -166 24.5t-124.5 71t-79 113t-27.5 150.5q0 85 27.5 151.5t79 114t125 72t165.5 24.5t165.5 -25t124.5 -71t78.5 -113t27.5 -151q0 -85 -27.5 -152t-78.5 -113.5t-124.5 -71t-165.5 -24.5zM493 61q98 0 168.5 34t108.5 99t38 159t-37 159t-108.5 98.5
t-169.5 33.5q-100 0 -170 -34t-108.5 -98.5t-38.5 -159.5q0 -94 38 -158.5t109 -98.5t170 -34zM300 765l153 179h80l153 -179h-62l-131 127l-132 -127h-61z" />
    <glyph glyph-name="uni1ED0" unicode="&#x1ed0;" horiz-adv-x="985" 
d="M493 -8q-93 0 -166 24.5t-124.5 71t-79 113t-27.5 150.5q0 85 27.5 151.5t79 114t125 72t165.5 24.5t165.5 -25t124.5 -71t78.5 -113t27.5 -151q0 -85 -27.5 -152t-78.5 -113.5t-124.5 -71t-165.5 -24.5zM493 61q98 0 168.5 34t108.5 99t38 159t-37 159t-108.5 98.5
t-169.5 33.5q-100 0 -170 -34t-108.5 -98.5t-38.5 -159.5q0 -94 38 -158.5t109 -98.5t170 -34zM307 769l142 173h80l141 -173h-62l-119 120l-120 -120h-62zM602 878l103 149h88l-133 -149h-58z" />
    <glyph glyph-name="uni1ED8" unicode="&#x1ed8;" horiz-adv-x="985" 
d="M493 -8q-93 0 -166 24.5t-124.5 71t-79 113t-27.5 150.5q0 85 27.5 151.5t79 114t125 72t165.5 24.5t165.5 -25t124.5 -71t78.5 -113t27.5 -151q0 -85 -27.5 -152t-78.5 -113.5t-124.5 -71t-165.5 -24.5zM493 61q98 0 168.5 34t108.5 99t38 159t-37 159t-108.5 98.5
t-169.5 33.5q-100 0 -170 -34t-108.5 -98.5t-38.5 -159.5q0 -94 38 -158.5t109 -98.5t170 -34zM446 -189v90h94v-90h-94zM300 765l153 179h80l153 -179h-62l-131 127l-132 -127h-61z" />
    <glyph glyph-name="uni1ED2" unicode="&#x1ed2;" horiz-adv-x="985" 
d="M493 -8q-93 0 -166 24.5t-124.5 71t-79 113t-27.5 150.5q0 85 27.5 151.5t79 114t125 72t165.5 24.5t165.5 -25t124.5 -71t78.5 -113t27.5 -151q0 -85 -27.5 -152t-78.5 -113.5t-124.5 -71t-165.5 -24.5zM493 61q98 0 168.5 34t108.5 99t38 159t-37 159t-108.5 98.5
t-169.5 33.5q-100 0 -170 -34t-108.5 -98.5t-38.5 -159.5q0 -94 38 -158.5t109 -98.5t170 -34zM307 769l142 173h80l141 -173h-62l-119 120l-120 -120h-62zM654 878l-131 149h85l102 -149h-56z" />
    <glyph glyph-name="uni1ED4" unicode="&#x1ed4;" horiz-adv-x="985" 
d="M493 -8q-93 0 -166 24.5t-124.5 71t-79 113t-27.5 150.5q0 85 27.5 151.5t79 114t125 72t165.5 24.5t165.5 -25t124.5 -71t78.5 -113t27.5 -151q0 -85 -27.5 -152t-78.5 -113.5t-124.5 -71t-165.5 -24.5zM493 61q98 0 168.5 34t108.5 99t38 159t-37 159t-108.5 98.5
t-169.5 33.5q-100 0 -170 -34t-108.5 -98.5t-38.5 -159.5q0 -94 38 -158.5t109 -98.5t170 -34zM307 769l142 166h80l141 -166h-62l-119 117l-120 -117h-62zM613 879q0 23 11.5 35.5t27.5 21t28 15.5t12 17q0 12 -15 17.5t-39 5.5q-20 0 -39.5 -4t-41.5 -12l-15 38
q19 10 46 15t66 5q53 0 77.5 -13.5t24.5 -38.5q0 -22 -13 -34.5t-30 -21t-29.5 -18t-12.5 -28.5h-58z" />
    <glyph glyph-name="uni1ED6" unicode="&#x1ed6;" horiz-adv-x="985" 
d="M493 -8q-93 0 -166 24.5t-124.5 71t-79 113t-27.5 150.5q0 85 27.5 151.5t79 114t125 72t165.5 24.5t165.5 -25t124.5 -71t78.5 -113t27.5 -151q0 -85 -27.5 -152t-78.5 -113.5t-124.5 -71t-165.5 -24.5zM493 61q98 0 168.5 34t108.5 99t38 159t-37 159t-108.5 98.5
t-169.5 33.5q-100 0 -170 -34t-108.5 -98.5t-38.5 -159.5q0 -94 38 -158.5t109 -98.5t170 -34zM312 769l142 132h79l142 -132h-63l-118 83l-120 -83h-62zM352 930l-53 4q8 50 35.5 76t76.5 26q33 0 55.5 -10.5t38.5 -17.5q10 -4 28 -14t43 -10q23 0 37.5 12t21.5 42l53 -5
q-7 -47 -35 -74t-78 -27q-32 0 -53.5 11t-33.5 14q-19 12 -36.5 19.5t-40.5 7.5q-21 0 -36.5 -11.5t-22.5 -42.5z" />
    <glyph glyph-name="uni020C" unicode="&#x20c;" horiz-adv-x="985" 
d="M493 -8q-93 0 -166 24.5t-124.5 71t-79 113t-27.5 150.5q0 85 27.5 151.5t79 114t125 72t165.5 24.5t165.5 -25t124.5 -71t78.5 -113t27.5 -151q0 -85 -27.5 -152t-78.5 -113.5t-124.5 -71t-165.5 -24.5zM493 61q98 0 168.5 34t108.5 99t38 159t-37 159t-108.5 98.5
t-169.5 33.5q-100 0 -170 -34t-108.5 -98.5t-38.5 -159.5q0 -94 38 -158.5t109 -98.5t170 -34zM542 765l-145 179h90l106 -179h-51zM391 765l-148 179h89l110 -179h-51z" />
    <glyph glyph-name="Odieresis" unicode="&#xd6;" horiz-adv-x="985" 
d="M493 -8q-93 0 -166 24.5t-124.5 71t-79 113t-27.5 150.5q0 85 27.5 151.5t79 114t125 72t165.5 24.5t165.5 -25t124.5 -71t78.5 -113t27.5 -151q0 -85 -27.5 -152t-78.5 -113.5t-124.5 -71t-165.5 -24.5zM493 61q98 0 168.5 34t108.5 99t38 159t-37 159t-108.5 98.5
t-169.5 33.5q-100 0 -170 -34t-108.5 -98.5t-38.5 -159.5q0 -94 38 -158.5t109 -98.5t170 -34zM563 808v87h93v-87h-93zM330 808v87h93v-87h-93z" />
    <glyph glyph-name="uni022A" unicode="&#x22a;" horiz-adv-x="985" 
d="M493 -8q-93 0 -166 24.5t-124.5 71t-79 113t-27.5 150.5q0 85 27.5 151.5t79 114t125 72t165.5 24.5t165.5 -25t124.5 -71t78.5 -113t27.5 -151q0 -85 -27.5 -152t-78.5 -113.5t-124.5 -71t-165.5 -24.5zM493 61q98 0 168.5 34t108.5 99t38 159t-37 159t-108.5 98.5
t-169.5 33.5q-100 0 -170 -34t-108.5 -98.5t-38.5 -159.5q0 -94 38 -158.5t109 -98.5t170 -34zM301 926v58h384v-58h-384zM331 797v76h94v-76h-94zM561 797v76h94v-76h-94z" />
    <glyph glyph-name="uni0230" unicode="&#x230;" horiz-adv-x="985" 
d="M493 -8q-93 0 -166 24.5t-124.5 71t-79 113t-27.5 150.5q0 85 27.5 151.5t79 114t125 72t165.5 24.5t165.5 -25t124.5 -71t78.5 -113t27.5 -151q0 -85 -27.5 -152t-78.5 -113.5t-124.5 -71t-165.5 -24.5zM493 61q98 0 168.5 34t108.5 99t38 159t-37 159t-108.5 98.5
t-169.5 33.5q-100 0 -170 -34t-108.5 -98.5t-38.5 -159.5q0 -94 38 -158.5t109 -98.5t170 -34zM310 927v58h366v-58h-366zM444 796v82h99v-82h-99z" />
    <glyph glyph-name="uni1ECC" unicode="&#x1ecc;" horiz-adv-x="985" 
d="M493 -8q-93 0 -166 24.5t-124.5 71t-79 113t-27.5 150.5q0 85 27.5 151.5t79 114t125 72t165.5 24.5t165.5 -25t124.5 -71t78.5 -113t27.5 -151q0 -85 -27.5 -152t-78.5 -113.5t-124.5 -71t-165.5 -24.5zM493 61q98 0 168.5 34t108.5 99t38 159t-37 159t-108.5 98.5
t-169.5 33.5q-100 0 -170 -34t-108.5 -98.5t-38.5 -159.5q0 -94 38 -158.5t109 -98.5t170 -34zM446 -189v90h94v-90h-94z" />
    <glyph glyph-name="Ograve" unicode="&#xd2;" horiz-adv-x="985" 
d="M493 -8q-93 0 -166 24.5t-124.5 71t-79 113t-27.5 150.5q0 85 27.5 151.5t79 114t125 72t165.5 24.5t165.5 -25t124.5 -71t78.5 -113t27.5 -151q0 -85 -27.5 -152t-78.5 -113.5t-124.5 -71t-165.5 -24.5zM493 61q98 0 168.5 34t108.5 99t38 159t-37 159t-108.5 98.5
t-169.5 33.5q-100 0 -170 -34t-108.5 -98.5t-38.5 -159.5q0 -94 38 -158.5t109 -98.5t170 -34zM462 765l-178 179h96l147 -179h-65z" />
    <glyph glyph-name="uni1ECE" unicode="&#x1ece;" horiz-adv-x="985" 
d="M493 -8q-93 0 -166 24.5t-124.5 71t-79 113t-27.5 150.5q0 85 27.5 151.5t79 114t125 72t165.5 24.5t165.5 -25t124.5 -71t78.5 -113t27.5 -151q0 -85 -27.5 -152t-78.5 -113.5t-124.5 -71t-165.5 -24.5zM493 61q98 0 168.5 34t108.5 99t38 159t-37 159t-108.5 98.5
t-169.5 33.5q-100 0 -170 -34t-108.5 -98.5t-38.5 -159.5q0 -94 38 -158.5t109 -98.5t170 -34zM464 765v21q0 18 12.5 29.5t28.5 20t28 17.5t12 19q0 12 -13 17t-40 5q-24 0 -45.5 -3t-43.5 -10l-16 42q20 10 48 15t62 5q57 0 87.5 -15.5t30.5 -44.5q0 -22 -14 -34.5
t-32.5 -22.5t-32.5 -20.5t-14 -27.5v-13h-58z" />
    <glyph glyph-name="Ohorn" unicode="&#x1a0;" horiz-adv-x="985" 
d="M493 -8q-93 0 -166 24.5t-124.5 71t-79 113t-27.5 150.5q0 85 27.5 151.5t79 114t125 72t165.5 24.5t165.5 -25t124.5 -71t78.5 -113t27.5 -151q0 -85 -27.5 -152t-78.5 -113.5t-124.5 -71t-165.5 -24.5zM493 61q98 0 168.5 34t108.5 99t38 159t-37 159t-108.5 98.5
t-169.5 33.5q-100 0 -170 -34t-108.5 -98.5t-38.5 -159.5q0 -94 38 -158.5t109 -98.5t170 -34zM629 654l-63 55q27 -1 57 -2.5t45 -1.5q61 0 93 12t43 37t11 63v18h78v-30q0 -46 -21.5 -80.5t-61.5 -52.5t-97 -18h-84z" />
    <glyph glyph-name="uni1EDA" unicode="&#x1eda;" horiz-adv-x="985" 
d="M493 -8q-93 0 -166 24.5t-124.5 71t-79 113t-27.5 150.5q0 85 27.5 151.5t79 114t125 72t165.5 24.5t165.5 -25t124.5 -71t78.5 -113t27.5 -151q0 -85 -27.5 -152t-78.5 -113.5t-124.5 -71t-165.5 -24.5zM493 61q98 0 168.5 34t108.5 99t38 159t-37 159t-108.5 98.5
t-169.5 33.5q-100 0 -170 -34t-108.5 -98.5t-38.5 -159.5q0 -94 38 -158.5t109 -98.5t170 -34zM629 654l-63 55q27 -1 57 -2.5t45 -1.5q61 0 93 12t43 37t11 63v18h78v-30q0 -46 -21.5 -80.5t-61.5 -52.5t-97 -18h-84zM439 765l147 179h99l-178 -179h-68z" />
    <glyph glyph-name="uni1EE2" unicode="&#x1ee2;" horiz-adv-x="985" 
d="M493 -8q-93 0 -166 24.5t-124.5 71t-79 113t-27.5 150.5q0 85 27.5 151.5t79 114t125 72t165.5 24.5t165.5 -25t124.5 -71t78.5 -113t27.5 -151q0 -85 -27.5 -152t-78.5 -113.5t-124.5 -71t-165.5 -24.5zM493 61q98 0 168.5 34t108.5 99t38 159t-37 159t-108.5 98.5
t-169.5 33.5q-100 0 -170 -34t-108.5 -98.5t-38.5 -159.5q0 -94 38 -158.5t109 -98.5t170 -34zM629 654l-63 55q27 -1 57 -2.5t45 -1.5q61 0 93 12t43 37t11 63v18h78v-30q0 -46 -21.5 -80.5t-61.5 -52.5t-97 -18h-84zM445 -189v90h94v-90h-94z" />
    <glyph glyph-name="uni1EDC" unicode="&#x1edc;" horiz-adv-x="985" 
d="M493 -8q-93 0 -166 24.5t-124.5 71t-79 113t-27.5 150.5q0 85 27.5 151.5t79 114t125 72t165.5 24.5t165.5 -25t124.5 -71t78.5 -113t27.5 -151q0 -85 -27.5 -152t-78.5 -113.5t-124.5 -71t-165.5 -24.5zM493 61q98 0 168.5 34t108.5 99t38 159t-37 159t-108.5 98.5
t-169.5 33.5q-100 0 -170 -34t-108.5 -98.5t-38.5 -159.5q0 -94 38 -158.5t109 -98.5t170 -34zM629 654l-63 55q27 -1 57 -2.5t45 -1.5q61 0 93 12t43 37t11 63v18h78v-30q0 -46 -21.5 -80.5t-61.5 -52.5t-97 -18h-84zM442 765l-178 179h96l147 -179h-65z" />
    <glyph glyph-name="uni1EDE" unicode="&#x1ede;" horiz-adv-x="985" 
d="M493 -8q-93 0 -166 24.5t-124.5 71t-79 113t-27.5 150.5q0 85 27.5 151.5t79 114t125 72t165.5 24.5t165.5 -25t124.5 -71t78.5 -113t27.5 -151q0 -85 -27.5 -152t-78.5 -113.5t-124.5 -71t-165.5 -24.5zM493 61q98 0 168.5 34t108.5 99t38 159t-37 159t-108.5 98.5
t-169.5 33.5q-100 0 -170 -34t-108.5 -98.5t-38.5 -159.5q0 -94 38 -158.5t109 -98.5t170 -34zM629 654l-63 55q27 -1 57 -2.5t45 -1.5q61 0 93 12t43 37t11 63v18h78v-30q0 -46 -21.5 -80.5t-61.5 -52.5t-97 -18h-84zM444 765v21q0 18 12.5 29.5t28.5 20t28 17.5t12 19
q0 12 -13 17t-40 5q-24 0 -45.5 -3t-43.5 -10l-16 42q20 10 48 15t62 5q57 0 87.5 -15.5t30.5 -44.5q0 -22 -14 -34.5t-32.5 -22.5t-32.5 -20.5t-14 -27.5v-13h-58z" />
    <glyph glyph-name="uni1EE0" unicode="&#x1ee0;" horiz-adv-x="985" 
d="M493 -8q-93 0 -166 24.5t-124.5 71t-79 113t-27.5 150.5q0 85 27.5 151.5t79 114t125 72t165.5 24.5t165.5 -25t124.5 -71t78.5 -113t27.5 -151q0 -85 -27.5 -152t-78.5 -113.5t-124.5 -71t-165.5 -24.5zM493 61q98 0 168.5 34t108.5 99t38 159t-37 159t-108.5 98.5
t-169.5 33.5q-100 0 -170 -34t-108.5 -98.5t-38.5 -159.5q0 -94 38 -158.5t109 -98.5t170 -34zM629 654l-63 55q27 -1 57 -2.5t45 -1.5q61 0 93 12t43 37t11 63v18h78v-30q0 -46 -21.5 -80.5t-61.5 -52.5t-97 -18h-84zM294 784l-58 4q4 40 21 71t45.5 48.5t65.5 17.5
t66 -16.5t52 -29.5q19 -9 41.5 -22t45.5 -13q34 0 52 23t26 61l57 -3q-5 -41 -21.5 -72t-45 -48t-65.5 -17q-36 0 -65.5 16.5t-52.5 29.5q-18 9 -40.5 22t-47.5 13q-33 0 -51 -23t-25 -62z" />
    <glyph glyph-name="Ohungarumlaut" unicode="&#x150;" horiz-adv-x="985" 
d="M493 -8q-93 0 -166 24.5t-124.5 71t-79 113t-27.5 150.5q0 85 27.5 151.5t79 114t125 72t165.5 24.5t165.5 -25t124.5 -71t78.5 -113t27.5 -151q0 -85 -27.5 -152t-78.5 -113.5t-124.5 -71t-165.5 -24.5zM493 61q98 0 168.5 34t108.5 99t38 159t-37 159t-108.5 98.5
t-169.5 33.5q-100 0 -170 -34t-108.5 -98.5t-38.5 -159.5q0 -94 38 -158.5t109 -98.5t170 -34zM392 765l106 179h90l-145 -179h-51zM542 765l112 179h88l-149 -179h-51z" />
    <glyph glyph-name="uni020E" unicode="&#x20e;" horiz-adv-x="985" 
d="M493 -8q-93 0 -166 24.5t-124.5 71t-79 113t-27.5 150.5q0 85 27.5 151.5t79 114t125 72t165.5 24.5t165.5 -25t124.5 -71t78.5 -113t27.5 -151q0 -85 -27.5 -152t-78.5 -113.5t-124.5 -71t-165.5 -24.5zM493 61q98 0 168.5 34t108.5 99t38 159t-37 159t-108.5 98.5
t-169.5 33.5q-100 0 -170 -34t-108.5 -98.5t-38.5 -159.5q0 -94 38 -158.5t109 -98.5t170 -34zM347 760l-60 7q7 87 59.5 132.5t145.5 45.5q94 0 147 -46.5t59 -131.5l-59 -7q-5 60 -39.5 93t-107.5 33q-69 0 -105 -32t-40 -94z" />
    <glyph glyph-name="Omacron" unicode="&#x14c;" horiz-adv-x="985" 
d="M493 -8q-93 0 -166 24.5t-124.5 71t-79 113t-27.5 150.5q0 85 27.5 151.5t79 114t125 72t165.5 24.5t165.5 -25t124.5 -71t78.5 -113t27.5 -151q0 -85 -27.5 -152t-78.5 -113.5t-124.5 -71t-165.5 -24.5zM493 61q98 0 168.5 34t108.5 99t38 159t-37 159t-108.5 98.5
t-169.5 33.5q-100 0 -170 -34t-108.5 -98.5t-38.5 -159.5q0 -94 38 -158.5t109 -98.5t170 -34zM293 814v61h400v-61h-400z" />
    <glyph glyph-name="uni1E52" unicode="&#x1e52;" horiz-adv-x="985" 
d="M493 -8q-93 0 -166 24.5t-124.5 71t-79 113t-27.5 150.5q0 85 27.5 151.5t79 114t125 72t165.5 24.5t165.5 -25t124.5 -71t78.5 -113t27.5 -151q0 -85 -27.5 -152t-78.5 -113.5t-124.5 -71t-165.5 -24.5zM493 61q98 0 168.5 34t108.5 99t38 159t-37 159t-108.5 98.5
t-169.5 33.5q-100 0 -170 -34t-108.5 -98.5t-38.5 -159.5q0 -94 38 -158.5t109 -98.5t170 -34zM308 793v59h370v-59h-370zM459 887l114 145h97l-148 -145h-63z" />
    <glyph glyph-name="uni1E50" unicode="&#x1e50;" horiz-adv-x="985" 
d="M493 -8q-93 0 -166 24.5t-124.5 71t-79 113t-27.5 150.5q0 85 27.5 151.5t79 114t125 72t165.5 24.5t165.5 -25t124.5 -71t78.5 -113t27.5 -151q0 -85 -27.5 -152t-78.5 -113.5t-124.5 -71t-165.5 -24.5zM493 61q98 0 168.5 34t108.5 99t38 159t-37 159t-108.5 98.5
t-169.5 33.5q-100 0 -170 -34t-108.5 -98.5t-38.5 -159.5q0 -94 38 -158.5t109 -98.5t170 -34zM464 887l-148 145h97l114 -145h-63zM308 793v59h370v-59h-370z" />
    <glyph glyph-name="uni01EA" unicode="&#x1ea;" horiz-adv-x="985" 
d="M493 -8q-93 0 -166 24.5t-124.5 71t-79 113t-27.5 150.5q0 85 27.5 151.5t79 114t125 72t165.5 24.5t165.5 -25t124.5 -71t78.5 -113t27.5 -151q0 -85 -27.5 -152t-78.5 -113.5t-124.5 -71t-165.5 -24.5zM493 61q98 0 168.5 34t108.5 99t38 159t-37 159t-108.5 98.5
t-169.5 33.5q-100 0 -170 -34t-108.5 -98.5t-38.5 -159.5q0 -94 38 -158.5t109 -98.5t170 -34zM551 -194q-61 0 -95.5 25.5t-34.5 69.5q0 41 32 73.5t94 53.5l26 -28q-28 -10 -48 -24.5t-30.5 -31t-10.5 -34.5q0 -24 19 -37.5t53 -13.5q16 0 33 3.5t34 10.5l19 -49
q-17 -8 -40.5 -13t-50.5 -5z" />
    <glyph glyph-name="Oslash" unicode="&#xd8;" horiz-adv-x="985" 
d="M493 -8q-93 0 -166 24.5t-124.5 71t-79 113t-27.5 150.5q0 85 27.5 151.5t79 114t125 72t165.5 24.5t165.5 -25t124.5 -71t78.5 -113t27.5 -151q0 -85 -27.5 -152t-78.5 -113.5t-124.5 -71t-165.5 -24.5zM493 61q98 0 168.5 34t108.5 99t38 159t-37 159t-108.5 98.5
t-169.5 33.5q-100 0 -170 -34t-108.5 -98.5t-38.5 -159.5q0 -94 38 -158.5t109 -98.5t170 -34zM244 -42l-54 40l67 91l30 35l382 502l20 34l70 95l55 -40l-69 -91l-29 -35l-382 -502l-19 -34z" />
    <glyph glyph-name="Oslashacute" unicode="&#x1fe;" horiz-adv-x="985" 
d="M493 -8q-93 0 -166 24.5t-124.5 71t-79 113t-27.5 150.5q0 85 27.5 151.5t79 114t125 72t165.5 24.5t165.5 -25t124.5 -71t78.5 -113t27.5 -151q0 -85 -27.5 -152t-78.5 -113.5t-124.5 -71t-165.5 -24.5zM493 61q98 0 168.5 34t108.5 99t38 159t-37 159t-108.5 98.5
t-169.5 33.5q-100 0 -170 -34t-108.5 -98.5t-38.5 -159.5q0 -94 38 -158.5t109 -98.5t170 -34zM244 -42l-54 40l67 91l30 35l382 502l20 34l70 95l55 -40l-69 -91l-29 -35l-382 -502l-19 -34zM459 765l147 179h99l-178 -179h-68z" />
    <glyph glyph-name="Otilde" unicode="&#xd5;" horiz-adv-x="985" 
d="M493 -8q-93 0 -166 24.5t-124.5 71t-79 113t-27.5 150.5q0 85 27.5 151.5t79 114t125 72t165.5 24.5t165.5 -25t124.5 -71t78.5 -113t27.5 -151q0 -85 -27.5 -152t-78.5 -113.5t-124.5 -71t-165.5 -24.5zM493 61q98 0 168.5 34t108.5 99t38 159t-37 159t-108.5 98.5
t-169.5 33.5q-100 0 -170 -34t-108.5 -98.5t-38.5 -159.5q0 -94 38 -158.5t109 -98.5t170 -34zM298 783l-59 3q6 63 44.5 102t94.5 39q40 0 74.5 -18t55.5 -29q17 -8 44.5 -22t53.5 -14q32 0 54 22.5t29 62.5l59 -2q-6 -64 -44 -102.5t-95 -38.5q-41 0 -75 18t-54 27
q-19 10 -46.5 24t-53.5 14q-32 0 -53 -23t-29 -63z" />
    <glyph glyph-name="uni1E4C" unicode="&#x1e4c;" horiz-adv-x="985" 
d="M493 -8q-93 0 -166 24.5t-124.5 71t-79 113t-27.5 150.5q0 85 27.5 151.5t79 114t125 72t165.5 24.5t165.5 -25t124.5 -71t78.5 -113t27.5 -151q0 -85 -27.5 -152t-78.5 -113.5t-124.5 -71t-165.5 -24.5zM493 61q98 0 168.5 34t108.5 99t38 159t-37 159t-108.5 98.5
t-169.5 33.5q-100 0 -170 -34t-108.5 -98.5t-38.5 -159.5q0 -94 38 -158.5t109 -98.5t170 -34zM461 885l114 145h97l-147 -145h-64zM574 768q-32 0 -54 11t-36 16q-11 5 -29 15t-45 10q-23 0 -37.5 -12.5t-21.5 -41.5l-53 3q5 34 19.5 56.5t38 34.5t54.5 12q35 0 58.5 -12
t37.5 -18q10 -4 27.5 -13t41.5 -9t38.5 13t20.5 41l53 -3q-7 -51 -35.5 -77t-77.5 -26z" />
    <glyph glyph-name="uni1E4E" unicode="&#x1e4e;" horiz-adv-x="985" 
d="M493 -8q-93 0 -166 24.5t-124.5 71t-79 113t-27.5 150.5q0 85 27.5 151.5t79 114t125 72t165.5 24.5t165.5 -25t124.5 -71t78.5 -113t27.5 -151q0 -85 -27.5 -152t-78.5 -113.5t-124.5 -71t-165.5 -24.5zM493 61q98 0 168.5 34t108.5 99t38 159t-37 159t-108.5 98.5
t-169.5 33.5q-100 0 -170 -34t-108.5 -98.5t-38.5 -159.5q0 -94 38 -158.5t109 -98.5t170 -34zM575 768q-32 0 -54 11t-36 16q-11 5 -29 15t-45 10q-24 0 -38 -12.5t-21 -41.5l-53 3q5 34 19 56.5t38 34.5t55 12q35 0 58.5 -12t37.5 -18q10 -4 27.5 -13t41.5 -9t38.5 13
t20.5 41l53 -3q-7 -51 -35.5 -77t-77.5 -26zM331 916v76h94v-76h-94zM561 916v76h94v-76h-94z" />
    <glyph glyph-name="uni022C" unicode="&#x22c;" horiz-adv-x="985" 
d="M493 -8q-93 0 -166 24.5t-124.5 71t-79 113t-27.5 150.5q0 85 27.5 151.5t79 114t125 72t165.5 24.5t165.5 -25t124.5 -71t78.5 -113t27.5 -151q0 -85 -27.5 -152t-78.5 -113.5t-124.5 -71t-165.5 -24.5zM493 61q98 0 168.5 34t108.5 99t38 159t-37 159t-108.5 98.5
t-169.5 33.5q-100 0 -170 -34t-108.5 -98.5t-38.5 -159.5q0 -94 38 -158.5t109 -98.5t170 -34zM300 929v57h384v-57h-384zM574 768q-32 0 -54 11t-36 16q-11 5 -29 15t-45 10q-23 0 -37.5 -12.5t-21.5 -41.5l-53 3q5 34 19.5 56.5t38 34.5t54.5 12q35 0 58.5 -12t37.5 -18
q10 -4 27.5 -13t41.5 -9t38.5 13t20.5 41l53 -3q-7 -51 -35.5 -77t-77.5 -26z" />
    <glyph glyph-name="OE" unicode="&#x152;" horiz-adv-x="1377" 
d="M531 0q-105 0 -186 22.5t-136.5 68t-84 110.5t-28.5 151q0 85 29 150.5t84.5 111t136.5 68.5t186 23h755v-68h-478v-245h452v-68h-452v-256h478v-68h-756zM535 68h197v569h-197q-174 0 -266.5 -68t-92.5 -217q0 -150 92.5 -217t266.5 -67z" />
    <glyph glyph-name="P" unicode="P" horiz-adv-x="838" 
d="M135 0v705h353q92 0 154.5 -24t94.5 -70.5t32 -115.5q0 -68 -32.5 -115.5t-95 -72t-153.5 -24.5h-276v-283h-77zM212 350h269q106 0 157 33.5t51 111.5t-50 110.5t-158 32.5h-269v-288z" />
    <glyph glyph-name="Thorn" unicode="&#xde;" horiz-adv-x="825" 
d="M135 0v705h77v-131h276q91 0 153.5 -23t94.5 -69t32 -115q0 -68 -32.5 -115t-94.5 -71t-153 -24h-276v-157h-77zM212 225h268q107 0 158 32t51 110q0 77 -50.5 108.5t-158.5 31.5h-268v-282z" />
    <glyph glyph-name="Q" unicode="Q" horiz-adv-x="985" 
d="M762 -203l-90 123q-26 36 -69 54t-102 18l60 25q49 0 81.5 -7t56 -24t46.5 -46l79 -104zM493 -8q-92 0 -166 24.5t-125 71t-78.5 113t-27.5 150.5q0 85 27.5 151.5t79 114t125 72t165.5 24.5t165.5 -25t124.5 -71t78.5 -112.5t27.5 -152.5q0 -84 -27.5 -150.5
t-78.5 -113.5t-124.5 -71.5t-165.5 -24.5zM493 61q98 0 168.5 34t108.5 99t38 159t-37 159t-108.5 98.5t-169.5 33.5q-99 0 -169.5 -34t-109 -98.5t-38.5 -159.5q0 -94 38 -158.5t109 -98.5t170 -34z" />
    <glyph glyph-name="R" unicode="R" horiz-adv-x="878" 
d="M135 0v705h354q135 0 206.5 -48.5t71.5 -146.5q0 -58 -27 -100t-77 -67t-123 -33l5 -1l9 -2q31 -6 56.5 -22.5t49.5 -48.5l159 -236h-88l-148 221q-20 30 -40 46.5t-49.5 22.5t-76.5 6h-205v-296h-77zM212 362h278q106 0 152 34.5t46 107.5t-48.5 103.5t-155.5 30.5h-272
v-276z" />
    <glyph glyph-name="Racute" unicode="&#x154;" horiz-adv-x="878" 
d="M135 0v705h354q135 0 206.5 -48.5t71.5 -146.5q0 -58 -27 -100t-77 -67t-123 -33l5 -1l9 -2q31 -6 56.5 -22.5t49.5 -48.5l159 -236h-88l-148 221q-20 30 -40 46.5t-49.5 22.5t-76.5 6h-205v-296h-77zM212 362h278q106 0 152 34.5t46 107.5t-48.5 103.5t-155.5 30.5h-272
v-276zM400 765l147 179h99l-178 -179h-68z" />
    <glyph glyph-name="Rcaron" unicode="&#x158;" horiz-adv-x="878" 
d="M135 0v705h354q135 0 206.5 -48.5t71.5 -146.5q0 -58 -27 -100t-77 -67t-123 -33l5 -1l9 -2q31 -6 56.5 -22.5t49.5 -48.5l159 -236h-88l-148 221q-20 30 -40 46.5t-49.5 22.5t-76.5 6h-205v-296h-77zM212 362h278q106 0 152 34.5t46 107.5t-48.5 103.5t-155.5 30.5h-272
v-276zM394 765l-153 179h62l131 -127l132 127h61l-153 -179h-80z" />
    <glyph glyph-name="uni0156" unicode="&#x156;" horiz-adv-x="878" 
d="M135 0v705h354q135 0 206.5 -48.5t71.5 -146.5q0 -58 -27 -100t-77 -67t-123 -33l5 -1l9 -2q31 -6 56.5 -22.5t49.5 -48.5l159 -236h-88l-148 221q-20 30 -40 46.5t-49.5 22.5t-76.5 6h-205v-296h-77zM212 362h278q106 0 152 34.5t46 107.5t-48.5 103.5t-155.5 30.5h-272
v-276zM425 -292l-36 30q23 20 32 44t9 53l13 -11h-56v95h96v-70q0 -46 -13.5 -79.5t-44.5 -61.5z" />
    <glyph glyph-name="uni0210" unicode="&#x210;" horiz-adv-x="878" 
d="M135 0v705h354q135 0 206.5 -48.5t71.5 -146.5q0 -58 -27 -100t-77 -67t-123 -33l5 -1l9 -2q31 -6 56.5 -22.5t49.5 -48.5l159 -236h-88l-148 221q-20 30 -40 46.5t-49.5 22.5t-76.5 6h-205v-296h-77zM212 362h278q106 0 152 34.5t46 107.5t-48.5 103.5t-155.5 30.5h-272
v-276zM483 765l-145 179h90l106 -179h-51zM332 765l-148 179h89l110 -179h-51z" />
    <glyph glyph-name="uni1E5A" unicode="&#x1e5a;" horiz-adv-x="878" 
d="M135 0v705h354q135 0 206.5 -48.5t71.5 -146.5q0 -58 -27 -100t-77 -67t-123 -33l5 -1l9 -2q31 -6 56.5 -22.5t49.5 -48.5l159 -236h-88l-148 221q-20 30 -40 46.5t-49.5 22.5t-76.5 6h-205v-296h-77zM212 362h278q106 0 152 34.5t46 107.5t-48.5 103.5t-155.5 30.5h-272
v-276zM387 -189v90h94v-90h-94z" />
    <glyph glyph-name="uni0212" unicode="&#x212;" horiz-adv-x="878" 
d="M135 0v705h354q135 0 206.5 -48.5t71.5 -146.5q0 -58 -27 -100t-77 -67t-123 -33l5 -1l9 -2q31 -6 56.5 -22.5t49.5 -48.5l159 -236h-88l-148 221q-20 30 -40 46.5t-49.5 22.5t-76.5 6h-205v-296h-77zM212 362h278q106 0 152 34.5t46 107.5t-48.5 103.5t-155.5 30.5h-272
v-276zM288 760l-60 7q7 87 59.5 132.5t145.5 45.5q94 0 147 -46.5t59 -131.5l-59 -7q-5 60 -39.5 93t-107.5 33q-69 0 -105 -32t-40 -94z" />
    <glyph glyph-name="uni1E5E" unicode="&#x1e5e;" horiz-adv-x="878" 
d="M135 0v705h354q135 0 206.5 -48.5t71.5 -146.5q0 -58 -27 -100t-77 -67t-123 -33l5 -1l9 -2q31 -6 56.5 -22.5t49.5 -48.5l159 -236h-88l-148 221q-20 30 -40 46.5t-49.5 22.5t-76.5 6h-205v-296h-77zM212 362h278q106 0 152 34.5t46 107.5t-48.5 103.5t-155.5 30.5h-272
v-276zM242 -161v61h384v-61h-384z" />
    <glyph glyph-name="S" unicode="S" horiz-adv-x="798" 
d="M415 -8q-69 0 -132.5 9t-116.5 29.5t-93 51.5l35 63q46 -33 94.5 -51.5t101.5 -25.5t112 -7q108 0 171.5 32t63.5 96q0 42 -21.5 65t-60.5 34t-94 19l-166 23q-117 16 -166 62.5t-49 121.5q0 62 40 106.5t112 68.5t169 24q63 0 117.5 -10.5t99.5 -31.5t81 -53l-36 -63
q-55 49 -118 69t-145 20q-72 0 -127 -14.5t-85.5 -42.5t-30.5 -71q0 -52 36 -78.5t120 -38.5l162 -22q121 -16 180 -59.5t59 -124.5q0 -62 -38 -107t-108 -69.5t-167 -24.5z" />
    <glyph glyph-name="Sacute" unicode="&#x15a;" horiz-adv-x="798" 
d="M415 -8q-69 0 -132.5 9t-116.5 29.5t-93 51.5l35 63q46 -33 94.5 -51.5t101.5 -25.5t112 -7q108 0 171.5 32t63.5 96q0 42 -21.5 65t-60.5 34t-94 19l-166 23q-117 16 -166 62.5t-49 121.5q0 62 40 106.5t112 68.5t169 24q63 0 117.5 -10.5t99.5 -31.5t81 -53l-36 -63
q-55 49 -118 69t-145 20q-72 0 -127 -14.5t-85.5 -42.5t-30.5 -71q0 -52 36 -78.5t120 -38.5l162 -22q121 -16 180 -59.5t59 -124.5q0 -62 -38 -107t-108 -69.5t-167 -24.5zM381 765l147 179h99l-178 -179h-68z" />
    <glyph glyph-name="uni1E64" unicode="&#x1e64;" horiz-adv-x="798" 
d="M415 -8q-69 0 -132.5 9t-116.5 29.5t-93 51.5l35 63q46 -33 94.5 -51.5t101.5 -25.5t112 -7q108 0 171.5 32t63.5 96q0 42 -21.5 65t-60.5 34t-94 19l-166 23q-117 16 -166 62.5t-49 121.5q0 62 40 106.5t112 68.5t169 24q63 0 117.5 -10.5t99.5 -31.5t81 -53l-36 -63
q-55 49 -118 69t-145 20q-72 0 -127 -14.5t-85.5 -42.5t-30.5 -71q0 -52 36 -78.5t120 -38.5l162 -22q121 -16 180 -59.5t59 -124.5q0 -62 -38 -107t-108 -69.5t-167 -24.5zM315 952v85h97v-85h-97zM383 765l120 196h95l-151 -196h-64z" />
    <glyph glyph-name="Scaron" unicode="&#x160;" horiz-adv-x="798" 
d="M415 -8q-69 0 -132.5 9t-116.5 29.5t-93 51.5l35 63q46 -33 94.5 -51.5t101.5 -25.5t112 -7q108 0 171.5 32t63.5 96q0 42 -21.5 65t-60.5 34t-94 19l-166 23q-117 16 -166 62.5t-49 121.5q0 62 40 106.5t112 68.5t169 24q63 0 117.5 -10.5t99.5 -31.5t81 -53l-36 -63
q-55 49 -118 69t-145 20q-72 0 -127 -14.5t-85.5 -42.5t-30.5 -71q0 -52 36 -78.5t120 -38.5l162 -22q121 -16 180 -59.5t59 -124.5q0 -62 -38 -107t-108 -69.5t-167 -24.5zM375 765l-153 179h62l131 -127l132 127h61l-153 -179h-80z" />
    <glyph glyph-name="uni1E66" unicode="&#x1e66;" horiz-adv-x="798" 
d="M415 -8q-69 0 -132.5 9t-116.5 29.5t-93 51.5l35 63q46 -33 94.5 -51.5t101.5 -25.5t112 -7q108 0 171.5 32t63.5 96q0 42 -21.5 65t-60.5 34t-94 19l-166 23q-117 16 -166 62.5t-49 121.5q0 62 40 106.5t112 68.5t169 24q63 0 117.5 -10.5t99.5 -31.5t81 -53l-36 -63
q-55 49 -118 69t-145 20q-72 0 -127 -14.5t-85.5 -42.5t-30.5 -71q0 -52 36 -78.5t120 -38.5l162 -22q121 -16 180 -59.5t59 -124.5q0 -62 -38 -107t-108 -69.5t-167 -24.5zM375 770l-141 159h62l119 -108l120 108h61l-142 -159h-79zM365 966v84h101v-84h-101z" />
    <glyph glyph-name="Scedilla" unicode="&#x15e;" horiz-adv-x="798" 
d="M415 -8q-69 0 -132.5 9t-116.5 29.5t-93 51.5l35 63q46 -33 94.5 -51.5t101.5 -25.5t112 -7q108 0 171.5 32t63.5 96q0 42 -21.5 65t-60.5 34t-94 19l-166 23q-117 16 -166 62.5t-49 121.5q0 62 40 106.5t112 68.5t169 24q63 0 117.5 -10.5t99.5 -31.5t81 -53l-36 -63
q-55 49 -118 69t-145 20q-72 0 -127 -14.5t-85.5 -42.5t-30.5 -71q0 -52 36 -78.5t120 -38.5l162 -22q121 -16 180 -59.5t59 -124.5q0 -62 -38 -107t-108 -69.5t-167 -24.5zM413 -193q-29 0 -58 5t-47 15l15 44q25 -9 45 -13.5t46 -4.5q42 0 61.5 9t19.5 28q0 15 -13 22
t-38 7q-14 0 -31.5 -2t-33.5 -7l-18 16l15 94h53l-12 -77l-25 7q20 5 36 7t29 2q31 0 53.5 -8t34.5 -23.5t12 -38.5q0 -27 -17 -45t-49.5 -27.5t-77.5 -9.5z" />
    <glyph glyph-name="Scircumflex" unicode="&#x15c;" horiz-adv-x="798" 
d="M415 -8q-69 0 -132.5 9t-116.5 29.5t-93 51.5l35 63q46 -33 94.5 -51.5t101.5 -25.5t112 -7q108 0 171.5 32t63.5 96q0 42 -21.5 65t-60.5 34t-94 19l-166 23q-117 16 -166 62.5t-49 121.5q0 62 40 106.5t112 68.5t169 24q63 0 117.5 -10.5t99.5 -31.5t81 -53l-36 -63
q-55 49 -118 69t-145 20q-72 0 -127 -14.5t-85.5 -42.5t-30.5 -71q0 -52 36 -78.5t120 -38.5l162 -22q121 -16 180 -59.5t59 -124.5q0 -62 -38 -107t-108 -69.5t-167 -24.5zM222 765l153 179h80l153 -179h-62l-131 127l-132 -127h-61z" />
    <glyph glyph-name="uni0218" unicode="&#x218;" horiz-adv-x="798" 
d="M415 -8q-69 0 -132.5 9t-116.5 29.5t-93 51.5l35 63q46 -33 94.5 -51.5t101.5 -25.5t112 -7q108 0 171.5 32t63.5 96q0 42 -21.5 65t-60.5 34t-94 19l-166 23q-117 16 -166 62.5t-49 121.5q0 62 40 106.5t112 68.5t169 24q63 0 117.5 -10.5t99.5 -31.5t81 -53l-36 -63
q-55 49 -118 69t-145 20q-72 0 -127 -14.5t-85.5 -42.5t-30.5 -71q0 -52 36 -78.5t120 -38.5l162 -22q121 -16 180 -59.5t59 -124.5q0 -62 -38 -107t-108 -69.5t-167 -24.5zM393 -292l-36 30q23 20 32 44t9 53l13 -11h-56v95h96v-70q0 -46 -13.5 -79.5t-44.5 -61.5z" />
    <glyph glyph-name="uni1E60" unicode="&#x1e60;" horiz-adv-x="798" 
d="M415 -8q-69 0 -132.5 9t-116.5 29.5t-93 51.5l35 63q46 -33 94.5 -51.5t101.5 -25.5t112 -7q108 0 171.5 32t63.5 96q0 42 -21.5 65t-60.5 34t-94 19l-166 23q-117 16 -166 62.5t-49 121.5q0 62 40 106.5t112 68.5t169 24q63 0 117.5 -10.5t99.5 -31.5t81 -53l-36 -63
q-55 49 -118 69t-145 20q-72 0 -127 -14.5t-85.5 -42.5t-30.5 -71q0 -52 36 -78.5t120 -38.5l162 -22q121 -16 180 -59.5t59 -124.5q0 -62 -38 -107t-108 -69.5t-167 -24.5zM364 805v95h101v-95h-101z" />
    <glyph glyph-name="uni1E62" unicode="&#x1e62;" horiz-adv-x="798" 
d="M415 -8q-69 0 -132.5 9t-116.5 29.5t-93 51.5l35 63q46 -33 94.5 -51.5t101.5 -25.5t112 -7q108 0 171.5 32t63.5 96q0 42 -21.5 65t-60.5 34t-94 19l-166 23q-117 16 -166 62.5t-49 121.5q0 62 40 106.5t112 68.5t169 24q63 0 117.5 -10.5t99.5 -31.5t81 -53l-36 -63
q-55 49 -118 69t-145 20q-72 0 -127 -14.5t-85.5 -42.5t-30.5 -71q0 -52 36 -78.5t120 -38.5l162 -22q121 -16 180 -59.5t59 -124.5q0 -62 -38 -107t-108 -69.5t-167 -24.5zM355 -189v90h94v-90h-94z" />
    <glyph glyph-name="uni1E68" unicode="&#x1e68;" horiz-adv-x="798" 
d="M415 -8q-69 0 -132.5 9t-116.5 29.5t-93 51.5l35 63q46 -33 94.5 -51.5t101.5 -25.5t112 -7q108 0 171.5 32t63.5 96q0 42 -21.5 65t-60.5 34t-94 19l-166 23q-117 16 -166 62.5t-49 121.5q0 62 40 106.5t112 68.5t169 24q63 0 117.5 -10.5t99.5 -31.5t81 -53l-36 -63
q-55 49 -118 69t-145 20q-72 0 -127 -14.5t-85.5 -42.5t-30.5 -71q0 -52 36 -78.5t120 -38.5l162 -22q121 -16 180 -59.5t59 -124.5q0 -62 -38 -107t-108 -69.5t-167 -24.5zM355 -189v90h94v-90h-94zM364 805v95h101v-95h-101z" />
    <glyph glyph-name="uni1E9E" unicode="&#x1e9e;" horiz-adv-x="932" 
d="M548 -9q-73 0 -132.5 18t-109.5 54l32 62q53 -36 99 -50.5t108 -14.5q102 0 155.5 33.5t53.5 102.5t-55.5 98.5t-164.5 29.5h-171v66h136q61 0 106.5 14.5t70 43.5t24.5 74q0 63 -56 93t-167 30q-137 0 -202 -44.5t-65 -145.5v-455h-75v460q0 83 38.5 139.5t113.5 85.5
t186 29q99 0 167 -22t103 -64t35 -103q0 -41 -19.5 -73t-51 -54t-69.5 -33v-1q89 -11 141.5 -55t52.5 -119q0 -60 -32.5 -104.5t-95.5 -69.5t-156 -25z" />
    <glyph glyph-name="T" unicode="T" horiz-adv-x="778" 
d="M350 0v636h-327v69h732v-69h-328v-636h-77z" />
    <glyph glyph-name="Tbar" unicode="&#x166;" horiz-adv-x="778" 
d="M350 0v636h-327v69h732v-69h-328v-636h-77zM165 320v64h448v-64h-448z" />
    <glyph glyph-name="Tcaron" unicode="&#x164;" horiz-adv-x="778" 
d="M350 0v636h-327v69h732v-69h-328v-636h-77zM349 765l-153 179h62l131 -127l132 127h61l-153 -179h-80z" />
    <glyph glyph-name="uni0162" unicode="&#x162;" horiz-adv-x="778" 
d="M350 0v636h-327v69h732v-69h-328v-636h-77zM400 -193q-29 0 -58 5t-47 15l15 44q25 -9 45 -13.5t46 -4.5q42 0 61.5 9t19.5 28q0 15 -13 22t-38 7q-14 0 -31.5 -2t-33.5 -7l-18 16l15 94h53l-12 -77l-25 7q20 5 36 7t29 2q31 0 53.5 -8t34.5 -23.5t12 -38.5
q0 -27 -17 -45t-49.5 -27.5t-77.5 -9.5z" />
    <glyph glyph-name="uni021A" unicode="&#x21a;" horiz-adv-x="778" 
d="M350 0v636h-327v69h732v-69h-328v-636h-77zM380 -292l-36 30q23 20 32 44t9 53l13 -11h-56v95h96v-70q0 -46 -13.5 -79.5t-44.5 -61.5z" />
    <glyph glyph-name="uni1E6C" unicode="&#x1e6c;" horiz-adv-x="778" 
d="M350 0v636h-327v69h732v-69h-328v-636h-77zM342 -189v90h94v-90h-94z" />
    <glyph glyph-name="uni1E6E" unicode="&#x1e6e;" horiz-adv-x="778" 
d="M350 0v636h-327v69h732v-69h-328v-636h-77zM197 -161v61h384v-61h-384z" />
    <glyph glyph-name="U" unicode="U" horiz-adv-x="929" 
d="M465 -8q-171 0 -256.5 69t-85.5 207v437h77v-439q0 -105 66 -153.5t198 -48.5t197.5 48.5t65.5 153.5v439h78v-437q0 -138 -85.5 -207t-254.5 -69z" />
    <glyph glyph-name="Uacute" unicode="&#xda;" horiz-adv-x="929" 
d="M465 -8q-171 0 -256.5 69t-85.5 207v437h77v-439q0 -105 66 -153.5t198 -48.5t197.5 48.5t65.5 153.5v439h78v-437q0 -138 -85.5 -207t-254.5 -69zM430 765l147 179h99l-178 -179h-68z" />
    <glyph glyph-name="Ubreve" unicode="&#x16c;" horiz-adv-x="929" 
d="M465 -8q-171 0 -256.5 69t-85.5 207v437h77v-439q0 -105 66 -153.5t198 -48.5t197.5 48.5t65.5 153.5v439h78v-437q0 -138 -85.5 -207t-254.5 -69zM463 760q-93 0 -145.5 45.5t-59.5 132.5l59 7q4 -61 40 -94t106 -33q73 0 107.5 34t39.5 93l59 -7q-7 -87 -60.5 -132.5
t-145.5 -45.5z" />
    <glyph glyph-name="Ucircumflex" unicode="&#xdb;" horiz-adv-x="929" 
d="M465 -8q-171 0 -256.5 69t-85.5 207v437h77v-439q0 -105 66 -153.5t198 -48.5t197.5 48.5t65.5 153.5v439h78v-437q0 -138 -85.5 -207t-254.5 -69zM271 765l153 179h80l153 -179h-62l-131 127l-132 -127h-61z" />
    <glyph glyph-name="uni0214" unicode="&#x214;" horiz-adv-x="929" 
d="M465 -8q-171 0 -256.5 69t-85.5 207v437h77v-439q0 -105 66 -153.5t198 -48.5t197.5 48.5t65.5 153.5v439h78v-437q0 -138 -85.5 -207t-254.5 -69zM513 765l-145 179h90l106 -179h-51zM362 765l-148 179h89l110 -179h-51z" />
    <glyph glyph-name="Udieresis" unicode="&#xdc;" horiz-adv-x="929" 
d="M465 -8q-171 0 -256.5 69t-85.5 207v437h77v-439q0 -105 66 -153.5t198 -48.5t197.5 48.5t65.5 153.5v439h78v-437q0 -138 -85.5 -207t-254.5 -69zM534 808v87h93v-87h-93zM301 808v87h93v-87h-93z" />
    <glyph glyph-name="uni1EE4" unicode="&#x1ee4;" horiz-adv-x="929" 
d="M465 -8q-171 0 -256.5 69t-85.5 207v437h77v-439q0 -105 66 -153.5t198 -48.5t197.5 48.5t65.5 153.5v439h78v-437q0 -138 -85.5 -207t-254.5 -69zM417 -189v90h94v-90h-94z" />
    <glyph glyph-name="Ugrave" unicode="&#xd9;" horiz-adv-x="929" 
d="M465 -8q-171 0 -256.5 69t-85.5 207v437h77v-439q0 -105 66 -153.5t198 -48.5t197.5 48.5t65.5 153.5v439h78v-437q0 -138 -85.5 -207t-254.5 -69zM433 765l-178 179h96l147 -179h-65z" />
    <glyph glyph-name="uni1EE6" unicode="&#x1ee6;" horiz-adv-x="929" 
d="M465 -8q-171 0 -256.5 69t-85.5 207v437h77v-439q0 -105 66 -153.5t198 -48.5t197.5 48.5t65.5 153.5v439h78v-437q0 -138 -85.5 -207t-254.5 -69zM435 765v21q0 18 12.5 29.5t28.5 20t28 17.5t12 19q0 12 -13 17t-40 5q-24 0 -45.5 -3t-43.5 -10l-16 42q20 10 48 15
t62 5q57 0 87.5 -15.5t30.5 -44.5q0 -22 -14 -34.5t-32.5 -22.5t-32.5 -20.5t-14 -27.5v-13h-58z" />
    <glyph glyph-name="Uhorn" unicode="&#x1af;" horiz-adv-x="929" 
d="M465 -8q-171 0 -256.5 69t-85.5 207v437h77v-439q0 -105 66 -153.5t198 -48.5t197.5 48.5t65.5 153.5v439h78v-437q0 -138 -85.5 -207t-254.5 -69zM775 654l-42 30v21q52 1 83.5 11t44.5 35t13 67v17h78v-30q0 -45 -19.5 -79t-59 -52t-98.5 -20z" />
    <glyph glyph-name="uni1EE8" unicode="&#x1ee8;" horiz-adv-x="929" 
d="M465 -8q-171 0 -256.5 69t-85.5 207v437h77v-439q0 -105 66 -153.5t198 -48.5t197.5 48.5t65.5 153.5v439h78v-437q0 -138 -85.5 -207t-254.5 -69zM775 654l-42 30v21q52 1 83.5 11t44.5 35t13 67v17h78v-30q0 -45 -19.5 -79t-59 -52t-98.5 -20zM430 765l147 179h99
l-178 -179h-68z" />
    <glyph glyph-name="uni1EF0" unicode="&#x1ef0;" horiz-adv-x="929" 
d="M465 -8q-171 0 -256.5 69t-85.5 207v437h77v-439q0 -105 66 -153.5t198 -48.5t197.5 48.5t65.5 153.5v439h78v-437q0 -138 -85.5 -207t-254.5 -69zM775 654l-42 30v21q52 1 83.5 11t44.5 35t13 67v17h78v-30q0 -45 -19.5 -79t-59 -52t-98.5 -20zM417 -189v90h94v-90h-94z
" />
    <glyph glyph-name="uni1EEA" unicode="&#x1eea;" horiz-adv-x="929" 
d="M465 -8q-171 0 -256.5 69t-85.5 207v437h77v-439q0 -105 66 -153.5t198 -48.5t197.5 48.5t65.5 153.5v439h78v-437q0 -138 -85.5 -207t-254.5 -69zM775 654l-42 30v21q52 1 83.5 11t44.5 35t13 67v17h78v-30q0 -45 -19.5 -79t-59 -52t-98.5 -20zM433 765l-178 179h96
l147 -179h-65z" />
    <glyph glyph-name="uni1EEC" unicode="&#x1eec;" horiz-adv-x="929" 
d="M465 -8q-171 0 -256.5 69t-85.5 207v437h77v-439q0 -105 66 -153.5t198 -48.5t197.5 48.5t65.5 153.5v439h78v-437q0 -138 -85.5 -207t-254.5 -69zM775 654l-42 30v21q52 1 83.5 11t44.5 35t13 67v17h78v-30q0 -45 -19.5 -79t-59 -52t-98.5 -20zM435 765v21
q0 18 12.5 29.5t28.5 20t28 17.5t12 19q0 12 -13 17t-40 5q-24 0 -45.5 -3t-43.5 -10l-16 42q20 10 48 15t62 5q57 0 87.5 -15.5t30.5 -44.5q0 -22 -14 -34.5t-32.5 -22.5t-32.5 -20.5t-14 -27.5v-13h-58z" />
    <glyph glyph-name="uni1EEE" unicode="&#x1eee;" horiz-adv-x="929" 
d="M465 -8q-171 0 -256.5 69t-85.5 207v437h77v-439q0 -105 66 -153.5t198 -48.5t197.5 48.5t65.5 153.5v439h78v-437q0 -138 -85.5 -207t-254.5 -69zM775 654l-42 30v21q52 1 83.5 11t44.5 35t13 67v17h78v-30q0 -45 -19.5 -79t-59 -52t-98.5 -20zM285 784l-58 4
q4 40 21 71t45.5 48.5t65.5 17.5t66 -16.5t52 -29.5q19 -9 41.5 -22t45.5 -13q34 0 52 23t26 61l57 -3q-5 -41 -21.5 -72t-45 -48t-65.5 -17q-36 0 -65.5 16.5t-52.5 29.5q-18 9 -40.5 22t-47.5 13q-33 0 -51 -23t-25 -62z" />
    <glyph glyph-name="Uhungarumlaut" unicode="&#x170;" horiz-adv-x="929" 
d="M465 -8q-171 0 -256.5 69t-85.5 207v437h77v-439q0 -105 66 -153.5t198 -48.5t197.5 48.5t65.5 153.5v439h78v-437q0 -138 -85.5 -207t-254.5 -69zM363 765l106 179h90l-145 -179h-51zM513 765l112 179h88l-149 -179h-51z" />
    <glyph glyph-name="uni0216" unicode="&#x216;" horiz-adv-x="929" 
d="M465 -8q-171 0 -256.5 69t-85.5 207v437h77v-439q0 -105 66 -153.5t198 -48.5t197.5 48.5t65.5 153.5v439h78v-437q0 -138 -85.5 -207t-254.5 -69zM318 760l-60 7q7 87 59.5 132.5t145.5 45.5q94 0 147 -46.5t59 -131.5l-59 -7q-5 60 -39.5 93t-107.5 33q-69 0 -105 -32
t-40 -94z" />
    <glyph glyph-name="Umacron" unicode="&#x16a;" horiz-adv-x="929" 
d="M465 -8q-171 0 -256.5 69t-85.5 207v437h77v-439q0 -105 66 -153.5t198 -48.5t197.5 48.5t65.5 153.5v439h78v-437q0 -138 -85.5 -207t-254.5 -69zM264 814v61h400v-61h-400z" />
    <glyph glyph-name="uni1E7A" unicode="&#x1e7a;" horiz-adv-x="929" 
d="M465 -8q-171 0 -256.5 69t-85.5 207v437h77v-439q0 -105 66 -153.5t198 -48.5t197.5 48.5t65.5 153.5v439h78v-437q0 -138 -85.5 -207t-254.5 -69zM272 802v58h384v-58h-384zM302 914v76h96v-76h-96zM530 914v76h96v-76h-96z" />
    <glyph glyph-name="Uogonek" unicode="&#x172;" horiz-adv-x="929" 
d="M465 -8q-171 0 -256.5 69t-85.5 207v437h77v-439q0 -105 66 -153.5t198 -48.5t197.5 48.5t65.5 153.5v439h78v-437q0 -138 -85.5 -207t-254.5 -69zM513 -194q-61 0 -95.5 25.5t-34.5 69.5q0 41 32 73.5t94 53.5l26 -28q-28 -10 -48 -24.5t-30.5 -31t-10.5 -34.5
q0 -24 19 -37.5t53 -13.5q16 0 33 3.5t34 10.5l19 -49q-17 -8 -40.5 -13t-50.5 -5z" />
    <glyph glyph-name="Uring" unicode="&#x16e;" horiz-adv-x="929" 
d="M465 -8q-171 0 -256.5 69t-85.5 207v437h77v-439q0 -105 66 -153.5t198 -48.5t197.5 48.5t65.5 153.5v439h78v-437q0 -138 -85.5 -207t-254.5 -69zM463 758q-39 0 -68.5 16t-46.5 43t-17 62t17 62.5t47 43.5t68 16q39 0 68.5 -16t46.5 -43.5t17 -62.5t-17 -62t-47 -43
t-68 -16zM463 801q35 0 58 22t23 58q0 35 -23 56.5t-58 21.5t-58 -21.5t-23 -56.5q0 -36 23 -58t58 -22z" />
    <glyph glyph-name="Utilde" unicode="&#x168;" horiz-adv-x="929" 
d="M465 -8q-171 0 -256.5 69t-85.5 207v437h77v-439q0 -105 66 -153.5t198 -48.5t197.5 48.5t65.5 153.5v439h78v-437q0 -138 -85.5 -207t-254.5 -69zM269 783l-59 3q6 63 44.5 102t94.5 39q40 0 74.5 -18t55.5 -29q17 -8 44.5 -22t53.5 -14q32 0 54 22.5t29 62.5l59 -2
q-6 -64 -44 -102.5t-95 -38.5q-41 0 -75 18t-54 27q-19 10 -46.5 24t-53.5 14q-32 0 -53 -23t-29 -63z" />
    <glyph glyph-name="uni1E78" unicode="&#x1e78;" horiz-adv-x="929" 
d="M465 -8q-171 0 -256.5 69t-85.5 207v437h77v-439q0 -105 66 -153.5t198 -48.5t197.5 48.5t65.5 153.5v439h78v-437q0 -138 -85.5 -207t-254.5 -69zM432 885l114 145h97l-147 -145h-64zM545 768q-32 0 -54 11t-36 16q-11 5 -29 15t-45 10q-23 0 -37.5 -12.5t-21.5 -41.5
l-53 3q5 34 19.5 56.5t38 34.5t54.5 12q35 0 58.5 -12t37.5 -18q10 -4 27.5 -13t41.5 -9t38.5 13t20.5 41l53 -3q-7 -51 -35.5 -77t-77.5 -26z" />
    <glyph glyph-name="V" unicode="V" horiz-adv-x="840" 
d="M383 0l-377 705h87l327 -614v0l328 614h85l-376 -705h-74z" />
    <glyph glyph-name="W" unicode="W" horiz-adv-x="1365" 
d="M338 0l-279 705h84l242 -608h-6l268 608h70l269 -608h-3l242 608h81l-279 -705h-80l-265 599v0l-266 -599h-78z" />
    <glyph glyph-name="Wacute" unicode="&#x1e82;" horiz-adv-x="1365" 
d="M338 0l-279 705h84l242 -608h-6l268 608h70l269 -608h-3l242 608h81l-279 -705h-80l-265 599v0l-266 -599h-78zM648 765l147 179h99l-178 -179h-68z" />
    <glyph glyph-name="Wcircumflex" unicode="&#x174;" horiz-adv-x="1365" 
d="M338 0l-279 705h84l242 -608h-6l268 608h70l269 -608h-3l242 608h81l-279 -705h-80l-265 599v0l-266 -599h-78zM489 765l153 179h80l153 -179h-62l-131 127l-132 -127h-61z" />
    <glyph glyph-name="Wdieresis" unicode="&#x1e84;" horiz-adv-x="1365" 
d="M338 0l-279 705h84l242 -608h-6l268 608h70l269 -608h-3l242 608h81l-279 -705h-80l-265 599v0l-266 -599h-78zM752 808v87h93v-87h-93zM519 808v87h93v-87h-93z" />
    <glyph glyph-name="Wgrave" unicode="&#x1e80;" horiz-adv-x="1365" 
d="M338 0l-279 705h84l242 -608h-6l268 608h70l269 -608h-3l242 608h81l-279 -705h-80l-265 599v0l-266 -599h-78zM651 765l-178 179h96l147 -179h-65z" />
    <glyph glyph-name="X" unicode="X" horiz-adv-x="820" 
d="M35 0l325 376l1 -27l-309 356h97l262 -299v0l261 299h95l-310 -355v26l327 -376h-96l-282 320h3l-280 -320h-94z" />
    <glyph glyph-name="Y" unicode="Y" horiz-adv-x="750" 
d="M336 0v358l15 -53l-345 400h93l279 -319h-2l281 319h87l-345 -400l14 53v-358h-77z" />
    <glyph glyph-name="Yacute" unicode="&#xdd;" horiz-adv-x="750" 
d="M336 0v358l15 -53l-345 400h93l279 -319h-2l281 319h87l-345 -400l14 53v-358h-77zM341 765l147 179h99l-178 -179h-68z" />
    <glyph glyph-name="Ycircumflex" unicode="&#x176;" horiz-adv-x="750" 
d="M336 0v358l15 -53l-345 400h93l279 -319h-2l281 319h87l-345 -400l14 53v-358h-77zM182 765l153 179h80l153 -179h-62l-131 127l-132 -127h-61z" />
    <glyph glyph-name="Ydieresis" unicode="&#x178;" horiz-adv-x="750" 
d="M336 0v358l15 -53l-345 400h93l279 -319h-2l281 319h87l-345 -400l14 53v-358h-77zM445 808v87h93v-87h-93zM212 808v87h93v-87h-93z" />
    <glyph glyph-name="uni1E8E" unicode="&#x1e8e;" horiz-adv-x="750" 
d="M336 0v358l15 -53l-345 400h93l279 -319h-2l281 319h87l-345 -400l14 53v-358h-77zM324 805v95h101v-95h-101z" />
    <glyph glyph-name="uni1EF4" unicode="&#x1ef4;" horiz-adv-x="750" 
d="M336 0v358l15 -53l-345 400h93l279 -319h-2l281 319h87l-345 -400l14 53v-358h-77zM327 -189v90h94v-90h-94z" />
    <glyph glyph-name="Ygrave" unicode="&#x1ef2;" horiz-adv-x="750" 
d="M336 0v358l15 -53l-345 400h93l279 -319h-2l281 319h87l-345 -400l14 53v-358h-77zM344 765l-178 179h96l147 -179h-65z" />
    <glyph glyph-name="uni01B3" unicode="&#x1b3;" horiz-adv-x="748" 
d="M336 0v358l15 -53l-345 400h93l279 -319h-3l225 253q35 42 73 58.5t85 16.5q16 0 29.5 -2t32.5 -8v-63q-17 5 -30 7t-27 2q-35 0 -59.5 -12t-47.5 -37l-257 -296l14 53v-358h-77z" />
    <glyph glyph-name="uni1EF6" unicode="&#x1ef6;" horiz-adv-x="750" 
d="M336 0v358l15 -53l-345 400h93l279 -319h-2l281 319h87l-345 -400l14 53v-358h-77zM346 765v21q0 18 12.5 29.5t28.5 20t28 17.5t12 19q0 12 -13 17t-40 5q-24 0 -45.5 -3t-43.5 -10l-16 42q20 10 48 15t62 5q57 0 87.5 -15.5t30.5 -44.5q0 -22 -14 -34.5t-32.5 -22.5
t-32.5 -20.5t-14 -27.5v-13h-58z" />
    <glyph glyph-name="uni0232" unicode="&#x232;" horiz-adv-x="750" 
d="M336 0v358l15 -53l-345 400h93l279 -319h-2l281 319h87l-345 -400l14 53v-358h-77zM175 814v61h400v-61h-400z" />
    <glyph glyph-name="uni1EF8" unicode="&#x1ef8;" horiz-adv-x="750" 
d="M336 0v358l15 -53l-345 400h93l279 -319h-2l281 319h87l-345 -400l14 53v-358h-77zM180 783l-59 3q6 63 44.5 102t94.5 39q40 0 74.5 -18t55.5 -29q17 -8 44.5 -22t53.5 -14q32 0 54 22.5t29 62.5l59 -2q-6 -64 -44 -102.5t-95 -38.5q-41 0 -75 18t-54 27
q-19 10 -46.5 24t-53.5 14q-32 0 -53 -23t-29 -63z" />
    <glyph glyph-name="Z" unicode="Z" horiz-adv-x="737" 
d="M60 0v50l543 624l10 -37h-553v68h620v-50l-542 -624l-10 37h565v-68h-633z" />
    <glyph glyph-name="Zacute" unicode="&#x179;" horiz-adv-x="737" 
d="M60 0v50l543 624l10 -37h-553v68h620v-50l-542 -624l-10 37h565v-68h-633zM340 765l147 179h99l-178 -179h-68z" />
    <glyph glyph-name="Zcaron" unicode="&#x17d;" horiz-adv-x="737" 
d="M60 0v50l543 624l10 -37h-553v68h620v-50l-542 -624l-10 37h565v-68h-633zM334 765l-153 179h62l131 -127l132 127h61l-153 -179h-80z" />
    <glyph glyph-name="Zdotaccent" unicode="&#x17b;" horiz-adv-x="737" 
d="M60 0v50l543 624l10 -37h-553v68h620v-50l-542 -624l-10 37h565v-68h-633zM323 805v95h101v-95h-101z" />
    <glyph glyph-name="uni1E92" unicode="&#x1e92;" horiz-adv-x="737" 
d="M60 0v50l543 624l10 -37h-553v68h620v-50l-542 -624l-10 37h565v-68h-633zM333 -189v90h94v-90h-94z" />
    <glyph glyph-name="Iacute_J.loclNLD" horiz-adv-x="806" 
d="M135 0v705h77v-705h-77zM139 765l147 179h99l-178 -179h-68zM353 -7l-5 69l90 4q46 2 81 19t55 46.5t20 69.5v504h77v-508q0 -56 -28.5 -100t-79.5 -70t-118 -30zM599 765l147 179h99l-178 -179h-68z" />
    <glyph glyph-name="I_J.loclNLD" horiz-adv-x="806" 
d="M135 0v705h77v-705h-77zM353 -7l-5 69l90 4q46 2 81 19t55 46.5t20 69.5v504h77v-508q0 -56 -28.5 -100t-79.5 -70t-118 -30z" />
    <glyph glyph-name="a" unicode="a" horiz-adv-x="733" 
d="M310 -8q-64 0 -113 19t-77 53t-28 78q0 50 34 82t103 47.5t176 15.5h152v-57h-147q-68 0 -114.5 -5.5t-74.5 -15.5t-40 -26.5t-12 -39.5q0 -44 42.5 -66.5t107.5 -22.5q58 0 109 20.5t82 56t31 76.5v118q0 57 -47.5 85t-133.5 28q-58 0 -113.5 -14t-101.5 -43l-27 60
q33 20 73.5 33.5t85 21t89.5 7.5q74 0 130 -20t88 -60.5t32 -103.5v-319h-69v110v1q-20 -29 -52.5 -57t-78.5 -45t-106 -17z" />
    <glyph glyph-name="aacute" unicode="&#xe1;" horiz-adv-x="733" 
d="M310 -8q-64 0 -113 19t-77 53t-28 78q0 50 34 82t103 47.5t176 15.5h152v-57h-147q-68 0 -114.5 -5.5t-74.5 -15.5t-40 -26.5t-12 -39.5q0 -44 42.5 -66.5t107.5 -22.5q58 0 109 20.5t82 56t31 76.5v118q0 57 -47.5 85t-133.5 28q-58 0 -113.5 -14t-101.5 -43l-27 60
q33 20 73.5 33.5t85 21t89.5 7.5q74 0 130 -20t88 -60.5t32 -103.5v-319h-69v110v1q-20 -29 -52.5 -57t-78.5 -45t-106 -17zM338 559l130 202h91l-159 -202h-62z" />
    <glyph glyph-name="abreve" unicode="&#x103;" horiz-adv-x="733" 
d="M310 -8q-64 0 -113 19t-77 53t-28 78q0 50 34 82t103 47.5t176 15.5h152v-57h-147q-68 0 -114.5 -5.5t-74.5 -15.5t-40 -26.5t-12 -39.5q0 -44 42.5 -66.5t107.5 -22.5q58 0 109 20.5t82 56t31 76.5v118q0 57 -47.5 85t-133.5 28q-58 0 -113.5 -14t-101.5 -43l-27 60
q33 20 73.5 33.5t85 21t89.5 7.5q74 0 130 -20t88 -60.5t32 -103.5v-319h-69v110v1q-20 -29 -52.5 -57t-78.5 -45t-106 -17zM370 556q-58 0 -98 22.5t-62.5 67t-28.5 109.5l59 7q7 -77 37 -112.5t93 -35.5q62 0 93 35.5t38 112.5l58 -7q-5 -65 -28 -109.5t-63.5 -67
t-97.5 -22.5z" />
    <glyph glyph-name="uni1EAF" unicode="&#x1eaf;" horiz-adv-x="733" 
d="M310 -8q-64 0 -113 19t-77 53t-28 78q0 50 34 82t103 47.5t176 15.5h152v-57h-147q-68 0 -114.5 -5.5t-74.5 -15.5t-40 -26.5t-12 -39.5q0 -44 42.5 -66.5t107.5 -22.5q58 0 109 20.5t82 56t31 76.5v118q0 57 -47.5 85t-133.5 28q-58 0 -113.5 -14t-101.5 -43l-27 60
q33 20 73.5 33.5t85 21t89.5 7.5q74 0 130 -20t88 -60.5t32 -103.5v-319h-69v110v1q-20 -29 -52.5 -57t-78.5 -45t-106 -17zM371 556q-89 0 -137.5 41t-54.5 118l55 7q6 -58 40 -84.5t97 -26.5q64 0 98.5 26.5t39.5 84.5l55 -7q-6 -77 -55 -118t-138 -41zM332 674l115 144
h89l-145 -144h-59z" />
    <glyph glyph-name="uni1EB7" unicode="&#x1eb7;" horiz-adv-x="733" 
d="M310 -8q-64 0 -113 19t-77 53t-28 78q0 50 34 82t103 47.5t176 15.5h152v-57h-147q-68 0 -114.5 -5.5t-74.5 -15.5t-40 -26.5t-12 -39.5q0 -44 42.5 -66.5t107.5 -22.5q58 0 109 20.5t82 56t31 76.5v118q0 57 -47.5 85t-133.5 28q-58 0 -113.5 -14t-101.5 -43l-27 60
q33 20 73.5 33.5t85 21t89.5 7.5q74 0 130 -20t88 -60.5t32 -103.5v-319h-69v110v1q-20 -29 -52.5 -57t-78.5 -45t-106 -17zM284 -189v90h94v-90h-94zM370 556q-58 0 -98 22.5t-62.5 67t-28.5 109.5l59 7q7 -77 37 -112.5t93 -35.5q62 0 93 35.5t38 112.5l58 -7
q-5 -65 -28 -109.5t-63.5 -67t-97.5 -22.5z" />
    <glyph glyph-name="uni1EB1" unicode="&#x1eb1;" horiz-adv-x="733" 
d="M310 -8q-64 0 -113 19t-77 53t-28 78q0 50 34 82t103 47.5t176 15.5h152v-57h-147q-68 0 -114.5 -5.5t-74.5 -15.5t-40 -26.5t-12 -39.5q0 -44 42.5 -66.5t107.5 -22.5q58 0 109 20.5t82 56t31 76.5v118q0 57 -47.5 85t-133.5 28q-58 0 -113.5 -14t-101.5 -43l-27 60
q33 20 73.5 33.5t85 21t89.5 7.5q74 0 130 -20t88 -60.5t32 -103.5v-319h-69v110v1q-20 -29 -52.5 -57t-78.5 -45t-106 -17zM371 556q-89 0 -137.5 41t-54.5 118l55 7q6 -58 40 -84.5t97 -26.5q64 0 98.5 26.5t39.5 84.5l55 -7q-6 -77 -55 -118t-138 -41zM353 674l-142 144
h90l111 -144h-59z" />
    <glyph glyph-name="uni1EB3" unicode="&#x1eb3;" horiz-adv-x="733" 
d="M310 -8q-64 0 -113 19t-77 53t-28 78q0 50 34 82t103 47.5t176 15.5h152v-57h-147q-68 0 -114.5 -5.5t-74.5 -15.5t-40 -26.5t-12 -39.5q0 -44 42.5 -66.5t107.5 -22.5q58 0 109 20.5t82 56t31 76.5v118q0 57 -47.5 85t-133.5 28q-58 0 -113.5 -14t-101.5 -43l-27 60
q33 20 73.5 33.5t85 21t89.5 7.5q74 0 130 -20t88 -60.5t32 -103.5v-319h-69v110v1q-20 -29 -52.5 -57t-78.5 -45t-106 -17zM370 556q-89 0 -137.5 41t-55.5 118l56 7q6 -58 39.5 -84.5t97.5 -26.5q63 0 97.5 26.5t39.5 84.5l56 -7q-7 -77 -55.5 -118t-137.5 -41zM341 674
q0 23 12 35.5t28 21t28 15.5t12 17q0 12 -15 18t-40 6q-20 0 -40 -4t-42 -12l-15 39q19 9 46.5 14.5t66.5 5.5q54 0 79 -14t25 -40q0 -21 -13 -33.5t-30.5 -21t-30.5 -18.5t-13 -29h-58z" />
    <glyph glyph-name="uni1EB5" unicode="&#x1eb5;" horiz-adv-x="733" 
d="M310 -8q-64 0 -113 19t-77 53t-28 78q0 50 34 82t103 47.5t176 15.5h152v-57h-147q-68 0 -114.5 -5.5t-74.5 -15.5t-40 -26.5t-12 -39.5q0 -44 42.5 -66.5t107.5 -22.5q58 0 109 20.5t82 56t31 76.5v118q0 57 -47.5 85t-133.5 28q-58 0 -113.5 -14t-101.5 -43l-27 60
q33 20 73.5 33.5t85 21t89.5 7.5q74 0 130 -20t88 -60.5t32 -103.5v-319h-69v110v1q-20 -29 -52.5 -57t-78.5 -45t-106 -17zM371 556q-74 0 -123.5 30t-68.5 86l53 11q18 -35 53 -53.5t86 -18.5q52 0 87 18.5t52 53.5l54 -11q-19 -56 -68 -86t-125 -30zM230 724l-53 3
q5 33 19 55.5t37.5 34.5t55.5 12q33 0 56 -11t38 -17q10 -4 28.5 -14t42.5 -10q25 0 39 13.5t20 40.5l53 -3q-7 -50 -36 -76.5t-76 -26.5q-32 0 -54 11t-33 15q-20 12 -37 19.5t-41 7.5t-38 -13t-21 -41z" />
    <glyph glyph-name="uni01CE" unicode="&#x1ce;" horiz-adv-x="733" 
d="M310 -8q-64 0 -113 19t-77 53t-28 78q0 50 34 82t103 47.5t176 15.5h152v-57h-147q-68 0 -114.5 -5.5t-74.5 -15.5t-40 -26.5t-12 -39.5q0 -44 42.5 -66.5t107.5 -22.5q58 0 109 20.5t82 56t31 76.5v118q0 57 -47.5 85t-133.5 28q-58 0 -113.5 -14t-101.5 -43l-27 60
q33 20 73.5 33.5t85 21t89.5 7.5q74 0 130 -20t88 -60.5t32 -103.5v-319h-69v110v1q-20 -29 -52.5 -57t-78.5 -45t-106 -17zM331 559l-138 202h61l117 -149l117 149h60l-137 -202h-80z" />
    <glyph glyph-name="acircumflex" unicode="&#xe2;" horiz-adv-x="733" 
d="M310 -8q-64 0 -113 19t-77 53t-28 78q0 50 34 82t103 47.5t176 15.5h152v-57h-147q-68 0 -114.5 -5.5t-74.5 -15.5t-40 -26.5t-12 -39.5q0 -44 42.5 -66.5t107.5 -22.5q58 0 109 20.5t82 56t31 76.5v118q0 57 -47.5 85t-133.5 28q-58 0 -113.5 -14t-101.5 -43l-27 60
q33 20 73.5 33.5t85 21t89.5 7.5q74 0 130 -20t88 -60.5t32 -103.5v-319h-69v110v1q-20 -29 -52.5 -57t-78.5 -45t-106 -17zM193 566l138 195h80l137 -195h-60l-117 142l-117 -142h-61z" />
    <glyph glyph-name="uni1EA5" unicode="&#x1ea5;" horiz-adv-x="733" 
d="M310 -8q-64 0 -113 19t-77 53t-28 78q0 50 34 82t103 47.5t176 15.5h152v-57h-147q-68 0 -114.5 -5.5t-74.5 -15.5t-40 -26.5t-12 -39.5q0 -44 42.5 -66.5t107.5 -22.5q58 0 109 20.5t82 56t31 76.5v118q0 57 -47.5 85t-133.5 28q-58 0 -113.5 -14t-101.5 -43l-27 60
q33 20 73.5 33.5t85 21t89.5 7.5q74 0 130 -20t88 -60.5t32 -103.5v-319h-69v110v1q-20 -29 -52.5 -57t-78.5 -45t-106 -17zM185 567l142 174h80l141 -174h-62l-119 120l-120 -120h-62zM480 676l103 150h85l-131 -150h-57z" />
    <glyph glyph-name="uni1EAD" unicode="&#x1ead;" horiz-adv-x="733" 
d="M310 -8q-64 0 -113 19t-77 53t-28 78q0 50 34 82t103 47.5t176 15.5h152v-57h-147q-68 0 -114.5 -5.5t-74.5 -15.5t-40 -26.5t-12 -39.5q0 -44 42.5 -66.5t107.5 -22.5q58 0 109 20.5t82 56t31 76.5v118q0 57 -47.5 85t-133.5 28q-58 0 -113.5 -14t-101.5 -43l-27 60
q33 20 73.5 33.5t85 21t89.5 7.5q74 0 130 -20t88 -60.5t32 -103.5v-319h-69v110v1q-20 -29 -52.5 -57t-78.5 -45t-106 -17zM284 -189v90h94v-90h-94zM193 566l138 195h80l137 -195h-60l-117 142l-117 -142h-61z" />
    <glyph glyph-name="uni1EA7" unicode="&#x1ea7;" horiz-adv-x="733" 
d="M310 -8q-64 0 -113 19t-77 53t-28 78q0 50 34 82t103 47.5t176 15.5h152v-57h-147q-68 0 -114.5 -5.5t-74.5 -15.5t-40 -26.5t-12 -39.5q0 -44 42.5 -66.5t107.5 -22.5q58 0 109 20.5t82 56t31 76.5v118q0 57 -47.5 85t-133.5 28q-58 0 -113.5 -14t-101.5 -43l-27 60
q33 20 73.5 33.5t85 21t89.5 7.5q74 0 130 -20t88 -60.5t32 -103.5v-319h-69v110v1q-20 -29 -52.5 -57t-78.5 -45t-106 -17zM185 567l142 174h80l142 -174h-63l-119 120l-120 -120h-62zM532 676l-131 150h85l102 -150h-56z" />
    <glyph glyph-name="uni1EA9" unicode="&#x1ea9;" horiz-adv-x="733" 
d="M310 -8q-64 0 -113 19t-77 53t-28 78q0 50 34 82t103 47.5t176 15.5h152v-57h-147q-68 0 -114.5 -5.5t-74.5 -15.5t-40 -26.5t-12 -39.5q0 -44 42.5 -66.5t107.5 -22.5q58 0 109 20.5t82 56t31 76.5v118q0 57 -47.5 85t-133.5 28q-58 0 -113.5 -14t-101.5 -43l-27 60
q33 20 73.5 33.5t85 21t89.5 7.5q74 0 130 -20t88 -60.5t32 -103.5v-319h-69v110v1q-20 -29 -52.5 -57t-78.5 -45t-106 -17zM185 568l142 174h80l142 -174h-63l-119 120l-120 -120h-62zM493 680q0 22 11.5 34.5t27.5 21t27.5 15.5t11.5 17q0 12 -15 17.5t-39 5.5
q-20 0 -39.5 -3.5t-41.5 -11.5l-15 38q20 9 46.5 14.5t65.5 5.5q53 0 77.5 -13.5t24.5 -39.5q0 -22 -12.5 -34t-30 -20.5t-30 -18.5t-12.5 -28h-57z" />
    <glyph glyph-name="uni1EAB" unicode="&#x1eab;" horiz-adv-x="733" 
d="M310 -8q-64 0 -113 19t-77 53t-28 78q0 50 34 82t103 47.5t176 15.5h152v-57h-147q-68 0 -114.5 -5.5t-74.5 -15.5t-40 -26.5t-12 -39.5q0 -44 42.5 -66.5t107.5 -22.5q58 0 109 20.5t82 56t31 76.5v118q0 57 -47.5 85t-133.5 28q-58 0 -113.5 -14t-101.5 -43l-27 60
q33 20 73.5 33.5t85 21t89.5 7.5q74 0 130 -20t88 -60.5t32 -103.5v-319h-69v110v1q-20 -29 -52.5 -57t-78.5 -45t-106 -17zM190 567l142 137h79l142 -137h-63l-118 85l-120 -85h-62zM230 730l-53 4q5 33 18.5 55.5t37 35t56.5 12.5t55.5 -11t38.5 -17q10 -4 28 -14t43 -10
q23 0 37.5 12t21.5 42l53 -5q-7 -47 -35 -74.5t-78 -27.5q-32 0 -53.5 10.5t-33.5 14.5q-19 12 -36.5 19.5t-40.5 7.5q-21 0 -36.5 -11.5t-22.5 -42.5z" />
    <glyph glyph-name="uni0201" unicode="&#x201;" horiz-adv-x="733" 
d="M310 -8q-64 0 -113 19t-77 53t-28 78q0 50 34 82t103 47.5t176 15.5h152v-57h-147q-68 0 -114.5 -5.5t-74.5 -15.5t-40 -26.5t-12 -39.5q0 -44 42.5 -66.5t107.5 -22.5q58 0 109 20.5t82 56t31 76.5v118q0 57 -47.5 85t-133.5 28q-58 0 -113.5 -14t-101.5 -43l-27 60
q33 20 73.5 33.5t85 21t89.5 7.5q74 0 130 -20t88 -60.5t32 -103.5v-319h-69v110v1q-20 -29 -52.5 -57t-78.5 -45t-106 -17zM423 559l-102 202h79l69 -202h-46zM272 559l-101 202h79l70 -202h-48z" />
    <glyph glyph-name="adieresis" unicode="&#xe4;" horiz-adv-x="733" 
d="M310 -8q-64 0 -113 19t-77 53t-28 78q0 50 34 82t103 47.5t176 15.5h152v-57h-147q-68 0 -114.5 -5.5t-74.5 -15.5t-40 -26.5t-12 -39.5q0 -44 42.5 -66.5t107.5 -22.5q58 0 109 20.5t82 56t31 76.5v118q0 57 -47.5 85t-133.5 28q-58 0 -113.5 -14t-101.5 -43l-27 60
q33 20 73.5 33.5t85 21t89.5 7.5q74 0 130 -20t88 -60.5t32 -103.5v-319h-69v110v1q-20 -29 -52.5 -57t-78.5 -45t-106 -17zM441 619v88h93v-88h-93zM208 619v88h93v-88h-93z" />
    <glyph glyph-name="uni0227" unicode="&#x227;" horiz-adv-x="733" 
d="M310 -8q-64 0 -113 19t-77 53t-28 78q0 50 34 82t103 47.5t176 15.5h152v-57h-147q-68 0 -114.5 -5.5t-74.5 -15.5t-40 -26.5t-12 -39.5q0 -44 42.5 -66.5t107.5 -22.5q58 0 109 20.5t82 56t31 76.5v118q0 57 -47.5 85t-133.5 28q-58 0 -113.5 -14t-101.5 -43l-27 60
q33 20 73.5 33.5t85 21t89.5 7.5q74 0 130 -20t88 -60.5t32 -103.5v-319h-69v110v1q-20 -29 -52.5 -57t-78.5 -45t-106 -17zM324 619v90h94v-90h-94z" />
    <glyph glyph-name="uni1EA1" unicode="&#x1ea1;" horiz-adv-x="733" 
d="M310 -8q-64 0 -113 19t-77 53t-28 78q0 50 34 82t103 47.5t176 15.5h152v-57h-147q-68 0 -114.5 -5.5t-74.5 -15.5t-40 -26.5t-12 -39.5q0 -44 42.5 -66.5t107.5 -22.5q58 0 109 20.5t82 56t31 76.5v118q0 57 -47.5 85t-133.5 28q-58 0 -113.5 -14t-101.5 -43l-27 60
q33 20 73.5 33.5t85 21t89.5 7.5q74 0 130 -20t88 -60.5t32 -103.5v-319h-69v110v1q-20 -29 -52.5 -57t-78.5 -45t-106 -17zM284 -189v90h94v-90h-94z" />
    <glyph glyph-name="agrave" unicode="&#xe0;" horiz-adv-x="733" 
d="M310 -8q-64 0 -113 19t-77 53t-28 78q0 50 34 82t103 47.5t176 15.5h152v-57h-147q-68 0 -114.5 -5.5t-74.5 -15.5t-40 -26.5t-12 -39.5q0 -44 42.5 -66.5t107.5 -22.5q58 0 109 20.5t82 56t31 76.5v118q0 57 -47.5 85t-133.5 28q-58 0 -113.5 -14t-101.5 -43l-27 60
q33 20 73.5 33.5t85 21t89.5 7.5q74 0 130 -20t88 -60.5t32 -103.5v-319h-69v110v1q-20 -29 -52.5 -57t-78.5 -45t-106 -17zM342 560l-159 201h91l130 -201h-62z" />
    <glyph glyph-name="uni1EA3" unicode="&#x1ea3;" horiz-adv-x="733" 
d="M310 -8q-64 0 -113 19t-77 53t-28 78q0 50 34 82t103 47.5t176 15.5h152v-57h-147q-68 0 -114.5 -5.5t-74.5 -15.5t-40 -26.5t-12 -39.5q0 -44 42.5 -66.5t107.5 -22.5q58 0 109 20.5t82 56t31 76.5v118q0 57 -47.5 85t-133.5 28q-58 0 -113.5 -14t-101.5 -43l-27 60
q33 20 73.5 33.5t85 21t89.5 7.5q74 0 130 -20t88 -60.5t32 -103.5v-319h-69v110v1q-20 -29 -52.5 -57t-78.5 -45t-106 -17zM340 560v20q0 24 13 39t29.5 25t29.5 20t13 25q0 16 -16 23.5t-49 7.5q-20 0 -39 -4t-40 -12l-16 44q21 10 48.5 15.5t61.5 5.5q59 0 90 -17.5
t31 -51.5q0 -25 -14.5 -40.5t-33.5 -26t-33 -24t-14 -34.5v-15h-61z" />
    <glyph glyph-name="uni0203" unicode="&#x203;" horiz-adv-x="733" 
d="M310 -8q-64 0 -113 19t-77 53t-28 78q0 50 34 82t103 47.5t176 15.5h152v-57h-147q-68 0 -114.5 -5.5t-74.5 -15.5t-40 -26.5t-12 -39.5q0 -44 42.5 -66.5t107.5 -22.5q58 0 109 20.5t82 56t31 76.5v118q0 57 -47.5 85t-133.5 28q-58 0 -113.5 -14t-101.5 -43l-27 60
q33 20 73.5 33.5t85 21t89.5 7.5q74 0 130 -20t88 -60.5t32 -103.5v-319h-69v110v1q-20 -29 -52.5 -57t-78.5 -45t-106 -17zM240 556l-59 7q6 66 28.5 110t62.5 66.5t98 22.5t98 -22.5t63 -66.5t28 -110l-58 -7q-7 78 -38 113t-93 35t-92.5 -35t-37.5 -113z" />
    <glyph glyph-name="amacron" unicode="&#x101;" horiz-adv-x="733" 
d="M310 -8q-64 0 -113 19t-77 53t-28 78q0 50 34 82t103 47.5t176 15.5h152v-57h-147q-68 0 -114.5 -5.5t-74.5 -15.5t-40 -26.5t-12 -39.5q0 -44 42.5 -66.5t107.5 -22.5q58 0 109 20.5t82 56t31 76.5v118q0 57 -47.5 85t-133.5 28q-58 0 -113.5 -14t-101.5 -43l-27 60
q33 20 73.5 33.5t85 21t89.5 7.5q74 0 130 -20t88 -60.5t32 -103.5v-319h-69v110v1q-20 -29 -52.5 -57t-78.5 -45t-106 -17zM179 632v62h384v-62h-384z" />
    <glyph glyph-name="aogonek" unicode="&#x105;" horiz-adv-x="733" 
d="M310 -8q-64 0 -113 19t-77 53t-28 78q0 50 34 82t103 47.5t176 15.5h152v-57h-147q-68 0 -114.5 -5.5t-74.5 -15.5t-40 -26.5t-12 -39.5q0 -44 42.5 -66.5t107.5 -22.5q58 0 109 20.5t82 56t31 76.5v118q0 57 -47.5 85t-133.5 28q-58 0 -113.5 -14t-101.5 -43l-27 60
q33 20 73.5 33.5t85 21t89.5 7.5q74 0 130 -20t88 -60.5t32 -103.5v-319h-69v110v1q-20 -29 -52.5 -57t-78.5 -45t-106 -17zM583 -194q-61 0 -95.5 25.5t-34.5 69.5q0 41 32 73.5t94 53.5l26 -28q-28 -10 -48 -24.5t-30.5 -31t-10.5 -34.5q0 -24 19 -37.5t53 -13.5
q16 0 33 3.5t34 10.5l19 -49q-17 -8 -40.5 -13t-50.5 -5z" />
    <glyph glyph-name="aring" unicode="&#xe5;" horiz-adv-x="733" 
d="M310 -8q-64 0 -113 19t-77 53t-28 78q0 50 34 82t103 47.5t176 15.5h152v-57h-147q-68 0 -114.5 -5.5t-74.5 -15.5t-40 -26.5t-12 -39.5q0 -44 42.5 -66.5t107.5 -22.5q58 0 109 20.5t82 56t31 76.5v118q0 57 -47.5 85t-133.5 28q-58 0 -113.5 -14t-101.5 -43l-27 60
q33 20 73.5 33.5t85 21t89.5 7.5q74 0 130 -20t88 -60.5t32 -103.5v-319h-69v110v1q-20 -29 -52.5 -57t-78.5 -45t-106 -17zM370 556q-39 0 -69 16.5t-47.5 44t-17.5 62.5q0 36 17.5 64t47.5 44t69 16t69.5 -16t47.5 -44t17 -64q0 -35 -17 -62.5t-47.5 -44t-69.5 -16.5z
M370 600q36 0 59 22t23 59q0 36 -23 58t-59 22q-35 0 -58.5 -22t-23.5 -58q0 -37 23 -59t59 -22z" />
    <glyph glyph-name="aringacute" unicode="&#x1fb;" horiz-adv-x="733" 
d="M310 -8q-64 0 -113 19t-77 53t-28 78q0 50 34 82t103 47.5t176 15.5h152v-57h-147q-68 0 -114.5 -5.5t-74.5 -15.5t-40 -26.5t-12 -39.5q0 -44 42.5 -66.5t107.5 -22.5q58 0 109 20.5t82 56t31 76.5v118q0 57 -47.5 85t-133.5 28q-58 0 -113.5 -14t-101.5 -43l-27 60
q33 20 73.5 33.5t85 21t89.5 7.5q74 0 130 -20t88 -60.5t32 -103.5v-319h-69v110v1q-20 -29 -52.5 -57t-78.5 -45t-106 -17zM370 555q-39 0 -69.5 16t-48 44t-17.5 64t17.5 64t48 44.5t69.5 16.5q22 0 42 -5.5t36 -15.5l77 64h82l-123 -100q10 -14 15.5 -30.5t5.5 -37.5
q0 -36 -17.5 -64t-47.5 -44t-70 -16zM370 599q36 0 59 22.5t23 57.5q0 38 -23 59.5t-59 21.5q-35 0 -58.5 -21.5t-23.5 -59.5q0 -35 23.5 -57.5t58.5 -22.5z" />
    <glyph glyph-name="atilde" unicode="&#xe3;" horiz-adv-x="733" 
d="M310 -8q-64 0 -113 19t-77 53t-28 78q0 50 34 82t103 47.5t176 15.5h152v-57h-147q-68 0 -114.5 -5.5t-74.5 -15.5t-40 -26.5t-12 -39.5q0 -44 42.5 -66.5t107.5 -22.5q58 0 109 20.5t82 56t31 76.5v118q0 57 -47.5 85t-133.5 28q-58 0 -113.5 -14t-101.5 -43l-27 60
q33 20 73.5 33.5t85 21t89.5 7.5q74 0 130 -20t88 -60.5t32 -103.5v-319h-69v110v1q-20 -29 -52.5 -57t-78.5 -45t-106 -17zM210 602l-56 3q7 65 40 102t84 37q39 0 65.5 -17.5t43.5 -29.5q12 -8 31.5 -22t45.5 -14q29 0 44 20t24 65l56 -3q-6 -66 -38.5 -102.5t-84.5 -36.5
q-42 0 -68.5 18t-41.5 29q-13 10 -32.5 23t-44.5 13q-28 0 -43.5 -20t-24.5 -65z" />
    <glyph glyph-name="ae" unicode="&#xe6;" horiz-adv-x="1180" 
d="M304 -8q-61 0 -109.5 19t-75.5 53t-27 77q0 55 36 86.5t106.5 46t174.5 14.5h155v-57h-150q-84 0 -139 -8t-80.5 -27t-25.5 -53q0 -44 41.5 -66.5t102.5 -22.5q64 0 116 21t83 54.5t31 72.5v125q0 55 -47.5 83t-135.5 28q-59 0 -115 -15t-100 -43l-27 61q33 19 73.5 33
t85.5 21.5t91 7.5q87 0 146.5 -29.5t78.5 -76.5h4q35 51 97 78.5t140 27.5q88 0 149 -31t92.5 -88t31.5 -134v-22h-522v57h480l-27 -26q0 56 -23.5 97t-68.5 63.5t-110 22.5q-100 0 -160 -50.5t-60 -138.5v-10q0 -86 62.5 -136t181.5 -50q69 0 117 13t90 44l28 -55
q-37 -33 -102.5 -50t-143.5 -17q-71 0 -125.5 17t-92 48.5t-54.5 71.5h8q-24 -39 -63 -70t-93.5 -49t-124.5 -18z" />
    <glyph glyph-name="aeacute" unicode="&#x1fd;" horiz-adv-x="1180" 
d="M304 -8q-61 0 -109.5 19t-75.5 53t-27 77q0 55 36 86.5t106.5 46t174.5 14.5h155v-57h-150q-84 0 -139 -8t-80.5 -27t-25.5 -53q0 -44 41.5 -66.5t102.5 -22.5q64 0 116 21t83 54.5t31 72.5v125q0 55 -47.5 83t-135.5 28q-59 0 -115 -15t-100 -43l-27 61q33 19 73.5 33
t85.5 21.5t91 7.5q87 0 146.5 -29.5t78.5 -76.5h4q35 51 97 78.5t140 27.5q88 0 149 -31t92.5 -88t31.5 -134v-22h-522v57h480l-27 -26q0 56 -23.5 97t-68.5 63.5t-110 22.5q-100 0 -160 -50.5t-60 -138.5v-10q0 -86 62.5 -136t181.5 -50q69 0 117 13t90 44l28 -55
q-37 -33 -102.5 -50t-143.5 -17q-71 0 -125.5 17t-92 48.5t-54.5 71.5h8q-24 -39 -63 -70t-93.5 -49t-124.5 -18zM561 559l130 202h91l-159 -202h-62z" />
    <glyph glyph-name="b" unicode="b" horiz-adv-x="783" 
d="M423 -8q-80 0 -141 31.5t-91 88.5h-1v-112h-71v705h76v-319h1q29 54 88.5 85.5t139.5 31.5q82 0 145.5 -33t99 -90t35.5 -133t-35.5 -133t-99 -89.5t-146.5 -32.5zM411 57q101 0 158 53t57 137t-57.5 137.5t-158.5 53.5t-158 -53.5t-57 -137.5t57 -137t159 -53z" />
    <glyph glyph-name="uni0253" unicode="&#x253;" horiz-adv-x="783" 
d="M422 -8q-79 0 -140 31.5t-91 88.5h-2v-112h-70v540q0 53 21 92t63 60t103 21q24 0 46.5 -2.5t38.5 -7.5l-8 -62q-14 5 -32.5 7t-35.5 2q-63 0 -91.5 -28t-28.5 -82l-1 -154h2q29 53 88 85t139 32q82 0 145.5 -33t99.5 -90t36 -133t-35.5 -133t-99.5 -89.5t-147 -32.5z
M410 57q101 0 158.5 53t57.5 137t-58 137.5t-159 53.5t-158 -53.5t-57 -137.5t57 -137t159 -53z" />
    <glyph glyph-name="c" unicode="c" horiz-adv-x="623" 
d="M374 -8q-88 0 -154.5 30.5t-103.5 87.5t-37 133q0 79 37.5 137.5t104 90.5t154.5 32q68 0 123 -18.5t93 -52.5l-32 -57q-37 28 -82.5 44.5t-97.5 16.5q-99 0 -160.5 -53t-61.5 -140q0 -86 61.5 -135t159.5 -49q53 0 98.5 16t79.5 42l32 -56q-38 -33 -91.5 -51t-122.5 -18
z" />
    <glyph glyph-name="cacute" unicode="&#x107;" horiz-adv-x="623" 
d="M374 -8q-88 0 -154.5 30.5t-103.5 87.5t-37 133q0 79 37.5 137.5t104 90.5t154.5 32q68 0 123 -18.5t93 -52.5l-32 -57q-37 28 -82.5 44.5t-97.5 16.5q-99 0 -160.5 -53t-61.5 -140q0 -86 61.5 -135t159.5 -49q53 0 98.5 16t79.5 42l32 -56q-38 -33 -91.5 -51t-122.5 -18
zM343 559l130 202h91l-159 -202h-62z" />
    <glyph glyph-name="ccaron" unicode="&#x10d;" horiz-adv-x="623" 
d="M374 -8q-88 0 -154.5 30.5t-103.5 87.5t-37 133q0 79 37.5 137.5t104 90.5t154.5 32q68 0 123 -18.5t93 -52.5l-32 -57q-37 28 -82.5 44.5t-97.5 16.5q-99 0 -160.5 -53t-61.5 -140q0 -86 61.5 -135t159.5 -49q53 0 98.5 16t79.5 42l32 -56q-38 -33 -91.5 -51t-122.5 -18
zM336 559l-138 202h61l117 -149l117 149h60l-137 -202h-80z" />
    <glyph glyph-name="ccedilla" unicode="&#xe7;" horiz-adv-x="623" 
d="M374 -8q-88 0 -154.5 30.5t-103.5 87.5t-37 133q0 79 37.5 137.5t104 90.5t154.5 32q68 0 123 -18.5t93 -52.5l-32 -57q-37 28 -82.5 44.5t-97.5 16.5q-99 0 -160.5 -53t-61.5 -140q0 -86 61.5 -135t159.5 -49q53 0 98.5 16t79.5 42l32 -56q-38 -33 -91.5 -51t-122.5 -18
zM387 -193q-29 0 -58 5t-47 15l15 44q25 -9 45 -13.5t46 -4.5q42 0 61.5 9t19.5 28q0 15 -13 22t-38 7q-14 0 -31.5 -2t-33.5 -7l-18 16l15 94h53l-12 -77l-25 7q20 5 36 7t29 2q31 0 53.5 -8t34.5 -23.5t12 -38.5q0 -27 -17 -45t-49.5 -27.5t-77.5 -9.5z" />
    <glyph glyph-name="uni1E09" unicode="&#x1e09;" horiz-adv-x="623" 
d="M374 -8q-88 0 -154.5 30.5t-103.5 87.5t-37 133q0 79 37.5 137.5t104 90.5t154.5 32q68 0 123 -18.5t93 -52.5l-32 -57q-37 28 -82.5 44.5t-97.5 16.5q-99 0 -160.5 -53t-61.5 -140q0 -86 61.5 -135t159.5 -49q53 0 98.5 16t79.5 42l32 -56q-38 -33 -91.5 -51t-122.5 -18
zM387 -193q-29 0 -58 5t-47 15l15 44q25 -9 45 -13.5t46 -4.5q42 0 61.5 9t19.5 28q0 15 -13 22t-38 7q-14 0 -31.5 -2t-33.5 -7l-18 16l15 94h53l-12 -77l-25 7q20 5 36 7t29 2q31 0 53.5 -8t34.5 -23.5t12 -38.5q0 -27 -17 -45t-49.5 -27.5t-77.5 -9.5zM343 559l130 202
h91l-159 -202h-62z" />
    <glyph glyph-name="ccircumflex" unicode="&#x109;" horiz-adv-x="623" 
d="M374 -8q-88 0 -154.5 30.5t-103.5 87.5t-37 133q0 79 37.5 137.5t104 90.5t154.5 32q68 0 123 -18.5t93 -52.5l-32 -57q-37 28 -82.5 44.5t-97.5 16.5q-99 0 -160.5 -53t-61.5 -140q0 -86 61.5 -135t159.5 -49q53 0 98.5 16t79.5 42l32 -56q-38 -33 -91.5 -51t-122.5 -18
zM198 566l138 195h80l137 -195h-60l-117 142l-117 -142h-61z" />
    <glyph glyph-name="cdotaccent" unicode="&#x10b;" horiz-adv-x="623" 
d="M374 -8q-88 0 -154.5 30.5t-103.5 87.5t-37 133q0 79 37.5 137.5t104 90.5t154.5 32q68 0 123 -18.5t93 -52.5l-32 -57q-37 28 -82.5 44.5t-97.5 16.5q-99 0 -160.5 -53t-61.5 -140q0 -86 61.5 -135t159.5 -49q53 0 98.5 16t79.5 42l32 -56q-38 -33 -91.5 -51t-122.5 -18
zM329 619v90h94v-90h-94z" />
    <glyph glyph-name="d" unicode="d" horiz-adv-x="783" 
d="M363 -8q-85 0 -148.5 32.5t-99.5 89.5t-36 133t36 133t99.5 90t147.5 33q80 0 140 -30.5t86 -84.5v0v317h76v-705h-71v109v0q-28 -55 -89 -86t-141 -31zM373 57q101 0 158.5 53t57.5 137t-57.5 137.5t-158.5 53.5t-158.5 -53.5t-57.5 -137.5t57 -137t159 -53z" />
    <glyph glyph-name="eth" unicode="&#xf0;" horiz-adv-x="729" 
d="M371 -8q-88 0 -153.5 29t-102 81.5t-36.5 124.5q0 71 35 123.5t100 82t152 29.5q81 0 139.5 -30.5t85.5 -79.5h-7q-4 76 -54.5 137t-140.5 105l16 -2l-198 -80l-22 49l161 65l-2 -10q-33 14 -73 25.5t-85 19.5l14 53q65 -12 118.5 -29.5t100.5 -39.5l-18 3l164 66l22 -50
l-125 -50l-1 9q70 -40 115.5 -94t66.5 -123.5t21 -155.5q0 -78 -36 -135.5t-101.5 -90t-155.5 -32.5zM371 57q101 0 158 44.5t57 125.5t-57 125.5t-158 44.5q-98 0 -156 -46t-58 -124q0 -76 59 -123t155 -47z" />
    <glyph glyph-name="dcaron" unicode="&#x10f;" horiz-adv-x="783" 
d="M363 -8q-85 0 -148.5 32.5t-99.5 89.5t-36 133t36 133t99.5 90t147.5 33q80 0 140 -30.5t86 -84.5v0v317h76v-705h-71v109v0q-28 -55 -89 -86t-141 -31zM373 57q101 0 158.5 53t57.5 137t-57.5 137.5t-158.5 53.5t-158.5 -53.5t-57.5 -137.5t57 -137t159 -53zM723 514
l4 191h71l-28 -191h-47z" />
    <glyph glyph-name="dcroat" unicode="&#x111;" horiz-adv-x="794" 
d="M363 -8q-85 0 -148.5 31.5t-99.5 88t-36 130.5t36 130.5t99.5 88.5t148.5 32q80 0 139.5 -29.5t85.5 -84.5v0v176h-245v57h245v93h76v-93h114v-57h-114v-555h-71v109v0q-28 -55 -88 -86t-142 -31zM373 55q101 0 158.5 51.5t57.5 135.5q0 81 -57.5 134t-158.5 53
q-67 0 -115.5 -24.5t-74.5 -66.5t-26 -97q0 -83 57 -134.5t159 -51.5z" />
    <glyph glyph-name="uni1E0D" unicode="&#x1e0d;" horiz-adv-x="783" 
d="M363 -8q-85 0 -148.5 32.5t-99.5 89.5t-36 133t36 133t99.5 90t147.5 33q80 0 140 -30.5t86 -84.5v0v317h76v-705h-71v109v0q-28 -55 -89 -86t-141 -31zM373 57q101 0 158.5 53t57.5 137t-57.5 137.5t-158.5 53.5t-158.5 -53.5t-57.5 -137.5t57 -137t159 -53zM328 -189
v90h94v-90h-94z" />
    <glyph glyph-name="uni0257" unicode="&#x257;" horiz-adv-x="783" 
d="M363 -8q-86 0 -149 32.5t-99 90t-36 132.5q0 76 36 133t99.5 90t147.5 33q79 0 139 -30.5t86 -84.5h1v152q0 53 21 92t63 60t103 21q24 0 46.5 -2.5t38.5 -7.5l-8 -62q-14 5 -32.5 7t-35.5 2q-64 0 -92 -28.5t-28 -81.5v-540h-71v109h-1q-28 -56 -88.5 -86.5
t-140.5 -30.5zM373 57q100 0 157.5 53t57.5 137t-57.5 137.5t-157.5 53.5q-101 0 -158.5 -53.5t-57.5 -137.5t57 -137t159 -53z" />
    <glyph glyph-name="uni1E0F" unicode="&#x1e0f;" horiz-adv-x="783" 
d="M363 -8q-85 0 -148.5 32.5t-99.5 89.5t-36 133t36 133t99.5 90t147.5 33q80 0 140 -30.5t86 -84.5v0v317h76v-705h-71v109v0q-28 -55 -89 -86t-141 -31zM373 57q101 0 158.5 53t57.5 137t-57.5 137.5t-158.5 53.5t-158.5 -53.5t-57.5 -137.5t57 -137t159 -53zM183 -161
v61h384v-61h-384z" />
    <glyph glyph-name="uni01C6" unicode="&#x1c6;" horiz-adv-x="1416" 
d="M363 -8q-85 0 -148.5 32.5t-99.5 89.5t-36 133t36 133t99.5 90t147.5 33q80 0 140 -30.5t86 -84.5v0v317h76v-705h-71v109v0q-28 -55 -89 -86t-141 -31zM373 57q101 0 158.5 53t57.5 137t-57.5 137.5t-158.5 53.5t-158.5 -53.5t-57.5 -137.5t57 -137t159 -53zM857 0v47
l407 412l8 -30h-404v65h475v-49l-408 -412l-7 32h430v-65h-501zM1068 559l-138 202h61l117 -149l117 149h60l-137 -202h-80z" />
    <glyph glyph-name="e" unicode="e" horiz-adv-x="721" 
d="M394 -8q-94 0 -166 29.5t-110.5 86.5t-38.5 137q0 76 35.5 134t102.5 91t159 33q89 0 149.5 -31.5t91.5 -88t31 -133.5v-23h-516v58h473l-26 -23q0 88 -54.5 134t-148.5 46q-64 0 -113.5 -21t-78.5 -62t-29 -101v-10q0 -62 29 -104.5t84 -64.5t133 -22q59 0 112.5 12.5
t94.5 44.5l28 -54q-39 -36 -104.5 -52t-137.5 -16z" />
    <glyph glyph-name="eacute" unicode="&#xe9;" horiz-adv-x="721" 
d="M394 -8q-94 0 -166 29.5t-110.5 86.5t-38.5 137q0 76 35.5 134t102.5 91t159 33q89 0 149.5 -31.5t91.5 -88t31 -133.5v-23h-516v58h473l-26 -23q0 88 -54.5 134t-148.5 46q-64 0 -113.5 -21t-78.5 -62t-29 -101v-10q0 -62 29 -104.5t84 -64.5t133 -22q59 0 112.5 12.5
t94.5 44.5l28 -54q-39 -36 -104.5 -52t-137.5 -16zM345 559l130 202h91l-159 -202h-62z" />
    <glyph glyph-name="ebreve" unicode="&#x115;" horiz-adv-x="721" 
d="M394 -8q-94 0 -166 29.5t-110.5 86.5t-38.5 137q0 76 35.5 134t102.5 91t159 33q89 0 149.5 -31.5t91.5 -88t31 -133.5v-23h-516v58h473l-26 -23q0 88 -54.5 134t-148.5 46q-64 0 -113.5 -21t-78.5 -62t-29 -101v-10q0 -62 29 -104.5t84 -64.5t133 -22q59 0 112.5 12.5
t94.5 44.5l28 -54q-39 -36 -104.5 -52t-137.5 -16zM377 556q-58 0 -98 22.5t-62.5 67t-28.5 109.5l59 7q7 -77 37 -112.5t93 -35.5q62 0 93 35.5t38 112.5l58 -7q-5 -65 -28 -109.5t-63.5 -67t-97.5 -22.5z" />
    <glyph glyph-name="ecaron" unicode="&#x11b;" horiz-adv-x="721" 
d="M394 -8q-94 0 -166 29.5t-110.5 86.5t-38.5 137q0 76 35.5 134t102.5 91t159 33q89 0 149.5 -31.5t91.5 -88t31 -133.5v-23h-516v58h473l-26 -23q0 88 -54.5 134t-148.5 46q-64 0 -113.5 -21t-78.5 -62t-29 -101v-10q0 -62 29 -104.5t84 -64.5t133 -22q59 0 112.5 12.5
t94.5 44.5l28 -54q-39 -36 -104.5 -52t-137.5 -16zM338 559l-138 202h61l117 -149l117 149h60l-137 -202h-80z" />
    <glyph glyph-name="uni1E1D" unicode="&#x1e1d;" horiz-adv-x="721" 
d="M394 -8q-94 0 -166 29.5t-110.5 86.5t-38.5 137q0 76 35.5 134t102.5 91t159 33q89 0 149.5 -31.5t91.5 -88t31 -133.5v-23h-516v58h473l-26 -23q0 88 -54.5 134t-148.5 46q-64 0 -113.5 -21t-78.5 -62t-29 -101v-10q0 -62 29 -104.5t84 -64.5t133 -22q59 0 112.5 12.5
t94.5 44.5l28 -54q-39 -36 -104.5 -52t-137.5 -16zM386 -193q-29 0 -58 5t-47 15l15 44q25 -9 45 -13.5t46 -4.5q42 0 61.5 9t19.5 28q0 15 -13 22t-38 7q-14 0 -31.5 -2t-33.5 -7l-18 16l15 94h53l-12 -77l-25 7q20 5 36 7t29 2q31 0 53.5 -8t34.5 -23.5t12 -38.5
q0 -27 -17 -45t-49.5 -27.5t-77.5 -9.5zM377 556q-58 0 -98 22.5t-62.5 67t-28.5 109.5l59 7q7 -77 37 -112.5t93 -35.5q62 0 93 35.5t38 112.5l58 -7q-5 -65 -28 -109.5t-63.5 -67t-97.5 -22.5z" />
    <glyph glyph-name="ecircumflex" unicode="&#xea;" horiz-adv-x="721" 
d="M394 -8q-94 0 -166 29.5t-110.5 86.5t-38.5 137q0 76 35.5 134t102.5 91t159 33q89 0 149.5 -31.5t91.5 -88t31 -133.5v-23h-516v58h473l-26 -23q0 88 -54.5 134t-148.5 46q-64 0 -113.5 -21t-78.5 -62t-29 -101v-10q0 -62 29 -104.5t84 -64.5t133 -22q59 0 112.5 12.5
t94.5 44.5l28 -54q-39 -36 -104.5 -52t-137.5 -16zM200 566l138 195h80l137 -195h-60l-117 142l-117 -142h-61z" />
    <glyph glyph-name="uni1EBF" unicode="&#x1ebf;" horiz-adv-x="721" 
d="M394 -8q-94 0 -166 29.5t-110.5 86.5t-38.5 137q0 76 35.5 134t102.5 91t159 33q89 0 149.5 -31.5t91.5 -88t31 -133.5v-23h-516v58h473l-26 -23q0 88 -54.5 134t-148.5 46q-64 0 -113.5 -21t-78.5 -62t-29 -101v-10q0 -62 29 -104.5t84 -64.5t133 -22q59 0 112.5 12.5
t94.5 44.5l28 -54q-39 -36 -104.5 -52t-137.5 -16zM192 567l142 174h80l141 -174h-62l-119 120l-120 -120h-62zM487 676l103 150h85l-131 -150h-57z" />
    <glyph glyph-name="uni1EC7" unicode="&#x1ec7;" horiz-adv-x="721" 
d="M394 -8q-94 0 -166 29.5t-110.5 86.5t-38.5 137q0 76 35.5 134t102.5 91t159 33q89 0 149.5 -31.5t91.5 -88t31 -133.5v-23h-516v58h473l-26 -23q0 88 -54.5 134t-148.5 46q-64 0 -113.5 -21t-78.5 -62t-29 -101v-10q0 -62 29 -104.5t84 -64.5t133 -22q59 0 112.5 12.5
t94.5 44.5l28 -54q-39 -36 -104.5 -52t-137.5 -16zM328 -189v90h94v-90h-94zM200 566l138 195h80l137 -195h-60l-117 142l-117 -142h-61z" />
    <glyph glyph-name="uni1EC1" unicode="&#x1ec1;" horiz-adv-x="721" 
d="M394 -8q-94 0 -166 29.5t-110.5 86.5t-38.5 137q0 76 35.5 134t102.5 91t159 33q89 0 149.5 -31.5t91.5 -88t31 -133.5v-23h-516v58h473l-26 -23q0 88 -54.5 134t-148.5 46q-64 0 -113.5 -21t-78.5 -62t-29 -101v-10q0 -62 29 -104.5t84 -64.5t133 -22q59 0 112.5 12.5
t94.5 44.5l28 -54q-39 -36 -104.5 -52t-137.5 -16zM192 567l142 174h80l142 -174h-63l-119 120l-120 -120h-62zM539 676l-131 150h85l102 -150h-56z" />
    <glyph glyph-name="uni1EC3" unicode="&#x1ec3;" horiz-adv-x="721" 
d="M394 -8q-94 0 -166 29.5t-110.5 86.5t-38.5 137q0 76 35.5 134t102.5 91t159 33q89 0 149.5 -31.5t91.5 -88t31 -133.5v-23h-516v58h473l-26 -23q0 88 -54.5 134t-148.5 46q-64 0 -113.5 -21t-78.5 -62t-29 -101v-10q0 -62 29 -104.5t84 -64.5t133 -22q59 0 112.5 12.5
t94.5 44.5l28 -54q-39 -36 -104.5 -52t-137.5 -16zM192 568l142 174h80l142 -174h-63l-119 120l-120 -120h-62zM500 680q0 22 11.5 34.5t27.5 21t27.5 15.5t11.5 17q0 12 -15 17.5t-39 5.5q-20 0 -39.5 -3.5t-41.5 -11.5l-15 38q20 9 46.5 14.5t65.5 5.5q53 0 77.5 -13.5
t24.5 -39.5q0 -22 -12.5 -34t-30 -20.5t-30 -18.5t-12.5 -28h-57z" />
    <glyph glyph-name="uni1EC5" unicode="&#x1ec5;" horiz-adv-x="721" 
d="M394 -8q-94 0 -166 29.5t-110.5 86.5t-38.5 137q0 76 35.5 134t102.5 91t159 33q89 0 149.5 -31.5t91.5 -88t31 -133.5v-23h-516v58h473l-26 -23q0 88 -54.5 134t-148.5 46q-64 0 -113.5 -21t-78.5 -62t-29 -101v-10q0 -62 29 -104.5t84 -64.5t133 -22q59 0 112.5 12.5
t94.5 44.5l28 -54q-39 -36 -104.5 -52t-137.5 -16zM197 567l142 137h79l142 -137h-63l-118 85l-120 -85h-62zM237 730l-53 4q5 33 18.5 55.5t37 35t56.5 12.5t55.5 -11t38.5 -17q10 -4 28 -14t43 -10q23 0 37.5 12t21.5 42l53 -5q-7 -47 -35 -74.5t-78 -27.5
q-32 0 -53.5 10.5t-33.5 14.5q-19 12 -36.5 19.5t-40.5 7.5q-21 0 -36.5 -11.5t-22.5 -42.5z" />
    <glyph glyph-name="uni0205" unicode="&#x205;" horiz-adv-x="721" 
d="M394 -8q-94 0 -166 29.5t-110.5 86.5t-38.5 137q0 76 35.5 134t102.5 91t159 33q89 0 149.5 -31.5t91.5 -88t31 -133.5v-23h-516v58h473l-26 -23q0 88 -54.5 134t-148.5 46q-64 0 -113.5 -21t-78.5 -62t-29 -101v-10q0 -62 29 -104.5t84 -64.5t133 -22q59 0 112.5 12.5
t94.5 44.5l28 -54q-39 -36 -104.5 -52t-137.5 -16zM430 559l-102 202h79l69 -202h-46zM279 559l-101 202h79l70 -202h-48z" />
    <glyph glyph-name="edieresis" unicode="&#xeb;" horiz-adv-x="721" 
d="M394 -8q-94 0 -166 29.5t-110.5 86.5t-38.5 137q0 76 35.5 134t102.5 91t159 33q89 0 149.5 -31.5t91.5 -88t31 -133.5v-23h-516v58h473l-26 -23q0 88 -54.5 134t-148.5 46q-64 0 -113.5 -21t-78.5 -62t-29 -101v-10q0 -62 29 -104.5t84 -64.5t133 -22q59 0 112.5 12.5
t94.5 44.5l28 -54q-39 -36 -104.5 -52t-137.5 -16zM448 619v88h93v-88h-93zM215 619v88h93v-88h-93z" />
    <glyph glyph-name="edotaccent" unicode="&#x117;" horiz-adv-x="721" 
d="M394 -8q-94 0 -166 29.5t-110.5 86.5t-38.5 137q0 76 35.5 134t102.5 91t159 33q89 0 149.5 -31.5t91.5 -88t31 -133.5v-23h-516v58h473l-26 -23q0 88 -54.5 134t-148.5 46q-64 0 -113.5 -21t-78.5 -62t-29 -101v-10q0 -62 29 -104.5t84 -64.5t133 -22q59 0 112.5 12.5
t94.5 44.5l28 -54q-39 -36 -104.5 -52t-137.5 -16zM331 619v90h94v-90h-94z" />
    <glyph glyph-name="uni1EB9" unicode="&#x1eb9;" horiz-adv-x="721" 
d="M394 -8q-94 0 -166 29.5t-110.5 86.5t-38.5 137q0 76 35.5 134t102.5 91t159 33q89 0 149.5 -31.5t91.5 -88t31 -133.5v-23h-516v58h473l-26 -23q0 88 -54.5 134t-148.5 46q-64 0 -113.5 -21t-78.5 -62t-29 -101v-10q0 -62 29 -104.5t84 -64.5t133 -22q59 0 112.5 12.5
t94.5 44.5l28 -54q-39 -36 -104.5 -52t-137.5 -16zM328 -189v90h94v-90h-94z" />
    <glyph glyph-name="egrave" unicode="&#xe8;" horiz-adv-x="721" 
d="M394 -8q-94 0 -166 29.5t-110.5 86.5t-38.5 137q0 76 35.5 134t102.5 91t159 33q89 0 149.5 -31.5t91.5 -88t31 -133.5v-23h-516v58h473l-26 -23q0 88 -54.5 134t-148.5 46q-64 0 -113.5 -21t-78.5 -62t-29 -101v-10q0 -62 29 -104.5t84 -64.5t133 -22q59 0 112.5 12.5
t94.5 44.5l28 -54q-39 -36 -104.5 -52t-137.5 -16zM349 560l-159 201h91l130 -201h-62z" />
    <glyph glyph-name="uni1EBB" unicode="&#x1ebb;" horiz-adv-x="721" 
d="M394 -8q-94 0 -166 29.5t-110.5 86.5t-38.5 137q0 76 35.5 134t102.5 91t159 33q89 0 149.5 -31.5t91.5 -88t31 -133.5v-23h-516v58h473l-26 -23q0 88 -54.5 134t-148.5 46q-64 0 -113.5 -21t-78.5 -62t-29 -101v-10q0 -62 29 -104.5t84 -64.5t133 -22q59 0 112.5 12.5
t94.5 44.5l28 -54q-39 -36 -104.5 -52t-137.5 -16zM347 560v20q0 24 13 39t29.5 25t29.5 20t13 25q0 16 -16 23.5t-49 7.5q-20 0 -39 -4t-40 -12l-16 44q21 10 48.5 15.5t61.5 5.5q59 0 90 -17.5t31 -51.5q0 -25 -14.5 -40.5t-33.5 -26t-33 -24t-14 -34.5v-15h-61z" />
    <glyph glyph-name="uni0207" unicode="&#x207;" horiz-adv-x="721" 
d="M394 -8q-94 0 -166 29.5t-110.5 86.5t-38.5 137q0 76 35.5 134t102.5 91t159 33q89 0 149.5 -31.5t91.5 -88t31 -133.5v-23h-516v58h473l-26 -23q0 88 -54.5 134t-148.5 46q-64 0 -113.5 -21t-78.5 -62t-29 -101v-10q0 -62 29 -104.5t84 -64.5t133 -22q59 0 112.5 12.5
t94.5 44.5l28 -54q-39 -36 -104.5 -52t-137.5 -16zM247 556l-59 7q6 66 28.5 110t62.5 66.5t98 22.5t98 -22.5t63 -66.5t28 -110l-58 -7q-7 78 -38 113t-93 35t-92.5 -35t-37.5 -113z" />
    <glyph glyph-name="emacron" unicode="&#x113;" horiz-adv-x="721" 
d="M394 -8q-94 0 -166 29.5t-110.5 86.5t-38.5 137q0 76 35.5 134t102.5 91t159 33q89 0 149.5 -31.5t91.5 -88t31 -133.5v-23h-516v58h473l-26 -23q0 88 -54.5 134t-148.5 46q-64 0 -113.5 -21t-78.5 -62t-29 -101v-10q0 -62 29 -104.5t84 -64.5t133 -22q59 0 112.5 12.5
t94.5 44.5l28 -54q-39 -36 -104.5 -52t-137.5 -16zM186 632v62h384v-62h-384z" />
    <glyph glyph-name="uni1E17" unicode="&#x1e17;" horiz-adv-x="721" 
d="M394 -8q-94 0 -166 29.5t-110.5 86.5t-38.5 137q0 76 35.5 134t102.5 91t159 33q89 0 149.5 -31.5t91.5 -88t31 -133.5v-23h-516v58h473l-26 -23q0 88 -54.5 134t-148.5 46q-64 0 -113.5 -21t-78.5 -62t-29 -101v-10q0 -62 29 -104.5t84 -64.5t133 -22q59 0 112.5 12.5
t94.5 44.5l28 -54q-39 -36 -104.5 -52t-137.5 -16zM195 585v56h366v-56h-366zM334 677l116 146h92l-148 -146h-60z" />
    <glyph glyph-name="uni1E15" unicode="&#x1e15;" horiz-adv-x="721" 
d="M394 -8q-94 0 -166 29.5t-110.5 86.5t-38.5 137q0 76 35.5 134t102.5 91t159 33q89 0 149.5 -31.5t91.5 -88t31 -133.5v-23h-516v58h473l-26 -23q0 88 -54.5 134t-148.5 46q-64 0 -113.5 -21t-78.5 -62t-29 -101v-10q0 -62 29 -104.5t84 -64.5t133 -22q59 0 112.5 12.5
t94.5 44.5l28 -54q-39 -36 -104.5 -52t-137.5 -16zM195 585v56h366v-56h-366zM362 677l-148 146h92l116 -146h-60z" />
    <glyph glyph-name="eogonek" unicode="&#x119;" horiz-adv-x="721" 
d="M394 -8q-94 0 -166 29.5t-110.5 86.5t-38.5 137q0 76 35.5 134t102.5 91t159 33q89 0 149.5 -31.5t91.5 -88t31 -133.5v-23h-516v58h473l-26 -23q0 88 -54.5 134t-148.5 46q-64 0 -113.5 -21t-78.5 -62t-29 -101v-10q0 -62 29 -104.5t84 -64.5t133 -22q59 0 112.5 12.5
t94.5 44.5l28 -54q-39 -36 -104.5 -52t-137.5 -16zM456 -194q-61 0 -95.5 25.5t-34.5 69.5q0 41 32 73.5t94 53.5l26 -28q-28 -10 -48 -24.5t-30.5 -31t-10.5 -34.5q0 -24 19 -37.5t53 -13.5q16 0 33 3.5t34 10.5l19 -49q-17 -8 -40.5 -13t-50.5 -5z" />
    <glyph glyph-name="uni1EBD" unicode="&#x1ebd;" horiz-adv-x="721" 
d="M394 -8q-94 0 -166 29.5t-110.5 86.5t-38.5 137q0 76 35.5 134t102.5 91t159 33q89 0 149.5 -31.5t91.5 -88t31 -133.5v-23h-516v58h473l-26 -23q0 88 -54.5 134t-148.5 46q-64 0 -113.5 -21t-78.5 -62t-29 -101v-10q0 -62 29 -104.5t84 -64.5t133 -22q59 0 112.5 12.5
t94.5 44.5l28 -54q-39 -36 -104.5 -52t-137.5 -16zM217 602l-56 3q7 65 40 102t84 37q39 0 65.5 -17.5t43.5 -29.5q12 -8 31.5 -22t45.5 -14q29 0 44 20t24 65l56 -3q-6 -66 -38.5 -102.5t-84.5 -36.5q-42 0 -68.5 18t-41.5 29q-13 10 -32.5 23t-44.5 13q-28 0 -43.5 -20
t-24.5 -65z" />
    <glyph glyph-name="uni0259" unicode="&#x259;" horiz-adv-x="722" 
d="M341 -8q-87 0 -146.5 31.5t-90 87.5t-30.5 131v25h515v-57h-473l24 22q1 -86 54.5 -132.5t147.5 -46.5q67 0 117.5 23t78.5 64.5t28 96.5v10q0 62 -29 104.5t-83.5 64.5t-133.5 22q-59 0 -112.5 -12.5t-93.5 -46.5l-29 56q39 34 104.5 51t136.5 17q97 0 167.5 -29.5
t109.5 -86.5t39 -139q0 -73 -36 -131.5t-103.5 -91.5t-161.5 -33z" />
    <glyph glyph-name="uni0292" unicode="&#x292;" horiz-adv-x="667" 
d="M305 -191q-79 0 -150 16t-117 46l31 60q49 -28 105.5 -42t126.5 -14q120 0 177 36t57 104q0 72 -57 103t-162 31h-135l-3 49l315 256l2 -23h-436v63h512v-51l-307 -246l-8 13h71q137 0 211 -48.5t74 -144.5q0 -64 -34.5 -111t-103 -72t-169.5 -25z" />
    <glyph glyph-name="uni01EF" unicode="&#x1ef;" horiz-adv-x="667" 
d="M305 -191q-79 0 -150 16t-117 46l31 60q49 -28 105.5 -42t126.5 -14q120 0 177 36t57 104q0 72 -57 103t-162 31h-135l-3 49l315 256l2 -23h-436v63h512v-51l-307 -246l-8 13h71q137 0 211 -48.5t74 -144.5q0 -64 -34.5 -111t-103 -72t-169.5 -25zM275 559l-138 202h61
l117 -149l117 149h60l-137 -202h-80z" />
    <glyph glyph-name="f" unicode="f" horiz-adv-x="459" 
d="M150 0v432h-129v62h145l-16 -15v24q0 94 63 144.5t180 57.5l59 3l7 -64l-72 -4q-42 -1 -79 -12.5t-59.5 -38.5t-22.5 -79v-26l-16 10h218v-62h-202v-432h-76z" />
    <glyph glyph-name="g" unicode="g" horiz-adv-x="780" 
d="M373 -188q-73 0 -144 18.5t-119 54.5l28 60q33 -24 72 -38t81 -21.5t84 -7.5q100 0 156.5 42t56.5 114v91h-1q-25 -49 -84 -80.5t-138 -31.5q-86 0 -150 29.5t-100 84.5t-36 131q0 74 36 129.5t100 85.5t149 30q80 0 140 -32t85 -85v0v108h72v-452q0 -71 -34 -122
t-99 -79.5t-155 -28.5zM372 78q100 0 157.5 49t57.5 131q0 83 -57.5 131.5t-157.5 48.5t-157.5 -48.5t-57.5 -131.5q0 -82 57.5 -131t157.5 -49z" />
    <glyph glyph-name="gbreve" unicode="&#x11f;" horiz-adv-x="780" 
d="M373 -188q-73 0 -144 18.5t-119 54.5l28 60q33 -24 72 -38t81 -21.5t84 -7.5q100 0 156.5 42t56.5 114v91h-1q-25 -49 -84 -80.5t-138 -31.5q-86 0 -150 29.5t-100 84.5t-36 131q0 74 36 129.5t100 85.5t149 30q80 0 140 -32t85 -85v0v108h72v-452q0 -71 -34 -122
t-99 -79.5t-155 -28.5zM372 78q100 0 157.5 49t57.5 131q0 83 -57.5 131.5t-157.5 48.5t-157.5 -48.5t-57.5 -131.5q0 -82 57.5 -131t157.5 -49zM375 556q-58 0 -98 22.5t-62.5 67t-28.5 109.5l59 7q7 -77 37 -112.5t93 -35.5q62 0 93 35.5t38 112.5l58 -7
q-5 -65 -28 -109.5t-63.5 -67t-97.5 -22.5z" />
    <glyph glyph-name="gcaron" unicode="&#x1e7;" horiz-adv-x="780" 
d="M373 -188q-73 0 -144 18.5t-119 54.5l28 60q33 -24 72 -38t81 -21.5t84 -7.5q100 0 156.5 42t56.5 114v91h-1q-25 -49 -84 -80.5t-138 -31.5q-86 0 -150 29.5t-100 84.5t-36 131q0 74 36 129.5t100 85.5t149 30q80 0 140 -32t85 -85v0v108h72v-452q0 -71 -34 -122
t-99 -79.5t-155 -28.5zM372 78q100 0 157.5 49t57.5 131q0 83 -57.5 131.5t-157.5 48.5t-157.5 -48.5t-57.5 -131.5q0 -82 57.5 -131t157.5 -49zM336 559l-138 202h61l117 -149l117 149h60l-137 -202h-80z" />
    <glyph glyph-name="gcircumflex" unicode="&#x11d;" horiz-adv-x="780" 
d="M373 -188q-73 0 -144 18.5t-119 54.5l28 60q33 -24 72 -38t81 -21.5t84 -7.5q100 0 156.5 42t56.5 114v91h-1q-25 -49 -84 -80.5t-138 -31.5q-86 0 -150 29.5t-100 84.5t-36 131q0 74 36 129.5t100 85.5t149 30q80 0 140 -32t85 -85v0v108h72v-452q0 -71 -34 -122
t-99 -79.5t-155 -28.5zM372 78q100 0 157.5 49t57.5 131q0 83 -57.5 131.5t-157.5 48.5t-157.5 -48.5t-57.5 -131.5q0 -82 57.5 -131t157.5 -49zM198 566l138 195h80l137 -195h-60l-117 142l-117 -142h-61z" />
    <glyph glyph-name="uni0123" unicode="&#x123;" horiz-adv-x="780" 
d="M373 -188q-73 0 -144 18.5t-119 54.5l28 60q33 -24 72 -38t81 -21.5t84 -7.5q100 0 156.5 42t56.5 114v91h-1q-25 -49 -84 -80.5t-138 -31.5q-86 0 -150 29.5t-100 84.5t-36 131q0 74 36 129.5t100 85.5t149 30q80 0 140 -32t85 -85v0v108h72v-452q0 -71 -34 -122
t-99 -79.5t-155 -28.5zM372 78q100 0 157.5 49t57.5 131q0 83 -57.5 131.5t-157.5 48.5t-157.5 -48.5t-57.5 -131.5q0 -82 57.5 -131t157.5 -49zM326 578v71q0 44 14.5 76.5t44.5 59.5l35 -30q-22 -20 -31.5 -42t-9.5 -51l-12 11h56v-95h-97z" />
    <glyph glyph-name="gdotaccent" unicode="&#x121;" horiz-adv-x="780" 
d="M373 -188q-73 0 -144 18.5t-119 54.5l28 60q33 -24 72 -38t81 -21.5t84 -7.5q100 0 156.5 42t56.5 114v91h-1q-25 -49 -84 -80.5t-138 -31.5q-86 0 -150 29.5t-100 84.5t-36 131q0 74 36 129.5t100 85.5t149 30q80 0 140 -32t85 -85v0v108h72v-452q0 -71 -34 -122
t-99 -79.5t-155 -28.5zM372 78q100 0 157.5 49t57.5 131q0 83 -57.5 131.5t-157.5 48.5t-157.5 -48.5t-57.5 -131.5q0 -82 57.5 -131t157.5 -49zM329 619v90h94v-90h-94z" />
    <glyph glyph-name="uni1E21" unicode="&#x1e21;" horiz-adv-x="780" 
d="M373 -188q-73 0 -144 18.5t-119 54.5l28 60q33 -24 72 -38t81 -21.5t84 -7.5q100 0 156.5 42t56.5 114v91h-1q-25 -49 -84 -80.5t-138 -31.5q-86 0 -150 29.5t-100 84.5t-36 131q0 74 36 129.5t100 85.5t149 30q80 0 140 -32t85 -85v0v108h72v-452q0 -71 -34 -122
t-99 -79.5t-155 -28.5zM372 78q100 0 157.5 49t57.5 131q0 83 -57.5 131.5t-157.5 48.5t-157.5 -48.5t-57.5 -131.5q0 -82 57.5 -131t157.5 -49zM184 632v62h384v-62h-384z" />
    <glyph glyph-name="uni01E5" unicode="&#x1e5;" horiz-adv-x="780" 
d="M372 -188q-73 0 -144 14.5t-118 50.5l25 56q34 -23 73 -35t81.5 -17.5t84.5 -5.5q65 0 113 17.5t73 50.5l-5 -8h-185v49h223l-14 -1q4 12 6 24t2 27v116h-1q-23 -49 -84 -82t-138 -33q-88 0 -151.5 29t-98.5 81.5t-35 122.5t35 123t98.5 82.5t150.5 29.5q78 0 140 -34
t86 -88v0v113h72v-452q0 -17 -1.5 -32.5t-6.5 -30.5l-10 5h117v-49h-121l2 6q-29 -62 -98.5 -95.5t-170.5 -33.5zM372 96q66 0 114.5 22t75 59t26.5 83q0 81 -58.5 129.5t-157.5 48.5q-67 0 -115 -22t-74 -60.5t-26 -87.5q0 -50 26 -88.5t74 -61t115 -22.5z" />
    <glyph glyph-name="h" unicode="h" horiz-adv-x="763" 
d="M119 0v705h74l1 -323h4q30 51 83.5 86t135.5 35q69 0 120.5 -20.5t80 -68.5t28.5 -131v-283h-76v280q0 52 -18.5 86.5t-54 52t-90.5 17.5q-64 0 -111.5 -25.5t-74 -65.5t-26.5 -87v-258h-76z" />
    <glyph glyph-name="hbar" unicode="&#x127;" horiz-adv-x="771" 
d="M127 0v555h-117v57h117v93h75v-93h242v-57h-242v-186h-1q29 56 88 90t143 34q110 0 166 -52t56 -151v-290h-76v285q0 45 -17 76.5t-52 48.5t-89 17q-65 0 -113.5 -24t-75.5 -61t-27 -80v-262h-77z" />
    <glyph glyph-name="uni1E2B" unicode="&#x1e2b;" horiz-adv-x="763" 
d="M119 0v705h74l1 -323h4q30 51 83.5 86t135.5 35q69 0 120.5 -20.5t80 -68.5t28.5 -131v-283h-76v280q0 52 -18.5 86.5t-54 52t-90.5 17.5q-64 0 -111.5 -25.5t-74 -65.5t-26.5 -87v-258h-76zM385 -215q-81 0 -130.5 40t-59.5 117l56 6q8 -53 41 -80t93 -27q59 0 92.5 27
t41.5 80l56 -6q-9 -76 -58 -116.5t-132 -40.5z" />
    <glyph glyph-name="uni021F" unicode="&#x21f;" horiz-adv-x="763" 
d="M119 0v705h74l1 -323h4q30 51 83.5 86t135.5 35q69 0 120.5 -20.5t80 -68.5t28.5 -131v-283h-76v280q0 52 -18.5 86.5t-54 52t-90.5 17.5q-64 0 -111.5 -25.5t-74 -65.5t-26.5 -87v-258h-76zM329 765l-153 179h62l131 -127l132 127h61l-153 -179h-80z" />
    <glyph glyph-name="hcircumflex" unicode="&#x125;" horiz-adv-x="763" 
d="M119 0v705h74l1 -323h4q30 51 83.5 86t135.5 35q69 0 120.5 -20.5t80 -68.5t28.5 -131v-283h-76v280q0 52 -18.5 86.5t-54 52t-90.5 17.5q-64 0 -111.5 -25.5t-74 -65.5t-26.5 -87v-258h-76zM176 765l153 179h80l153 -179h-62l-131 127l-132 -127h-61z" />
    <glyph glyph-name="uni1E25" unicode="&#x1e25;" horiz-adv-x="763" 
d="M119 0v705h74l1 -323h4q30 51 83.5 86t135.5 35q69 0 120.5 -20.5t80 -68.5t28.5 -131v-283h-76v280q0 52 -18.5 86.5t-54 52t-90.5 17.5q-64 0 -111.5 -25.5t-74 -65.5t-26.5 -87v-258h-76zM339 -189v90h94v-90h-94z" />
    <glyph glyph-name="i" unicode="i" horiz-adv-x="314" 
d="M105 619v89h102v-89h-102zM119 0v494h76v-494h-76z" />
    <glyph glyph-name="dotlessi" unicode="&#x131;" horiz-adv-x="314" 
d="M119 0v494h76v-494h-76z" />
    <glyph glyph-name="iacute" unicode="&#xed;" horiz-adv-x="314" 
d="M119 0v494h76v-494h-76zM124 559l130 202h91l-159 -202h-62z" />
    <glyph glyph-name="ibreve" unicode="&#x12d;" horiz-adv-x="314" 
d="M119 0v494h76v-494h-76zM156 556q-58 0 -98 22.5t-62.5 67t-28.5 109.5l59 7q7 -77 37 -112.5t93 -35.5q62 0 93 35.5t38 112.5l58 -7q-5 -65 -28 -109.5t-63.5 -67t-97.5 -22.5z" />
    <glyph glyph-name="icircumflex" unicode="&#xee;" horiz-adv-x="314" 
d="M119 0v494h76v-494h-76zM-21 566l138 195h80l137 -195h-60l-117 142l-117 -142h-61z" />
    <glyph glyph-name="uni0209" unicode="&#x209;" horiz-adv-x="314" 
d="M119 0v494h76v-494h-76zM209 559l-102 202h79l69 -202h-46zM58 559l-101 202h79l70 -202h-48z" />
    <glyph glyph-name="idieresis" unicode="&#xef;" horiz-adv-x="314" 
d="M119 0v494h76v-494h-76zM227 619v88h93v-88h-93zM-6 619v88h93v-88h-93z" />
    <glyph glyph-name="uni1E2F" unicode="&#x1e2f;" horiz-adv-x="314" 
d="M119 0v494h76v-494h-76zM126 671l116 146h91l-148 -146h-59zM-5 560v77h94v-77h-94zM225 560v77h94v-77h-94z" />
    <glyph glyph-name="i.loclTRK" horiz-adv-x="314" 
d="M119 0v494h76v-494h-76zM110 619v90h94v-90h-94z" />
    <glyph glyph-name="uni1ECB" unicode="&#x1ecb;" horiz-adv-x="314" 
d="M105 619v89h102v-89h-102zM119 0v494h76v-494h-76zM107 -189v90h94v-90h-94z" />
    <glyph glyph-name="igrave" unicode="&#xec;" horiz-adv-x="314" 
d="M119 0v494h76v-494h-76zM128 560l-159 201h91l130 -201h-62z" />
    <glyph glyph-name="uni1EC9" unicode="&#x1ec9;" horiz-adv-x="314" 
d="M119 0v494h76v-494h-76zM126 560v20q0 24 13 39t29.5 25t29.5 20t13 25q0 16 -16 23.5t-49 7.5q-20 0 -39 -4t-40 -12l-16 44q21 10 48.5 15.5t61.5 5.5q59 0 90 -17.5t31 -51.5q0 -25 -14.5 -40.5t-33.5 -26t-33 -24t-14 -34.5v-15h-61z" />
    <glyph glyph-name="uni020B" unicode="&#x20b;" horiz-adv-x="314" 
d="M119 0v494h76v-494h-76zM26 556l-59 7q6 66 28.5 110t62.5 66.5t98 22.5t98 -22.5t63 -66.5t28 -110l-58 -7q-7 78 -38 113t-93 35t-92.5 -35t-37.5 -113z" />
    <glyph glyph-name="ij" unicode="&#x133;" horiz-adv-x="601" 
d="M105 619v89h102v-89h-102zM119 0v494h76v-494h-76zM408 619v89h102v-89h-102zM240 -193l-5 65l61 6q60 6 92.5 31t32.5 79v506h76v-504q0 -40 -12 -71.5t-35.5 -53.5t-60 -35t-85.5 -17z" />
    <glyph glyph-name="imacron" unicode="&#x12b;" horiz-adv-x="314" 
d="M119 0v494h76v-494h-76zM-35 632v62h384v-62h-384z" />
    <glyph glyph-name="iogonek" unicode="&#x12f;" horiz-adv-x="314" 
d="M119 0v494h76v-494h-76zM106 619v89h101v-89h-101zM169 -194q-61 0 -95.5 25.5t-34.5 69.5q0 41 32 73.5t94 53.5l26 -28q-28 -10 -48 -24.5t-30.5 -31t-10.5 -34.5q0 -24 19 -37.5t53 -13.5q16 0 33 3.5t34 10.5l19 -49q-17 -8 -40.5 -13t-50.5 -5z" />
    <glyph glyph-name="itilde" unicode="&#x129;" horiz-adv-x="314" 
d="M119 0v494h76v-494h-76zM-4 602l-56 3q7 65 40 102t84 37q39 0 65.5 -17.5t43.5 -29.5q12 -8 31.5 -22t45.5 -14q29 0 44 20t24 65l56 -3q-6 -66 -38.5 -102.5t-84.5 -36.5q-42 0 -68.5 18t-41.5 29q-13 10 -32.5 23t-44.5 13q-28 0 -43.5 -20t-24.5 -65z" />
    <glyph glyph-name="j" unicode="j" horiz-adv-x="287" 
d="M94 619v89h102v-89h-102zM-74 -193l-5 65l61 6q60 6 92.5 31t32.5 79v506h76v-504q0 -40 -12 -71.5t-35.5 -53.5t-60 -35t-85.5 -17z" />
    <glyph glyph-name="uni0237" unicode="&#x237;" horiz-adv-x="287" 
d="M-74 -193l-5 65l61 6q60 6 92.5 31t32.5 79v506h76v-504q0 -40 -12 -71.5t-35.5 -53.5t-60 -35t-85.5 -17z" />
    <glyph glyph-name="jcircumflex" unicode="&#x135;" horiz-adv-x="287" 
d="M-74 -193l-5 65l61 6q60 6 92.5 31t32.5 79v506h76v-504q0 -40 -12 -71.5t-35.5 -53.5t-60 -35t-85.5 -17zM-32 566l138 195h80l137 -195h-60l-117 142l-117 -142h-61z" />
    <glyph glyph-name="k" unicode="k" horiz-adv-x="638" 
d="M116 0v705h76v-432h5l296 221h106l-351 -255l2 33l386 -272h-115l-324 232h-5v-232h-76z" />
    <glyph glyph-name="uni01E9" unicode="&#x1e9;" horiz-adv-x="638" 
d="M116 0v705h76v-432h5l296 221h106l-351 -255l2 33l386 -272h-115l-324 232h-5v-232h-76zM329 765l-153 179h62l131 -127l132 127h61l-153 -179h-80z" />
    <glyph glyph-name="uni0137" unicode="&#x137;" horiz-adv-x="638" 
d="M116 0v705h76v-432h5l296 221h106l-351 -255l2 33l386 -272h-115l-324 232h-5v-232h-76zM310 -292l-36 30q23 20 32 44t9 53l13 -11h-56v95h96v-70q0 -46 -13.5 -79.5t-44.5 -61.5z" />
    <glyph glyph-name="kgreenlandic" unicode="&#x138;" horiz-adv-x="641" 
d="M119 0v494h76v-221h4l296 221h107l-351 -255l2 33l385 -272h-114l-325 232h-4v-232h-76z" />
    <glyph glyph-name="l" unicode="l" horiz-adv-x="377" 
d="M286 -8q-78 0 -124 41t-46 114v558h76v-548q0 -30 13 -52.5t36.5 -35t56.5 -12.5q15 0 33 1.5t36 5.5l-1 -62q-18 -5 -37.5 -7.5t-42.5 -2.5z" />
    <glyph glyph-name="lacute" unicode="&#x13a;" horiz-adv-x="377" 
d="M286 -8q-78 0 -124 41t-46 114v558h76v-548q0 -30 13 -52.5t36.5 -35t56.5 -12.5q15 0 33 1.5t36 5.5l-1 -62q-18 -5 -37.5 -7.5t-42.5 -2.5zM120 765l147 179h99l-178 -179h-68z" />
    <glyph glyph-name="lcaron" unicode="&#x13e;" horiz-adv-x="377" 
d="M286 -8q-78 0 -124 41t-46 114v558h76v-548q0 -30 13 -52.5t36.5 -35t56.5 -12.5q15 0 33 1.5t36 5.5l-1 -62q-18 -5 -37.5 -7.5t-42.5 -2.5zM251 514l4 191h71l-28 -191h-47z" />
    <glyph glyph-name="uni013C" unicode="&#x13c;" horiz-adv-x="377" 
d="M286 -8q-78 0 -124 41t-46 114v558h76v-548q0 -30 13 -52.5t36.5 -35t56.5 -12.5q15 0 33 1.5t36 5.5l-1 -62q-18 -5 -37.5 -7.5t-42.5 -2.5zM232 -291l-36 30q23 20 32 44t9 53l13 -11h-56v95h96v-70q0 -46 -13.5 -79.5t-44.5 -61.5z" />
    <glyph glyph-name="ldot" unicode="&#x140;" horiz-adv-x="396" 
d="M286 -8q-78 0 -124 41t-46 114v558h76v-548q0 -30 13 -52.5t36.5 -35t56.5 -12.5q15 0 33 1.5t36 5.5l-1 -62q-18 -5 -37.5 -7.5t-42.5 -2.5zM303 313v89h103v-89h-103z" />
    <glyph glyph-name="uni1E37" unicode="&#x1e37;" horiz-adv-x="377" 
d="M286 -8q-78 0 -124 41t-46 114v558h76v-548q0 -30 13 -52.5t36.5 -35t56.5 -12.5q15 0 33 1.5t36 5.5l-1 -62q-18 -5 -37.5 -7.5t-42.5 -2.5zM194 -188v90h94v-90h-94z" />
    <glyph glyph-name="uni01C9" unicode="&#x1c9;" horiz-adv-x="664" 
d="M286 -8q-78 0 -124 41t-46 114v558h76v-548q0 -30 13 -52.5t36.5 -35t56.5 -12.5q15 0 33 1.5t36 5.5l-1 -62q-18 -5 -37.5 -7.5t-42.5 -2.5zM471 619v89h102v-89h-102zM303 -193l-5 65l61 6q60 6 92.5 31t32.5 79v506h76v-504q0 -40 -12 -71.5t-35.5 -53.5t-60 -35
t-85.5 -17z" />
    <glyph glyph-name="uni1E3B" unicode="&#x1e3b;" horiz-adv-x="377" 
d="M286 -8q-78 0 -124 41t-46 114v558h76v-548q0 -30 13 -52.5t36.5 -35t56.5 -12.5q15 0 33 1.5t36 5.5l-1 -62q-18 -5 -37.5 -7.5t-42.5 -2.5zM49 -160v61h384v-61h-384z" />
    <glyph glyph-name="lslash" unicode="&#x142;" horiz-adv-x="377" 
d="M286 -8q-78 0 -124 41t-46 114v558h76v-548q0 -30 13 -52.5t36.5 -35t56.5 -12.5q15 0 33 1.5t36 5.5l-1 -62q-18 -5 -37.5 -7.5t-42.5 -2.5zM25 254l-27 55l313 152l27 -56z" />
    <glyph glyph-name="m" unicode="m" horiz-adv-x="1151" 
d="M121 0v494h71v-114h3q19 30 46.5 58t67.5 46.5t91 18.5q76 0 130 -31.5t69 -89.5h6q30 50 78.5 85.5t132.5 35.5q63 0 112 -20t76.5 -68.5t27.5 -131.5v-283h-76v277q0 85 -36 122t-111 37q-61 0 -105 -25t-67 -65.5t-23 -89.5v-256h-75v277q0 83 -41 121t-105 38
q-62 0 -105.5 -27.5t-67 -67.5t-23.5 -81v-260h-76z" />
    <glyph glyph-name="uni1E43" unicode="&#x1e43;" horiz-adv-x="1151" 
d="M121 0v494h71v-114h3q19 30 46.5 58t67.5 46.5t91 18.5q76 0 130 -31.5t69 -89.5h6q30 50 78.5 85.5t132.5 35.5q63 0 112 -20t76.5 -68.5t27.5 -131.5v-283h-76v277q0 85 -36 122t-111 37q-61 0 -105 -25t-67 -65.5t-23 -89.5v-256h-75v277q0 83 -41 121t-105 38
q-62 0 -105.5 -27.5t-67 -67.5t-23.5 -81v-260h-76zM528 -189v90h94v-90h-94z" />
    <glyph glyph-name="n" unicode="n" horiz-adv-x="763" 
d="M119 0v494h71v-113h4q32 51 86.5 86.5t136.5 35.5q69 0 120.5 -21t80 -69t28.5 -130v-283h-76v280q0 52 -18.5 86.5t-54 52t-90.5 17.5q-64 0 -111.5 -25.5t-74 -65.5t-26.5 -87v-258h-76z" />
    <glyph glyph-name="nacute" unicode="&#x144;" horiz-adv-x="763" 
d="M119 0v494h71v-113h4q32 51 86.5 86.5t136.5 35.5q69 0 120.5 -21t80 -69t28.5 -130v-283h-76v280q0 52 -18.5 86.5t-54 52t-90.5 17.5q-64 0 -111.5 -25.5t-74 -65.5t-26.5 -87v-258h-76zM357 559l130 202h91l-159 -202h-62z" />
    <glyph glyph-name="napostrophe" unicode="&#x149;" horiz-adv-x="783" 
d="M9 542l-35 30q22 21 33 44.5t12 56.5l9 -12h-56v91h99v-69q0 -47 -16.5 -80.5t-45.5 -60.5zM144 0v494h71v-113h4q32 51 86.5 86.5t136.5 35.5q69 0 120.5 -21t80 -69t28.5 -130v-283h-76v280q0 52 -18.5 86.5t-54 52t-90.5 17.5q-64 0 -111.5 -25.5t-74 -65.5t-26.5 -87
v-258h-76z" />
    <glyph glyph-name="ncaron" unicode="&#x148;" horiz-adv-x="763" 
d="M119 0v494h71v-113h4q32 51 86.5 86.5t136.5 35.5q69 0 120.5 -21t80 -69t28.5 -130v-283h-76v280q0 52 -18.5 86.5t-54 52t-90.5 17.5q-64 0 -111.5 -25.5t-74 -65.5t-26.5 -87v-258h-76zM350 559l-138 202h61l117 -149l117 149h60l-137 -202h-80z" />
    <glyph glyph-name="uni0146" unicode="&#x146;" horiz-adv-x="763" 
d="M119 0v494h71v-113h4q32 51 86.5 86.5t136.5 35.5q69 0 120.5 -21t80 -69t28.5 -130v-283h-76v280q0 52 -18.5 86.5t-54 52t-90.5 17.5q-64 0 -111.5 -25.5t-74 -65.5t-26.5 -87v-258h-76zM365 -292l-36 30q23 20 32 44t9 53l13 -11h-56v95h96v-70q0 -46 -13.5 -79.5
t-44.5 -61.5z" />
    <glyph glyph-name="uni1E45" unicode="&#x1e45;" horiz-adv-x="763" 
d="M119 0v494h71v-113h4q32 51 86.5 86.5t136.5 35.5q69 0 120.5 -21t80 -69t28.5 -130v-283h-76v280q0 52 -18.5 86.5t-54 52t-90.5 17.5q-64 0 -111.5 -25.5t-74 -65.5t-26.5 -87v-258h-76zM343 619v90h94v-90h-94z" />
    <glyph glyph-name="uni1E47" unicode="&#x1e47;" horiz-adv-x="763" 
d="M119 0v494h71v-113h4q32 51 86.5 86.5t136.5 35.5q69 0 120.5 -21t80 -69t28.5 -130v-283h-76v280q0 52 -18.5 86.5t-54 52t-90.5 17.5q-64 0 -111.5 -25.5t-74 -65.5t-26.5 -87v-258h-76zM327 -189v90h94v-90h-94z" />
    <glyph glyph-name="uni01CC" unicode="&#x1cc;" horiz-adv-x="1049" 
d="M119 0v494h71v-113h4q32 51 86.5 86.5t136.5 35.5q69 0 120.5 -21t80 -69t28.5 -130v-283h-76v280q0 52 -18.5 86.5t-54 52t-90.5 17.5q-64 0 -111.5 -25.5t-74 -65.5t-26.5 -87v-258h-76zM857 619v89h102v-89h-102zM689 -193l-5 65l61 6q60 6 92.5 31t32.5 79v506h76
v-504q0 -40 -12 -71.5t-35.5 -53.5t-60 -35t-85.5 -17z" />
    <glyph glyph-name="uni1E49" unicode="&#x1e49;" horiz-adv-x="763" 
d="M119 0v494h71v-113h4q32 51 86.5 86.5t136.5 35.5q69 0 120.5 -21t80 -69t28.5 -130v-283h-76v280q0 52 -18.5 86.5t-54 52t-90.5 17.5q-64 0 -111.5 -25.5t-74 -65.5t-26.5 -87v-258h-76zM182 -161v61h384v-61h-384z" />
    <glyph glyph-name="ntilde" unicode="&#xf1;" horiz-adv-x="763" 
d="M119 0v494h71v-113h4q32 51 86.5 86.5t136.5 35.5q69 0 120.5 -21t80 -69t28.5 -130v-283h-76v280q0 52 -18.5 86.5t-54 52t-90.5 17.5q-64 0 -111.5 -25.5t-74 -65.5t-26.5 -87v-258h-76zM229 602l-56 3q7 65 40 102t84 37q39 0 65.5 -17.5t43.5 -29.5q12 -8 31.5 -22
t45.5 -14q29 0 44 20t24 65l56 -3q-6 -66 -38.5 -102.5t-84.5 -36.5q-42 0 -68.5 18t-41.5 29q-13 10 -32.5 23t-44.5 13q-28 0 -43.5 -20t-24.5 -65z" />
    <glyph glyph-name="eng" unicode="&#x14b;" horiz-adv-x="763" 
d="M389 -193l-5 66l60 5q61 6 93.5 31t32.5 79v292q0 52 -18.5 86.5t-54 52t-92.5 17.5q-63 0 -110.5 -25.5t-73.5 -65.5t-26 -87v-258h-76v494h71v-113h4q32 51 85.5 86.5t135.5 35.5q70 0 121.5 -21t80.5 -69t29 -130v-292q0 -41 -12 -72t-35.5 -53.5t-60 -35.5t-85.5 -17
z" />
    <glyph glyph-name="o" unicode="o" horiz-adv-x="744" 
d="M373 -8q-90 0 -156 32t-102 90t-36 134t36 133t102 89.5t155 32.5q91 0 156 -32.5t101 -89.5t36 -133t-35.5 -134t-101 -90t-155.5 -32zM371 58q103 0 160 53.5t57 136.5t-57 135.5t-159 52.5q-103 0 -159.5 -52.5t-56.5 -135.5t57 -136.5t158 -53.5z" />
    <glyph glyph-name="oacute" unicode="&#xf3;" horiz-adv-x="744" 
d="M373 -8q-90 0 -156 32t-102 90t-36 134t36 133t102 89.5t155 32.5q91 0 156 -32.5t101 -89.5t36 -133t-35.5 -134t-101 -90t-155.5 -32zM371 58q103 0 160 53.5t57 136.5t-57 135.5t-159 52.5q-103 0 -159.5 -52.5t-56.5 -135.5t57 -136.5t158 -53.5zM340 559l130 202h91
l-159 -202h-62z" />
    <glyph glyph-name="obreve" unicode="&#x14f;" horiz-adv-x="744" 
d="M373 -8q-90 0 -156 32t-102 90t-36 134t36 133t102 89.5t155 32.5q91 0 156 -32.5t101 -89.5t36 -133t-35.5 -134t-101 -90t-155.5 -32zM371 58q103 0 160 53.5t57 136.5t-57 135.5t-159 52.5q-103 0 -159.5 -52.5t-56.5 -135.5t57 -136.5t158 -53.5zM372 556
q-58 0 -98 22.5t-62.5 67t-28.5 109.5l59 7q7 -77 37 -112.5t93 -35.5q62 0 93 35.5t38 112.5l58 -7q-5 -65 -28 -109.5t-63.5 -67t-97.5 -22.5z" />
    <glyph glyph-name="ocircumflex" unicode="&#xf4;" horiz-adv-x="744" 
d="M373 -8q-90 0 -156 32t-102 90t-36 134t36 133t102 89.5t155 32.5q91 0 156 -32.5t101 -89.5t36 -133t-35.5 -134t-101 -90t-155.5 -32zM371 58q103 0 160 53.5t57 136.5t-57 135.5t-159 52.5q-103 0 -159.5 -52.5t-56.5 -135.5t57 -136.5t158 -53.5zM195 566l138 195h80
l137 -195h-60l-117 142l-117 -142h-61z" />
    <glyph glyph-name="uni1ED1" unicode="&#x1ed1;" horiz-adv-x="744" 
d="M373 -8q-90 0 -156 32t-102 90t-36 134t36 133t102 89.5t155 32.5q91 0 156 -32.5t101 -89.5t36 -133t-35.5 -134t-101 -90t-155.5 -32zM371 58q103 0 160 53.5t57 136.5t-57 135.5t-159 52.5q-103 0 -159.5 -52.5t-56.5 -135.5t57 -136.5t158 -53.5zM187 567l142 174h80
l141 -174h-62l-119 120l-120 -120h-62zM482 676l103 150h85l-131 -150h-57z" />
    <glyph glyph-name="uni1ED9" unicode="&#x1ed9;" horiz-adv-x="744" 
d="M373 -8q-90 0 -156 32t-102 90t-36 134t36 133t102 89.5t155 32.5q91 0 156 -32.5t101 -89.5t36 -133t-35.5 -134t-101 -90t-155.5 -32zM371 58q103 0 160 53.5t57 136.5t-57 135.5t-159 52.5q-103 0 -159.5 -52.5t-56.5 -135.5t57 -136.5t158 -53.5zM325 -196v90h94v-90
h-94zM195 566l138 195h80l137 -195h-60l-117 142l-117 -142h-61z" />
    <glyph glyph-name="uni1ED3" unicode="&#x1ed3;" horiz-adv-x="744" 
d="M373 -8q-90 0 -156 32t-102 90t-36 134t36 133t102 89.5t155 32.5q91 0 156 -32.5t101 -89.5t36 -133t-35.5 -134t-101 -90t-155.5 -32zM371 58q103 0 160 53.5t57 136.5t-57 135.5t-159 52.5q-103 0 -159.5 -52.5t-56.5 -135.5t57 -136.5t158 -53.5zM187 567l142 174h80
l142 -174h-63l-119 120l-120 -120h-62zM534 676l-131 150h85l102 -150h-56z" />
    <glyph glyph-name="uni1ED5" unicode="&#x1ed5;" horiz-adv-x="744" 
d="M373 -8q-90 0 -156 32t-102 90t-36 134t36 133t102 89.5t155 32.5q91 0 156 -32.5t101 -89.5t36 -133t-35.5 -134t-101 -90t-155.5 -32zM371 58q103 0 160 53.5t57 136.5t-57 135.5t-159 52.5q-103 0 -159.5 -52.5t-56.5 -135.5t57 -136.5t158 -53.5zM187 568l142 174h80
l142 -174h-63l-119 120l-120 -120h-62zM495 680q0 22 11.5 34.5t27.5 21t27.5 15.5t11.5 17q0 12 -15 17.5t-39 5.5q-20 0 -39.5 -3.5t-41.5 -11.5l-15 38q20 9 46.5 14.5t65.5 5.5q53 0 77.5 -13.5t24.5 -39.5q0 -22 -12.5 -34t-30 -20.5t-30 -18.5t-12.5 -28h-57z" />
    <glyph glyph-name="uni1ED7" unicode="&#x1ed7;" horiz-adv-x="744" 
d="M373 -8q-90 0 -156 32t-102 90t-36 134t36 133t102 89.5t155 32.5q91 0 156 -32.5t101 -89.5t36 -133t-35.5 -134t-101 -90t-155.5 -32zM371 58q103 0 160 53.5t57 136.5t-57 135.5t-159 52.5q-103 0 -159.5 -52.5t-56.5 -135.5t57 -136.5t158 -53.5zM192 567l142 137h79
l142 -137h-63l-118 85l-120 -85h-62zM232 730l-53 4q5 33 18.5 55.5t37 35t56.5 12.5t55.5 -11t38.5 -17q10 -4 28 -14t43 -10q23 0 37.5 12t21.5 42l53 -5q-7 -47 -35 -74.5t-78 -27.5q-32 0 -53.5 10.5t-33.5 14.5q-19 12 -36.5 19.5t-40.5 7.5q-21 0 -36.5 -11.5
t-22.5 -42.5z" />
    <glyph glyph-name="uni020D" unicode="&#x20d;" horiz-adv-x="744" 
d="M373 -8q-90 0 -156 32t-102 90t-36 134t36 133t102 89.5t155 32.5q91 0 156 -32.5t101 -89.5t36 -133t-35.5 -134t-101 -90t-155.5 -32zM371 58q103 0 160 53.5t57 136.5t-57 135.5t-159 52.5q-103 0 -159.5 -52.5t-56.5 -135.5t57 -136.5t158 -53.5zM425 559l-102 202
h79l69 -202h-46zM274 559l-101 202h79l70 -202h-48z" />
    <glyph glyph-name="odieresis" unicode="&#xf6;" horiz-adv-x="744" 
d="M373 -8q-90 0 -156 32t-102 90t-36 134t36 133t102 89.5t155 32.5q91 0 156 -32.5t101 -89.5t36 -133t-35.5 -134t-101 -90t-155.5 -32zM371 58q103 0 160 53.5t57 136.5t-57 135.5t-159 52.5q-103 0 -159.5 -52.5t-56.5 -135.5t57 -136.5t158 -53.5zM443 619v88h93v-88
h-93zM210 619v88h93v-88h-93z" />
    <glyph glyph-name="uni022B" unicode="&#x22b;" horiz-adv-x="744" 
d="M373 -8q-90 0 -156 32t-102 90t-36 134t36 133t102 89.5t155 32.5q91 0 156 -32.5t101 -89.5t36 -133t-35.5 -134t-101 -90t-155.5 -32zM371 58q103 0 160 53.5t57 136.5t-57 135.5t-159 52.5q-103 0 -159.5 -52.5t-56.5 -135.5t57 -136.5t158 -53.5zM181 720v58h384v-58
h-384zM211 590v77h94v-77h-94zM441 590v77h94v-77h-94z" />
    <glyph glyph-name="uni0231" unicode="&#x231;" horiz-adv-x="744" 
d="M373 -8q-90 0 -156 32t-102 90t-36 134t36 133t102 89.5t155 32.5q91 0 156 -32.5t101 -89.5t36 -133t-35.5 -134t-101 -90t-155.5 -32zM371 58q103 0 160 53.5t57 136.5t-57 135.5t-159 52.5q-103 0 -159.5 -52.5t-56.5 -135.5t57 -136.5t158 -53.5zM190 723v56h366v-56
h-366zM325 589v83h97v-83h-97z" />
    <glyph glyph-name="uni1ECD" unicode="&#x1ecd;" horiz-adv-x="744" 
d="M373 -8q-90 0 -156 32t-102 90t-36 134t36 133t102 89.5t155 32.5q91 0 156 -32.5t101 -89.5t36 -133t-35.5 -134t-101 -90t-155.5 -32zM371 58q103 0 160 53.5t57 136.5t-57 135.5t-159 52.5q-103 0 -159.5 -52.5t-56.5 -135.5t57 -136.5t158 -53.5zM325 -196v90h94v-90
h-94z" />
    <glyph glyph-name="ograve" unicode="&#xf2;" horiz-adv-x="744" 
d="M373 -8q-90 0 -156 32t-102 90t-36 134t36 133t102 89.5t155 32.5q91 0 156 -32.5t101 -89.5t36 -133t-35.5 -134t-101 -90t-155.5 -32zM371 58q103 0 160 53.5t57 136.5t-57 135.5t-159 52.5q-103 0 -159.5 -52.5t-56.5 -135.5t57 -136.5t158 -53.5zM344 560l-159 201
h91l130 -201h-62z" />
    <glyph glyph-name="uni1ECF" unicode="&#x1ecf;" horiz-adv-x="744" 
d="M373 -8q-90 0 -156 32t-102 90t-36 134t36 133t102 89.5t155 32.5q91 0 156 -32.5t101 -89.5t36 -133t-35.5 -134t-101 -90t-155.5 -32zM371 58q103 0 160 53.5t57 136.5t-57 135.5t-159 52.5q-103 0 -159.5 -52.5t-56.5 -135.5t57 -136.5t158 -53.5zM342 560v20
q0 24 13 39t29.5 25t29.5 20t13 25q0 16 -16 23.5t-49 7.5q-20 0 -39 -4t-40 -12l-16 44q21 10 48.5 15.5t61.5 5.5q59 0 90 -17.5t31 -51.5q0 -25 -14.5 -40.5t-33.5 -26t-33 -24t-14 -34.5v-15h-61z" />
    <glyph glyph-name="ohorn" unicode="&#x1a1;" horiz-adv-x="744" 
d="M373 -8q-90 0 -156 32t-102 90t-36 134t36 133t102 89.5t155 32.5q91 0 156 -32.5t101 -89.5t36 -133t-35.5 -134t-101 -90t-155.5 -32zM371 58q103 0 160 53.5t57 136.5t-57 135.5t-159 52.5q-103 0 -159.5 -52.5t-56.5 -135.5t57 -136.5t158 -53.5zM471 450l-37 27v17
q56 1 87 12t43.5 36t12.5 67v14h72v-26q0 -48 -20 -80.5t-59.5 -48.5t-98.5 -18z" />
    <glyph glyph-name="uni1EDB" unicode="&#x1edb;" horiz-adv-x="744" 
d="M373 -8q-90 0 -156 32t-102 90t-36 134t36 133t102 89.5t155 32.5q91 0 156 -32.5t101 -89.5t36 -133t-35.5 -134t-101 -90t-155.5 -32zM371 58q103 0 160 53.5t57 136.5t-57 135.5t-159 52.5q-103 0 -159.5 -52.5t-56.5 -135.5t57 -136.5t158 -53.5zM471 450l-37 27v17
q56 1 87 12t43.5 36t12.5 67v14h72v-26q0 -48 -20 -80.5t-59.5 -48.5t-98.5 -18zM317 559l130 202h91l-159 -202h-62z" />
    <glyph glyph-name="uni1EE3" unicode="&#x1ee3;" horiz-adv-x="744" 
d="M373 -8q-90 0 -156 32t-102 90t-36 134t36 133t102 89.5t155 32.5q91 0 156 -32.5t101 -89.5t36 -133t-35.5 -134t-101 -90t-155.5 -32zM371 58q103 0 160 53.5t57 136.5t-57 135.5t-159 52.5q-103 0 -159.5 -52.5t-56.5 -135.5t57 -136.5t158 -53.5zM471 450l-37 27v17
q56 1 87 12t43.5 36t12.5 67v14h72v-26q0 -48 -20 -80.5t-59.5 -48.5t-98.5 -18zM322 -189v90h94v-90h-94z" />
    <glyph glyph-name="uni1EDD" unicode="&#x1edd;" horiz-adv-x="744" 
d="M373 -8q-90 0 -156 32t-102 90t-36 134t36 133t102 89.5t155 32.5q91 0 156 -32.5t101 -89.5t36 -133t-35.5 -134t-101 -90t-155.5 -32zM371 58q103 0 160 53.5t57 136.5t-57 135.5t-159 52.5q-103 0 -159.5 -52.5t-56.5 -135.5t57 -136.5t158 -53.5zM471 450l-37 27v17
q56 1 87 12t43.5 36t12.5 67v14h72v-26q0 -48 -20 -80.5t-59.5 -48.5t-98.5 -18zM321 560l-159 201h91l130 -201h-62z" />
    <glyph glyph-name="uni1EDF" unicode="&#x1edf;" horiz-adv-x="744" 
d="M373 -8q-90 0 -156 32t-102 90t-36 134t36 133t102 89.5t155 32.5q91 0 156 -32.5t101 -89.5t36 -133t-35.5 -134t-101 -90t-155.5 -32zM371 58q103 0 160 53.5t57 136.5t-57 135.5t-159 52.5q-103 0 -159.5 -52.5t-56.5 -135.5t57 -136.5t158 -53.5zM471 450l-37 27v17
q56 1 87 12t43.5 36t12.5 67v14h72v-26q0 -48 -20 -80.5t-59.5 -48.5t-98.5 -18zM319 560v20q0 24 13 39t29.5 25t29.5 20t13 25q0 16 -16 23.5t-49 7.5q-20 0 -39 -4t-40 -12l-16 44q21 10 48.5 15.5t61.5 5.5q59 0 90 -17.5t31 -51.5q0 -25 -14.5 -40.5t-33.5 -26t-33 -24
t-14 -34.5v-15h-61z" />
    <glyph glyph-name="uni1EE1" unicode="&#x1ee1;" horiz-adv-x="744" 
d="M373 -8q-90 0 -156 32t-102 90t-36 134t36 133t102 89.5t155 32.5q91 0 156 -32.5t101 -89.5t36 -133t-35.5 -134t-101 -90t-155.5 -32zM371 58q103 0 160 53.5t57 136.5t-57 135.5t-159 52.5q-103 0 -159.5 -52.5t-56.5 -135.5t57 -136.5t158 -53.5zM471 450l-37 27v17
q56 1 87 12t43.5 36t12.5 67v14h72v-26q0 -48 -20 -80.5t-59.5 -48.5t-98.5 -18zM180 605l-57 3q8 67 39.5 102.5t82.5 35.5q41 0 67.5 -19t40.5 -28q11 -9 30.5 -23t45.5 -14q28 0 44 20.5t24 66.5l56 -3q-6 -67 -37.5 -102.5t-82.5 -35.5q-40 0 -66 17.5t-43 28.5
q-13 10 -32 23.5t-45 13.5q-28 0 -44 -21.5t-23 -64.5z" />
    <glyph glyph-name="ohungarumlaut" unicode="&#x151;" horiz-adv-x="744" 
d="M373 -8q-90 0 -156 32t-102 90t-36 134t36 133t102 89.5t155 32.5q91 0 156 -32.5t101 -89.5t36 -133t-35.5 -134t-101 -90t-155.5 -32zM371 58q103 0 160 53.5t57 136.5t-57 135.5t-159 52.5q-103 0 -159.5 -52.5t-56.5 -135.5t57 -136.5t158 -53.5zM424 560l69 201h80
l-102 -201h-47zM274 560l69 201h79l-101 -201h-47z" />
    <glyph glyph-name="uni020F" unicode="&#x20f;" horiz-adv-x="744" 
d="M373 -8q-90 0 -156 32t-102 90t-36 134t36 133t102 89.5t155 32.5q91 0 156 -32.5t101 -89.5t36 -133t-35.5 -134t-101 -90t-155.5 -32zM371 58q103 0 160 53.5t57 136.5t-57 135.5t-159 52.5q-103 0 -159.5 -52.5t-56.5 -135.5t57 -136.5t158 -53.5zM242 556l-59 7
q6 66 28.5 110t62.5 66.5t98 22.5t98 -22.5t63 -66.5t28 -110l-58 -7q-7 78 -38 113t-93 35t-92.5 -35t-37.5 -113z" />
    <glyph glyph-name="omacron" unicode="&#x14d;" horiz-adv-x="744" 
d="M373 -8q-90 0 -156 32t-102 90t-36 134t36 133t102 89.5t155 32.5q91 0 156 -32.5t101 -89.5t36 -133t-35.5 -134t-101 -90t-155.5 -32zM371 58q103 0 160 53.5t57 136.5t-57 135.5t-159 52.5q-103 0 -159.5 -52.5t-56.5 -135.5t57 -136.5t158 -53.5zM181 632v62h384v-62
h-384z" />
    <glyph glyph-name="uni1E53" unicode="&#x1e53;" horiz-adv-x="744" 
d="M373 -8q-90 0 -156 32t-102 90t-36 134t36 133t102 89.5t155 32.5q91 0 156 -32.5t101 -89.5t36 -133t-35.5 -134t-101 -90t-155.5 -32zM371 58q103 0 160 53.5t57 136.5t-57 135.5t-159 52.5q-103 0 -159.5 -52.5t-56.5 -135.5t57 -136.5t158 -53.5zM190 585v56h366v-56
h-366zM329 677l116 146h92l-148 -146h-60z" />
    <glyph glyph-name="uni1E51" unicode="&#x1e51;" horiz-adv-x="744" 
d="M373 -8q-90 0 -156 32t-102 90t-36 134t36 133t102 89.5t155 32.5q91 0 156 -32.5t101 -89.5t36 -133t-35.5 -134t-101 -90t-155.5 -32zM371 58q103 0 160 53.5t57 136.5t-57 135.5t-159 52.5q-103 0 -159.5 -52.5t-56.5 -135.5t57 -136.5t158 -53.5zM190 585v56h366v-56
h-366zM357 677l-148 146h92l116 -146h-60z" />
    <glyph glyph-name="uni01EB" unicode="&#x1eb;" horiz-adv-x="744" 
d="M373 -8q-90 0 -156 32t-102 90t-36 134t36 133t102 89.5t155 32.5q91 0 156 -32.5t101 -89.5t36 -133t-35.5 -134t-101 -90t-155.5 -32zM371 58q103 0 160 53.5t57 136.5t-57 135.5t-159 52.5q-103 0 -159.5 -52.5t-56.5 -135.5t57 -136.5t158 -53.5zM386 -194
q-61 0 -95.5 25.5t-34.5 69.5q0 41 32 73.5t94 53.5l26 -28q-28 -10 -48 -24.5t-30.5 -31t-10.5 -34.5q0 -24 19 -37.5t53 -13.5q16 0 33 3.5t34 10.5l19 -49q-17 -8 -40.5 -13t-50.5 -5z" />
    <glyph glyph-name="oslash" unicode="&#xf8;" horiz-adv-x="744" 
d="M372 -8q-89 0 -155 32t-102 90t-36 134t36 133t102 89.5t155 32.5q91 0 156 -32.5t101 -89.5t36 -133t-36 -134t-101 -90t-156 -32zM371 55q104 0 161.5 54t57.5 139q0 84 -57.5 138t-160.5 54q-104 0 -161 -54t-57 -138q0 -85 57 -139t160 -54zM196 -44l-53 35l406 545
l52 -34z" />
    <glyph glyph-name="oslashacute" unicode="&#x1ff;" horiz-adv-x="744" 
d="M372 -8q-89 0 -155 32t-102 90t-36 134t36 133t102 89.5t155 32.5q91 0 156 -32.5t101 -89.5t36 -133t-36 -134t-101 -90t-156 -32zM371 55q104 0 161.5 54t57.5 139q0 84 -57.5 138t-160.5 54q-104 0 -161 -54t-57 -138q0 -85 57 -139t160 -54zM196 -44l-53 35l406 545
l52 -34zM341 559l130 202h91l-159 -202h-62z" />
    <glyph glyph-name="otilde" unicode="&#xf5;" horiz-adv-x="744" 
d="M373 -8q-90 0 -156 32t-102 90t-36 134t36 133t102 89.5t155 32.5q91 0 156 -32.5t101 -89.5t36 -133t-35.5 -134t-101 -90t-155.5 -32zM371 58q103 0 160 53.5t57 136.5t-57 135.5t-159 52.5q-103 0 -159.5 -52.5t-56.5 -135.5t57 -136.5t158 -53.5zM212 602l-56 3
q7 65 40 102t84 37q39 0 65.5 -17.5t43.5 -29.5q12 -8 31.5 -22t45.5 -14q29 0 44 20t24 65l56 -3q-6 -66 -38.5 -102.5t-84.5 -36.5q-42 0 -68.5 18t-41.5 29q-13 10 -32.5 23t-44.5 13q-28 0 -43.5 -20t-24.5 -65z" />
    <glyph glyph-name="uni1E4D" unicode="&#x1e4d;" horiz-adv-x="744" 
d="M373 -8q-90 0 -156 32t-102 90t-36 134t36 133t102 89.5t155 32.5q91 0 156 -32.5t101 -89.5t36 -133t-35.5 -134t-101 -90t-155.5 -32zM371 58q103 0 160 53.5t57 136.5t-57 135.5t-159 52.5q-103 0 -159.5 -52.5t-56.5 -135.5t57 -136.5t158 -53.5zM231 554l-53 3
q5 34 19.5 57t38 34.5t54.5 11.5q34 0 56.5 -11.5t37.5 -16.5l30 -15t41 -9q24 0 38.5 13t20.5 41l53 -4q-7 -49 -35.5 -75.5t-77.5 -26.5q-32 0 -54 11t-36 17q-14 7 -31.5 15.5t-42.5 8.5q-23 0 -37.5 -12.5t-21.5 -41.5zM343 679l116 146h91l-148 -146h-59z" />
    <glyph glyph-name="uni1E4F" unicode="&#x1e4f;" horiz-adv-x="744" 
d="M373 -8q-90 0 -156 32t-102 90t-36 134t36 133t102 89.5t155 32.5q91 0 156 -32.5t101 -89.5t36 -133t-35.5 -134t-101 -90t-155.5 -32zM371 58q103 0 160 53.5t57 136.5t-57 135.5t-159 52.5q-103 0 -159.5 -52.5t-56.5 -135.5t57 -136.5t158 -53.5zM231 554l-53 3
q5 34 19.5 57t38 34.5t54.5 11.5q34 0 56.5 -11.5t37.5 -16.5l30 -15t41 -9q24 0 38.5 13t20.5 41l53 -4q-7 -49 -35.5 -75.5t-77.5 -26.5q-32 0 -54 11t-36 17q-14 7 -31.5 15.5t-42.5 8.5q-23 0 -37.5 -12.5t-21.5 -41.5zM211 704v76h93v-76h-93zM440 704v76h94v-76h-94z
" />
    <glyph glyph-name="uni022D" unicode="&#x22d;" horiz-adv-x="744" 
d="M373 -8q-90 0 -156 32t-102 90t-36 134t36 133t102 89.5t155 32.5q91 0 156 -32.5t101 -89.5t36 -133t-35.5 -134t-101 -90t-155.5 -32zM371 58q103 0 160 53.5t57 136.5t-57 135.5t-159 52.5q-103 0 -159.5 -52.5t-56.5 -135.5t57 -136.5t158 -53.5zM180 717v57h384v-57
h-384zM231 554l-53 3q5 34 19.5 57t38 34.5t54.5 11.5q34 0 56.5 -11.5t37.5 -16.5l30 -15t41 -9q24 0 38.5 13t20.5 41l53 -4q-7 -49 -35.5 -75.5t-77.5 -26.5q-32 0 -54 11t-36 17q-14 7 -31.5 15.5t-42.5 8.5q-23 0 -37.5 -12.5t-21.5 -41.5z" />
    <glyph glyph-name="oe" unicode="&#x153;" horiz-adv-x="1228" 
d="M372 -8q-88 0 -153.5 32t-102.5 89.5t-37 134.5q0 76 37 133.5t102.5 89.5t153.5 32q89 0 160 -38.5t97 -108.5h-6q27 69 95.5 108t162.5 39q86 0 147 -31.5t93.5 -85.5t32.5 -122v-37h-512v58h470l-27 -25q0 54 -22.5 94.5t-67.5 64t-112 23.5q-63 0 -113 -20.5
t-78.5 -61.5t-28.5 -103v-9q0 -68 29.5 -110t84 -61.5t125.5 -19.5q68 0 119.5 12t92.5 46l29 -55q-41 -36 -106 -52t-145 -16q-64 0 -117.5 15t-93 47.5t-59.5 81.5h7q-16 -40 -52.5 -73t-88.5 -52t-116 -19zM372 58q66 0 114.5 24t75 67t26.5 99t-26.5 98.5t-74.5 66
t-115 23.5q-66 0 -114.5 -23.5t-75 -66t-26.5 -98.5t26.5 -99t75 -67t114.5 -24z" />
    <glyph glyph-name="p" unicode="p" horiz-adv-x="783" 
d="M119 -180v674h71v-109h1q26 57 87.5 87.5t141.5 30.5q86 0 149.5 -33t99 -90t35.5 -133q0 -75 -35.5 -132.5t-99 -90t-149.5 -32.5q-79 0 -139 30t-86 84v0v-286h-76zM410 57q101 0 158.5 53.5t57.5 137.5q0 83 -57 136.5t-159 53.5q-101 0 -158.5 -53.5t-57.5 -136.5
q0 -84 57.5 -137.5t158.5 -53.5z" />
    <glyph glyph-name="thorn" unicode="&#xfe;" horiz-adv-x="783" 
d="M119 -180v885h74v-317h1q26 54 86.5 84.5t139.5 30.5q86 0 149.5 -33t99 -90t35.5 -133t-36 -133t-99 -89.5t-149 -32.5q-78 0 -138.5 29.5t-86.5 84.5v0v-286h-76zM410 57q101 0 158.5 53.5t57.5 137.5q0 83 -57 136.5t-159 53.5q-101 0 -158.5 -53.5t-57.5 -136.5
q0 -84 57.5 -137.5t158.5 -53.5z" />
    <glyph glyph-name="q" unicode="q" horiz-adv-x="783" 
d="M588 -180v286h-1q-25 -54 -84.5 -84t-139.5 -30q-85 0 -148.5 32.5t-99.5 90t-36 132.5q0 76 35.5 133t99.5 90t149 33q82 0 142 -30.5t87 -87.5h1v109h71v-674h-76zM374 57q100 0 157.5 53.5t57.5 137.5q0 83 -57.5 136.5t-158.5 53.5q-102 0 -159 -53.5t-57 -136.5
q0 -84 57.5 -137.5t159.5 -53.5z" />
    <glyph glyph-name="r" unicode="r" horiz-adv-x="494" 
d="M119 0v494h71v-115h-1q27 57 88 87t135 35l49 2l7 -70l-74 -5q-94 -6 -146.5 -49.5t-52.5 -103.5v-275h-76z" />
    <glyph glyph-name="racute" unicode="&#x155;" horiz-adv-x="494" 
d="M119 0v494h71v-115h-1q27 57 88 87t135 35l49 2l7 -70l-74 -5q-94 -6 -146.5 -49.5t-52.5 -103.5v-275h-76zM250 559l130 202h91l-159 -202h-62z" />
    <glyph glyph-name="rcaron" unicode="&#x159;" horiz-adv-x="494" 
d="M119 0v494h71v-115h-1q27 57 88 87t135 35l49 2l7 -70l-74 -5q-94 -6 -146.5 -49.5t-52.5 -103.5v-275h-76zM243 559l-138 202h61l117 -149l117 149h60l-137 -202h-80z" />
    <glyph glyph-name="uni0157" unicode="&#x157;" horiz-adv-x="494" 
d="M119 0v494h71v-115h-1q27 57 88 87t135 35l49 2l7 -70l-74 -5q-94 -6 -146.5 -49.5t-52.5 -103.5v-275h-76zM149 -292l-36 30q23 20 32 44t9 53l13 -11h-56v95h96v-70q0 -46 -13.5 -79.5t-44.5 -61.5z" />
    <glyph glyph-name="uni0211" unicode="&#x211;" horiz-adv-x="494" 
d="M119 0v494h71v-115h-1q27 57 88 87t135 35l49 2l7 -70l-74 -5q-94 -6 -146.5 -49.5t-52.5 -103.5v-275h-76zM335 559l-102 202h79l69 -202h-46zM184 559l-101 202h79l70 -202h-48z" />
    <glyph glyph-name="uni1E5B" unicode="&#x1e5b;" horiz-adv-x="494" 
d="M119 0v494h71v-115h-1q27 57 88 87t135 35l49 2l7 -70l-74 -5q-94 -6 -146.5 -49.5t-52.5 -103.5v-275h-76zM111 -189v90h94v-90h-94z" />
    <glyph glyph-name="uni0213" unicode="&#x213;" horiz-adv-x="494" 
d="M119 0v494h71v-115h-1q27 57 88 87t135 35l49 2l7 -70l-74 -5q-94 -6 -146.5 -49.5t-52.5 -103.5v-275h-76zM152 556l-59 7q6 66 28.5 110t62.5 66.5t98 22.5t98 -22.5t63 -66.5t28 -110l-58 -7q-7 78 -38 113t-93 35t-92.5 -35t-37.5 -113z" />
    <glyph glyph-name="uni1E5F" unicode="&#x1e5f;" horiz-adv-x="494" 
d="M119 0v494h71v-115h-1q27 57 88 87t135 35l49 2l7 -70l-74 -5q-94 -6 -146.5 -49.5t-52.5 -103.5v-275h-76zM-34 -161v61h384v-61h-384z" />
    <glyph glyph-name="s" unicode="s" horiz-adv-x="662" 
d="M341 -8q-56 0 -105.5 7.5t-89.5 20.5t-63 33l27 55q29 -18 66 -30t79.5 -18t86.5 -6q76 0 121.5 21.5t45.5 57.5q0 30 -23.5 48.5t-82.5 24.5l-145 17q-77 9 -118.5 43.5t-41.5 90.5q0 41 27.5 73.5t80 52.5t129.5 20q47 0 93.5 -7.5t84.5 -21t59 -34.5l-31 -53
q-26 20 -60 31.5t-72 16.5t-76 5q-79 0 -119.5 -23.5t-40.5 -56.5q0 -32 22.5 -50t76.5 -24l142 -18q85 -9 127.5 -42t42.5 -91q0 -42 -30 -75t-84.5 -50.5t-128.5 -17.5z" />
    <glyph glyph-name="sacute" unicode="&#x15b;" horiz-adv-x="662" 
d="M341 -8q-56 0 -105.5 7.5t-89.5 20.5t-63 33l27 55q29 -18 66 -30t79.5 -18t86.5 -6q76 0 121.5 21.5t45.5 57.5q0 30 -23.5 48.5t-82.5 24.5l-145 17q-77 9 -118.5 43.5t-41.5 90.5q0 41 27.5 73.5t80 52.5t129.5 20q47 0 93.5 -7.5t84.5 -21t59 -34.5l-31 -53
q-26 20 -60 31.5t-72 16.5t-76 5q-79 0 -119.5 -23.5t-40.5 -56.5q0 -32 22.5 -50t76.5 -24l142 -18q85 -9 127.5 -42t42.5 -91q0 -42 -30 -75t-84.5 -50.5t-128.5 -17.5zM301 559l130 202h91l-159 -202h-62z" />
    <glyph glyph-name="uni1E65" unicode="&#x1e65;" horiz-adv-x="662" 
d="M341 -8q-56 0 -105.5 7.5t-89.5 20.5t-63 33l27 55q29 -18 66 -30t79.5 -18t86.5 -6q76 0 121.5 21.5t45.5 57.5q0 30 -23.5 48.5t-82.5 24.5l-145 17q-77 9 -118.5 43.5t-41.5 90.5q0 41 27.5 73.5t80 52.5t129.5 20q47 0 93.5 -7.5t84.5 -21t59 -34.5l-31 -53
q-26 20 -60 31.5t-72 16.5t-76 5q-79 0 -119.5 -23.5t-40.5 -56.5q0 -32 22.5 -50t76.5 -24l142 -18q85 -9 127.5 -42t42.5 -91q0 -42 -30 -75t-84.5 -50.5t-128.5 -17.5zM303 558l130 195h91l-161 -195h-60zM237 747v80h96v-80h-96z" />
    <glyph glyph-name="scaron" unicode="&#x161;" horiz-adv-x="662" 
d="M341 -8q-56 0 -105.5 7.5t-89.5 20.5t-63 33l27 55q29 -18 66 -30t79.5 -18t86.5 -6q76 0 121.5 21.5t45.5 57.5q0 30 -23.5 48.5t-82.5 24.5l-145 17q-77 9 -118.5 43.5t-41.5 90.5q0 41 27.5 73.5t80 52.5t129.5 20q47 0 93.5 -7.5t84.5 -21t59 -34.5l-31 -53
q-26 20 -60 31.5t-72 16.5t-76 5q-79 0 -119.5 -23.5t-40.5 -56.5q0 -32 22.5 -50t76.5 -24l142 -18q85 -9 127.5 -42t42.5 -91q0 -42 -30 -75t-84.5 -50.5t-128.5 -17.5zM294 559l-138 202h61l117 -149l117 149h60l-137 -202h-80z" />
    <glyph glyph-name="uni1E67" unicode="&#x1e67;" horiz-adv-x="662" 
d="M341 -8q-56 0 -105.5 7.5t-89.5 20.5t-63 33l27 55q29 -18 66 -30t79.5 -18t86.5 -6q76 0 121.5 21.5t45.5 57.5q0 30 -23.5 48.5t-82.5 24.5l-145 17q-77 9 -118.5 43.5t-41.5 90.5q0 41 27.5 73.5t80 52.5t129.5 20q47 0 93.5 -7.5t84.5 -21t59 -34.5l-31 -53
q-26 20 -60 31.5t-72 16.5t-76 5q-79 0 -119.5 -23.5t-40.5 -56.5q0 -32 22.5 -50t76.5 -24l142 -18q85 -9 127.5 -42t42.5 -91q0 -42 -30 -75t-84.5 -50.5t-128.5 -17.5zM294 559l-136 159h60l116 -110l116 110h60l-137 -159h-79zM286 756v81h97v-81h-97z" />
    <glyph glyph-name="scedilla" unicode="&#x15f;" horiz-adv-x="662" 
d="M341 -8q-56 0 -105.5 7.5t-89.5 20.5t-63 33l27 55q29 -18 66 -30t79.5 -18t86.5 -6q76 0 121.5 21.5t45.5 57.5q0 30 -23.5 48.5t-82.5 24.5l-145 17q-77 9 -118.5 43.5t-41.5 90.5q0 41 27.5 73.5t80 52.5t129.5 20q47 0 93.5 -7.5t84.5 -21t59 -34.5l-31 -53
q-26 20 -60 31.5t-72 16.5t-76 5q-79 0 -119.5 -23.5t-40.5 -56.5q0 -32 22.5 -50t76.5 -24l142 -18q85 -9 127.5 -42t42.5 -91q0 -42 -30 -75t-84.5 -50.5t-128.5 -17.5zM351 -193q-29 0 -58 5t-47 15l15 44q25 -9 45 -13.5t46 -4.5q42 0 61.5 9t19.5 28q0 15 -13 22t-38 7
q-14 0 -31.5 -2t-33.5 -7l-18 16l15 94h53l-12 -77l-25 7q20 5 36 7t29 2q31 0 53.5 -8t34.5 -23.5t12 -38.5q0 -27 -17 -45t-49.5 -27.5t-77.5 -9.5z" />
    <glyph glyph-name="scircumflex" unicode="&#x15d;" horiz-adv-x="662" 
d="M341 -8q-56 0 -105.5 7.5t-89.5 20.5t-63 33l27 55q29 -18 66 -30t79.5 -18t86.5 -6q76 0 121.5 21.5t45.5 57.5q0 30 -23.5 48.5t-82.5 24.5l-145 17q-77 9 -118.5 43.5t-41.5 90.5q0 41 27.5 73.5t80 52.5t129.5 20q47 0 93.5 -7.5t84.5 -21t59 -34.5l-31 -53
q-26 20 -60 31.5t-72 16.5t-76 5q-79 0 -119.5 -23.5t-40.5 -56.5q0 -32 22.5 -50t76.5 -24l142 -18q85 -9 127.5 -42t42.5 -91q0 -42 -30 -75t-84.5 -50.5t-128.5 -17.5zM156 566l138 195h80l137 -195h-60l-117 142l-117 -142h-61z" />
    <glyph glyph-name="uni0219" unicode="&#x219;" horiz-adv-x="662" 
d="M341 -8q-56 0 -105.5 7.5t-89.5 20.5t-63 33l27 55q29 -18 66 -30t79.5 -18t86.5 -6q76 0 121.5 21.5t45.5 57.5q0 30 -23.5 48.5t-82.5 24.5l-145 17q-77 9 -118.5 43.5t-41.5 90.5q0 41 27.5 73.5t80 52.5t129.5 20q47 0 93.5 -7.5t84.5 -21t59 -34.5l-31 -53
q-26 20 -60 31.5t-72 16.5t-76 5q-79 0 -119.5 -23.5t-40.5 -56.5q0 -32 22.5 -50t76.5 -24l142 -18q85 -9 127.5 -42t42.5 -91q0 -42 -30 -75t-84.5 -50.5t-128.5 -17.5zM331 -292l-36 30q23 20 32 44t9 53l13 -11h-56v95h96v-70q0 -46 -13.5 -79.5t-44.5 -61.5z" />
    <glyph glyph-name="uni1E61" unicode="&#x1e61;" horiz-adv-x="662" 
d="M341 -8q-56 0 -105.5 7.5t-89.5 20.5t-63 33l27 55q29 -18 66 -30t79.5 -18t86.5 -6q76 0 121.5 21.5t45.5 57.5q0 30 -23.5 48.5t-82.5 24.5l-145 17q-77 9 -118.5 43.5t-41.5 90.5q0 41 27.5 73.5t80 52.5t129.5 20q47 0 93.5 -7.5t84.5 -21t59 -34.5l-31 -53
q-26 20 -60 31.5t-72 16.5t-76 5q-79 0 -119.5 -23.5t-40.5 -56.5q0 -32 22.5 -50t76.5 -24l142 -18q85 -9 127.5 -42t42.5 -91q0 -42 -30 -75t-84.5 -50.5t-128.5 -17.5zM287 619v90h94v-90h-94z" />
    <glyph glyph-name="uni1E63" unicode="&#x1e63;" horiz-adv-x="662" 
d="M341 -8q-56 0 -105.5 7.5t-89.5 20.5t-63 33l27 55q29 -18 66 -30t79.5 -18t86.5 -6q76 0 121.5 21.5t45.5 57.5q0 30 -23.5 48.5t-82.5 24.5l-145 17q-77 9 -118.5 43.5t-41.5 90.5q0 41 27.5 73.5t80 52.5t129.5 20q47 0 93.5 -7.5t84.5 -21t59 -34.5l-31 -53
q-26 20 -60 31.5t-72 16.5t-76 5q-79 0 -119.5 -23.5t-40.5 -56.5q0 -32 22.5 -50t76.5 -24l142 -18q85 -9 127.5 -42t42.5 -91q0 -42 -30 -75t-84.5 -50.5t-128.5 -17.5zM293 -189v90h94v-90h-94z" />
    <glyph glyph-name="uni1E69" unicode="&#x1e69;" horiz-adv-x="662" 
d="M341 -8q-56 0 -105.5 7.5t-89.5 20.5t-63 33l27 55q29 -18 66 -30t79.5 -18t86.5 -6q76 0 121.5 21.5t45.5 57.5q0 30 -23.5 48.5t-82.5 24.5l-145 17q-77 9 -118.5 43.5t-41.5 90.5q0 41 27.5 73.5t80 52.5t129.5 20q47 0 93.5 -7.5t84.5 -21t59 -34.5l-31 -53
q-26 20 -60 31.5t-72 16.5t-76 5q-79 0 -119.5 -23.5t-40.5 -56.5q0 -32 22.5 -50t76.5 -24l142 -18q85 -9 127.5 -42t42.5 -91q0 -42 -30 -75t-84.5 -50.5t-128.5 -17.5zM293 -189v90h94v-90h-94zM287 619v90h94v-90h-94z" />
    <glyph glyph-name="germandbls" unicode="&#xdf;" horiz-adv-x="788" 
d="M516 -8q-45 0 -91.5 7t-87.5 21t-69 36l29 58q50 -34 107 -46.5t112 -12.5q68 0 106 19.5t38 61.5q0 33 -28.5 51.5t-107.5 34.5q-51 9 -87 24.5t-55 40t-19 60.5q0 41 26 70t67 59q30 21 54 43.5t24 55.5q0 26 -18.5 41.5t-52 23t-76.5 7.5q-92 0 -143.5 -33t-51.5 -109
v-505h-76v501q0 68 33.5 115t94.5 71t143 24q68 0 118 -15t78 -43.5t28 -70.5q0 -29 -13 -52t-35.5 -42.5t-51.5 -39.5q-26 -19 -51 -41t-25 -49q0 -25 14.5 -39.5t41 -23t63.5 -15.5q87 -21 135 -51.5t48 -90.5q0 -44 -28 -77.5t-77.5 -51t-115.5 -17.5z" />
    <glyph glyph-name="t" unicode="t" horiz-adv-x="492" 
d="M348 -8q-91 0 -146 46t-55 132v260h-126v64h128v149h74v-149h227v-64h-227v-251q0 -65 36.5 -92.5t98.5 -27.5q29 0 54 3.5t51 14.5l13 -61q-23 -13 -56.5 -18.5t-71.5 -5.5z" />
    <glyph glyph-name="tbar" unicode="&#x167;" horiz-adv-x="492" 
d="M348 -8q-91 0 -146 46t-55 132v260h-126v64h128v149h74v-149h227v-64h-227v-251q0 -65 36.5 -92.5t98.5 -27.5q29 0 54 3.5t51 14.5l13 -61q-23 -13 -56.5 -18.5t-71.5 -5.5zM49 251v58h329v-58h-329z" />
    <glyph glyph-name="tcaron" unicode="&#x165;" horiz-adv-x="492" 
d="M348 -8q-91 0 -146 46t-55 132v260h-126v64h128v149h74v-149h227v-64h-227v-251q0 -65 36.5 -92.5t98.5 -27.5q29 0 54 3.5t51 14.5l13 -61q-23 -13 -56.5 -18.5t-71.5 -5.5zM300 545v160h71l-23 -160h-48z" />
    <glyph glyph-name="uni0163" unicode="&#x163;" horiz-adv-x="492" 
d="M348 -8q-91 0 -146 46t-55 132v260h-126v64h128v149h74v-149h227v-64h-227v-251q0 -65 36.5 -92.5t98.5 -27.5q29 0 54 3.5t51 14.5l13 -61q-23 -13 -56.5 -18.5t-71.5 -5.5zM310 -201q-29 0 -58 5t-47 15l15 44q25 -9 45 -13.5t46 -4.5q42 0 61.5 9t19.5 28q0 15 -13 22
t-38 7q-14 0 -31.5 -2t-33.5 -7l-18 16l15 94h53l-12 -77l-25 7q20 5 36 7t29 2q31 0 53.5 -8t34.5 -23.5t12 -38.5q0 -27 -17 -45t-49.5 -27.5t-77.5 -9.5z" />
    <glyph glyph-name="uni021B" unicode="&#x21b;" horiz-adv-x="492" 
d="M348 -8q-91 0 -146 46t-55 132v260h-126v64h128v149h74v-149h227v-64h-227v-251q0 -65 36.5 -92.5t98.5 -27.5q29 0 54 3.5t51 14.5l13 -61q-23 -13 -56.5 -18.5t-71.5 -5.5zM290 -300l-36 30q23 20 32 44t9 53l13 -11h-56v95h96v-70q0 -46 -13.5 -79.5t-44.5 -61.5z" />
    <glyph glyph-name="uni1E97" unicode="&#x1e97;" horiz-adv-x="492" 
d="M348 -8q-91 0 -146 46t-55 132v260h-126v64h128v149h74v-149h227v-64h-227v-251q0 -65 36.5 -92.5t98.5 -27.5q29 0 54 3.5t51 14.5l13 -61q-23 -13 -56.5 -18.5t-71.5 -5.5zM250 752v87h93v-87h-93zM17 752v87h93v-87h-93z" />
    <glyph glyph-name="uni1E6D" unicode="&#x1e6d;" horiz-adv-x="492" 
d="M348 -8q-91 0 -146 46t-55 132v260h-126v64h128v149h74v-149h227v-64h-227v-251q0 -65 36.5 -92.5t98.5 -27.5q29 0 54 3.5t51 14.5l13 -61q-23 -13 -56.5 -18.5t-71.5 -5.5zM252 -197v90h94v-90h-94z" />
    <glyph glyph-name="uni1E6F" unicode="&#x1e6f;" horiz-adv-x="492" 
d="M348 -8q-91 0 -146 46t-55 132v260h-126v64h128v149h74v-149h227v-64h-227v-251q0 -65 36.5 -92.5t98.5 -27.5q29 0 54 3.5t51 14.5l13 -61q-23 -13 -56.5 -18.5t-71.5 -5.5zM107 -169v61h384v-61h-384z" />
    <glyph glyph-name="u" unicode="u" horiz-adv-x="758" 
d="M344 -8q-67 0 -118.5 20t-80 68t-28.5 129v285h76v-280q0 -51 18 -85.5t53.5 -52.5t90.5 -18q63 0 110.5 25t72.5 65.5t25 85.5v260h76v-494h-71v111h-5q-35 -51 -84.5 -85t-134.5 -34z" />
    <glyph glyph-name="uacute" unicode="&#xfa;" horiz-adv-x="758" 
d="M344 -8q-67 0 -118.5 20t-80 68t-28.5 129v285h76v-280q0 -51 18 -85.5t53.5 -52.5t90.5 -18q63 0 110.5 25t72.5 65.5t25 85.5v260h76v-494h-71v111h-5q-35 -51 -84.5 -85t-134.5 -34zM345 559l130 202h91l-159 -202h-62z" />
    <glyph glyph-name="ubreve" unicode="&#x16d;" horiz-adv-x="758" 
d="M344 -8q-67 0 -118.5 20t-80 68t-28.5 129v285h76v-280q0 -51 18 -85.5t53.5 -52.5t90.5 -18q63 0 110.5 25t72.5 65.5t25 85.5v260h76v-494h-71v111h-5q-35 -51 -84.5 -85t-134.5 -34zM377 556q-58 0 -98 22.5t-62.5 67t-28.5 109.5l59 7q7 -77 37 -112.5t93 -35.5
q62 0 93 35.5t38 112.5l58 -7q-5 -65 -28 -109.5t-63.5 -67t-97.5 -22.5z" />
    <glyph glyph-name="uni01D4" unicode="&#x1d4;" horiz-adv-x="758" 
d="M344 -8q-67 0 -118.5 20t-80 68t-28.5 129v285h76v-280q0 -51 18 -85.5t53.5 -52.5t90.5 -18q63 0 110.5 25t72.5 65.5t25 85.5v260h76v-494h-71v111h-5q-35 -51 -84.5 -85t-134.5 -34zM338 559l-138 202h61l117 -149l117 149h60l-137 -202h-80z" />
    <glyph glyph-name="ucircumflex" unicode="&#xfb;" horiz-adv-x="758" 
d="M344 -8q-67 0 -118.5 20t-80 68t-28.5 129v285h76v-280q0 -51 18 -85.5t53.5 -52.5t90.5 -18q63 0 110.5 25t72.5 65.5t25 85.5v260h76v-494h-71v111h-5q-35 -51 -84.5 -85t-134.5 -34zM200 566l138 195h80l137 -195h-60l-117 142l-117 -142h-61z" />
    <glyph glyph-name="uni0215" unicode="&#x215;" horiz-adv-x="758" 
d="M344 -8q-67 0 -118.5 20t-80 68t-28.5 129v285h76v-280q0 -51 18 -85.5t53.5 -52.5t90.5 -18q63 0 110.5 25t72.5 65.5t25 85.5v260h76v-494h-71v111h-5q-35 -51 -84.5 -85t-134.5 -34zM430 559l-102 202h79l69 -202h-46zM279 559l-101 202h79l70 -202h-48z" />
    <glyph glyph-name="udieresis" unicode="&#xfc;" horiz-adv-x="758" 
d="M344 -8q-67 0 -118.5 20t-80 68t-28.5 129v285h76v-280q0 -51 18 -85.5t53.5 -52.5t90.5 -18q63 0 110.5 25t72.5 65.5t25 85.5v260h76v-494h-71v111h-5q-35 -51 -84.5 -85t-134.5 -34zM448 619v88h93v-88h-93zM215 619v88h93v-88h-93z" />
    <glyph glyph-name="uni1EE5" unicode="&#x1ee5;" horiz-adv-x="758" 
d="M344 -8q-67 0 -118.5 20t-80 68t-28.5 129v285h76v-280q0 -51 18 -85.5t53.5 -52.5t90.5 -18q63 0 110.5 25t72.5 65.5t25 85.5v260h76v-494h-71v111h-5q-35 -51 -84.5 -85t-134.5 -34zM316 -189v90h94v-90h-94z" />
    <glyph glyph-name="ugrave" unicode="&#xf9;" horiz-adv-x="758" 
d="M344 -8q-67 0 -118.5 20t-80 68t-28.5 129v285h76v-280q0 -51 18 -85.5t53.5 -52.5t90.5 -18q63 0 110.5 25t72.5 65.5t25 85.5v260h76v-494h-71v111h-5q-35 -51 -84.5 -85t-134.5 -34zM349 560l-159 201h91l130 -201h-62z" />
    <glyph glyph-name="uni1EE7" unicode="&#x1ee7;" horiz-adv-x="758" 
d="M344 -8q-67 0 -118.5 20t-80 68t-28.5 129v285h76v-280q0 -51 18 -85.5t53.5 -52.5t90.5 -18q63 0 110.5 25t72.5 65.5t25 85.5v260h76v-494h-71v111h-5q-35 -51 -84.5 -85t-134.5 -34zM347 560v20q0 24 13 39t29.5 25t29.5 20t13 25q0 16 -16 23.5t-49 7.5q-20 0 -39 -4
t-40 -12l-16 44q21 10 48.5 15.5t61.5 5.5q59 0 90 -17.5t31 -51.5q0 -25 -14.5 -40.5t-33.5 -26t-33 -24t-14 -34.5v-15h-61z" />
    <glyph glyph-name="uhorn" unicode="&#x1b0;" horiz-adv-x="758" 
d="M344 -8q-67 0 -118.5 20t-80 68t-28.5 129v285h76v-280q0 -51 18 -85.5t53.5 -52.5t90.5 -18q63 0 110.5 25t72.5 65.5t25 85.5v260h76v-494h-71v111h-5q-35 -51 -84.5 -85t-134.5 -34zM608 450l-37 27v17q56 1 87 12t43.5 36t12.5 67v14h72v-26q0 -48 -20 -80.5
t-59.5 -48.5t-98.5 -18z" />
    <glyph glyph-name="uni1EE9" unicode="&#x1ee9;" horiz-adv-x="758" 
d="M344 -8q-67 0 -118.5 20t-80 68t-28.5 129v285h76v-280q0 -51 18 -85.5t53.5 -52.5t90.5 -18q63 0 110.5 25t72.5 65.5t25 85.5v260h76v-494h-71v111h-5q-35 -51 -84.5 -85t-134.5 -34zM608 450l-37 27v17q56 1 87 12t43.5 36t12.5 67v14h72v-26q0 -48 -20 -80.5
t-59.5 -48.5t-98.5 -18zM341 559l130 202h91l-159 -202h-62z" />
    <glyph glyph-name="uni1EF1" unicode="&#x1ef1;" horiz-adv-x="758" 
d="M344 -8q-67 0 -118.5 20t-80 68t-28.5 129v285h76v-280q0 -51 18 -85.5t53.5 -52.5t90.5 -18q63 0 110.5 25t72.5 65.5t25 85.5v260h76v-494h-71v111h-5q-35 -51 -84.5 -85t-134.5 -34zM608 450l-37 27v17q56 1 87 12t43.5 36t12.5 67v14h72v-26q0 -48 -20 -80.5
t-59.5 -48.5t-98.5 -18zM312 -189v90h94v-90h-94z" />
    <glyph glyph-name="uni1EEB" unicode="&#x1eeb;" horiz-adv-x="758" 
d="M344 -8q-67 0 -118.5 20t-80 68t-28.5 129v285h76v-280q0 -51 18 -85.5t53.5 -52.5t90.5 -18q63 0 110.5 25t72.5 65.5t25 85.5v260h76v-494h-71v111h-5q-35 -51 -84.5 -85t-134.5 -34zM608 450l-37 27v17q56 1 87 12t43.5 36t12.5 67v14h72v-26q0 -48 -20 -80.5
t-59.5 -48.5t-98.5 -18zM345 560l-159 201h91l130 -201h-62z" />
    <glyph glyph-name="uni1EED" unicode="&#x1eed;" horiz-adv-x="758" 
d="M344 -8q-67 0 -118.5 20t-80 68t-28.5 129v285h76v-280q0 -51 18 -85.5t53.5 -52.5t90.5 -18q63 0 110.5 25t72.5 65.5t25 85.5v260h76v-494h-71v111h-5q-35 -51 -84.5 -85t-134.5 -34zM608 450l-37 27v17q56 1 87 12t43.5 36t12.5 67v14h72v-26q0 -48 -20 -80.5
t-59.5 -48.5t-98.5 -18zM343 560v20q0 24 13 39t29.5 25t29.5 20t13 25q0 16 -16 23.5t-49 7.5q-20 0 -39 -4t-40 -12l-16 44q21 10 48.5 15.5t61.5 5.5q59 0 90 -17.5t31 -51.5q0 -25 -14.5 -40.5t-33.5 -26t-33 -24t-14 -34.5v-15h-61z" />
    <glyph glyph-name="uni1EEF" unicode="&#x1eef;" horiz-adv-x="758" 
d="M344 -8q-67 0 -118.5 20t-80 68t-28.5 129v285h76v-280q0 -51 18 -85.5t53.5 -52.5t90.5 -18q63 0 110.5 25t72.5 65.5t25 85.5v260h76v-494h-71v111h-5q-35 -51 -84.5 -85t-134.5 -34zM608 450l-37 27v17q56 1 87 12t43.5 36t12.5 67v14h72v-26q0 -48 -20 -80.5
t-59.5 -48.5t-98.5 -18zM204 605l-57 3q8 67 39.5 102.5t82.5 35.5q41 0 67.5 -19t40.5 -28q11 -9 30.5 -23t45.5 -14q28 0 44 20.5t24 66.5l56 -3q-6 -67 -37.5 -102.5t-82.5 -35.5q-40 0 -66 17.5t-43 28.5q-13 10 -32 23.5t-45 13.5q-28 0 -44 -21.5t-23 -64.5z" />
    <glyph glyph-name="uhungarumlaut" unicode="&#x171;" horiz-adv-x="758" 
d="M344 -8q-67 0 -118.5 20t-80 68t-28.5 129v285h76v-280q0 -51 18 -85.5t53.5 -52.5t90.5 -18q63 0 110.5 25t72.5 65.5t25 85.5v260h76v-494h-71v111h-5q-35 -51 -84.5 -85t-134.5 -34zM429 560l69 201h80l-102 -201h-47zM279 560l69 201h79l-101 -201h-47z" />
    <glyph glyph-name="uni0217" unicode="&#x217;" horiz-adv-x="758" 
d="M344 -8q-67 0 -118.5 20t-80 68t-28.5 129v285h76v-280q0 -51 18 -85.5t53.5 -52.5t90.5 -18q63 0 110.5 25t72.5 65.5t25 85.5v260h76v-494h-71v111h-5q-35 -51 -84.5 -85t-134.5 -34zM247 556l-59 7q6 66 28.5 110t62.5 66.5t98 22.5t98 -22.5t63 -66.5t28 -110l-58 -7
q-7 78 -38 113t-93 35t-92.5 -35t-37.5 -113z" />
    <glyph glyph-name="umacron" unicode="&#x16b;" horiz-adv-x="758" 
d="M344 -8q-67 0 -118.5 20t-80 68t-28.5 129v285h76v-280q0 -51 18 -85.5t53.5 -52.5t90.5 -18q63 0 110.5 25t72.5 65.5t25 85.5v260h76v-494h-71v111h-5q-35 -51 -84.5 -85t-134.5 -34zM186 632v62h384v-62h-384z" />
    <glyph glyph-name="uni1E7B" unicode="&#x1e7b;" horiz-adv-x="758" 
d="M344 -8q-67 0 -118.5 20t-80 68t-28.5 129v285h76v-280q0 -51 18 -85.5t53.5 -52.5t90.5 -18q63 0 110.5 25t72.5 65.5t25 85.5v260h76v-494h-71v111h-5q-35 -51 -84.5 -85t-134.5 -34zM186 593v59h384v-59h-384zM216 704v77h94v-77h-94zM446 704v77h94v-77h-94z" />
    <glyph glyph-name="uogonek" unicode="&#x173;" horiz-adv-x="758" 
d="M344 -8q-67 0 -118.5 20t-80 68t-28.5 129v285h76v-280q0 -51 18 -85.5t53.5 -52.5t90.5 -18q63 0 110.5 25t72.5 65.5t25 85.5v260h76v-494h-71v111h-5q-35 -51 -84.5 -85t-134.5 -34zM612 -194q-61 0 -95.5 25.5t-34.5 69.5q0 41 32 73.5t94 53.5l26 -28
q-28 -10 -48 -24.5t-30.5 -31t-10.5 -34.5q0 -24 19 -37.5t53 -13.5q16 0 33 3.5t34 10.5l19 -49q-17 -8 -40.5 -13t-50.5 -5z" />
    <glyph glyph-name="uring" unicode="&#x16f;" horiz-adv-x="758" 
d="M344 -8q-67 0 -118.5 20t-80 68t-28.5 129v285h76v-280q0 -51 18 -85.5t53.5 -52.5t90.5 -18q63 0 110.5 25t72.5 65.5t25 85.5v260h76v-494h-71v111h-5q-35 -51 -84.5 -85t-134.5 -34zM377 556q-39 0 -69 16.5t-47.5 44t-17.5 62.5q0 36 17.5 64t47.5 44t69 16t69.5 -16
t47.5 -44t17 -64q0 -35 -17 -62.5t-47.5 -44t-69.5 -16.5zM377 600q36 0 59 22t23 59q0 36 -23 58t-59 22q-35 0 -58.5 -22t-23.5 -58q0 -37 23 -59t59 -22z" />
    <glyph glyph-name="utilde" unicode="&#x169;" horiz-adv-x="758" 
d="M344 -8q-67 0 -118.5 20t-80 68t-28.5 129v285h76v-280q0 -51 18 -85.5t53.5 -52.5t90.5 -18q63 0 110.5 25t72.5 65.5t25 85.5v260h76v-494h-71v111h-5q-35 -51 -84.5 -85t-134.5 -34zM217 602l-56 3q7 65 40 102t84 37q39 0 65.5 -17.5t43.5 -29.5q12 -8 31.5 -22
t45.5 -14q29 0 44 20t24 65l56 -3q-6 -66 -38.5 -102.5t-84.5 -36.5q-42 0 -68.5 18t-41.5 29q-13 10 -32.5 23t-44.5 13q-28 0 -43.5 -20t-24.5 -65z" />
    <glyph glyph-name="uni1E79" unicode="&#x1e79;" horiz-adv-x="758" 
d="M344 -8q-67 0 -118.5 20t-80 68t-28.5 129v285h76v-280q0 -51 18 -85.5t53.5 -52.5t90.5 -18q63 0 110.5 25t72.5 65.5t25 85.5v260h76v-494h-71v111h-5q-35 -51 -84.5 -85t-134.5 -34zM236 554l-53 3q5 34 19.5 57t38 34.5t54.5 11.5q34 0 56.5 -11.5t37.5 -16.5l30 -15
t41 -9q24 0 38.5 13t20.5 41l53 -4q-7 -49 -35.5 -75.5t-77.5 -26.5q-32 0 -54 11t-36 17q-14 7 -31.5 15.5t-42.5 8.5q-23 0 -37.5 -12.5t-21.5 -41.5zM348 679l116 146h91l-148 -146h-59z" />
    <glyph glyph-name="v" unicode="v" horiz-adv-x="667" 
d="M294 0l-260 494h86l217 -419h-3l216 419h83l-259 -494h-80z" />
    <glyph glyph-name="w" unicode="w" horiz-adv-x="1064" 
d="M255 0l-209 494h84l172 -412h-5l196 412h76l197 -412h-3l172 412h82l-210 -494h-81l-198 416h6l-198 -416h-81z" />
    <glyph glyph-name="wacute" unicode="&#x1e83;" horiz-adv-x="1064" 
d="M255 0l-209 494h84l172 -412h-5l196 412h76l197 -412h-3l172 412h82l-210 -494h-81l-198 416h6l-198 -416h-81zM500 559l130 202h91l-159 -202h-62z" />
    <glyph glyph-name="wcircumflex" unicode="&#x175;" horiz-adv-x="1064" 
d="M255 0l-209 494h84l172 -412h-5l196 412h76l197 -412h-3l172 412h82l-210 -494h-81l-198 416h6l-198 -416h-81zM355 566l138 195h80l137 -195h-60l-117 142l-117 -142h-61z" />
    <glyph glyph-name="wdieresis" unicode="&#x1e85;" horiz-adv-x="1064" 
d="M255 0l-209 494h84l172 -412h-5l196 412h76l197 -412h-3l172 412h82l-210 -494h-81l-198 416h6l-198 -416h-81zM603 619v88h93v-88h-93zM370 619v88h93v-88h-93z" />
    <glyph glyph-name="wgrave" unicode="&#x1e81;" horiz-adv-x="1064" 
d="M255 0l-209 494h84l172 -412h-5l196 412h76l197 -412h-3l172 412h82l-210 -494h-81l-198 416h6l-198 -416h-81zM504 560l-159 201h91l130 -201h-62z" />
    <glyph glyph-name="x" unicode="x" horiz-adv-x="660" 
d="M41 0l252 274l1 -40l-241 260h97l181 -196h-2l184 196h93l-238 -258v35l252 -271h-98l-194 208h3l-197 -208h-93z" />
    <glyph glyph-name="y" unicode="y" horiz-adv-x="667" 
d="M199 -180l112 212v-67l-277 529h86l215 -415h2l214 415h81l-350 -674h-83z" />
    <glyph glyph-name="yacute" unicode="&#xfd;" horiz-adv-x="667" 
d="M199 -180l112 212v-67l-277 529h86l215 -415h2l214 415h81l-350 -674h-83zM300 559l130 202h91l-159 -202h-62z" />
    <glyph glyph-name="ycircumflex" unicode="&#x177;" horiz-adv-x="667" 
d="M199 -180l112 212v-67l-277 529h86l215 -415h2l214 415h81l-350 -674h-83zM155 566l138 195h80l137 -195h-60l-117 142l-117 -142h-61z" />
    <glyph glyph-name="ydieresis" unicode="&#xff;" horiz-adv-x="667" 
d="M199 -180l112 212v-67l-277 529h86l215 -415h2l214 415h81l-350 -674h-83zM403 619v88h93v-88h-93zM170 619v88h93v-88h-93z" />
    <glyph glyph-name="uni1E8F" unicode="&#x1e8f;" horiz-adv-x="667" 
d="M199 -180l112 212v-67l-277 529h86l215 -415h2l214 415h81l-350 -674h-83zM286 619v90h94v-90h-94z" />
    <glyph glyph-name="uni1EF5" unicode="&#x1ef5;" horiz-adv-x="667" 
d="M199 -180l112 212v-67l-277 529h86l215 -415h2l214 415h81l-350 -674h-83zM433 -189v90h94v-90h-94z" />
    <glyph glyph-name="ygrave" unicode="&#x1ef3;" horiz-adv-x="667" 
d="M199 -180l112 212v-67l-277 529h86l215 -415h2l214 415h81l-350 -674h-83zM304 560l-159 201h91l130 -201h-62z" />
    <glyph glyph-name="uni01B4" unicode="&#x1b4;" horiz-adv-x="725" 
d="M466 329q33 65 61 102.5t63 54.5t85 17q19 0 34 -2t30 -6l-11 -63q-10 2 -21 3.5t-23 1.5q-31 0 -54 -9t-43.5 -34.5t-46.5 -75.5l-258 -498h-83l110 208l-1 -56l-274 522h86l215 -415h2z" />
    <glyph glyph-name="uni1EF7" unicode="&#x1ef7;" horiz-adv-x="667" 
d="M199 -180l112 212v-67l-277 529h86l215 -415h2l214 415h81l-350 -674h-83zM302 560v20q0 24 13 39t29.5 25t29.5 20t13 25q0 16 -16 23.5t-49 7.5q-20 0 -39 -4t-40 -12l-16 44q21 10 48.5 15.5t61.5 5.5q59 0 90 -17.5t31 -51.5q0 -25 -14.5 -40.5t-33.5 -26t-33 -24
t-14 -34.5v-15h-61z" />
    <glyph glyph-name="uni0233" unicode="&#x233;" horiz-adv-x="667" 
d="M199 -180l112 212v-67l-277 529h86l215 -415h2l214 415h81l-350 -674h-83zM141 632v62h384v-62h-384z" />
    <glyph glyph-name="uni1EF9" unicode="&#x1ef9;" horiz-adv-x="667" 
d="M199 -180l112 212v-67l-277 529h86l215 -415h2l214 415h81l-350 -674h-83zM172 602l-56 3q7 65 40 102t84 37q39 0 65.5 -17.5t43.5 -29.5q12 -8 31.5 -22t45.5 -14q29 0 44 20t24 65l56 -3q-6 -66 -38.5 -102.5t-84.5 -36.5q-42 0 -68.5 18t-41.5 29q-13 10 -32.5 23
t-44.5 13q-28 0 -43.5 -20t-24.5 -65z" />
    <glyph glyph-name="z" unicode="z" horiz-adv-x="633" 
d="M74 0v47l407 412l8 -30h-404v65h475v-49l-408 -412l-7 32h430v-65h-501z" />
    <glyph glyph-name="zacute" unicode="&#x17a;" horiz-adv-x="633" 
d="M74 0v47l407 412l8 -30h-404v65h475v-49l-408 -412l-7 32h430v-65h-501zM292 559l130 202h91l-159 -202h-62z" />
    <glyph glyph-name="zcaron" unicode="&#x17e;" horiz-adv-x="633" 
d="M74 0v47l407 412l8 -30h-404v65h475v-49l-408 -412l-7 32h430v-65h-501zM285 559l-138 202h61l117 -149l117 149h60l-137 -202h-80z" />
    <glyph glyph-name="zdotaccent" unicode="&#x17c;" horiz-adv-x="633" 
d="M74 0v47l407 412l8 -30h-404v65h475v-49l-408 -412l-7 32h430v-65h-501zM278 619v90h94v-90h-94z" />
    <glyph glyph-name="uni1E93" unicode="&#x1e93;" horiz-adv-x="633" 
d="M74 0v47l407 412l8 -30h-404v65h475v-49l-408 -412l-7 32h430v-65h-501zM277 -189v90h94v-90h-94z" />
    <glyph glyph-name="germandbls.calt" horiz-adv-x="932" 
d="M548 -9q-73 0 -132.5 18t-109.5 54l32 62q53 -36 99 -50.5t108 -14.5q102 0 155.5 33.5t53.5 102.5t-55.5 98.5t-164.5 29.5h-171v66h136q61 0 106.5 14.5t70 43.5t24.5 74q0 63 -56 93t-167 30q-137 0 -202 -44.5t-65 -145.5v-455h-75v460q0 83 38.5 139.5t113.5 85.5
t186 29q99 0 167 -22t103 -64t35 -103q0 -41 -19.5 -73t-51 -54t-69.5 -33v-1q89 -11 141.5 -55t52.5 -119q0 -60 -32.5 -104.5t-95.5 -69.5t-156 -25z" />
    <glyph glyph-name="iacute_j.loclNLD" horiz-adv-x="601" 
d="M119 0v494h76v-494h-76zM124 559l130 202h91l-159 -202h-62zM240 -193l-5 65l61 6q60 6 92.5 31t32.5 79v506h76v-504q0 -40 -12 -71.5t-35.5 -53.5t-60 -35t-85.5 -17zM427 559l130 202h91l-159 -202h-62z" />
    <glyph glyph-name="a.ss01" horiz-adv-x="783" 
d="M363 -8q-86 0 -149.5 32t-99 89.5t-35.5 133.5t36 133t99 90t148 33q81 0 141.5 -31t86.5 -85v0v107h74v-494h-71v109h-1q-28 -56 -88 -86.5t-141 -30.5zM373 57q101 0 158.5 53t57.5 137t-57.5 137.5t-158.5 53.5t-158.5 -53.5t-57.5 -137.5t57 -137t159 -53z" />
    <glyph glyph-name="aacute.ss01" horiz-adv-x="783" 
d="M363 -8q-86 0 -149.5 32t-99 89.5t-35.5 133.5t36 133t99 90t148 33q81 0 141.5 -31t86.5 -85v0v107h74v-494h-71v109h-1q-28 -56 -88 -86.5t-141 -30.5zM373 57q101 0 158.5 53t57.5 137t-57.5 137.5t-158.5 53.5t-158.5 -53.5t-57.5 -137.5t57 -137t159 -53zM337 559
l130 202h91l-159 -202h-62z" />
    <glyph glyph-name="abreve.ss01" horiz-adv-x="783" 
d="M363 -8q-86 0 -149.5 32t-99 89.5t-35.5 133.5t36 133t99 90t148 33q81 0 141.5 -31t86.5 -85v0v107h74v-494h-71v109h-1q-28 -56 -88 -86.5t-141 -30.5zM373 57q101 0 158.5 53t57.5 137t-57.5 137.5t-158.5 53.5t-158.5 -53.5t-57.5 -137.5t57 -137t159 -53zM369 556
q-58 0 -98 22.5t-62.5 67t-28.5 109.5l59 7q7 -77 37 -112.5t93 -35.5q62 0 93 35.5t38 112.5l58 -7q-5 -65 -28 -109.5t-63.5 -67t-97.5 -22.5z" />
    <glyph glyph-name="uni1EAF.ss01" horiz-adv-x="783" 
d="M363 -8q-86 0 -149.5 32t-99 89.5t-35.5 133.5t36 133t99 90t148 33q81 0 141.5 -31t86.5 -85v0v107h74v-494h-71v109h-1q-28 -56 -88 -86.5t-141 -30.5zM373 57q101 0 158.5 53t57.5 137t-57.5 137.5t-158.5 53.5t-158.5 -53.5t-57.5 -137.5t57 -137t159 -53zM370 556
q-89 0 -137.5 41t-54.5 118l55 7q6 -58 40 -84.5t97 -26.5q64 0 98.5 26.5t39.5 84.5l55 -7q-6 -77 -55 -118t-138 -41zM331 674l115 144h89l-145 -144h-59z" />
    <glyph glyph-name="uni1EB7.ss01" horiz-adv-x="783" 
d="M363 -8q-86 0 -149.5 32t-99 89.5t-35.5 133.5t36 133t99 90t148 33q81 0 141.5 -31t86.5 -85v0v107h74v-494h-71v109h-1q-28 -56 -88 -86.5t-141 -30.5zM373 57q101 0 158.5 53t57.5 137t-57.5 137.5t-158.5 53.5t-158.5 -53.5t-57.5 -137.5t57 -137t159 -53zM319 -189
v90h94v-90h-94zM369 556q-58 0 -98 22.5t-62.5 67t-28.5 109.5l59 7q7 -77 37 -112.5t93 -35.5q62 0 93 35.5t38 112.5l58 -7q-5 -65 -28 -109.5t-63.5 -67t-97.5 -22.5z" />
    <glyph glyph-name="uni1EB1.ss01" horiz-adv-x="783" 
d="M363 -8q-86 0 -149.5 32t-99 89.5t-35.5 133.5t36 133t99 90t148 33q81 0 141.5 -31t86.5 -85v0v107h74v-494h-71v109h-1q-28 -56 -88 -86.5t-141 -30.5zM373 57q101 0 158.5 53t57.5 137t-57.5 137.5t-158.5 53.5t-158.5 -53.5t-57.5 -137.5t57 -137t159 -53zM370 556
q-89 0 -137.5 41t-54.5 118l55 7q6 -58 40 -84.5t97 -26.5q64 0 98.5 26.5t39.5 84.5l55 -7q-6 -77 -55 -118t-138 -41zM352 674l-142 144h90l111 -144h-59z" />
    <glyph glyph-name="uni1EB3.ss01" horiz-adv-x="783" 
d="M363 -8q-86 0 -149.5 32t-99 89.5t-35.5 133.5t36 133t99 90t148 33q81 0 141.5 -31t86.5 -85v0v107h74v-494h-71v109h-1q-28 -56 -88 -86.5t-141 -30.5zM373 57q101 0 158.5 53t57.5 137t-57.5 137.5t-158.5 53.5t-158.5 -53.5t-57.5 -137.5t57 -137t159 -53zM369 556
q-89 0 -137.5 41t-55.5 118l56 7q6 -58 39.5 -84.5t97.5 -26.5q63 0 97.5 26.5t39.5 84.5l56 -7q-7 -77 -55.5 -118t-137.5 -41zM340 674q0 23 12 35.5t28 21t28 15.5t12 17q0 12 -15 18t-40 6q-20 0 -40 -4t-42 -12l-15 39q19 9 46.5 14.5t66.5 5.5q54 0 79 -14t25 -40
q0 -21 -13 -33.5t-30.5 -21t-30.5 -18.5t-13 -29h-58z" />
    <glyph glyph-name="uni1EB5.ss01" horiz-adv-x="783" 
d="M363 -8q-86 0 -149.5 32t-99 89.5t-35.5 133.5t36 133t99 90t148 33q81 0 141.5 -31t86.5 -85v0v107h74v-494h-71v109h-1q-28 -56 -88 -86.5t-141 -30.5zM373 57q101 0 158.5 53t57.5 137t-57.5 137.5t-158.5 53.5t-158.5 -53.5t-57.5 -137.5t57 -137t159 -53zM370 556
q-74 0 -123.5 30t-68.5 86l53 11q18 -35 53 -53.5t86 -18.5q52 0 87 18.5t52 53.5l54 -11q-19 -56 -68 -86t-125 -30zM229 724l-53 3q5 33 19 55.5t37.5 34.5t55.5 12q33 0 56 -11t38 -17q10 -4 28.5 -14t42.5 -10q25 0 39 13.5t20 40.5l53 -3q-7 -50 -36 -76.5t-76 -26.5
q-32 0 -54 11t-33 15q-20 12 -37 19.5t-41 7.5t-38 -13t-21 -41z" />
    <glyph glyph-name="uni01CE.ss01" horiz-adv-x="783" 
d="M363 -8q-86 0 -149.5 32t-99 89.5t-35.5 133.5t36 133t99 90t148 33q81 0 141.5 -31t86.5 -85v0v107h74v-494h-71v109h-1q-28 -56 -88 -86.5t-141 -30.5zM373 57q101 0 158.5 53t57.5 137t-57.5 137.5t-158.5 53.5t-158.5 -53.5t-57.5 -137.5t57 -137t159 -53zM330 559
l-138 202h61l117 -149l117 149h60l-137 -202h-80z" />
    <glyph glyph-name="acircumflex.ss01" horiz-adv-x="783" 
d="M363 -8q-86 0 -149.5 32t-99 89.5t-35.5 133.5t36 133t99 90t148 33q81 0 141.5 -31t86.5 -85v0v107h74v-494h-71v109h-1q-28 -56 -88 -86.5t-141 -30.5zM373 57q101 0 158.5 53t57.5 137t-57.5 137.5t-158.5 53.5t-158.5 -53.5t-57.5 -137.5t57 -137t159 -53zM192 566
l138 195h80l137 -195h-60l-117 142l-117 -142h-61z" />
    <glyph glyph-name="uni1EA5.ss01" horiz-adv-x="783" 
d="M363 -8q-86 0 -149.5 32t-99 89.5t-35.5 133.5t36 133t99 90t148 33q81 0 141.5 -31t86.5 -85v0v107h74v-494h-71v109h-1q-28 -56 -88 -86.5t-141 -30.5zM373 57q101 0 158.5 53t57.5 137t-57.5 137.5t-158.5 53.5t-158.5 -53.5t-57.5 -137.5t57 -137t159 -53zM184 567
l142 174h80l141 -174h-62l-119 120l-120 -120h-62zM479 676l103 150h85l-131 -150h-57z" />
    <glyph glyph-name="uni1EAD.ss01" horiz-adv-x="783" 
d="M363 -8q-86 0 -149.5 32t-99 89.5t-35.5 133.5t36 133t99 90t148 33q81 0 141.5 -31t86.5 -85v0v107h74v-494h-71v109h-1q-28 -56 -88 -86.5t-141 -30.5zM373 57q101 0 158.5 53t57.5 137t-57.5 137.5t-158.5 53.5t-158.5 -53.5t-57.5 -137.5t57 -137t159 -53zM319 -189
v90h94v-90h-94zM192 566l138 195h80l137 -195h-60l-117 142l-117 -142h-61z" />
    <glyph glyph-name="uni1EA7.ss01" horiz-adv-x="783" 
d="M363 -8q-86 0 -149.5 32t-99 89.5t-35.5 133.5t36 133t99 90t148 33q81 0 141.5 -31t86.5 -85v0v107h74v-494h-71v109h-1q-28 -56 -88 -86.5t-141 -30.5zM373 57q101 0 158.5 53t57.5 137t-57.5 137.5t-158.5 53.5t-158.5 -53.5t-57.5 -137.5t57 -137t159 -53zM184 567
l142 174h80l142 -174h-63l-119 120l-120 -120h-62zM531 676l-131 150h85l102 -150h-56z" />
    <glyph glyph-name="uni1EA9.ss01" horiz-adv-x="783" 
d="M363 -8q-86 0 -149.5 32t-99 89.5t-35.5 133.5t36 133t99 90t148 33q81 0 141.5 -31t86.5 -85v0v107h74v-494h-71v109h-1q-28 -56 -88 -86.5t-141 -30.5zM373 57q101 0 158.5 53t57.5 137t-57.5 137.5t-158.5 53.5t-158.5 -53.5t-57.5 -137.5t57 -137t159 -53zM184 568
l142 174h80l142 -174h-63l-119 120l-120 -120h-62zM492 680q0 22 11.5 34.5t27.5 21t27.5 15.5t11.5 17q0 12 -15 17.5t-39 5.5q-20 0 -39.5 -3.5t-41.5 -11.5l-15 38q20 9 46.5 14.5t65.5 5.5q53 0 77.5 -13.5t24.5 -39.5q0 -22 -12.5 -34t-30 -20.5t-30 -18.5t-12.5 -28
h-57z" />
    <glyph glyph-name="uni1EAB.ss01" horiz-adv-x="783" 
d="M363 -8q-86 0 -149.5 32t-99 89.5t-35.5 133.5t36 133t99 90t148 33q81 0 141.5 -31t86.5 -85v0v107h74v-494h-71v109h-1q-28 -56 -88 -86.5t-141 -30.5zM373 57q101 0 158.5 53t57.5 137t-57.5 137.5t-158.5 53.5t-158.5 -53.5t-57.5 -137.5t57 -137t159 -53zM189 567
l142 137h79l142 -137h-63l-118 85l-120 -85h-62zM229 730l-53 4q5 33 18.5 55.5t37 35t56.5 12.5t55.5 -11t38.5 -17q10 -4 28 -14t43 -10q23 0 37.5 12t21.5 42l53 -5q-7 -47 -35 -74.5t-78 -27.5q-32 0 -53.5 10.5t-33.5 14.5q-19 12 -36.5 19.5t-40.5 7.5
q-21 0 -36.5 -11.5t-22.5 -42.5z" />
    <glyph glyph-name="uni0201.ss01" horiz-adv-x="783" 
d="M363 -8q-86 0 -149.5 32t-99 89.5t-35.5 133.5t36 133t99 90t148 33q81 0 141.5 -31t86.5 -85v0v107h74v-494h-71v109h-1q-28 -56 -88 -86.5t-141 -30.5zM373 57q101 0 158.5 53t57.5 137t-57.5 137.5t-158.5 53.5t-158.5 -53.5t-57.5 -137.5t57 -137t159 -53zM422 559
l-102 202h79l69 -202h-46zM271 559l-101 202h79l70 -202h-48z" />
    <glyph glyph-name="adieresis.ss01" horiz-adv-x="783" 
d="M363 -8q-86 0 -149.5 32t-99 89.5t-35.5 133.5t36 133t99 90t148 33q81 0 141.5 -31t86.5 -85v0v107h74v-494h-71v109h-1q-28 -56 -88 -86.5t-141 -30.5zM373 57q101 0 158.5 53t57.5 137t-57.5 137.5t-158.5 53.5t-158.5 -53.5t-57.5 -137.5t57 -137t159 -53zM440 619
v88h93v-88h-93zM207 619v88h93v-88h-93z" />
    <glyph glyph-name="uni0227.ss01" horiz-adv-x="783" 
d="M363 -8q-86 0 -149.5 32t-99 89.5t-35.5 133.5t36 133t99 90t148 33q81 0 141.5 -31t86.5 -85v0v107h74v-494h-71v109h-1q-28 -56 -88 -86.5t-141 -30.5zM373 57q101 0 158.5 53t57.5 137t-57.5 137.5t-158.5 53.5t-158.5 -53.5t-57.5 -137.5t57 -137t159 -53zM323 619
v90h94v-90h-94z" />
    <glyph glyph-name="uni1EA1.ss01" horiz-adv-x="783" 
d="M363 -8q-86 0 -149.5 32t-99 89.5t-35.5 133.5t36 133t99 90t148 33q81 0 141.5 -31t86.5 -85v0v107h74v-494h-71v109h-1q-28 -56 -88 -86.5t-141 -30.5zM373 57q101 0 158.5 53t57.5 137t-57.5 137.5t-158.5 53.5t-158.5 -53.5t-57.5 -137.5t57 -137t159 -53zM319 -189
v90h94v-90h-94z" />
    <glyph glyph-name="agrave.ss01" horiz-adv-x="783" 
d="M363 -8q-86 0 -149.5 32t-99 89.5t-35.5 133.5t36 133t99 90t148 33q81 0 141.5 -31t86.5 -85v0v107h74v-494h-71v109h-1q-28 -56 -88 -86.5t-141 -30.5zM373 57q101 0 158.5 53t57.5 137t-57.5 137.5t-158.5 53.5t-158.5 -53.5t-57.5 -137.5t57 -137t159 -53zM341 560
l-159 201h91l130 -201h-62z" />
    <glyph glyph-name="uni1EA3.ss01" horiz-adv-x="783" 
d="M363 -8q-86 0 -149.5 32t-99 89.5t-35.5 133.5t36 133t99 90t148 33q81 0 141.5 -31t86.5 -85v0v107h74v-494h-71v109h-1q-28 -56 -88 -86.5t-141 -30.5zM373 57q101 0 158.5 53t57.5 137t-57.5 137.5t-158.5 53.5t-158.5 -53.5t-57.5 -137.5t57 -137t159 -53zM339 560
v20q0 24 13 39t29.5 25t29.5 20t13 25q0 16 -16 23.5t-49 7.5q-20 0 -39 -4t-40 -12l-16 44q21 10 48.5 15.5t61.5 5.5q59 0 90 -17.5t31 -51.5q0 -25 -14.5 -40.5t-33.5 -26t-33 -24t-14 -34.5v-15h-61z" />
    <glyph glyph-name="uni0203.ss01" horiz-adv-x="783" 
d="M363 -8q-86 0 -149.5 32t-99 89.5t-35.5 133.5t36 133t99 90t148 33q81 0 141.5 -31t86.5 -85v0v107h74v-494h-71v109h-1q-28 -56 -88 -86.5t-141 -30.5zM373 57q101 0 158.5 53t57.5 137t-57.5 137.5t-158.5 53.5t-158.5 -53.5t-57.5 -137.5t57 -137t159 -53zM239 556
l-59 7q6 66 28.5 110t62.5 66.5t98 22.5t98 -22.5t63 -66.5t28 -110l-58 -7q-7 78 -38 113t-93 35t-92.5 -35t-37.5 -113z" />
    <glyph glyph-name="amacron.ss01" horiz-adv-x="783" 
d="M363 -8q-86 0 -149.5 32t-99 89.5t-35.5 133.5t36 133t99 90t148 33q81 0 141.5 -31t86.5 -85v0v107h74v-494h-71v109h-1q-28 -56 -88 -86.5t-141 -30.5zM373 57q101 0 158.5 53t57.5 137t-57.5 137.5t-158.5 53.5t-158.5 -53.5t-57.5 -137.5t57 -137t159 -53zM178 632
v62h384v-62h-384z" />
    <glyph glyph-name="aogonek.ss01" horiz-adv-x="783" 
d="M363 -8q-86 0 -149.5 32t-99 89.5t-35.5 133.5t36 133t99 90t148 33q81 0 141.5 -31t86.5 -85v0v107h74v-494h-71v109h-1q-28 -56 -88 -86.5t-141 -30.5zM373 57q101 0 158.5 53t57.5 137t-57.5 137.5t-158.5 53.5t-158.5 -53.5t-57.5 -137.5t57 -137t159 -53zM639 -194
q-61 0 -95.5 25.5t-34.5 69.5q0 41 32 73.5t94 53.5l26 -28q-28 -10 -48 -24.5t-30.5 -31t-10.5 -34.5q0 -24 19 -37.5t53 -13.5q16 0 33 3.5t34 10.5l19 -49q-17 -8 -40.5 -13t-50.5 -5z" />
    <glyph glyph-name="aring.ss01" horiz-adv-x="783" 
d="M363 -8q-86 0 -149.5 32t-99 89.5t-35.5 133.5t36 133t99 90t148 33q81 0 141.5 -31t86.5 -85v0v107h74v-494h-71v109h-1q-28 -56 -88 -86.5t-141 -30.5zM373 57q101 0 158.5 53t57.5 137t-57.5 137.5t-158.5 53.5t-158.5 -53.5t-57.5 -137.5t57 -137t159 -53zM369 556
q-39 0 -69 16.5t-47.5 44t-17.5 62.5q0 36 17.5 64t47.5 44t69 16t69.5 -16t47.5 -44t17 -64q0 -35 -17 -62.5t-47.5 -44t-69.5 -16.5zM369 600q36 0 59 22t23 59q0 36 -23 58t-59 22q-35 0 -58.5 -22t-23.5 -58q0 -37 23 -59t59 -22z" />
    <glyph glyph-name="aringacute.ss01" horiz-adv-x="783" 
d="M363 -8q-86 0 -149.5 32t-99 89.5t-35.5 133.5t36 133t99 90t148 33q81 0 141.5 -31t86.5 -85v0v107h74v-494h-71v109h-1q-28 -56 -88 -86.5t-141 -30.5zM373 57q101 0 158.5 53t57.5 137t-57.5 137.5t-158.5 53.5t-158.5 -53.5t-57.5 -137.5t57 -137t159 -53zM369 555
q-39 0 -69.5 16t-48 44t-17.5 64t17.5 64t48 44.5t69.5 16.5q22 0 42 -5.5t36 -15.5l77 64h82l-123 -100q10 -14 15.5 -30.5t5.5 -37.5q0 -36 -17.5 -64t-47.5 -44t-70 -16zM369 599q36 0 59 22.5t23 57.5q0 38 -23 59.5t-59 21.5q-35 0 -58.5 -21.5t-23.5 -59.5
q0 -35 23.5 -57.5t58.5 -22.5z" />
    <glyph glyph-name="atilde.ss01" horiz-adv-x="783" 
d="M363 -8q-86 0 -149.5 32t-99 89.5t-35.5 133.5t36 133t99 90t148 33q81 0 141.5 -31t86.5 -85v0v107h74v-494h-71v109h-1q-28 -56 -88 -86.5t-141 -30.5zM373 57q101 0 158.5 53t57.5 137t-57.5 137.5t-158.5 53.5t-158.5 -53.5t-57.5 -137.5t57 -137t159 -53zM209 602
l-56 3q7 65 40 102t84 37q39 0 65.5 -17.5t43.5 -29.5q12 -8 31.5 -22t45.5 -14q29 0 44 20t24 65l56 -3q-6 -66 -38.5 -102.5t-84.5 -36.5q-42 0 -68.5 18t-41.5 29q-13 10 -32.5 23t-44.5 13q-28 0 -43.5 -20t-24.5 -65z" />
    <glyph glyph-name="l.ss02" horiz-adv-x="314" 
d="M119 0v705h76v-705h-76z" />
    <glyph glyph-name="lacute.ss02" horiz-adv-x="314" 
d="M119 0v705h76v-705h-76zM123 765l147 179h99l-178 -179h-68z" />
    <glyph glyph-name="lcaron.ss02" horiz-adv-x="314" 
d="M119 0v705h76v-705h-76zM254 514l4 191h71l-28 -191h-47z" />
    <glyph glyph-name="uni013C.ss02" horiz-adv-x="314" 
d="M119 0v705h76v-705h-76zM148 -291l-36 30q23 20 32 44t9 53l13 -11h-56v95h96v-70q0 -46 -13.5 -79.5t-44.5 -61.5z" />
    <glyph glyph-name="ldot.ss02" horiz-adv-x="371" 
d="M119 0v705h76v-705h-76zM289 313v89h103v-89h-103z" />
    <glyph glyph-name="uni1E37.ss02" horiz-adv-x="314" 
d="M119 0v705h76v-705h-76zM110 -188v90h94v-90h-94z" />
    <glyph glyph-name="uni01C9.ss02" horiz-adv-x="601" 
d="M119 0v705h76v-705h-76zM408 619v89h102v-89h-102zM240 -193l-5 65l61 6q60 6 92.5 31t32.5 79v506h76v-504q0 -40 -12 -71.5t-35.5 -53.5t-60 -35t-85.5 -17z" />
    <glyph glyph-name="uni1E3B.ss02" horiz-adv-x="314" 
d="M119 0v705h76v-705h-76zM-35 -160v61h384v-61h-384z" />
    <glyph glyph-name="lslash.ss02" horiz-adv-x="355" 
d="M140 0v705h76v-705h-76zM36 254l-27 55l313 152l27 -56z" />
    <glyph glyph-name="i_j.loclNLD" horiz-adv-x="601" 
d="M105 619v89h102v-89h-102zM119 0v494h76v-494h-76zM408 619v89h102v-89h-102zM240 -193l-5 65l61 6q60 6 92.5 31t32.5 79v506h76v-504q0 -40 -12 -71.5t-35.5 -53.5t-60 -35t-85.5 -17z" />
    <glyph glyph-name="fl.ss02" horiz-adv-x="773" 
d="M150 0v432h-129v62h145l-16 -15v24q0 94 63 144.5t180 57.5l59 3l7 -64l-72 -4q-42 -1 -79 -12.5t-59.5 -38.5t-22.5 -79v-26l-16 10h218v-62h-202v-432h-76zM578 0v705h76v-705h-76z" />
    <glyph glyph-name="ordfeminine" unicode="&#xaa;" horiz-adv-x="435" 
d="M188 387q-62 0 -101.5 27.5t-39.5 71.5q0 48 50 70t161 22h70v-40h-69q-55 0 -89 -5t-48.5 -17t-14.5 -32q0 -24 25 -38t62 -14q35 0 63.5 12.5t45 33.5t16.5 49v65q0 42 -23.5 58.5t-79.5 16.5q-40 0 -75.5 -9.5t-61.5 -26.5l-18 44q30 17 73 27.5t90 10.5
q76 0 114 -30.5t38 -93.5v-197h-56v58h-3q-20 -32 -53.5 -47.5t-75.5 -15.5z" />
    <glyph glyph-name="ordmasculine" unicode="&#xba;" horiz-adv-x="450" 
d="M225 386q-55 0 -96.5 20.5t-65 57.5t-23.5 86t23.5 85.5t65 57t96.5 20.5q54 0 96.5 -20.5t65.5 -57t23 -85.5t-23 -86t-65.5 -57.5t-96.5 -20.5zM225 438q58 0 92 29t34 83t-34 83t-92 29q-59 0 -92.5 -29t-33.5 -83q0 -53 33.5 -82.5t92.5 -29.5z" />
    <glyph glyph-name="uni0410" unicode="&#x410;" horiz-adv-x="932" 
d="M48 0l381 705h74l381 -705h-84l-109 202l46 -23h-543l46 23l-110 -202h-82zM463 624l-210 -395l-33 17h491l-35 -17l-209 395h-4z" />
    <glyph glyph-name="uni0411" unicode="&#x411;" horiz-adv-x="859" 
d="M135 0v705h569v-68h-492v-245h297q91 0 153 -21.5t93.5 -65t31.5 -108.5t-31.5 -109t-93.5 -66t-153 -22h-374zM212 66h290q110 0 157.5 31t47.5 99t-48.5 98.5t-156.5 30.5h-290v-259z" />
    <glyph glyph-name="uni0412" unicode="&#x412;" horiz-adv-x="887" 
d="M135 0v705h361q133 0 201.5 -46t68.5 -135q0 -71 -41.5 -110.5t-114.5 -50.5v-1q50 -5 90 -25t63.5 -56.5t23.5 -90.5q0 -61 -31.5 -103t-92.5 -64.5t-153 -22.5h-375zM212 67h296q19 0 44.5 1.5t53 7.5t50.5 20t37.5 37.5t14.5 59.5q0 39 -14.5 64t-38 39t-50.5 19.5
t-52 7t-42 1.5h-299v-257zM212 391h280q102 0 148.5 30.5t46.5 97.5q0 61 -46 90t-150 29h-279v-247z" />
    <glyph glyph-name="uni0413" unicode="&#x413;" horiz-adv-x="717" 
d="M135 0v705h550v-69h-473v-636h-77z" />
    <glyph glyph-name="uni0403" unicode="&#x403;" horiz-adv-x="717" 
d="M135 0v705h550v-69h-473v-636h-77zM331 765l147 179h99l-178 -179h-68z" />
    <glyph glyph-name="uni0490" unicode="&#x490;" horiz-adv-x="718" 
d="M135 0v705h478v153h73v-222h-474v-636h-77z" />
    <glyph glyph-name="uni04F6" unicode="&#x4f6;" horiz-adv-x="718" 
d="M265 -151v151h-127v64h198v-215h-71zM136 0v705h549v-69h-472v-636h-77z" />
    <glyph glyph-name="uni0492" unicode="&#x492;" horiz-adv-x="733" 
d="M152 0v318h-131v66h131v321h548v-69h-471v-252l256 -1v-66l-256 1v-318h-77z" />
    <glyph glyph-name="uni0494" unicode="&#x494;" horiz-adv-x="863" 
d="M534 -188q-39 0 -76.5 5t-64.5 16l18 63q26 -7 56 -12t63 -5q86 0 134 42t48 128v104q0 101 -64 155.5t-203 54.5q-43 0 -84.5 -4.5t-80 -13.5t-68.5 -22v-323h-77v705h408v-69h-331v-243q29 13 68.5 21.5t85.5 13t92 4.5q158 0 244.5 -68t86.5 -205v-109
q0 -76 -31 -129.5t-88 -81t-136 -27.5z" />
    <glyph glyph-name="uni0414" unicode="&#x414;" horiz-adv-x="986" 
d="M30 -156v224h86q49 49 78 115t42 150.5t13 187.5v184h578v-637h124v-224h-73v156h-776v-156h-72zM199 68h550v569h-426v-121q0 -106 -13 -189t-40 -146.5t-71 -112.5z" />
    <glyph glyph-name="uni0415" unicode="&#x415;" horiz-adv-x="780" 
d="M135 0v705h555v-68h-478v-245h441v-68h-441v-256h478v-68h-555z" />
    <glyph glyph-name="uni0400" unicode="&#x400;" horiz-adv-x="780" 
d="M135 0v705h555v-68h-478v-245h441v-68h-441v-256h478v-68h-555zM391 765l-178 179h96l147 -179h-65z" />
    <glyph glyph-name="uni0401" unicode="&#x401;" horiz-adv-x="780" 
d="M135 0v705h555v-68h-478v-245h441v-68h-441v-256h478v-68h-555zM492 808v87h93v-87h-93zM259 808v87h93v-87h-93z" />
    <glyph glyph-name="uni0416" unicode="&#x416;" horiz-adv-x="1212" 
d="M18 0l149 244q27 44 59 74.5t72 47.5t92 21l-27 -24l-296 342h92l282 -330l-28 17h154v313h77v-313h155l-28 -17l282 330h92l-296 -342l-26 24q51 -4 91 -21t72 -47t59 -75l148 -244h-89l-123 207q-35 60 -82.5 88t-127.5 28h-127v-323h-77v323h-126q-75 0 -123.5 -25.5
t-87.5 -90.5l-122 -207h-90z" />
    <glyph glyph-name="uni0417" unicode="&#x417;" horiz-adv-x="835" 
d="M394 -8q-72 0 -136.5 9.5t-117 28.5t-88.5 47l33 61q58 -42 136 -60t173 -18q132 0 197.5 33.5t65.5 103.5q0 63 -54 94.5t-168 31.5h-228v68h223q97 0 150.5 36t53.5 95q0 63 -60 93t-178 30q-89 0 -162 -19.5t-125 -60.5l-34 60q34 30 84 49.5t112 29t130 9.5
q100 0 169.5 -21t105.5 -61.5t36 -97.5q0 -55 -33.5 -101t-102.5 -66v-5q79 -20 119 -63t40 -105q0 -64 -39.5 -109t-115 -68.5t-186.5 -23.5z" />
    <glyph glyph-name="uni0418" unicode="&#x418;" horiz-adv-x="988" 
d="M135 0v705h75v-598h1l566 598h76v-705h-76v598h-1l-566 -598h-75z" />
    <glyph glyph-name="uni0419" unicode="&#x419;" horiz-adv-x="988" 
d="M135 0v705h75v-598h1l566 598h76v-705h-76v598h-1l-566 -598h-75zM493 767q-63 0 -110.5 16t-77.5 46t-43 75l53 15q19 -52 65 -73t113 -21q71 0 116.5 22.5t61.5 71.5l52 -15q-18 -67 -76.5 -102t-153.5 -35z" />
    <glyph glyph-name="uni040D" unicode="&#x40d;" horiz-adv-x="988" 
d="M135 0v705h75v-598h1l566 598h76v-705h-76v598h-1l-566 -598h-75zM464 765l-178 179h96l147 -179h-65z" />
    <glyph glyph-name="uni048A" unicode="&#x48a;" horiz-adv-x="995" 
d="M824 -151l63 151h-110v608l4 -5l-571 -603h-75v705h75v-608l-3 4l570 604h76v-641h127l-85 -215h-71zM493 767q-64 0 -111 16t-77 46t-43 75l53 15q18 -52 64.5 -73t113.5 -21q71 0 116.5 22.5t61.5 71.5l52 -15q-18 -67 -76.5 -102t-153.5 -35z" />
    <glyph glyph-name="uni041A" unicode="&#x41a;" horiz-adv-x="822" 
d="M135 0v705h77v-313h197l-28 -18l282 331h92l-295 -342l-27 24q52 -4 91.5 -21t72 -47t59.5 -75l148 -244h-89l-123 207q-35 60 -83 88t-127 28h-170v-323h-77z" />
    <glyph glyph-name="uni040C" unicode="&#x40c;" horiz-adv-x="822" 
d="M135 0v705h77v-313h197l-28 -18l282 331h92l-295 -342l-27 24q52 -4 91.5 -21t72 -47t59.5 -75l148 -244h-89l-123 207q-35 60 -83 88t-127 28h-170v-323h-77zM387 765l147 179h99l-178 -179h-68z" />
    <glyph glyph-name="uni041B" unicode="&#x41b;" horiz-adv-x="949" 
d="M55 -14l-35 61q63 27 105 66.5t66.5 93.5t34 125t9.5 159v214h579v-705h-77v636h-426v-162q0 -97 -13.5 -174.5t-43 -138t-79 -103.5t-120.5 -72z" />
    <glyph glyph-name="uni041C" unicode="&#x41c;" horiz-adv-x="1117" 
d="M137 0v705h94l331 -512h-6l331 512h94v-705h-76v601h-2l-315 -490h-57l-317 491h-1v-602h-76z" />
    <glyph glyph-name="uni041D" unicode="&#x41d;" horiz-adv-x="982" 
d="M135 0v705h77v-312h558v312h77v-705h-77v325h-558v-325h-77z" />
    <glyph glyph-name="uni041E" unicode="&#x41e;" horiz-adv-x="985" 
d="M493 -8q-93 0 -166 24.5t-124.5 71t-79 113t-27.5 150.5q0 85 27.5 151.5t79 114t125 72t165.5 24.5t165.5 -25t124.5 -71t78.5 -113t27.5 -151q0 -85 -27.5 -152t-78.5 -113.5t-124.5 -71t-165.5 -24.5zM493 61q98 0 168.5 34t108.5 99t38 159t-37 159t-108.5 98.5
t-169.5 33.5q-100 0 -170 -34t-108.5 -98.5t-38.5 -159.5q0 -94 38 -158.5t109 -98.5t170 -34z" />
    <glyph glyph-name="uni041F" unicode="&#x41f;" horiz-adv-x="980" 
d="M135 0v705h710v-705h-77v636h-556v-636h-77z" />
    <glyph glyph-name="uni0420" unicode="&#x420;" horiz-adv-x="838" 
d="M135 0v705h353q92 0 154.5 -24t94.5 -70.5t32 -115.5q0 -68 -32.5 -115.5t-95 -72t-153.5 -24.5h-276v-283h-77zM212 350h269q106 0 157 33.5t51 111.5t-50 110.5t-158 32.5h-269v-288z" />
    <glyph glyph-name="uni0421" unicode="&#x421;" horiz-adv-x="870" 
d="M491 -9q-121 0 -209.5 43t-137 124.5t-48.5 193.5q0 113 48 194t137.5 124t211.5 43q92 0 168 -25t131 -74l-36 -59q-58 46 -120.5 67t-142.5 21q-147 0 -231.5 -74.5t-84.5 -217.5q0 -142 84 -215.5t232 -73.5q80 0 142.5 21t120.5 67l36 -59q-55 -49 -131 -74.5
t-170 -25.5z" />
    <glyph glyph-name="uni0422" unicode="&#x422;" horiz-adv-x="778" 
d="M350 0v636h-327v69h732v-69h-328v-636h-77z" />
    <glyph glyph-name="uni0423" unicode="&#x423;" horiz-adv-x="787" 
d="M250 0l147 228l2 -30l-397 507h91l338 -424h-2l276 424h87l-454 -705h-88z" />
    <glyph glyph-name="uni040E" unicode="&#x40e;" horiz-adv-x="787" 
d="M250 0l147 228l2 -30l-397 507h91l338 -424h-2l276 424h87l-454 -705h-88zM391 767q-63 0 -110.5 16t-77.5 46t-43 75l53 15q19 -52 65 -73t113 -21q71 0 116.5 22.5t61.5 71.5l52 -15q-18 -67 -76.5 -102t-153.5 -35z" />
    <glyph glyph-name="uni0424" unicode="&#x424;" horiz-adv-x="1115" 
d="M519 -23v121l23 -17h-44q-118 0 -209.5 29.5t-142 91t-50.5 156.5q0 97 50 158t141 90t211 29h44l-23 -18v116h77v-116l-23 18h44q121 0 211.5 -29t140.5 -90t50 -158q0 -95 -51.5 -156.5t-141.5 -91t-209 -29.5h-44l23 17v-121h-77zM519 126v464l22 -23h-57
q-90 0 -160 -20t-109.5 -65.5t-39.5 -121.5q0 -58 23.5 -98.5t65 -65.5t98 -36.5t122.5 -11.5h57zM596 126l-22 22h57q66 0 122.5 11.5t98 36.5t65 65.5t23.5 98.5q0 75 -39 121t-109.5 66t-160.5 20h-57l22 23v-464z" />
    <glyph glyph-name="uni0425" unicode="&#x425;" horiz-adv-x="820" 
d="M35 0l325 376l1 -27l-309 356h97l262 -299v0l261 299h95l-310 -355v26l327 -376h-96l-282 320h3l-280 -320h-94z" />
    <glyph glyph-name="uni0427" unicode="&#x427;" horiz-adv-x="883" 
d="M671 0v303q-28 -12 -67.5 -20.5t-85 -13.5t-91.5 -5q-167 0 -254 67.5t-87 205.5v168h78v-161q0 -111 68.5 -161t208.5 -50q59 0 120 10t110 30v332h77v-705h-77z" />
    <glyph glyph-name="uni0426" unicode="&#x426;" horiz-adv-x="1005" 
d="M897 -156v156h-762v705h77v-636h554v636h78v-639h126v-222h-73z" />
    <glyph glyph-name="uni0428" unicode="&#x428;" horiz-adv-x="1350" 
d="M135 0v705h77v-636h424v636h77v-636h424v636h78v-705h-1080z" />
    <glyph glyph-name="uni0429" unicode="&#x429;" horiz-adv-x="1374" 
d="M1266 -156v156h-1131v705h77v-636h424v636h77v-636h424v636h78v-640h123v-221h-72z" />
    <glyph glyph-name="uni040F" unicode="&#x40f;" horiz-adv-x="979" 
d="M453 -156v156h-318v705h77v-636h555v636h77v-705h-318v-156h-73z" />
    <glyph glyph-name="uni042C" unicode="&#x42c;" horiz-adv-x="860" 
d="M135 0v705h77v-312h297q91 0 153 -21.5t93.5 -65t31.5 -108.5t-31.5 -109t-93.5 -66.5t-153 -22.5h-374zM212 67h290q110 0 157.5 30.5t47.5 99.5t-48.5 99t-156.5 30h-290v-259z" />
    <glyph glyph-name="uni042B" unicode="&#x42b;" horiz-adv-x="1106" 
d="M135 0v705h77v-312h273q91 0 153.5 -21.5t93.5 -65t31 -108.5t-31 -109t-93.5 -66.5t-153.5 -22.5h-350zM212 67h267q110 0 157.5 30.5t47.5 99.5t-49 99t-156 30h-267v-259zM894 0v705h77v-705h-77z" />
    <glyph glyph-name="uni042A" unicode="&#x42a;" horiz-adv-x="1030" 
d="M311 0v636h-288v69h366v-312h290q91 0 153 -21.5t93.5 -64.5t31.5 -108t-31.5 -109.5t-93.5 -67t-153 -22.5h-368zM389 67h283q108 0 156.5 31t48.5 99q0 69 -48.5 99t-156.5 30h-283v-259z" />
    <glyph glyph-name="uni0409" unicode="&#x409;" horiz-adv-x="1431" 
d="M55 -14l-35 61q63 27 105 66.5t66.5 93.5t34 125t9.5 159v214h556v-312h289q91 0 153 -21.5t93.5 -65t31.5 -108.5t-31.5 -109t-93.5 -66.5t-153 -22.5h-366v636h-403v-162q0 -97 -13.5 -174.5t-43 -138t-79 -103.5t-120.5 -72zM791 67h283q110 0 157.5 30.5t47.5 99.5
t-49 99t-156 30h-283v-259z" />
    <glyph glyph-name="uni040A" unicode="&#x40a;" horiz-adv-x="1473" 
d="M135 0v705h77v-310h544v310h77v-310h289q92 0 153.5 -22t93 -65.5t31.5 -108.5t-31 -109.5t-93 -67t-154 -22.5h-366v326h-544v-326h-77zM833 67h283q110 0 157.5 31t47.5 100t-49 99.5t-156 30.5h-283v-261z" />
    <glyph glyph-name="uni0405" unicode="&#x405;" horiz-adv-x="798" 
d="M415 -8q-69 0 -132.5 9t-116.5 29.5t-93 51.5l35 63q46 -33 94.5 -51.5t101.5 -25.5t112 -7q108 0 171.5 32t63.5 96q0 42 -21.5 65t-60.5 34t-94 19l-166 23q-117 16 -166 62.5t-49 121.5q0 62 40 106.5t112 68.5t169 24q63 0 117.5 -10.5t99.5 -31.5t81 -53l-36 -63
q-55 49 -118 69t-145 20q-72 0 -127 -14.5t-85.5 -42.5t-30.5 -71q0 -52 36 -78.5t120 -38.5l162 -22q121 -16 180 -59.5t59 -124.5q0 -62 -38 -107t-108 -69.5t-167 -24.5z" />
    <glyph glyph-name="uni0404" unicode="&#x404;" horiz-adv-x="872" 
d="M493 -8q-122 0 -211 43t-137.5 124t-48.5 193q0 113 48 194t138 124t212 43q93 0 168 -24.5t132 -73.5l-35 -59q-59 45 -122 66t-143 21q-148 0 -232.5 -72t-85.5 -216l-19 37h499v-68h-499l19 26q0 -142 85 -215t233 -73q80 0 143 21t122 66l35 -59
q-57 -49 -132.5 -73.5t-168.5 -24.5z" />
    <glyph glyph-name="uni042D" unicode="&#x42d;" horiz-adv-x="871" 
d="M379 -8q-93 0 -169 24.5t-133 73.5l36 59q59 -45 122 -66t143 -21q149 0 233.5 73t84.5 214l19 -25h-499v68h499l-19 -38q-1 147 -86 218t-241 71q-77 0 -141 -22.5t-115 -64.5l-36 59q50 47 126 72.5t170 25.5q126 0 216 -42t138 -123t48 -196q0 -112 -48.5 -193
t-136.5 -124t-211 -43z" />
    <glyph glyph-name="uni0406" unicode="&#x406;" horiz-adv-x="347" 
d="M135 0v705h77v-705h-77z" />
    <glyph glyph-name="uni0407" unicode="&#x407;" horiz-adv-x="347" 
d="M135 0v705h77v-705h-77zM243 808v87h93v-87h-93zM10 808v87h93v-87h-93z" />
    <glyph glyph-name="uni0408" unicode="&#x408;" horiz-adv-x="459" 
d="M6 -7l-5 69l90 4q46 2 81 19t55 46.5t20 69.5v504h77v-508q0 -56 -28.5 -100t-79.5 -70t-118 -30z" />
    <glyph glyph-name="uni040B" unicode="&#x40b;" horiz-adv-x="1091" 
d="M350 0v636h-327v69h732v-69h-328v-243q29 12 69 20.5t85.5 13.5t89.5 5q112 0 188.5 -30t117 -90.5t40.5 -152.5v-159h-77v153q0 109 -71 159.5t-211 50.5q-59 0 -121 -11t-110 -29v-323h-77z" />
    <glyph glyph-name="uni042E" unicode="&#x42e;" horiz-adv-x="1290" 
d="M807 -8q-113 0 -197 40t-132.5 115t-55.5 178h-209v-325h-78v705h78v-313h210q10 100 59 171.5t131.5 110.5t193.5 39q119 0 205.5 -43.5t134 -124t47.5 -192.5q0 -83 -27 -150t-78 -114t-122 -72t-160 -25zM807 61q96 0 164 35.5t105 101t37 155.5q0 137 -81 214
t-225 77q-95 0 -163 -35t-105 -100t-37 -157q0 -137 81 -214t224 -77z" />
    </font>
</defs>
</svg>
