<svg width="62" height="42" viewBox="0 0 62 42" fill="none" xmlns="http://www.w3.org/2000/svg">
<path fill-rule="evenodd" clip-rule="evenodd" d="M48.7557 8.66743H39.2145V6.68123H48.7557C49.6747 6.68123 50.5453 7.08166 51.1278 7.77228L60.9285 19.3928C61.3776 19.9254 61.6231 20.5926 61.6231 21.2811V32.9147C61.6231 34.5602 60.2501 35.894 58.5564 35.894H55.8086V33.9078H58.5564C59.1209 33.9078 59.5786 33.4632 59.5786 32.9147V21.2811C59.5786 21.0516 59.4968 20.8292 59.3471 20.6517L49.5464 9.03111C49.3523 8.8009 49.0621 8.66743 48.7557 8.66743ZM39.229 33.5004L43.0153 33.9141L42.7868 35.8878L39.0006 35.4741L39.229 33.5004Z" fill="#271F22"/>
<path fill-rule="evenodd" clip-rule="evenodd" d="M0.763672 3.57061C0.763672 1.92519 2.13666 0.591309 3.83033 0.591309H37.9049C39.5986 0.591309 40.9716 1.92519 40.9716 3.57061V33.8097C40.9716 35.4551 39.5986 36.789 37.9049 36.789H22.1765V34.8028H37.9049C38.4695 34.8028 38.9271 34.3582 38.9271 33.8097V3.57061C38.9271 3.02213 38.4695 2.57751 37.9049 2.57751H3.83033C3.26577 2.57751 2.80811 3.02213 2.80811 3.57061V33.8097C2.80811 34.3582 3.26577 34.8028 3.83033 34.8028H11.1197V36.789H3.83033C2.13666 36.789 0.763672 35.4551 0.763672 33.8097V3.57061Z" fill="#271F22"/>
<path fill-rule="evenodd" clip-rule="evenodd" d="M39.027 19.9362H60.9672V21.9224H39.027V19.9362Z" fill="#271F22"/>
<path fill-rule="evenodd" clip-rule="evenodd" d="M17.1758 39.4225C19.8743 39.4225 22.062 37.2972 22.062 34.6755C22.062 32.0537 19.8743 29.9284 17.1758 29.9284C14.4772 29.9284 12.2896 32.0537 12.2896 34.6755C12.2896 37.2972 14.4772 39.4225 17.1758 39.4225ZM17.1758 41.4087C21.0035 41.4087 24.1064 38.3941 24.1064 34.6755C24.1064 30.9568 21.0035 27.9422 17.1758 27.9422C13.3481 27.9422 10.2451 30.9568 10.2451 34.6755C10.2451 38.3941 13.3481 41.4087 17.1758 41.4087Z" fill="#271F22"/>
<path fill-rule="evenodd" clip-rule="evenodd" d="M49.5336 39.423C52.2324 39.423 54.4201 37.2976 54.4201 34.6757C54.4201 32.0539 52.2324 29.9284 49.5336 29.9284C46.8349 29.9284 44.6472 32.0539 44.6472 34.6757C44.6472 37.2976 46.8349 39.423 49.5336 39.423ZM49.5336 41.4092C53.3615 41.4092 56.4646 38.3945 56.4646 34.6757C56.4646 30.9569 53.3615 27.9422 49.5336 27.9422C45.7058 27.9422 42.6027 30.9569 42.6027 34.6757C42.6027 38.3945 45.7058 41.4092 49.5336 41.4092Z" fill="#271F22"/>
</svg>
