<svg width="53" height="36" viewBox="0 0 53 36" fill="none" xmlns="http://www.w3.org/2000/svg">
<g opacity="0.64">
<path fill-rule="evenodd" clip-rule="evenodd" d="M41.7943 7.12285H33.4852V5.37109H41.7943C42.5947 5.37109 43.3528 5.72426 43.8601 6.33337L52.3951 16.5823C52.7862 17.052 53 17.6405 53 18.2477V28.5081C53 29.9593 51.8043 31.1358 50.3294 31.1358H47.9365V29.384H50.3294C50.821 29.384 51.2196 28.9919 51.2196 28.5081V18.2477C51.2196 18.0453 51.1483 17.8491 51.0179 17.6925L42.4829 7.44361C42.3138 7.24057 42.0611 7.12285 41.7943 7.12285ZM33.498 29.0246L36.7953 29.3895L36.5963 31.1303L33.299 30.7654L33.498 29.0246Z" fill="#7D6A6F"/>
<path fill-rule="evenodd" clip-rule="evenodd" d="M0 2.62764C0 1.17643 1.19568 0 2.67063 0H32.3448C33.8198 0 35.0154 1.17643 35.0154 2.62764V29.2975C35.0154 30.7487 33.8198 31.9251 32.3448 31.9251H18.6476V30.1733H32.3448C32.8365 30.1733 33.235 29.7812 33.235 29.2975V2.62764C33.235 2.1439 32.8365 1.75176 32.3448 1.75176H2.67063C2.17898 1.75176 1.78042 2.1439 1.78042 2.62764V29.2975C1.78042 29.7812 2.17898 30.1733 2.67063 30.1733H9.01861V31.9251H2.67063C1.19568 31.9251 0 30.7487 0 29.2975V2.62764Z" fill="#7D6A6F"/>
<path fill-rule="evenodd" clip-rule="evenodd" d="M33.322 17.0615H52.4288V18.8133H33.322V17.0615Z" fill="#7D6A6F"/>
<path fill-rule="evenodd" clip-rule="evenodd" d="M14.2926 34.2477C16.6427 34.2477 18.5478 32.3733 18.5478 30.061C18.5478 27.7488 16.6427 25.8743 14.2926 25.8743C11.9426 25.8743 10.0374 27.7488 10.0374 30.061C10.0374 32.3733 11.9426 34.2477 14.2926 34.2477ZM14.2926 35.9995C17.626 35.9995 20.3283 33.3407 20.3283 30.061C20.3283 26.7813 17.626 24.1226 14.2926 24.1226C10.9593 24.1226 8.25702 26.7813 8.25702 30.061C8.25702 33.3407 10.9593 35.9995 14.2926 35.9995Z" fill="#7D6A6F"/>
<path fill-rule="evenodd" clip-rule="evenodd" d="M42.4718 34.2482C44.822 34.2482 46.7272 32.3736 46.7272 30.0613C46.7272 27.7489 44.822 25.8743 42.4718 25.8743C40.1216 25.8743 38.2164 27.7489 38.2164 30.0613C38.2164 32.3736 40.1216 34.2482 42.4718 34.2482ZM42.4718 36C45.8053 36 48.5077 33.3411 48.5077 30.0613C48.5077 26.7814 45.8053 24.1226 42.4718 24.1226C39.1383 24.1226 36.4359 26.7814 36.4359 30.0613C36.4359 33.3411 39.1383 36 42.4718 36Z" fill="#7D6A6F"/>
</g>
</svg>
