<svg width="49" height="36" viewBox="0 0 49 36" fill="none" xmlns="http://www.w3.org/2000/svg">
<path fill-rule="evenodd" clip-rule="evenodd" d="M46.6982 1.85706H2.30183V7.67941H46.6982V1.85706ZM2.30183 0C1.3067 0 0.5 0.831433 0.5 1.85706V7.67941C0.5 8.70503 1.30671 9.53647 2.30183 9.53647H46.6982C47.6933 9.53647 48.5 8.70503 48.5 7.67941V1.85706C48.5 0.831433 47.6933 0 46.6982 0H2.30183Z" fill="#5F112D"/>
<path fill-rule="evenodd" clip-rule="evenodd" d="M18.5834 15.6009V17.2336H30.978V15.6009H18.5834ZM17.6825 13.7439C17.1849 13.7439 16.7816 14.1596 16.7816 14.6724V18.1621C16.7816 18.6749 17.1849 19.0906 17.6825 19.0906H31.8789C32.3764 19.0906 32.7798 18.6749 32.7798 18.1621V14.6724C32.7798 14.1596 32.3764 13.7439 31.8789 13.7439H17.6825Z" fill="#5F112D"/>
<path fill-rule="evenodd" clip-rule="evenodd" d="M43.8643 9.55362H5.13654V34.1429H43.8643V9.55362ZM5.13654 7.69656C4.14142 7.69656 3.33472 8.52799 3.33472 9.55362V34.1429C3.33472 35.1685 4.14142 35.9999 5.13654 35.9999H43.8643C44.8595 35.9999 45.6662 35.1685 45.6662 34.1429V9.55362C45.6662 8.528 44.8595 7.69656 43.8643 7.69656H5.13654Z" fill="#5F112D"/>
</svg>
