<svg width="22" height="21" viewBox="0 0 22 21" fill="none" xmlns="http://www.w3.org/2000/svg">
<path d="M1.40039 0.0931641C0.903334 0.0931641 0.500391 0.496108 0.500391 0.993164C0.500391 1.49022 0.903334 1.89316 1.40039 1.89316V0.0931641ZM3.69293 0.993164L4.56163 0.75789C4.45538 0.365578 4.09937 0.0931641 3.69293 0.0931641V0.993164ZM7.4183 14.7484L6.5496 14.9837C6.66684 15.4166 7.08491 15.6971 7.52993 15.6414L7.4183 14.7484ZM18.881 13.3156L18.9926 14.2086C19.3748 14.1608 19.6843 13.8751 19.7623 13.4979L18.881 13.3156ZM20.6004 5.00511L21.4817 5.18745C21.5366 4.92239 21.4692 4.64672 21.2983 4.43682C21.1274 4.22693 20.8711 4.10511 20.6004 4.10511V5.00511ZM4.77949 5.00511L3.91079 5.24038L4.77949 5.00511ZM1.40039 1.89316H3.69293V0.0931641H1.40039V1.89316ZM7.52993 15.6414L18.9926 14.2086L18.7694 12.4225L7.30667 13.8553L7.52993 15.6414ZM19.7623 13.4979L21.4817 5.18745L19.7191 4.82276L17.9996 13.1332L19.7623 13.4979ZM2.82422 1.22844L3.91079 5.24038L5.6482 4.76983L4.56163 0.75789L2.82422 1.22844ZM3.91079 5.24038L6.5496 14.9837L8.287 14.5131L5.6482 4.76983L3.91079 5.24038ZM20.6004 4.10511H4.77949V5.90511H20.6004V4.10511ZM10.1004 18.5004C10.1004 18.8318 9.83176 19.1004 9.50039 19.1004V20.9004C10.8259 20.9004 11.9004 19.8259 11.9004 18.5004H10.1004ZM9.50039 19.1004C9.16902 19.1004 8.90039 18.8318 8.90039 18.5004H7.10039C7.10039 19.8259 8.17491 20.9004 9.50039 20.9004V19.1004ZM8.90039 18.5004C8.90039 18.1691 9.16902 17.9004 9.50039 17.9004V16.1004C8.17491 16.1004 7.10039 17.175 7.10039 18.5004H8.90039ZM9.50039 17.9004C9.83176 17.9004 10.1004 18.1691 10.1004 18.5004H11.9004C11.9004 17.175 10.8259 16.1004 9.50039 16.1004V17.9004ZM18.1004 18.5004C18.1004 18.8318 17.8318 19.1004 17.5004 19.1004V20.9004C18.8259 20.9004 19.9004 19.8259 19.9004 18.5004H18.1004ZM17.5004 19.1004C17.169 19.1004 16.9004 18.8318 16.9004 18.5004H15.1004C15.1004 19.8259 16.1749 20.9004 17.5004 20.9004V19.1004ZM16.9004 18.5004C16.9004 18.1691 17.169 17.9004 17.5004 17.9004V16.1004C16.1749 16.1004 15.1004 17.175 15.1004 18.5004H16.9004ZM17.5004 17.9004C17.8318 17.9004 18.1004 18.1691 18.1004 18.5004H19.9004C19.9004 17.175 18.8259 16.1004 17.5004 16.1004V17.9004Z" fill="#F5F5F5"/>
</svg>
