<svg width="64" height="102" viewBox="0 0 64 102" fill="none" xmlns="http://www.w3.org/2000/svg">
<path fill-rule="evenodd" clip-rule="evenodd" d="M18.3805 42.7495C18.0928 39.4806 17.5794 36.1756 17.5852 32.8717C17.5902 30.5527 18.3088 28.2357 18.6985 25.9157C18.7879 25.3837 18.9931 24.8047 18.8752 24.3137C17.5587 18.8348 20.8299 14.1009 25.1181 12.3949C25.284 12.3289 25.4401 12.2389 25.607 12.1569C24.9816 9.25691 24.3622 6.37994 23.7535 3.55197C26.4503 2.18999 28.5169 2.76998 30.1623 5.59595C30.6109 3.85497 30.9555 2.51598 31.3452 1C33.7947 2.84498 36.1233 4.59896 38.5414 6.41894C37.1709 8.53592 35.8504 10.5769 34.477 12.6979C36.6731 13.9709 38.3804 15.6568 39.4573 17.9558C39.5653 18.1868 39.8451 18.3408 40.0552 18.5158C44.3709 22.1028 46.3187 26.8397 46.4777 32.4057C46.5778 35.8956 46.3422 39.3596 45.1416 42.8026C47.6764 43.0195 50.1042 43.2025 52.5262 43.4425C54.0223 43.5905 55.5048 43.8995 57.0029 43.9905C58.0386 44.0535 58.3832 44.5355 58.5668 45.4965C58.6542 45.9565 59.1048 46.5325 59.5289 46.7075C62.0902 47.7655 63.4971 49.6705 63.5 52.2864C63.5029 54.8374 62.1275 56.8624 59.632 57.7644C58.9065 58.0264 58.5501 58.4024 58.5903 59.1244C58.6404 60.0324 58.1289 60.3004 57.3838 60.4784C54.3345 61.2073 51.2941 61.9723 48.0956 62.7623C51.2263 73.5422 54.3542 84.3121 57.5252 95.23C52.6175 95.23 47.8914 95.23 43.0927 95.23C42.2376 98.251 40.9054 100.782 37.4457 100.987C35.2575 101.117 33.721 99.8829 31.9971 96.758C30.6433 99.5319 28.7878 101.59 25.5167 100.847C22.7806 100.225 21.6349 97.988 20.9703 95.297C16.2157 95.297 11.4435 95.297 6.45238 95.297C9.62535 84.3771 12.7453 73.6402 15.9232 62.7023C14.6607 62.4213 13.4404 62.1663 12.2279 61.8733C10.3243 61.4143 8.41683 60.9614 6.53092 60.4304C6.13037 60.3174 5.52857 59.8884 5.51777 59.5864C5.4785 58.4234 4.90516 57.9974 3.90379 57.5684C1.63697 56.5974 0.486377 54.7324 0.500122 52.1935C0.512884 49.8155 1.8667 47.6935 4.05695 46.9165C4.9945 46.5835 5.54624 46.2085 5.54427 45.1395C5.54329 44.3375 6.07343 44.1015 6.81267 44.0245C10.7534 43.6155 14.6872 43.1615 18.3805 42.7495ZM18.9852 60.8214C15.8918 71.4732 12.8229 82.0391 9.7245 92.709C24.639 92.709 39.3758 92.709 54.2746 92.709C51.1606 81.9791 48.0858 71.3852 45.0179 60.8154C48.6032 60.0114 51.9401 59.2904 55.2583 58.4864C55.6667 58.3874 56.2754 57.8614 56.2823 57.5214C56.3569 54.1414 56.3343 50.7585 56.3147 47.3755C56.3108 46.6335 55.975 46.2465 55.1494 46.1895C51.5592 45.9475 47.9719 45.6485 44.3866 45.3385C43.5629 45.2675 43.0907 45.5335 42.6372 46.2855C37.6313 54.5874 26.3629 54.5654 21.3384 46.2455C20.9173 45.5475 20.4804 45.2735 19.7048 45.3385C16.2089 45.6305 12.7139 45.9645 9.21203 46.1275C7.85233 46.1905 7.62261 46.9075 7.62162 47.9755C7.61868 50.9875 7.65697 53.9984 7.62653 57.0104C7.61672 57.9744 8.00646 58.3744 8.91162 58.5664C12.2024 59.2654 15.4804 60.0314 18.9852 60.8214ZM23.6072 34.7446C20.7209 38.8646 22.0492 45.1665 26.3443 48.2225C30.7955 51.3885 37.056 50.2515 40.1436 45.7155C43.1398 41.3116 42.1954 34.9096 38.1634 32.1137C33.7485 35.4396 29.2492 38.1456 23.6072 34.7446ZM43.8849 35.5926C44.364 31.2277 43.879 27.0467 41.2814 23.4158C38.5767 19.6368 35.0199 17.4578 30.2575 18.3448C25.1809 19.2888 22.4095 22.8668 20.7425 27.5227C19.8501 30.0127 19.64 34.0856 20.2183 35.6226C22.4704 30.3507 26.2854 27.2637 32.006 27.2657C37.7265 27.2677 41.5366 30.3577 43.8849 35.5926ZM27.0983 5.43995C26.9539 5.53995 26.8086 5.63995 26.6643 5.74095C26.8715 6.68394 27.0688 7.62893 27.2868 8.56992C27.8944 11.2069 27.8974 11.2059 30.4263 11.5219C30.8328 11.5729 31.2431 11.6869 31.6437 11.6619C31.9215 11.6449 32.2985 11.5159 32.4418 11.3039C33.3922 9.9109 34.2904 8.48192 35.2467 7.00194C34.3935 6.36694 33.6759 5.83295 32.8286 5.20195C32.3947 6.90994 32.004 8.44592 31.5347 10.2919C29.9286 8.53492 28.5129 6.98694 27.0983 5.43995ZM21.1489 21.0688C24.6547 16.9878 28.942 14.9798 34.6939 15.7968C31.7644 13.8109 28.9753 13.6379 26.1607 14.6699C23.3009 15.7168 21.5642 17.8658 21.1489 21.0688ZM25.6571 32.9897C28.6229 34.5406 33.1614 33.5097 35.495 30.8217C32.5665 29.2157 28.2096 30.1457 25.6571 32.9897ZM23.5905 95.386C24.1216 97.401 25.287 98.5739 26.6584 98.5659C28.0427 98.5579 29.262 97.278 29.6282 95.386C27.6362 95.386 25.6561 95.386 23.5905 95.386ZM34.3719 95.385C34.7479 97.342 36.0379 98.6139 37.4762 98.5599C38.7151 98.5149 40.4076 96.951 40.3242 95.385C38.345 95.385 36.3649 95.385 34.3719 95.385ZM4.8816 49.2815C3.46889 49.9255 2.89654 50.9545 2.91813 52.3614C2.93875 53.7154 3.58571 54.6364 4.8816 55.3094C4.8816 53.2124 4.8816 51.3135 4.8816 49.2815ZM59.1146 55.3234C60.6147 54.5034 61.2037 53.4104 61.0692 51.9405C60.9573 50.7215 60.3751 49.8235 59.1146 49.2835C59.1146 51.3165 59.1146 53.2154 59.1146 55.3234Z" fill="#BD2957" stroke="#BD2957"/>
</svg>
