<svg width="1144" height="639" viewBox="0 0 1144 639" fill="none" xmlns="http://www.w3.org/2000/svg">
<g clip-path="url(#clip0_906_4398)">
<path d="M14.25 638.75V0.25H1129.75V638.75H368.183H14.25Z" stroke="black" stroke-width="0.5"/>
<path d="M0.25 14.2527L1143.75 14.25V626.067H792.844H0.25V14.2527Z" stroke="black" stroke-width="0.5"/>
<g clip-path="url(#clip1_906_4398)">
<line x1="1090.5" y1="3.45215" x2="1090.5" y2="10.5479" stroke="black"/>
<line x1="1025.75" y1="3.45215" x2="1025.75" y2="10.5479" stroke="black"/>
<line x1="961" y1="3.45215" x2="961" y2="10.5479" stroke="black"/>
<line x1="896.25" y1="3.45215" x2="896.25" y2="10.5479" stroke="black"/>
<line x1="831.5" y1="3.45215" x2="831.5" y2="10.5479" stroke="black"/>
<line x1="766.75" y1="3.45215" x2="766.75" y2="10.5479" stroke="black"/>
<line x1="702" y1="3.45215" x2="702" y2="10.5479" stroke="black"/>
<line x1="637.25" y1="3.45215" x2="637.25" y2="10.5479" stroke="black"/>
<line x1="572.5" y1="3.45215" x2="572.5" y2="10.5479" stroke="black"/>
<line x1="507.75" y1="3.45215" x2="507.75" y2="10.5479" stroke="black"/>
<line x1="443" y1="3.45215" x2="443" y2="10.5479" stroke="black"/>
<line x1="378.25" y1="3.45215" x2="378.25" y2="10.5479" stroke="black"/>
<line x1="313.5" y1="3.45215" x2="313.5" y2="10.5479" stroke="black"/>
<line x1="248.75" y1="3.45215" x2="248.75" y2="10.5479" stroke="black"/>
<line x1="184" y1="3.45215" x2="184" y2="10.5479" stroke="black"/>
<line x1="119.25" y1="3.45215" x2="119.25" y2="10.5479" stroke="black"/>
<line x1="54.5" y1="3.45215" x2="54.5" y2="10.5479" stroke="black"/>
</g>
<g clip-path="url(#clip2_906_4398)">
<line x1="1090.5" y1="628.452" x2="1090.5" y2="635.548" stroke="black"/>
<line x1="1025.75" y1="628.452" x2="1025.75" y2="635.548" stroke="black"/>
<line x1="961" y1="628.452" x2="961" y2="635.548" stroke="black"/>
<line x1="896.25" y1="628.452" x2="896.25" y2="635.548" stroke="black"/>
<line x1="831.5" y1="628.452" x2="831.5" y2="635.548" stroke="black"/>
<line x1="766.75" y1="628.452" x2="766.75" y2="635.548" stroke="black"/>
<line x1="702" y1="628.452" x2="702" y2="635.548" stroke="black"/>
<line x1="637.25" y1="628.452" x2="637.25" y2="635.548" stroke="black"/>
<line x1="572.5" y1="628.452" x2="572.5" y2="635.548" stroke="black"/>
<line x1="507.75" y1="628.452" x2="507.75" y2="635.548" stroke="black"/>
<line x1="443" y1="628.452" x2="443" y2="635.548" stroke="black"/>
<line x1="378.25" y1="628.452" x2="378.25" y2="635.548" stroke="black"/>
<line x1="313.5" y1="628.452" x2="313.5" y2="635.548" stroke="black"/>
<line x1="248.75" y1="628.452" x2="248.75" y2="635.548" stroke="black"/>
<line x1="184" y1="628.452" x2="184" y2="635.548" stroke="black"/>
<line x1="119.25" y1="628.452" x2="119.25" y2="635.548" stroke="black"/>
<line x1="54.5" y1="628.452" x2="54.5" y2="635.548" stroke="black"/>
</g>
<line x1="3.45215" y1="53.5" x2="10.5479" y2="53.5" stroke="black"/>
<line x1="3.45215" y1="118.25" x2="10.5479" y2="118.25" stroke="black"/>
<line x1="3.45215" y1="183" x2="10.5479" y2="183" stroke="black"/>
<line x1="3.45215" y1="247.75" x2="10.5479" y2="247.75" stroke="black"/>
<line x1="3.45215" y1="312.5" x2="10.5479" y2="312.5" stroke="black"/>
<line x1="3.45215" y1="377.25" x2="10.5479" y2="377.25" stroke="black"/>
<line x1="3.45215" y1="442" x2="10.5479" y2="442" stroke="black"/>
<line x1="3.45215" y1="506.75" x2="10.5479" y2="506.75" stroke="black"/>
<line x1="3.45215" y1="571.5" x2="10.5479" y2="571.5" stroke="black"/>
<line x1="1133.45" y1="53.5" x2="1140.55" y2="53.5" stroke="black"/>
<line x1="1133.45" y1="118.25" x2="1140.55" y2="118.25" stroke="black"/>
<line x1="1133.45" y1="183" x2="1140.55" y2="183" stroke="black"/>
<line x1="1133.45" y1="247.75" x2="1140.55" y2="247.75" stroke="black"/>
<line x1="1133.45" y1="312.5" x2="1140.55" y2="312.5" stroke="black"/>
<line x1="1133.45" y1="377.25" x2="1140.55" y2="377.25" stroke="black"/>
<line x1="1133.45" y1="442" x2="1140.55" y2="442" stroke="black"/>
<line x1="1133.45" y1="506.75" x2="1140.55" y2="506.75" stroke="black"/>
<line x1="1133.45" y1="571.5" x2="1140.55" y2="571.5" stroke="black"/>
</g>
<defs>
<clipPath id="clip0_906_4398">
<rect width="1144" height="639" fill="white"/>
</clipPath>
<clipPath id="clip1_906_4398">
<rect width="14" height="1116" fill="white" transform="translate(1130) rotate(90)"/>
</clipPath>
<clipPath id="clip2_906_4398">
<rect width="14" height="1116" fill="white" transform="translate(1130 625) rotate(90)"/>
</clipPath>
</defs>
</svg>
