<svg width="386" height="292" viewBox="0 0 386 292" fill="none" xmlns="http://www.w3.org/2000/svg">
<path fill-rule="evenodd" clip-rule="evenodd" d="M12.8372 0.486667V291.513H373.163V0.486667H12.8372ZM12.3945 0H373.605V292H12.3945V0Z" fill="#FFB5CC"/>
<path fill-rule="evenodd" clip-rule="evenodd" d="M385.557 14.1133L0.442661 14.1145V277.887H385.557V14.1133ZM386 13.6267V278.373H0V13.6278L386 13.6267Z" fill="#FFB5CC"/>
<path d="M8.00766 34.31C8.00766 34.9819 7.5122 35.5267 6.90101 35.5267C6.28982 35.5267 5.79436 34.9819 5.79436 34.31C5.79436 33.6381 6.28982 33.0933 6.90101 33.0933C7.5122 33.0933 8.00766 33.6381 8.00766 34.31Z" fill="#FFB5CC"/>
<path d="M8.00766 59.13C8.00766 59.8019 7.5122 60.3467 6.90101 60.3467C6.28982 60.3467 5.79436 59.8019 5.79436 59.13C5.79436 58.4581 6.28982 57.9133 6.90101 57.9133C7.5122 57.9133 8.00766 58.4581 8.00766 59.13Z" fill="#FFB5CC"/>
<path d="M8.00766 83.95C8.00766 84.6219 7.5122 85.1667 6.90101 85.1667C6.28982 85.1667 5.79436 84.6219 5.79436 83.95C5.79436 83.2781 6.28982 82.7333 6.90101 82.7333C7.5122 82.7333 8.00766 83.2781 8.00766 83.95Z" fill="#FFB5CC"/>
<path d="M8.00766 108.77C8.00766 109.442 7.5122 109.987 6.90101 109.987C6.28982 109.987 5.79436 109.442 5.79436 108.77C5.79436 108.098 6.28982 107.553 6.90101 107.553C7.5122 107.553 8.00766 108.098 8.00766 108.77Z" fill="#FFB5CC"/>
<path d="M8.00766 133.59C8.00766 134.262 7.5122 134.807 6.90101 134.807C6.28982 134.807 5.79436 134.262 5.79436 133.59C5.79436 132.918 6.28982 132.373 6.90101 132.373C7.5122 132.373 8.00766 132.918 8.00766 133.59Z" fill="#FFB5CC"/>
<path d="M8.00766 158.41C8.00766 159.082 7.5122 159.627 6.90101 159.627C6.28982 159.627 5.79436 159.082 5.79436 158.41C5.79436 157.738 6.28982 157.193 6.90101 157.193C7.5122 157.193 8.00766 157.738 8.00766 158.41Z" fill="#FFB5CC"/>
<path d="M8.00766 183.23C8.00766 183.902 7.5122 184.447 6.90101 184.447C6.28982 184.447 5.79436 183.902 5.79436 183.23C5.79436 182.558 6.28982 182.013 6.90101 182.013C7.5122 182.013 8.00766 182.558 8.00766 183.23Z" fill="#FFB5CC"/>
<path d="M8.00766 208.05C8.00766 208.722 7.5122 209.267 6.90101 209.267C6.28982 209.267 5.79436 208.722 5.79436 208.05C5.79436 207.378 6.28982 206.833 6.90101 206.833C7.5122 206.833 8.00766 207.378 8.00766 208.05Z" fill="#FFB5CC"/>
<path d="M8.00766 232.87C8.00766 233.542 7.5122 234.087 6.90101 234.087C6.28982 234.087 5.79436 233.542 5.79436 232.87C5.79436 232.198 6.28982 231.653 6.90101 231.653C7.5122 231.653 8.00766 232.198 8.00766 232.87Z" fill="#FFB5CC"/>
<path d="M8.00766 257.69C8.00766 258.362 7.5122 258.907 6.90101 258.907C6.28982 258.907 5.79436 258.362 5.79436 257.69C5.79436 257.018 6.28982 256.473 6.90101 256.473C7.5122 256.473 8.00766 257.018 8.00766 257.69Z" fill="#FFB5CC"/>
<path d="M380.245 34.31C380.245 34.9819 379.75 35.5267 379.139 35.5267C378.528 35.5267 378.032 34.9819 378.032 34.31C378.032 33.6381 378.528 33.0933 379.139 33.0933C379.75 33.0933 380.245 33.6381 380.245 34.31Z" fill="#FFB5CC"/>
<path d="M380.245 59.13C380.245 59.8019 379.75 60.3467 379.139 60.3467C378.528 60.3467 378.032 59.8019 378.032 59.13C378.032 58.4581 378.528 57.9133 379.139 57.9133C379.75 57.9133 380.245 58.4581 380.245 59.13Z" fill="#FFB5CC"/>
<path d="M380.245 83.95C380.245 84.6219 379.75 85.1667 379.139 85.1667C378.528 85.1667 378.032 84.6219 378.032 83.95C378.032 83.2781 378.528 82.7333 379.139 82.7333C379.75 82.7333 380.245 83.2781 380.245 83.95Z" fill="#FFB5CC"/>
<path d="M380.245 108.77C380.245 109.442 379.75 109.987 379.139 109.987C378.528 109.987 378.032 109.442 378.032 108.77C378.032 108.098 378.528 107.553 379.139 107.553C379.75 107.553 380.245 108.098 380.245 108.77Z" fill="#FFB5CC"/>
<path d="M380.245 133.59C380.245 134.262 379.75 134.807 379.139 134.807C378.528 134.807 378.032 134.262 378.032 133.59C378.032 132.918 378.528 132.373 379.139 132.373C379.75 132.373 380.245 132.918 380.245 133.59Z" fill="#FFB5CC"/>
<path d="M380.245 158.41C380.245 159.082 379.75 159.627 379.139 159.627C378.528 159.627 378.032 159.082 378.032 158.41C378.032 157.738 378.528 157.193 379.139 157.193C379.75 157.193 380.245 157.738 380.245 158.41Z" fill="#FFB5CC"/>
<path d="M380.245 183.23C380.245 183.902 379.75 184.447 379.139 184.447C378.528 184.447 378.032 183.902 378.032 183.23C378.032 182.558 378.528 182.013 379.139 182.013C379.75 182.013 380.245 182.558 380.245 183.23Z" fill="#FFB5CC"/>
<path d="M380.245 208.05C380.245 208.722 379.75 209.267 379.139 209.267C378.528 209.267 378.032 208.722 378.032 208.05C378.032 207.378 378.528 206.833 379.139 206.833C379.75 206.833 380.245 207.378 380.245 208.05Z" fill="#FFB5CC"/>
<path d="M380.245 232.87C380.245 233.542 379.75 234.087 379.139 234.087C378.528 234.087 378.032 233.542 378.032 232.87C378.032 232.198 378.528 231.653 379.139 231.653C379.75 231.653 380.245 232.198 380.245 232.87Z" fill="#FFB5CC"/>
<path d="M380.245 257.69C380.245 258.362 379.75 258.907 379.139 258.907C378.528 258.907 378.032 258.362 378.032 257.69C378.032 257.018 378.528 256.473 379.139 256.473C379.75 256.473 380.245 257.018 380.245 257.69Z" fill="#FFB5CC"/>
<path d="M351.07 285.917C350.458 285.917 349.963 285.372 349.963 284.7C349.963 284.028 350.458 283.483 351.07 283.483C351.681 283.483 352.176 284.028 352.176 284.7C352.176 285.372 351.681 285.917 351.07 285.917Z" fill="#FFB5CC"/>
<path d="M328.494 285.917C327.883 285.917 327.387 285.372 327.387 284.7C327.387 284.028 327.883 283.483 328.494 283.483C329.105 283.483 329.601 284.028 329.601 284.7C329.601 285.372 329.105 285.917 328.494 285.917Z" fill="#FFB5CC"/>
<path d="M305.918 285.917C305.307 285.917 304.812 285.372 304.812 284.7C304.812 284.028 305.307 283.483 305.918 283.483C306.529 283.483 307.025 284.028 307.025 284.7C307.025 285.372 306.529 285.917 305.918 285.917Z" fill="#FFB5CC"/>
<path d="M283.343 285.917C282.731 285.917 282.236 285.372 282.236 284.7C282.236 284.028 282.731 283.483 283.343 283.483C283.954 283.483 284.449 284.028 284.449 284.7C284.449 285.372 283.954 285.917 283.343 285.917Z" fill="#FFB5CC"/>
<path d="M260.767 285.917C260.156 285.917 259.66 285.372 259.66 284.7C259.66 284.028 260.156 283.483 260.767 283.483C261.378 283.483 261.873 284.028 261.873 284.7C261.873 285.372 261.378 285.917 260.767 285.917Z" fill="#FFB5CC"/>
<path d="M238.191 285.917C237.58 285.917 237.084 285.372 237.084 284.7C237.084 284.028 237.58 283.483 238.191 283.483C238.802 283.483 239.298 284.028 239.298 284.7C239.298 285.372 238.802 285.917 238.191 285.917Z" fill="#FFB5CC"/>
<path d="M215.615 285.917C215.004 285.917 214.509 285.372 214.509 284.7C214.509 284.028 215.004 283.483 215.615 283.483C216.227 283.483 216.722 284.028 216.722 284.7C216.722 285.372 216.227 285.917 215.615 285.917Z" fill="#FFB5CC"/>
<path d="M193.04 285.917C192.429 285.917 191.933 285.372 191.933 284.7C191.933 284.028 192.429 283.483 193.04 283.483C193.651 283.483 194.146 284.028 194.146 284.7C194.146 285.372 193.651 285.917 193.04 285.917Z" fill="#FFB5CC"/>
<path d="M170.464 285.917C169.853 285.917 169.357 285.372 169.357 284.7C169.357 284.028 169.853 283.483 170.464 283.483C171.075 283.483 171.571 284.028 171.571 284.7C171.571 285.372 171.075 285.917 170.464 285.917Z" fill="#FFB5CC"/>
<path d="M147.888 285.917C147.277 285.917 146.782 285.372 146.782 284.7C146.782 284.028 147.277 283.483 147.888 283.483C148.5 283.483 148.995 284.028 148.995 284.7C148.995 285.372 148.5 285.917 147.888 285.917Z" fill="#FFB5CC"/>
<path d="M125.313 285.917C124.702 285.917 124.206 285.372 124.206 284.7C124.206 284.028 124.702 283.483 125.313 283.483C125.924 283.483 126.419 284.028 126.419 284.7C126.419 285.372 125.924 285.917 125.313 285.917Z" fill="#FFB5CC"/>
<path d="M102.737 285.917C102.126 285.917 101.63 285.372 101.63 284.7C101.63 284.028 102.126 283.483 102.737 283.483C103.348 283.483 103.844 284.028 103.844 284.7C103.844 285.372 103.348 285.917 102.737 285.917Z" fill="#FFB5CC"/>
<path d="M80.1613 285.917C79.5501 285.917 79.0547 285.372 79.0547 284.7C79.0547 284.028 79.5501 283.483 80.1613 283.483C80.7725 283.483 81.268 284.028 81.268 284.7C81.268 285.372 80.7725 285.917 80.1613 285.917Z" fill="#FFB5CC"/>
<path d="M57.5856 285.917C56.9745 285.917 56.479 285.372 56.479 284.7C56.479 284.028 56.9745 283.483 57.5856 283.483C58.1968 283.483 58.6923 284.028 58.6923 284.7C58.6923 285.372 58.1968 285.917 57.5856 285.917Z" fill="#FFB5CC"/>
<path d="M35.01 285.917C34.3988 285.917 33.9033 285.372 33.9033 284.7C33.9033 284.028 34.3988 283.483 35.01 283.483C35.6211 283.483 36.1166 284.028 36.1166 284.7C36.1166 285.372 35.6211 285.917 35.01 285.917Z" fill="#FFB5CC"/>
<path d="M351.07 8.51667C350.458 8.51667 349.963 7.97195 349.963 7.30001C349.963 6.62806 350.458 6.08334 351.07 6.08334C351.681 6.08334 352.176 6.62806 352.176 7.30001C352.176 7.97195 351.681 8.51667 351.07 8.51667Z" fill="#FFB5CC"/>
<path d="M328.494 8.51667C327.883 8.51667 327.387 7.97195 327.387 7.30001C327.387 6.62806 327.883 6.08334 328.494 6.08334C329.105 6.08334 329.601 6.62806 329.601 7.30001C329.601 7.97195 329.105 8.51667 328.494 8.51667Z" fill="#FFB5CC"/>
<path d="M305.918 8.51667C305.307 8.51667 304.812 7.97195 304.812 7.30001C304.812 6.62806 305.307 6.08334 305.918 6.08334C306.529 6.08334 307.025 6.62806 307.025 7.30001C307.025 7.97195 306.529 8.51667 305.918 8.51667Z" fill="#FFB5CC"/>
<path d="M283.343 8.51667C282.731 8.51667 282.236 7.97195 282.236 7.3C282.236 6.62806 282.731 6.08334 283.343 6.08334C283.954 6.08334 284.449 6.62806 284.449 7.3C284.449 7.97195 283.954 8.51667 283.343 8.51667Z" fill="#FFB5CC"/>
<path d="M260.767 8.51667C260.156 8.51667 259.66 7.97195 259.66 7.3C259.66 6.62806 260.156 6.08334 260.767 6.08334C261.378 6.08334 261.873 6.62806 261.873 7.3C261.873 7.97195 261.378 8.51667 260.767 8.51667Z" fill="#FFB5CC"/>
<path d="M238.191 8.51667C237.58 8.51667 237.084 7.97195 237.084 7.3C237.084 6.62806 237.58 6.08334 238.191 6.08334C238.802 6.08334 239.298 6.62806 239.298 7.3C239.298 7.97195 238.802 8.51667 238.191 8.51667Z" fill="#FFB5CC"/>
<path d="M215.615 8.51667C215.004 8.51667 214.509 7.97195 214.509 7.3C214.509 6.62806 215.004 6.08333 215.615 6.08333C216.227 6.08333 216.722 6.62806 216.722 7.3C216.722 7.97195 216.227 8.51667 215.615 8.51667Z" fill="#FFB5CC"/>
<path d="M193.04 8.51667C192.429 8.51667 191.933 7.97195 191.933 7.3C191.933 6.62805 192.429 6.08333 193.04 6.08333C193.651 6.08333 194.146 6.62805 194.146 7.3C194.146 7.97195 193.651 8.51667 193.04 8.51667Z" fill="#FFB5CC"/>
<path d="M170.464 8.51667C169.853 8.51667 169.357 7.97195 169.357 7.3C169.357 6.62805 169.853 6.08333 170.464 6.08333C171.075 6.08333 171.571 6.62805 171.571 7.3C171.571 7.97195 171.075 8.51667 170.464 8.51667Z" fill="#FFB5CC"/>
<path d="M147.888 8.51667C147.277 8.51667 146.782 7.97194 146.782 7.3C146.782 6.62805 147.277 6.08333 147.888 6.08333C148.5 6.08333 148.995 6.62805 148.995 7.3C148.995 7.97194 148.5 8.51667 147.888 8.51667Z" fill="#FFB5CC"/>
<path d="M125.313 8.51666C124.702 8.51666 124.206 7.97194 124.206 7.3C124.206 6.62805 124.702 6.08333 125.313 6.08333C125.924 6.08333 126.419 6.62805 126.419 7.3C126.419 7.97194 125.924 8.51666 125.313 8.51666Z" fill="#FFB5CC"/>
<path d="M102.737 8.51666C102.126 8.51666 101.63 7.97194 101.63 7.3C101.63 6.62805 102.126 6.08333 102.737 6.08333C103.348 6.08333 103.844 6.62805 103.844 7.3C103.844 7.97194 103.348 8.51666 102.737 8.51666Z" fill="#FFB5CC"/>
<path d="M80.1613 8.51666C79.5501 8.51666 79.0547 7.97194 79.0547 7.3C79.0547 6.62805 79.5501 6.08333 80.1613 6.08333C80.7725 6.08333 81.268 6.62805 81.268 7.3C81.268 7.97194 80.7725 8.51666 80.1613 8.51666Z" fill="#FFB5CC"/>
<path d="M57.5856 8.51666C56.9745 8.51666 56.479 7.97194 56.479 7.29999C56.479 6.62805 56.9745 6.08333 57.5856 6.08333C58.1968 6.08333 58.6923 6.62805 58.6923 7.29999C58.6923 7.97194 58.1968 8.51666 57.5856 8.51666Z" fill="#FFB5CC"/>
<path d="M35.01 8.51666C34.3988 8.51666 33.9033 7.97194 33.9033 7.29999C33.9033 6.62805 34.3988 6.08333 35.01 6.08333C35.6211 6.08333 36.1166 6.62805 36.1166 7.29999C36.1166 7.97194 35.6211 8.51666 35.01 8.51666Z" fill="#FFB5CC"/>
</svg>
