<svg width="61" height="60" viewBox="0 0 61 60" fill="none" xmlns="http://www.w3.org/2000/svg">
<path fill-rule="evenodd" clip-rule="evenodd" d="M55.612 26.292H5.72461L5.72461 57.9772H55.612V26.292ZM5.72461 24.2695C4.60763 24.2695 3.70215 25.175 3.70215 26.292V57.9772C3.70215 59.0942 4.60764 59.9997 5.72461 59.9997H55.612C56.7289 59.9997 57.6344 59.0942 57.6344 57.9772V26.292C57.6344 25.175 56.7289 24.2695 55.612 24.2695H5.72461Z" fill="#F5F5F5"/>
<path fill-rule="evenodd" clip-rule="evenodd" d="M56.9619 14.1553H4.37793C3.26095 14.1553 2.35547 15.0608 2.35547 16.1777V22.2451C2.35547 23.3621 3.26095 24.2676 4.37793 24.2676H56.9619C58.0789 24.2676 58.9843 23.3621 58.9843 22.2451V16.1777C58.9843 15.0608 58.0789 14.1553 56.9619 14.1553ZM4.37793 12.1328C2.14398 12.1328 0.333008 13.9438 0.333008 16.1777V22.2451C0.333008 24.4791 2.14398 26.29 4.37793 26.29H56.9619C59.1958 26.29 61.0068 24.4791 61.0068 22.2451V16.1777C61.0068 13.9438 59.1958 12.1328 56.9619 12.1328H4.37793Z" fill="#F5F5F5"/>
<path fill-rule="evenodd" clip-rule="evenodd" d="M29.413 2.94318C31.0006 5.29714 31.7049 8.81289 31.1632 12.6477C31.089 13.1731 30.5675 13.5434 29.9984 13.4749C29.4294 13.4064 29.0283 12.925 29.1025 12.3996C29.5998 8.87949 28.9187 5.8401 27.6489 3.95728C27.0174 3.02093 26.2725 2.41463 25.5034 2.12534C24.7566 1.84448 23.8984 1.82744 22.9223 2.21363C18.7889 3.84899 17.9694 9.14455 21.4415 11.783C21.8846 12.1197 21.9482 12.7242 21.5835 13.1333C21.2188 13.5424 20.5639 13.601 20.1209 13.2643C15.4464 9.71223 16.5389 2.65181 22.1037 0.450148C23.5522 -0.122926 24.9885 -0.139983 26.2874 0.348537C27.564 0.828643 28.6158 1.76114 29.413 2.94318Z" fill="#F5F5F5"/>
<path fill-rule="evenodd" clip-rule="evenodd" d="M31.8333 2.94318C30.3213 5.29714 29.6505 8.81289 30.1664 12.6477C30.2371 13.1731 30.7338 13.5434 31.2757 13.4749C31.8177 13.4064 32.1997 12.925 32.129 12.3996C31.6554 8.87949 32.304 5.8401 33.5134 3.95728C34.1148 3.02093 34.8242 2.41463 35.5567 2.12534C36.2679 1.84448 37.0853 1.82744 38.0149 2.21363C41.9515 3.84899 42.7319 9.14455 39.4251 11.783C39.0032 12.1197 38.9427 12.7242 39.29 13.1333C39.6373 13.5424 40.261 13.601 40.6829 13.2643C45.1348 9.71223 44.0943 2.65181 38.7945 0.450148C37.415 -0.122926 36.047 -0.139983 34.81 0.348537C33.5943 0.828643 32.5925 1.76114 31.8333 2.94318Z" fill="#F5F5F5"/>
<path fill-rule="evenodd" clip-rule="evenodd" d="M48.5272 34.163C48.8642 34.5184 49.1813 34.7954 49.4224 35.1276C49.5852 35.3513 49.7782 35.701 49.706 35.9049C49.64 36.0903 49.2407 36.2324 48.976 36.2555C48.3889 36.3069 47.7934 36.288 47.2026 36.2678C46.7996 36.2541 46.6618 36.4178 46.6764 36.8114C46.6995 37.4239 46.709 38.0402 46.6674 38.6509C46.6523 38.8755 46.5169 39.2271 46.3616 39.2733C46.1507 39.337 45.8237 39.2247 45.6255 39.0798C45.2602 38.8127 44.9525 38.4659 44.5712 38.1058C44.1975 38.4598 43.8733 38.8127 43.4995 39.1001C43.3183 39.2398 42.9979 39.3705 42.8247 39.2998C42.6529 39.2294 42.5047 38.9076 42.4882 38.6849C42.442 38.0747 42.4538 37.4579 42.4764 36.8454C42.4915 36.424 42.341 36.2484 41.9082 36.2663C41.3396 36.2904 40.7658 36.3055 40.2004 36.2564C39.9291 36.2328 39.4817 36.0913 39.4496 35.9346C39.3986 35.6835 39.578 35.3419 39.7478 35.0998C39.9819 34.7666 40.2976 34.491 40.6129 34.1531C40.2811 33.7987 39.9517 33.5066 39.7011 33.1579C39.5426 32.937 39.3864 32.602 39.4454 32.3755C39.4878 32.2131 39.8847 32.0697 40.1334 32.0503C40.7436 32.0036 41.3599 32.0229 41.9729 32.0371C42.3415 32.0456 42.4811 31.8889 42.4736 31.5274C42.4604 30.8918 42.4429 30.2542 42.4887 29.6219C42.5043 29.3996 42.6557 29.0768 42.828 29.0075C43.0031 28.9376 43.3216 29.0707 43.5047 29.2109C43.8671 29.4874 44.1791 29.8305 44.5745 30.2042C44.9346 29.8626 45.2541 29.5039 45.6321 29.2231C45.8288 29.0773 46.1601 28.9692 46.3711 29.0353C46.5249 29.083 46.6542 29.4383 46.6684 29.6644C46.7085 30.2977 46.6943 30.9347 46.6792 31.5699C46.6707 31.9116 46.8132 32.0414 47.1455 32.0352C47.7372 32.0253 48.3328 31.996 48.9189 32.0513C49.2035 32.0782 49.5805 32.2117 49.7084 32.4222C49.7971 32.5689 49.5786 32.9625 49.4163 33.1867C49.1761 33.5198 48.8642 33.8006 48.5272 34.163ZM43.5481 37.3664C43.9544 37.1266 44.2451 36.8213 44.5368 36.8208C44.8539 36.8199 45.1715 37.1021 45.5688 37.3008C45.5688 36.8331 45.5688 36.4027 45.5693 35.9723C45.5698 35.4433 45.7864 35.1536 46.3649 35.189C46.825 35.2173 47.2885 35.1946 47.7509 35.1946C47.7873 35.1489 47.8236 35.1031 47.8595 35.0568C46.9482 34.4471 47.0648 33.8252 48.0053 33.1149C47.3621 33.1149 46.9978 33.1154 46.6334 33.1149C45.6316 33.1126 45.5712 33.0503 45.5679 32.0192C45.5669 31.6874 45.5679 31.3561 45.5679 31.005C45.154 31.2183 44.8487 31.5053 44.5571 31.4906C44.2428 31.4755 43.9422 31.1787 43.5476 30.955C43.5476 31.4968 43.5429 31.9725 43.5486 32.4477C43.5543 32.913 43.3391 33.1305 42.8667 33.1164C42.3801 33.1027 41.8927 33.1135 41.4052 33.1135C41.3632 33.1565 41.3217 33.1999 41.2797 33.2424C42.2188 33.8539 42.0791 34.4769 41.156 35.1956C41.8979 35.1956 42.3712 35.2069 42.8436 35.1923C43.3499 35.1762 43.5627 35.416 43.5505 35.9086C43.5387 36.3636 43.5481 36.8194 43.5481 37.3664Z" fill="#BD2957"/>
<path fill-rule="evenodd" clip-rule="evenodd" d="M48.5292 52.3642C48.8661 52.7196 49.1832 52.9966 49.4244 53.3288C49.5872 53.5525 49.7802 53.9022 49.708 54.106C49.6419 54.2915 49.2427 54.4335 48.9779 54.4567C48.3909 54.5081 47.7953 54.4892 47.2045 54.4689C46.8015 54.4552 46.6637 54.619 46.6783 55.0126C46.7015 55.6251 46.7109 56.2414 46.6694 56.8521C46.6543 57.0767 46.5188 57.4283 46.3636 57.4745C46.1526 57.5382 45.8256 57.4259 45.6274 57.281C45.2622 57.0139 44.9545 56.6671 44.5732 56.307C44.1994 56.6609 43.8752 57.0139 43.5015 57.3013C43.3203 57.441 42.9998 57.5717 42.8266 57.5009C42.6549 57.4306 42.5067 57.1088 42.4902 56.886C42.4439 56.2759 42.4557 55.6591 42.4784 55.0465C42.4935 54.6251 42.3429 54.4496 41.9102 54.4675C41.3415 54.4916 40.7677 54.5067 40.2024 54.4576C39.931 54.434 39.4836 54.2924 39.4516 54.1358C39.4006 53.8847 39.5799 53.543 39.7498 53.301C39.9839 52.9678 40.2996 52.6922 40.6148 52.3543C40.2831 51.9999 39.9537 51.7078 39.7031 51.3591C39.5445 51.1382 39.3883 50.8031 39.4473 50.5766C39.4898 50.4143 39.8867 50.2708 40.1354 50.2515C40.7455 50.2048 41.3618 50.2241 41.9748 50.2383C42.3434 50.2468 42.4831 50.0901 42.4755 49.7286C42.4623 49.093 42.4449 48.4554 42.4906 47.8231C42.5062 47.6008 42.6577 47.278 42.8299 47.2086C43.005 47.1388 43.3236 47.2719 43.5067 47.412C43.8691 47.6886 44.181 48.0316 44.5765 48.4054C44.9365 48.0637 45.256 47.7051 45.634 47.4243C45.8308 47.2785 46.1621 47.1704 46.373 47.2365C46.5269 47.2841 46.6562 47.6395 46.6703 47.8655C46.7104 48.4988 46.6963 49.1359 46.6812 49.7711C46.6727 50.1127 46.8152 50.2425 47.1474 50.2364C47.7392 50.2265 48.3347 50.1972 48.9208 50.2524C49.2054 50.2793 49.5825 50.4129 49.7104 50.6234C49.7991 50.7701 49.5806 51.1637 49.4182 51.3878C49.178 51.721 48.8661 52.0018 48.5292 52.3642ZM43.5501 55.5675C43.9564 55.3278 44.2471 55.0225 44.5387 55.022C44.8558 55.0211 45.1734 55.3033 45.5708 55.5019C45.5708 55.0343 45.5708 54.6039 45.5713 54.1735C45.5717 53.6445 45.7883 53.3548 46.3669 53.3901C46.827 53.4185 47.2904 53.3958 47.7529 53.3958C47.7892 53.35 47.8256 53.3043 47.8614 53.258C46.9502 52.6483 47.0667 52.0263 48.0072 51.3161C47.364 51.3161 46.9997 51.3166 46.6354 51.3161C45.6335 51.3138 45.5731 51.2515 45.5698 50.2203C45.5689 49.8886 45.5698 49.5573 45.5698 49.2062C45.156 49.4195 44.8506 49.7064 44.559 49.6918C44.2447 49.6767 43.9441 49.3799 43.5496 49.1562C43.5496 49.6979 43.5449 50.1736 43.5505 50.6488C43.5562 51.1141 43.341 51.3317 42.8686 51.3175C42.3821 51.3038 41.8946 51.3147 41.4071 51.3147C41.3651 51.3576 41.3236 51.4011 41.2816 51.4435C42.2207 52.0551 42.081 52.678 41.158 53.3968C41.8998 53.3968 42.3731 53.4081 42.8455 53.3934C43.3519 53.3774 43.5647 53.6171 43.5524 54.1098C43.5406 54.5647 43.5501 55.0206 43.5501 55.5675Z" fill="#BD2957"/>
<path fill-rule="evenodd" clip-rule="evenodd" d="M20.8885 42.9287C21.2255 43.284 21.5426 43.561 21.7837 43.8932C21.9466 44.1169 22.1396 44.4666 22.0674 44.6705C22.0013 44.8559 21.6021 44.998 21.3373 45.0211C20.7503 45.0725 20.1547 45.0537 19.5639 45.0334C19.1609 45.0197 19.0231 45.1834 19.0377 45.577C19.0608 46.1895 19.0703 46.8059 19.0288 47.4165C19.0137 47.6411 18.8782 47.9927 18.723 48.039C18.512 48.1027 18.185 47.9903 17.9868 47.8455C17.6215 47.5784 17.3138 47.2315 16.9325 46.8715C16.5588 47.2254 16.2346 47.5784 15.8608 47.8658C15.6796 48.0054 15.3592 48.1362 15.186 48.0654C15.0142 47.9951 14.8661 47.6732 14.8495 47.4505C14.8033 46.8403 14.8151 46.2235 14.8377 45.611C14.8528 45.1896 14.7023 45.014 14.2696 45.032C13.7009 45.056 13.1271 45.0711 12.5617 45.0221C12.2904 44.9985 11.843 44.8569 11.8109 44.7002C11.76 44.4492 11.9393 44.1075 12.1092 43.8654C12.3432 43.5322 12.6589 43.2566 12.9742 42.9188C12.6424 42.5644 12.313 42.2722 12.0625 41.9235C11.9039 41.7027 11.7477 41.3676 11.8067 41.1411C11.8492 40.9787 12.246 40.8353 12.4947 40.8159C13.1049 40.7692 13.7212 40.7886 14.3342 40.8027C14.7028 40.8112 14.8425 40.6545 14.8349 40.2931C14.8217 39.6574 14.8042 39.0199 14.85 38.3875C14.8656 38.1652 15.0171 37.8425 15.1893 37.7731C15.3644 37.7032 15.6829 37.8363 15.866 37.9765C16.2285 38.253 16.5404 38.5961 16.9358 38.9698C17.2959 38.6282 17.6154 38.2695 17.9934 37.9887C18.1902 37.8429 18.5215 37.7349 18.7324 37.8009C18.8862 37.8486 19.0155 38.2039 19.0297 38.43C19.0698 39.0633 19.0557 39.7004 19.0406 40.3355C19.0321 40.6772 19.1746 40.807 19.5068 40.8008C20.0986 40.7909 20.6941 40.7617 21.2802 40.8169C21.5648 40.8438 21.9418 40.9773 22.0697 41.1878C22.1584 41.3346 21.94 41.7281 21.7776 41.9523C21.5374 42.2855 21.2255 42.5662 20.8885 42.9287ZM15.9094 46.132C16.3158 45.8922 16.6065 45.5869 16.8981 45.5865C17.2152 45.5855 17.5328 45.8677 17.9302 46.0664C17.9302 45.5987 17.9302 45.1683 17.9306 44.738C17.9311 44.209 18.1477 43.9192 18.7263 43.9546C19.1864 43.9829 19.6498 43.9603 20.1123 43.9603C20.1486 43.9145 20.1849 43.8687 20.2208 43.8225C19.3095 43.2128 19.4261 42.5908 20.3666 41.8806C19.7234 41.8806 19.3591 41.881 18.9948 41.8806C17.9929 41.8782 17.9325 41.8159 17.9292 40.7848C17.9283 40.453 17.9292 40.1218 17.9292 39.7707C17.5153 39.984 17.21 40.2709 16.9184 40.2563C16.6041 40.2412 16.3035 39.9443 15.909 39.7206C15.909 40.2624 15.9043 40.7381 15.9099 41.2133C15.9156 41.6786 15.7004 41.8961 15.228 41.882C14.7415 41.8683 14.254 41.8791 13.7665 41.8791C13.7245 41.9221 13.683 41.9655 13.641 42.008C14.5801 42.6196 14.4404 43.2425 13.5173 43.9612C14.2592 43.9612 14.7325 43.9725 15.2049 43.9579C15.7112 43.9419 15.9241 44.1816 15.9118 44.6743C15.9 45.1292 15.9094 45.585 15.9094 46.132Z" fill="#BD2957"/>
<mask id="mask0_980_23174" style="mask-type:alpha" maskUnits="userSpaceOnUse" x="3" y="28" width="11" height="12">
<path fill-rule="evenodd" clip-rule="evenodd" d="M12.1249 34.165C12.4618 34.5203 12.7789 34.7974 13.0201 35.1296C13.1829 35.3533 13.3759 35.7029 13.3037 35.9068C13.2376 36.0923 12.8384 36.2343 12.5737 36.2574C11.9866 36.3089 11.3911 36.29 10.8002 36.2697C10.3972 36.256 10.2594 36.4198 10.274 36.8133C10.2972 37.4259 10.3066 38.0422 10.2651 38.6528C10.25 38.8775 10.1145 39.229 9.95929 39.2753C9.74834 39.339 9.42131 39.2267 9.22311 39.0818C8.85786 38.8147 8.55017 38.4679 8.16887 38.1078C7.79512 38.4617 7.47092 38.8147 7.09717 39.1021C6.91596 39.2418 6.59553 39.3725 6.42234 39.3017C6.25057 39.2314 6.10239 38.9096 6.08587 38.6868C6.03962 38.0766 6.05142 37.4599 6.07407 36.8473C6.08918 36.4259 5.93864 36.2504 5.5059 36.2683C4.93725 36.2924 4.36341 36.3075 3.79806 36.2584C3.52672 36.2348 3.07935 36.0932 3.04726 35.9365C2.99629 35.6855 3.17562 35.3438 3.34551 35.1017C3.57957 34.7686 3.89528 34.493 4.21051 34.1551C3.87876 33.8007 3.54937 33.5086 3.29879 33.1598C3.14023 32.939 2.98403 32.6039 3.04301 32.3774C3.08549 32.2151 3.48236 32.0716 3.73105 32.0523C4.34123 32.0056 4.95754 32.0249 5.57055 32.0391C5.93911 32.0476 6.07879 31.8909 6.07124 31.5294C6.05803 30.8937 6.04057 30.2562 6.08634 29.6238C6.10192 29.4016 6.2534 29.0788 6.42564 29.0094C6.60072 28.9396 6.91926 29.0726 7.10236 29.2128C7.46479 29.4893 7.77672 29.8324 8.17217 30.2062C8.53224 29.8645 8.85172 29.5059 9.22972 29.2251C9.4265 29.0793 9.75778 28.9712 9.96872 29.0373C10.1226 29.0849 10.2519 29.4403 10.266 29.6663C10.3061 30.2996 10.292 30.9367 10.2769 31.5719C10.2684 31.9135 10.4109 32.0433 10.7431 32.0372C11.3349 32.0273 11.9304 31.998 12.5166 32.0532C12.8011 32.0801 13.1782 32.2137 13.3061 32.4241C13.3948 32.5709 13.1763 32.9645 13.0139 33.1886C12.7737 33.5218 12.4618 33.8026 12.1249 34.165ZM7.14578 37.3683C7.55209 37.1286 7.84278 36.8233 8.13442 36.8228C8.45154 36.8218 8.76914 37.104 9.16648 37.3027C9.16648 36.8351 9.16648 36.4047 9.16696 35.9743C9.16743 35.4453 9.38403 35.1555 9.96259 35.1909C10.4227 35.2192 10.8861 35.1966 11.3486 35.1966C11.3849 35.1508 11.4213 35.105 11.4571 35.0588C10.5459 34.4491 10.6624 33.8271 11.6029 33.1169C10.9597 33.1169 10.5954 33.1174 10.2311 33.1169C9.22925 33.1145 9.16884 33.0522 9.16554 32.0211C9.16459 31.6894 9.16554 31.3581 9.16554 31.007C8.75168 31.2203 8.44635 31.5072 8.15471 31.4926C7.84042 31.4775 7.53982 31.1807 7.1453 30.957C7.1453 31.4987 7.14058 31.9744 7.14625 32.4496C7.15191 32.9149 6.93672 33.1325 6.46434 33.1183C5.97781 33.1046 5.49032 33.1155 5.00284 33.1155C4.96084 33.1584 4.91932 33.2018 4.87732 33.2443C5.81641 33.8559 5.67673 34.4788 4.75368 35.1975C5.49552 35.1975 5.96884 35.2089 6.44122 35.1942C6.94757 35.1782 7.16041 35.4179 7.14814 35.9106C7.13634 36.3655 7.14578 36.8214 7.14578 37.3683Z" fill="#E34D5F"/>
</mask>
<g mask="url(#mask0_980_23174)">
<path d="M5.72754 27.6426H13.8174V39.7773H5.72754V27.6426Z" fill="#BD2957"/>
</g>
<mask id="mask1_980_23174" style="mask-type:alpha" maskUnits="userSpaceOnUse" x="3" y="47" width="11" height="11">
<path fill-rule="evenodd" clip-rule="evenodd" d="M12.1249 52.3681C12.4618 52.7235 12.7789 53.0005 13.0201 53.3327C13.1829 53.5564 13.3759 53.9061 13.3037 54.1099C13.2376 54.2954 12.8384 54.4374 12.5737 54.4606C11.9866 54.512 11.3911 54.4931 10.8002 54.4728C10.3972 54.4591 10.2594 54.6229 10.274 55.0165C10.2972 55.629 10.3066 56.2453 10.2651 56.856C10.25 57.0806 10.1145 57.4322 9.95929 57.4784C9.74834 57.5421 9.42131 57.4298 9.22311 57.2849C8.85786 57.0178 8.55017 56.671 8.16887 56.3109C7.79512 56.6648 7.47092 57.0178 7.09717 57.3052C6.91596 57.4449 6.59553 57.5756 6.42234 57.5048C6.25057 57.4345 6.10239 57.1127 6.08587 56.8899C6.03962 56.2798 6.05142 55.663 6.07407 55.0504C6.08918 54.629 5.93864 54.4535 5.5059 54.4714C4.93725 54.4955 4.36341 54.5106 3.79806 54.4615C3.52672 54.4379 3.07935 54.2963 3.04726 54.1397C2.99629 53.8886 3.17562 53.5469 3.34551 53.3049C3.57957 52.9717 3.89528 52.6961 4.21051 52.3582C3.87876 52.0038 3.54937 51.7117 3.29879 51.363C3.14023 51.1421 2.98403 50.8071 3.04301 50.5805C3.08549 50.4182 3.48236 50.2747 3.73105 50.2554C4.34123 50.2087 4.95754 50.228 5.57055 50.2422C5.93911 50.2507 6.07879 50.094 6.07124 49.7325C6.05803 49.0969 6.04057 48.4593 6.08634 47.827C6.10192 47.6047 6.2534 47.2819 6.42564 47.2125C6.60072 47.1427 6.91926 47.2758 7.10236 47.4159C7.46479 47.6925 7.77672 48.0355 8.17217 48.4093C8.53224 48.0676 8.85172 47.709 9.22972 47.4282C9.4265 47.2824 9.75778 47.1743 9.96872 47.2404C10.1226 47.288 10.2519 47.6434 10.266 47.8694C10.3061 48.5027 10.292 49.1398 10.2769 49.775C10.2684 50.1167 10.4109 50.2464 10.7431 50.2403C11.3349 50.2304 11.9304 50.2011 12.5166 50.2563C12.8011 50.2832 13.1782 50.4168 13.3061 50.6273C13.3948 50.774 13.1763 51.1676 13.0139 51.3917C12.7737 51.7249 12.4618 52.0057 12.1249 52.3681ZM7.14578 55.5714C7.55209 55.3317 7.84278 55.0264 8.13442 55.0259C8.45154 55.025 8.76914 55.3072 9.16648 55.5058C9.16648 55.0382 9.16648 54.6078 9.16696 54.1774C9.16743 53.6484 9.38403 53.3587 9.96259 53.3941C10.4227 53.4224 10.8861 53.3997 11.3486 53.3997C11.3849 53.3539 11.4213 53.3082 11.4571 53.2619C10.5459 52.6522 10.6624 52.0302 11.6029 51.32C10.9597 51.32 10.5954 51.3205 10.2311 51.32C9.22925 51.3177 9.16884 51.2554 9.16554 50.2242C9.16459 49.8925 9.16554 49.5612 9.16554 49.2101C8.75168 49.4234 8.44635 49.7103 8.15471 49.6957C7.84042 49.6806 7.53982 49.3838 7.1453 49.1601C7.1453 49.7018 7.14058 50.1775 7.14625 50.6527C7.15191 51.118 6.93672 51.3356 6.46434 51.3214C5.97781 51.3078 5.49032 51.3186 5.00284 51.3186C4.96084 51.3615 4.91932 51.405 4.87732 51.4474C5.81641 52.059 5.67673 52.6819 4.75368 53.4007C5.49552 53.4007 5.96884 53.412 6.44122 53.3974C6.94757 53.3813 7.16041 53.621 7.14814 54.1137C7.13634 54.5686 7.14578 55.0245 7.14578 55.5714Z" fill="#E34D5F"/>
</mask>
<g mask="url(#mask1_980_23174)">
<path d="M5.72754 45.8457H13.8174V57.9805H5.72754V45.8457Z" fill="#BD2957"/>
</g>
<mask id="mask2_980_23174" style="mask-type:alpha" maskUnits="userSpaceOnUse" x="48" y="37" width="11" height="12">
<path fill-rule="evenodd" clip-rule="evenodd" d="M49.3966 42.9248C49.0597 43.2801 48.7426 43.5571 48.5014 43.8893C48.3386 44.113 48.1456 44.4627 48.2178 44.6666C48.2839 44.852 48.6831 44.9941 48.9478 45.0172C49.5349 45.0686 50.1304 45.0498 50.7213 45.0295C51.1243 45.0158 51.2621 45.1795 51.2474 45.5731C51.2243 46.1856 51.2149 46.802 51.2564 47.4126C51.2715 47.6372 51.4069 47.9888 51.5622 48.035C51.7731 48.0988 52.1002 47.9864 52.2984 47.8416C52.6636 47.5745 52.9713 47.2276 53.3526 46.8676C53.7264 47.2215 54.0506 47.5745 54.4243 47.8619C54.6055 48.0015 54.926 48.1323 55.0991 48.0615C55.2709 47.9912 55.4191 47.6693 55.4356 47.4466C55.4819 46.8364 55.4701 46.2196 55.4474 45.6071C55.4323 45.1857 55.5828 45.0101 56.0156 45.0281C56.5842 45.0521 57.1581 45.0672 57.7234 45.0181C57.9948 44.9946 58.4421 44.853 58.4742 44.6963C58.5252 44.4452 58.3459 44.1036 58.176 43.8615C57.9419 43.5283 57.6262 43.2527 57.311 42.9149C57.6427 42.5605 57.9721 42.2683 58.2227 41.9196C58.3813 41.6988 58.5375 41.3637 58.4785 41.1372C58.436 40.9748 58.0391 40.8314 57.7904 40.812C57.1803 40.7653 56.5639 40.7847 55.9509 40.7988C55.5824 40.8073 55.4427 40.6506 55.4502 40.2892C55.4635 39.6535 55.4809 39.016 55.4351 38.3836C55.4196 38.1613 55.2681 37.8385 55.0958 37.7692C54.9208 37.6993 54.6022 37.8324 54.4191 37.9726C54.0567 38.2491 53.7448 38.5922 53.3493 38.9659C52.9892 38.6243 52.6698 38.2656 52.2918 37.9848C52.095 37.839 51.7637 37.731 51.5528 37.797C51.3989 37.8447 51.2696 38.2 51.2555 38.4261C51.2153 39.0594 51.2295 39.6964 51.2446 40.3316C51.2531 40.6733 51.1106 40.8031 50.7784 40.7969C50.1866 40.787 49.591 40.7578 49.0049 40.813C48.7204 40.8399 48.3433 40.9734 48.2154 41.1839C48.1267 41.3307 48.3452 41.7242 48.5075 41.9484C48.7477 42.2816 49.0597 42.5623 49.3966 42.9248ZM54.3757 46.1281C53.9694 45.8883 53.6787 45.583 53.3871 45.5825C53.0699 45.5816 52.7523 45.8638 52.355 46.0625C52.355 45.5948 52.355 45.1644 52.3545 44.7341C52.3541 44.205 52.1375 43.9153 51.5589 43.9507C51.0988 43.979 50.6354 43.9564 50.1729 43.9564C50.1366 43.9106 50.1002 43.8648 50.0644 43.8186C50.9756 43.2089 50.8591 42.5869 49.9185 41.8767C50.5618 41.8767 50.9261 41.8771 51.2904 41.8767C52.2922 41.8743 52.3526 41.812 52.3559 40.7809C52.3569 40.4491 52.3559 40.1179 52.3559 39.7668C52.7698 39.9801 53.0751 40.267 53.3668 40.2524C53.6811 40.2373 53.9817 39.9404 54.3762 39.7167C54.3762 40.2585 54.3809 40.7342 54.3752 41.2094C54.3696 41.6747 54.5848 41.8922 55.0571 41.8781C55.5437 41.8644 56.0312 41.8752 56.5186 41.8752C56.5606 41.9182 56.6022 41.9616 56.6442 42.0041C55.7051 42.6157 55.8448 43.2386 56.7678 43.9573C56.026 43.9573 55.5526 43.9686 55.0803 43.954C54.5739 43.9379 54.3611 44.1777 54.3733 44.6704C54.3851 45.1253 54.3757 45.5811 54.3757 46.1281Z" fill="#E34D5F"/>
</mask>
<g mask="url(#mask2_980_23174)">
<path d="M55.7939 36.4023H47.7041V48.5371H55.7939V36.4023Z" fill="#BD2957"/>
</g>
<mask id="mask3_980_23174" style="mask-type:alpha" maskUnits="userSpaceOnUse" x="21" y="28" width="9" height="12">
<path fill-rule="evenodd" clip-rule="evenodd" d="M22.7691 34.0553C22.5264 34.4031 22.298 34.6742 22.1244 34.9994C22.0071 35.2184 21.8681 35.5606 21.9201 35.7602C21.9677 35.9417 22.2552 36.0807 22.4459 36.1034C22.8687 36.1537 23.2976 36.1352 23.7232 36.1154C24.0134 36.102 24.1127 36.2623 24.1021 36.6475C24.0855 37.247 24.0787 37.8503 24.1086 38.448C24.1195 38.6679 24.217 39.012 24.3288 39.0572C24.4808 39.1196 24.7163 39.0097 24.8591 38.8679C25.1221 38.6064 25.3437 38.2669 25.6184 37.9145C25.8875 38.2609 26.121 38.6064 26.3902 38.8877C26.5207 39.0244 26.7515 39.1524 26.8763 39.0831C27 39.0143 27.1067 38.6993 27.1186 38.4812C27.1519 37.884 27.1434 37.2803 27.1271 36.6807C27.1162 36.2683 27.2246 36.0964 27.5363 36.114C27.9459 36.1375 28.3592 36.1523 28.7663 36.1043C28.9618 36.0812 29.284 35.9426 29.3071 35.7893C29.3438 35.5435 29.2147 35.2091 29.0923 34.9722C28.9237 34.6461 28.6963 34.3763 28.4693 34.0456C28.7082 33.6987 28.9455 33.4128 29.1259 33.0714C29.2401 32.8553 29.3526 32.5273 29.3102 32.3056C29.2796 32.1467 28.9937 32.0063 28.8146 31.9874C28.3751 31.9416 27.9313 31.9606 27.4898 31.9744C27.2243 31.9827 27.1237 31.8294 27.1291 31.4756C27.1387 30.8534 27.1512 30.2294 27.1183 29.6104C27.107 29.3928 26.9979 29.0769 26.8739 29.009C26.7478 28.9406 26.5184 29.0709 26.3865 29.2081C26.1255 29.4788 25.9008 29.8146 25.616 30.1804C25.3566 29.846 25.1265 29.4949 24.8543 29.2201C24.7126 29.0774 24.474 28.9716 24.322 29.0363C24.2112 29.0829 24.1181 29.4307 24.1079 29.652C24.079 30.2718 24.0892 30.8954 24.1001 31.5171C24.1062 31.8516 24.0036 31.9786 23.7643 31.9726C23.3381 31.9629 22.9092 31.9342 22.487 31.9883C22.2821 32.0146 22.0105 32.1453 21.9184 32.3513C21.8545 32.495 22.0119 32.8802 22.1288 33.0996C22.3018 33.4257 22.5264 33.7006 22.7691 34.0553ZM26.3552 37.1907C26.0626 36.956 25.8532 36.6572 25.6432 36.6567C25.4148 36.6558 25.186 36.932 24.8998 37.1265C24.8998 36.6687 24.8998 36.2475 24.8995 35.8262C24.8992 35.3084 24.7432 35.0248 24.3265 35.0595C23.9951 35.0872 23.6613 35.065 23.3282 35.065C23.3021 35.0202 23.2759 34.9754 23.2501 34.9301C23.9064 34.3334 23.8224 33.7246 23.145 33.0294C23.6083 33.0294 23.8707 33.0299 24.1331 33.0294C24.8546 33.0271 24.8981 32.9661 24.9005 31.9569C24.9012 31.6322 24.9005 31.3079 24.9005 30.9642C25.1986 31.173 25.4185 31.4539 25.6286 31.4395C25.8549 31.4248 26.0714 31.1342 26.3556 30.9153C26.3556 31.4455 26.359 31.9111 26.3549 32.3763C26.3508 32.8317 26.5058 33.0447 26.846 33.0308C27.1964 33.0174 27.5475 33.028 27.8986 33.028C27.9289 33.0701 27.9588 33.1125 27.989 33.1541C27.3127 33.7527 27.4133 34.3625 28.0781 35.0659C27.5438 35.0659 27.2029 35.077 26.8627 35.0627C26.498 35.047 26.3447 35.2816 26.3535 35.7639C26.362 36.2091 26.3552 36.6553 26.3552 37.1907Z" fill="#E34D5F"/>
</mask>
<g mask="url(#mask3_980_23174)">
<path d="M23.9268 28.9902H20.556V41.125H23.9268V28.9902Z" fill="#BD2957"/>
</g>
<mask id="mask4_980_23174" style="mask-type:alpha" maskUnits="userSpaceOnUse" x="21" y="47" width="9" height="11">
<path fill-rule="evenodd" clip-rule="evenodd" d="M22.7691 52.2584C22.5264 52.6062 22.298 52.8774 22.1244 53.2025C22.0071 53.4215 21.8681 53.7638 21.9201 53.9633C21.9677 54.1448 22.2552 54.2839 22.4459 54.3065C22.8687 54.3568 23.2976 54.3384 23.7232 54.3185C24.0134 54.3051 24.1127 54.4654 24.1021 54.8506C24.0855 55.4502 24.0787 56.0534 24.1086 56.6511C24.1195 56.871 24.217 57.2151 24.3288 57.2604C24.4808 57.3227 24.7163 57.2128 24.8591 57.071C25.1221 56.8095 25.3437 56.47 25.6184 56.1176C25.8875 56.464 26.121 56.8095 26.3902 57.0908C26.5207 57.2276 26.7515 57.3555 26.8763 57.2862C27 57.2174 27.1067 56.9024 27.1186 56.6844C27.1519 56.0871 27.1434 55.4834 27.1271 54.8839C27.1162 54.4714 27.2246 54.2996 27.5363 54.3171C27.9459 54.3407 28.3592 54.3555 28.7663 54.3074C28.9618 54.2843 29.284 54.1457 29.3071 53.9924C29.3438 53.7467 29.2147 53.4122 29.0923 53.1753C28.9237 52.8492 28.6963 52.5794 28.4693 52.2487C28.7082 51.9018 28.9455 51.6159 29.1259 51.2746C29.2401 51.0584 29.3526 50.7304 29.3102 50.5087C29.2796 50.3498 28.9937 50.2094 28.8146 50.1905C28.3751 50.1448 27.9313 50.1637 27.4898 50.1775C27.2243 50.1859 27.1237 50.0325 27.1291 49.6787C27.1387 49.0565 27.1512 48.4325 27.1183 47.8135C27.107 47.596 26.9979 47.28 26.8739 47.2121C26.7478 47.1438 26.5184 47.274 26.3865 47.4112C26.1255 47.6819 25.9008 48.0177 25.616 48.3835C25.3566 48.0491 25.1265 47.6981 24.8543 47.4232C24.7126 47.2805 24.474 47.1747 24.322 47.2394C24.2112 47.286 24.1181 47.6338 24.1079 47.8551C24.079 48.475 24.0892 49.0985 24.1001 49.7203C24.1062 50.0547 24.0036 50.1817 23.7643 50.1757C23.3381 50.166 22.9092 50.1374 22.487 50.1914C22.2821 50.2177 22.0105 50.3485 21.9184 50.5545C21.8545 50.6981 22.0119 51.0833 22.1288 51.3027C22.3018 51.6288 22.5264 51.9037 22.7691 52.2584ZM26.3552 55.3938C26.0626 55.1592 25.8532 54.8603 25.6432 54.8599C25.4148 54.8589 25.186 55.1351 24.8998 55.3296C24.8998 54.8719 24.8998 54.4506 24.8995 54.0294C24.8992 53.5116 24.7432 53.228 24.3265 53.2626C23.9951 53.2903 23.6613 53.2681 23.3282 53.2681C23.3021 53.2233 23.2759 53.1785 23.2501 53.1333C23.9064 52.5365 23.8224 51.9277 23.145 51.2325C23.6083 51.2325 23.8707 51.233 24.1331 51.2325C24.8546 51.2302 24.8981 51.1693 24.9005 50.16C24.9012 49.8353 24.9005 49.511 24.9005 49.1674C25.1986 49.3761 25.4185 49.657 25.6286 49.6427C25.8549 49.6279 26.0714 49.3373 26.3556 49.1184C26.3556 49.6487 26.359 50.1143 26.3549 50.5794C26.3508 51.0348 26.5058 51.2478 26.846 51.2339C27.1964 51.2205 27.5475 51.2311 27.8986 51.2311C27.9289 51.2732 27.9588 51.3157 27.989 51.3572C27.3127 51.9559 27.4133 52.5656 28.0781 53.2691C27.5438 53.2691 27.2029 53.2801 26.8627 53.2658C26.498 53.2501 26.3447 53.4848 26.3535 53.967C26.362 54.4123 26.3552 54.8585 26.3552 55.3938Z" fill="#E34D5F"/>
</mask>
<g mask="url(#mask4_980_23174)">
<path d="M23.9268 47.1934H20.556V59.3281H23.9268V47.1934Z" fill="#BD2957"/>
</g>
<mask id="mask5_980_23174" style="mask-type:alpha" maskUnits="userSpaceOnUse" x="32" y="37" width="8" height="11">
<path fill-rule="evenodd" clip-rule="evenodd" d="M38.5688 42.8151C38.8114 43.1629 39.0398 43.434 39.2135 43.7592C39.3308 43.9781 39.4698 44.3204 39.4178 44.5199C39.3702 44.7015 39.0827 44.8405 38.892 44.8631C38.4692 44.9135 38.0402 44.895 37.6147 44.8751C37.3245 44.8617 37.2252 45.022 37.2357 45.4073C37.2524 46.0068 37.2592 46.61 37.2293 47.2078C37.2184 47.4276 37.1209 47.7717 37.009 47.817C36.8571 47.8794 36.6216 47.7694 36.4788 47.6276C36.2158 47.3662 35.9942 47.0267 35.7195 46.6743C35.4503 47.0207 35.2168 47.3662 34.9477 47.6475C34.8171 47.7842 34.5864 47.9122 34.4616 47.8429C34.3379 47.774 34.2312 47.459 34.2193 47.241C34.186 46.6438 34.1945 46.0401 34.2108 45.4405C34.2217 45.028 34.1132 44.8562 33.8016 44.8738C33.392 44.8973 32.9787 44.9121 32.5715 44.8641C32.3761 44.841 32.0539 44.7024 32.0308 44.549C31.9941 44.3033 32.1232 43.9689 32.2456 43.7319C32.4142 43.4058 32.6416 43.1361 32.8686 42.8054C32.6297 42.4585 32.3924 42.1726 32.2119 41.8312C32.0977 41.615 31.9852 41.2871 32.0277 41.0654C32.0583 40.9065 32.3442 40.7661 32.5233 40.7471C32.9627 40.7014 33.4066 40.7203 33.8481 40.7342C34.1136 40.7425 34.2142 40.5891 34.2088 40.2353C34.1992 39.6131 34.1867 38.9891 34.2196 38.3702C34.2308 38.1526 34.3399 37.8367 34.464 37.7688C34.5901 37.7004 34.8195 37.8307 34.9514 37.9679C35.2124 38.2385 35.4371 38.5743 35.7219 38.9402C35.9812 38.6057 36.2113 38.2547 36.4836 37.9799C36.6253 37.8371 36.8639 37.7314 37.0158 37.796C37.1266 37.8427 37.2198 38.1905 37.23 38.4117C37.2589 39.0316 37.2487 39.6552 37.2378 40.2769C37.2317 40.6113 37.3343 40.7383 37.5736 40.7323C37.9998 40.7226 38.4287 40.694 38.8509 40.748C39.0558 40.7744 39.3274 40.9051 39.4195 41.1111C39.4834 41.2548 39.326 41.64 39.2091 41.8594C39.0361 42.1855 38.8114 42.4603 38.5688 42.8151ZM34.9827 45.9505C35.2753 45.7158 35.4847 45.417 35.6947 45.4165C35.9231 45.4156 36.1519 45.6918 36.438 45.8862C36.438 45.4285 36.438 45.0072 36.4384 44.586C36.4387 44.0682 36.5947 43.7846 37.0114 43.8192C37.3428 43.8469 37.6766 43.8248 38.0097 43.8248C38.0358 43.78 38.062 43.7352 38.0878 43.6899C37.4315 43.0931 37.5155 42.4843 38.1929 41.7892C37.7296 41.7892 37.4672 41.7896 37.2048 41.7892C36.4832 41.7869 36.4397 41.7259 36.4374 40.7166C36.4367 40.3919 36.4374 40.0677 36.4374 39.724C36.1393 39.9328 35.9194 40.2136 35.7093 40.1993C35.483 40.1845 35.2665 39.894 34.9823 39.675C34.9823 40.2053 34.9789 40.6709 34.983 41.136C34.9871 41.5915 34.8321 41.8044 34.4919 41.7906C34.1415 41.7772 33.7904 41.7878 33.4393 41.7878C33.409 41.8298 33.3791 41.8723 33.3489 41.9139C34.0252 42.5125 33.9246 43.1222 33.2598 43.8257C33.7941 43.8257 34.135 43.8368 34.4752 43.8225C34.8399 43.8068 34.9932 44.0414 34.9844 44.5236C34.9759 44.9689 34.9827 45.4151 34.9827 45.9505Z" fill="#E34D5F"/>
</mask>
<g mask="url(#mask5_980_23174)">
<path d="M37.4111 37.75H40.7819V49.8848H37.4111V37.75Z" fill="#BD2957"/>
</g>
<path fill-rule="evenodd" clip-rule="evenodd" d="M23.9297 58.6526L23.9297 13.4844L25.9521 13.4844L25.9521 58.6526L23.9297 58.6526Z" fill="#F5F5F5"/>
<path fill-rule="evenodd" clip-rule="evenodd" d="M35.3906 58.6526L35.3906 13.4844L37.4131 13.4844L37.4131 58.6526L35.3906 58.6526Z" fill="#F5F5F5"/>
</svg>
