<svg width="80" height="81" viewBox="0 0 80 81" fill="none" xmlns="http://www.w3.org/2000/svg">
<path fill-rule="evenodd" clip-rule="evenodd" d="M70.6633 40.5714C73.2813 43.3573 75.7452 45.5292 77.6189 48.1339C78.8839 49.8876 80.3835 52.6292 79.8225 54.2276C79.3092 55.6816 76.2072 56.7952 74.1503 56.9765C69.589 57.3798 64.9617 57.2318 60.3711 57.0727C57.2398 56.9654 56.1691 58.2493 56.2828 61.335C56.4624 66.1374 56.5358 70.9694 56.2131 75.757C56.0958 77.5182 55.0434 80.2746 53.8371 80.6372C52.1981 81.1367 49.6572 80.2561 48.1172 79.1202C45.2792 77.0261 42.8886 74.3067 39.9259 71.4837C37.022 74.2586 34.503 77.0261 31.599 79.2793C30.191 80.3745 27.7014 81.3993 26.3557 80.8444C25.0211 80.2931 23.8698 77.7698 23.7414 76.0234C23.3821 71.2395 23.4738 66.4038 23.6498 61.6014C23.7671 58.2974 22.5974 56.921 19.2351 57.0616C14.8169 57.2503 10.3582 57.3687 5.96559 56.984C3.85728 56.799 0.381316 55.689 0.131985 54.4606C-0.264011 52.4923 1.12931 49.8136 2.4493 47.9156C4.26794 45.3035 6.72092 43.1428 9.17023 40.4937C6.59259 37.7151 4.03328 35.4249 2.0863 32.6907C0.854315 30.9591 -0.359339 28.3322 0.0989895 26.5563C0.428986 25.2835 3.51262 24.1588 5.44494 24.0071C10.1859 23.6408 14.9745 23.7925 19.7375 23.9035C22.6011 23.9701 23.6864 22.7417 23.6278 19.9076C23.5251 14.9239 23.3894 9.9254 23.7451 4.96758C23.8661 3.22495 25.0431 0.694234 26.3814 0.150355C27.7417 -0.397225 30.2167 0.646135 31.6394 1.74499C34.4553 3.91311 36.879 6.60291 39.9516 9.5332C42.7492 6.8545 45.2316 4.04261 48.1685 1.84119C49.6975 0.697937 52.2715 -0.149327 53.9105 0.368654C55.1058 0.74234 56.1104 3.52834 56.2204 5.30057C56.5321 10.2658 56.4221 15.2606 56.3048 20.2406C56.2388 22.9193 57.3461 23.9368 59.9274 23.8887C64.5254 23.811 69.1526 23.5816 73.7066 24.0145C75.9176 24.2254 78.8472 25.2724 79.8409 26.9226C80.5302 28.0732 78.8326 31.1589 77.5712 32.9163C75.7049 35.5284 73.2813 37.7299 70.6633 40.5714ZM31.9767 65.686C35.1336 63.8065 37.3923 61.4127 39.6583 61.409C42.1223 61.4016 44.5899 63.6141 47.6772 65.1717C47.6772 61.5052 47.6772 58.1309 47.6809 54.7566C47.6845 50.6091 49.3675 48.3374 53.8628 48.6149C57.4378 48.8369 61.0384 48.6593 64.6317 48.6593C64.914 48.3004 65.1963 47.9415 65.475 47.5789C58.3947 42.7987 59.3004 37.9222 66.608 32.354C61.6104 32.354 58.7797 32.3577 55.9491 32.354C48.1648 32.3355 47.6955 31.8471 47.6699 23.7629C47.6625 21.1619 47.6699 18.5646 47.6699 15.8119C44.4542 17.4842 42.0819 19.7337 39.8159 19.619C37.374 19.5006 35.0383 17.1734 31.973 15.4197C31.973 19.6671 31.9363 23.3966 31.9803 27.1223C32.0243 30.7704 30.3524 32.4761 26.6821 32.3651C22.9018 32.2578 19.1141 32.3429 15.3265 32.3429C15.0002 32.6795 14.6775 33.0199 14.3512 33.3529C21.6478 38.148 20.5625 43.0318 13.3905 48.6667C19.1545 48.6667 22.8321 48.7554 26.5024 48.6407C30.4367 48.515 32.0903 50.3945 31.995 54.2572C31.9034 57.8238 31.9767 61.3979 31.9767 65.686Z" fill="#BD2957"/>
</svg>
