<svg width="267" height="62" viewBox="0 0 267 62" fill="none" xmlns="http://www.w3.org/2000/svg">
<g clip-path="url(#clip0_906_4479)">
<path d="M111.495 29.2551V36.6119H107.793V21.9001C107.793 19.4467 109.028 18.2227 111.495 18.2227H130.007C132.476 18.2227 133.71 19.4467 133.71 21.9001V36.6119H130.007V29.2551H111.495ZM130.009 25.5776V21.9001H111.497V25.5776H130.009Z" fill="#F5F5F5"/>
<path d="M241.082 18.2227H267.001V21.9001H255.893V36.6119H252.191V21.9001H241.082V18.2227Z" fill="#F5F5F5"/>
<path d="M211.465 18.2227H237.378L233.676 21.9001H215.164V25.5776H237.378L233.676 29.2551H215.164V36.6119H211.465V18.2227Z" fill="#F5F5F5"/>
<path d="M207.759 18.2227H204.057V36.6119H207.759V18.2227Z" fill="#F5F5F5"/>
<path d="M200.356 36.6119H178.144C175.675 36.6119 174.441 35.3878 174.441 32.9344V21.9001C174.441 19.4467 175.675 18.2227 178.144 18.2227H200.356L196.658 21.9001H178.147V32.9344H196.658V29.2551H183.699L187.4 25.5776H200.356V36.6119Z" fill="#F5F5F5"/>
<path d="M170.738 18.2227H167.035V36.6119H170.738V18.2227Z" fill="#F5F5F5"/>
<path d="M137.414 36.6119V18.2227L159.63 30.2028V18.2227H163.333V36.6119L141.116 24.8567V36.6119H137.414Z" fill="#F5F5F5"/>
<path d="M81.878 18.2227V25.5776H100.388V18.2227H104.092V36.6119H100.388V29.2551H81.878V36.6119H78.1738V18.2227H81.878Z" fill="#F5F5F5"/>
<path d="M107.838 50.3811H109.139V45.4228H113.044V50.3811H114.345V44.6895H107.836L107.838 50.3811ZM115.561 49.219C115.561 50.3811 116.602 50.3811 117.644 50.3811H119.988C121.029 50.3811 122.071 50.3811 122.071 49.219V45.8568C122.071 44.6948 121.029 44.6948 119.988 44.6948H117.644C116.602 44.6948 115.561 44.6948 115.561 45.8568V49.219ZM116.864 49.3465V45.724C116.864 45.4228 117.124 45.4228 117.386 45.4228H120.25C120.51 45.4228 120.769 45.4228 120.769 45.724V49.3465C120.769 49.6477 120.51 49.6477 120.25 49.6477H117.386C117.124 49.6477 116.864 49.6477 116.864 49.3465ZM123.026 49.6477V51.676H124.155V50.3828H129.71V51.676H130.839V49.6477H129.972V44.6895H124.764V47.9241C124.762 49.0897 124.285 49.6477 123.026 49.6477ZM125.456 49.6477C125.803 49.2597 126.063 48.7885 126.063 47.9241V45.4228H128.667V49.6477H125.456ZM131.359 50.3811H132.662L133.571 48.5707H136.524L137.436 50.3811H138.735L135.874 44.6895H134.223L131.359 50.3811ZM133.92 47.8798L135.049 45.6372L136.177 47.8798H133.92ZM139.518 50.3811H140.821V48.0552H143.943C144.986 48.0552 146.029 48.0552 146.029 46.8913V45.8568C146.029 44.6948 144.986 44.6948 143.943 44.6948H139.518V50.3811ZM140.821 47.3236V45.4281H144.203C144.463 45.4281 144.725 45.4281 144.725 45.7257V47.0207C144.725 47.3236 144.465 47.3236 144.203 47.3236H140.821ZM147.243 50.3811H148.546V49.2633L149.673 48.1384L151.93 50.3811H153.495L150.456 47.3661L153.149 44.693H151.585L148.55 47.7097V44.693H147.249V50.3811H147.243ZM154.273 50.3811H155.663L159.483 46.1562V50.3811H160.78V44.6895H159.39L155.572 48.9161V44.6895H154.273V50.3811ZM165.471 50.3811H166.857L170.677 46.1562V50.3811H171.975V44.6895H170.588L166.768 48.9161V44.6895H165.469L165.471 50.3811ZM176.669 49.219C176.669 50.3811 177.708 50.3811 178.751 50.3811H182.742V49.6477H178.489C178.23 49.6477 177.968 49.6477 177.968 49.3465V45.724C177.968 45.4228 178.228 45.4228 178.489 45.4228H182.742V44.6895H178.751C177.708 44.6895 176.669 44.6895 176.669 45.8533V49.219ZM183.525 44.6912L186.129 48.5689L185.695 49.2172C185.435 49.6052 185.392 49.6441 184.915 49.6441H184.397V50.3775H185.526C186.305 50.3775 186.482 50.1207 186.827 49.6016L190.125 44.6895H188.739L186.831 47.5326L184.919 44.6895L183.525 44.6912ZM190.901 50.3811H195.326C196.37 50.3811 197.409 50.3811 197.409 49.219V48.0552C197.409 47.4529 196.978 47.2793 196.629 47.196C196.977 47.1075 197.327 46.8506 197.327 46.3316V45.8568C197.327 44.6948 196.284 44.6948 195.241 44.6948H190.901V50.3811ZM192.204 49.6477V47.5787H195.585C195.844 47.5787 196.106 47.5787 196.106 47.8798V49.3465C196.106 49.6477 195.846 49.6477 195.585 49.6477H192.204ZM192.204 46.8453V45.4228H195.501C195.761 45.4228 196.022 45.4228 196.022 45.724V46.5441C196.022 46.8453 195.763 46.8453 195.501 46.8453H192.204ZM198.627 50.3811H204.704V49.6477H199.93V47.5787H204.269V46.8453H199.93V45.4228H204.704V44.6895H198.627V50.3811ZM205.917 50.3811H207.22V47.5787H211.124V50.3811H212.425V44.6895H211.124V46.8453H207.22V44.6895H205.917V50.3811ZM213.641 50.3811H215.031L218.849 46.1562V50.3811H220.152V44.6895H218.762L214.942 48.9161V44.6895H213.641V50.3811ZM221.366 50.3811H222.669V48.0552H225.795C226.834 48.0552 227.877 48.0552 227.877 46.8913V45.8568C227.877 44.6948 226.834 44.6948 225.795 44.6948H221.366V50.3811ZM222.671 47.3236V45.4281H226.053C226.313 45.4281 226.574 45.4281 226.574 45.7257V47.0207C226.574 47.3236 226.315 47.3236 226.053 47.3236H222.671ZM229.091 50.3811H233.086C234.125 50.3811 235.168 50.3811 235.168 49.219V48.0109C235.168 46.8453 234.125 46.8453 233.086 46.8453H230.394V44.6895H229.091V50.3811ZM230.396 49.6477V47.5787H233.347C233.605 47.5787 233.865 47.5787 233.865 47.8798V49.3465C233.865 49.6477 233.605 49.6477 233.347 49.6477H230.396ZM236.037 50.3811H237.334V44.6895H236.037V50.3811Z" fill="#F5F5F5"/>
<path d="M104.094 46.7812H78.1738V47.814H104.094V46.7812Z" fill="#F5F5F5"/>
<path d="M267.002 46.7812H241.08V47.814H267.002V46.7812Z" fill="#F5F5F5"/>
<path d="M16.0059 45.4673C17.809 43.6693 19.6139 41.8748 21.4188 40.0786V21.9197L16.0059 16.5327C16.0059 11.0218 16.0059 5.51091 16.0059 0H18.0813L26.385 8.26549V28.5324H36.0237V8.26549L44.3274 0H46.4029C46.4029 5.51091 46.4029 11.0218 46.4029 16.5327L40.9899 21.9214V40.0803C42.7949 41.8783 44.5998 43.6693 46.4029 45.469C46.4029 50.9799 46.4029 56.4926 46.4029 62.0018H44.3274L36.022 53.7327V33.4711H26.3833V53.7327L18.0813 62H16.0059C16.0059 56.4891 16.0059 50.9764 16.0059 45.4673Z" fill="#F5F5F5"/>
<path d="M18.7648 33.4707V35.5291L10.4415 43.7769H0V41.7149L8.31972 33.4707C13.868 33.4707 13.2165 33.4707 18.7648 33.4707Z" fill="#F5F5F5"/>
<path d="M10.4415 18.2227C13.2183 20.9701 15.9897 23.7212 18.7648 26.4704V28.5324C13.2165 28.5324 13.868 28.5324 8.31972 28.5324L0 20.2828V18.2227C5.54826 18.2227 4.895 18.2227 10.4415 18.2227Z" fill="#F5F5F5"/>
<path d="M43.6426 33.4707V35.5291L51.9659 43.7769H62.4073V41.7149L54.0858 33.4707C48.5394 33.4707 49.1891 33.4707 43.6426 33.4707Z" fill="#F5F5F5"/>
<path d="M51.9659 18.2227C49.1891 20.9701 46.4176 23.7212 43.6426 26.4704V28.5324C49.1891 28.5324 48.5376 28.5324 54.0858 28.5324L62.4073 20.2828V18.2227C56.8591 18.2227 57.5123 18.2227 51.9659 18.2227Z" fill="#F5F5F5"/>
</g>
<defs>
<clipPath id="clip0_906_4479">
<rect width="267" height="62" fill="white"/>
</clipPath>
</defs>
</svg>
