<svg width="78" height="54" viewBox="0 0 78 54" fill="none" xmlns="http://www.w3.org/2000/svg">
<rect x="0.5" y="0.5" width="77" height="52.7931" rx="2.5" fill="white"/>
<rect x="0.5" y="0.5" width="77" height="52.7931" rx="2.5" stroke="#F9F7F6"/>
<path d="M49.2695 26.7945C50.4603 26.8204 51.6578 26.742 52.8438 26.8353C54.0449 27.0594 54.3344 28.8777 53.2673 29.4732C52.5392 29.8655 51.6743 29.6193 50.885 29.6885H49.2695V26.7945ZM53.5323 23.519C53.7968 24.4528 52.8967 25.2912 51.9973 25.1626H49.2695C49.2886 24.282 49.2321 23.3262 49.2972 22.492C50.39 22.5227 51.4928 22.4292 52.5793 22.5409C53.046 22.6582 53.4367 23.0419 53.5323 23.519ZM60.0971 9.67096C60.1479 11.4543 60.1044 13.3319 60.119 15.1514C60.1157 22.5488 60.1262 29.9461 60.1132 37.3439C60.0653 40.1163 57.6083 42.5253 54.8552 42.5806C52.0993 42.5918 49.3431 42.5823 46.5868 42.5854V31.402C49.5899 31.3865 52.5944 31.4335 55.5963 31.3786C56.9888 31.2911 58.5141 30.3723 58.5789 28.8399C58.7429 27.3008 57.2918 26.2362 55.9142 26.0681C55.3846 26.0543 55.4001 25.9137 55.9142 25.8524C57.2282 25.5684 58.26 24.2085 57.8734 22.8465C57.5439 21.414 55.9606 20.8596 54.6437 20.8623C51.9585 20.8441 49.2728 20.8598 46.5874 20.8545C46.6047 18.7667 46.5512 16.6766 46.6163 14.5903C46.829 11.868 49.3479 9.62297 52.0623 9.67168C54.7409 9.67127 57.4191 9.67127 60.0971 9.67117V9.67096Z" fill="url(#paint0_linear_462_21350)"/>
<path d="M16.2423 14.8718C16.3109 12.1038 18.7784 9.71462 21.528 9.67416C24.2737 9.6657 27.0197 9.67294 29.7654 9.67049C29.7579 18.9316 29.7803 28.1937 29.7541 37.4542C29.6483 40.1886 27.2078 42.5322 24.4881 42.5806C21.7372 42.5906 18.9861 42.5821 16.2351 42.5848V31.0244C18.9072 31.6557 21.7093 31.9244 24.4353 31.5057C26.0648 31.2435 27.8476 30.4433 28.3993 28.7528C28.8052 27.3067 28.5767 25.7849 28.6371 24.3007V20.854H23.9195C23.8983 23.1336 23.9629 25.4171 23.8853 27.6939C23.7582 29.0934 22.3722 29.9826 21.0524 29.9351C19.4155 29.9524 16.1717 28.7488 16.1717 28.7488C16.1636 24.4778 16.2192 19.129 16.2423 14.8722V14.8718Z" fill="url(#paint1_linear_462_21350)"/>
<path d="M31.5245 22.2447C31.2762 22.2974 31.4746 21.3989 31.4111 21.058C31.428 18.9029 31.3757 16.7454 31.4399 14.5917C31.6521 11.8579 34.1903 9.60726 36.9157 9.67125H44.942C44.9345 18.9323 44.9568 28.1944 44.9307 37.455C44.8249 40.1893 42.3841 42.5329 39.6643 42.5814C36.9134 42.5918 34.1621 42.583 31.411 42.5857V29.9197C33.2899 31.4613 35.8436 31.7013 38.1844 31.7054C39.949 31.7048 41.7034 31.4328 43.4171 31.0258V28.7053C41.4859 29.6679 39.2156 30.2793 37.0747 29.7263C35.5813 29.3545 34.4972 27.9112 34.5213 26.37C34.3483 24.7673 35.2878 23.0751 36.8628 22.5986C38.8184 21.9864 40.9497 22.4547 42.7827 23.2506C43.1754 23.4562 43.5741 23.7113 43.417 23.0548V21.231C40.3513 20.5016 37.0888 20.2332 34.0088 21.0267C33.1173 21.2781 32.2487 21.6595 31.5245 22.245V22.2447Z" fill="url(#paint2_linear_462_21350)"/>
<defs>
<linearGradient id="paint0_linear_462_21350" x1="46.4944" y1="25.4244" x2="60.0337" y2="25.4244" gradientUnits="userSpaceOnUse">
<stop stop-color="#58B03A"/>
<stop offset="1" stop-color="#55B330"/>
</linearGradient>
<linearGradient id="paint1_linear_462_21350" x1="15.9472" y1="26.4429" x2="29.5436" y2="26.4429" gradientUnits="userSpaceOnUse">
<stop stop-color="#0F6EB6"/>
<stop offset="1" stop-color="#006DBA"/>
</linearGradient>
<linearGradient id="paint2_linear_462_21350" x1="31.3911" y1="25.7436" x2="44.9395" y2="25.7436" gradientUnits="userSpaceOnUse">
<stop stop-color="#DE0D3D"/>
<stop offset="1" stop-color="#E30138"/>
</linearGradient>
</defs>
</svg>
