<svg width="78" height="54" viewBox="0 0 78 54" fill="none" xmlns="http://www.w3.org/2000/svg">
<rect x="0.5" y="0.5" width="77" height="52.7931" rx="2.5" fill="white"/>
<rect x="0.5" y="0.5" width="77" height="52.7931" rx="2.5" stroke="#F9F7F6"/>
<path fill-rule="evenodd" clip-rule="evenodd" d="M38.5047 37.7213C35.8508 39.9584 32.4082 41.3089 28.6463 41.3089C20.2527 41.3089 13.4482 34.5854 13.4482 26.2917C13.4482 17.9979 20.2527 11.2744 28.6463 11.2744C32.4082 11.2744 35.8508 12.6249 38.5047 14.862C41.1587 12.6249 44.6013 11.2744 48.3631 11.2744C56.7568 11.2744 63.5612 17.9979 63.5612 26.2917C63.5612 34.5854 56.7568 41.3089 48.3631 41.3089C44.6013 41.3089 41.1587 39.9584 38.5047 37.7213Z" fill="#ED0006"/>
<path fill-rule="evenodd" clip-rule="evenodd" d="M38.5049 37.7213C41.7726 34.9669 43.8446 30.8684 43.8446 26.2917C43.8446 21.7149 41.7726 17.6164 38.5049 14.862C41.1588 12.6249 44.6014 11.2744 48.3633 11.2744C56.7569 11.2744 63.5614 17.9979 63.5614 26.2917C63.5614 34.5854 56.7569 41.3089 48.3633 41.3089C44.6014 41.3089 41.1588 39.9584 38.5049 37.7213Z" fill="#F9A000"/>
<path fill-rule="evenodd" clip-rule="evenodd" d="M38.5047 37.7217C41.7724 34.9672 43.8444 30.8687 43.8444 26.292C43.8444 21.7153 41.7724 17.6167 38.5047 14.8623C35.237 17.6167 33.165 21.7153 33.165 26.292C33.165 30.8687 35.237 34.9672 38.5047 37.7217Z" fill="#FF5E00"/>
</svg>
