<svg width="78" height="54" viewBox="0 0 78 54" fill="none" xmlns="http://www.w3.org/2000/svg">
<rect x="0.5" y="0.5" width="77" height="52.7931" rx="2.5" fill="white"/>
<rect x="0.5" y="0.5" width="77" height="52.7931" rx="2.5" stroke="#F9F7F6"/>
<path d="M38.7204 17.945L34.881 35.8949H30.237L34.0768 17.945H38.7204ZM58.2574 29.5355L60.7015 22.7949L62.1081 29.5355H58.2574ZM63.4404 35.8949H67.7344L63.983 17.945H60.0221C59.1294 17.945 58.3769 18.4626 58.0438 19.2607L51.076 35.8949H55.9529L56.9211 33.2142H62.878L63.4404 35.8949ZM51.3178 30.0349C51.338 25.2976 44.769 25.0352 44.813 22.9185C44.8271 22.2753 45.4408 21.5902 46.782 21.415C47.4469 21.3294 49.2818 21.26 51.3618 22.2184L52.1753 18.4105C51.0582 18.0064 49.6205 17.6172 47.8316 17.6172C43.2409 17.6172 40.0115 20.0557 39.9857 23.5503C39.9562 26.1345 42.2926 27.5754 44.0492 28.4362C45.8603 29.3159 46.4671 29.8799 46.4582 30.6659C46.4457 31.8702 45.0141 32.4035 43.681 32.4237C41.345 32.4601 39.9909 31.7923 38.9118 31.2893L38.0688 35.2244C39.1556 35.7217 41.1581 36.1545 43.2316 36.1767C48.1122 36.1767 51.3033 33.7669 51.3178 30.0349ZM32.0848 17.945L24.5606 35.8949H19.6526L15.9496 21.5696C15.7252 20.6887 15.5294 20.3649 14.8467 19.9927C13.73 19.3863 11.8866 18.8191 10.2656 18.4662L10.3754 17.945H18.2771C19.2836 17.945 20.1891 18.6148 20.4197 19.7743L22.3757 30.1621L27.2062 17.945H32.0848Z" fill="#1434CB"/>
</svg>
