<svg width="78" height="54" viewBox="0 0 78 54" fill="none" xmlns="http://www.w3.org/2000/svg">
<rect x="0.5" y="0.5" width="77" height="52.7931" rx="2.5" fill="white"/>
<rect x="0.5" y="0.5" width="77" height="52.7931" rx="2.5" stroke="#F9F7F6"/>
<path fill-rule="evenodd" clip-rule="evenodd" d="M15.4892 19.031C16.0046 19.0279 17.5364 18.89 18.1852 21.0798C18.6223 22.5548 19.3185 24.971 20.2738 28.3284H20.6629C21.6874 24.7888 22.3912 22.3726 22.7743 21.0798C23.4299 18.8672 25.0688 19.031 25.7244 19.031L30.7824 19.0311V34.765H25.6272V25.4927H25.2815L22.4077 34.765H18.529L15.6552 25.4859H15.3095V34.765H10.1543V19.0311L15.4892 19.031ZM38.1852 19.0311V28.3103H38.5965L42.0922 20.68C42.7708 19.1616 44.217 19.0311 44.217 19.0311H49.2058V34.7651H43.9429V25.4859H43.5316L40.1045 33.1161C39.4259 34.6277 37.9111 34.7651 37.9111 34.7651H32.9223V19.0311H38.1852ZM67.3967 26.508C66.6626 28.5883 64.3572 30.0782 61.8048 30.0782H56.2856V34.7651H51.2809V26.508H67.3967Z" fill="#0F754E"/>
<path fill-rule="evenodd" clip-rule="evenodd" d="M62.0453 19.0312H51.0176C51.28 22.5342 54.2967 25.5329 57.4195 25.5329H67.7437C68.3394 22.6216 66.2885 19.0312 62.0453 19.0312Z" fill="url(#paint0_linear_462_21333)"/>
<defs>
<linearGradient id="paint0_linear_462_21333" x1="67.8449" y1="23.1211" x2="51.0176" y2="23.1211" gradientUnits="userSpaceOnUse">
<stop stop-color="#1F5CD7"/>
<stop offset="1" stop-color="#02AEFF"/>
</linearGradient>
</defs>
</svg>
