<svg width="78" height="54" viewBox="0 0 78 54" fill="none" xmlns="http://www.w3.org/2000/svg">
<rect x="0.5" y="0.5" width="77" height="52.7931" rx="2.5" fill="white"/>
<rect x="0.5" y="0.5" width="77" height="52.7931" rx="2.5" stroke="#F9F7F6"/>
<path d="M24.3653 11.4053H36.3751C38.0515 11.4053 39.0942 12.8119 38.7031 14.5434L33.1117 39.2554C32.7171 40.9809 31.0386 42.3887 29.361 42.3887H17.3525C15.6784 42.3887 14.6333 40.9809 15.0244 39.2554L20.6181 14.5434C21.0092 12.8119 22.6868 11.4053 24.3653 11.4053Z" fill="#E21836"/>
<path d="M35.3753 11.4043H49.1862C50.8624 11.4043 50.1065 12.8109 49.7122 14.5424L44.1217 39.2545C43.7295 40.9799 43.8518 42.3878 42.1722 42.3878H28.3613C26.6816 42.3878 25.6422 40.9799 26.0368 39.2545L31.627 14.5424C32.0239 12.8109 33.698 11.4043 35.3753 11.4043Z" fill="#00447C"/>
<path d="M48.6384 11.4043H60.6482C62.327 11.4043 63.3697 12.8109 62.9753 14.5424L57.3848 39.2545C56.9902 40.9799 55.3106 42.3878 53.6321 42.3878H41.6279C39.9483 42.3878 38.9064 40.9799 39.2999 39.2545L44.8912 14.5424C45.2823 12.8109 46.9588 11.4043 48.6384 11.4043Z" fill="#007B84"/>
<path d="M27.501 19.3239C26.266 19.3369 25.9013 19.3239 25.7848 19.2956C25.74 19.5147 24.9066 23.4721 24.9042 23.4754C24.7248 24.2761 24.5942 24.8468 24.1508 25.2153C23.899 25.4296 23.6051 25.533 23.2644 25.533C22.7167 25.533 22.3976 25.253 22.3441 24.7221L22.3338 24.5397C22.3338 24.5397 22.5007 23.4673 22.5007 23.4613C22.5007 23.4613 23.3753 19.8549 23.5319 19.3781C23.5401 19.351 23.5425 19.3369 23.5445 19.3239C21.842 19.3393 21.5402 19.3239 21.5194 19.2956C21.508 19.3345 21.4659 19.558 21.4659 19.558L20.5728 23.6228L20.4961 23.9675L20.3477 25.0951C20.3477 25.4296 20.4115 25.7026 20.5385 25.9334C20.9454 26.6654 22.1061 26.7751 22.7627 26.7751C23.6086 26.7751 24.4022 26.59 24.9385 26.2522C25.8694 25.686 26.1129 24.801 26.3301 24.0145L26.4308 23.611C26.4308 23.611 27.3318 19.8654 27.4849 19.3781C27.4908 19.351 27.4931 19.3369 27.501 19.3239ZM30.5667 22.3455C30.3495 22.3455 29.9525 22.3998 29.596 22.5797C29.4666 22.6481 29.3442 22.727 29.2152 22.8057L29.3317 22.3727L29.2678 22.2997C28.5117 22.4573 28.3425 22.4784 27.6441 22.5797L27.5855 22.6197C27.5045 23.3119 27.4324 23.8323 27.1318 25.1929C27.0174 25.6943 26.8985 26.2005 26.7794 26.7008L26.8116 26.7643C27.5273 26.7255 27.7445 26.7255 28.3665 26.736L28.4169 26.6797C28.4959 26.2629 28.5062 26.1653 28.6812 25.3212C28.7635 24.9211 28.935 24.0418 29.0196 23.7287C29.175 23.6545 29.3284 23.5816 29.4748 23.5816C29.8234 23.5816 29.781 23.8947 29.7675 24.0195C29.7526 24.2289 29.6256 24.9129 29.4953 25.5002L29.4084 25.8793C29.3478 26.1593 29.2813 26.4314 29.2207 26.7089L29.2471 26.7643C29.9525 26.7255 30.1677 26.7255 30.7701 26.736L30.841 26.6797C30.9499 26.0288 30.9818 25.8546 31.175 24.9069L31.2721 24.4715C31.461 23.6193 31.5558 23.1872 31.4129 22.8352C31.2619 22.4408 30.8995 22.3455 30.5667 22.3455ZM33.9913 23.2378C33.6164 23.3119 33.3772 23.3613 33.1395 23.3932C32.9039 23.4321 32.6741 23.4674 32.3117 23.5192L32.283 23.546L32.2566 23.5674C32.2189 23.8453 32.1925 24.0854 32.1425 24.3678C32.1 24.6598 32.0348 24.9915 31.9285 25.4683C31.8462 25.8332 31.8038 25.9603 31.757 26.0887C31.7113 26.2171 31.6609 26.3418 31.5684 26.7007L31.5901 26.7339L31.6083 26.7643C31.9469 26.7477 32.1685 26.736 32.3963 26.7339C32.6237 26.7254 32.8594 26.7339 33.2241 26.736L33.256 26.7092L33.2903 26.6796C33.343 26.356 33.3509 26.2689 33.3831 26.111C33.415 25.9417 33.47 25.7072 33.6049 25.081C33.6688 24.7869 33.7399 24.4937 33.8061 24.1936C33.8748 23.8947 33.9469 23.6003 34.0154 23.3062L34.0051 23.2706L33.9913 23.2378ZM33.9993 22.0348C33.6586 21.8277 33.0606 21.8934 32.6581 22.1794C32.2567 22.4596 32.2111 22.8574 32.5506 23.0671C32.8855 23.2684 33.4859 23.2085 33.8849 22.9201C34.2853 22.6338 34.3354 22.2397 33.9993 22.0348ZM36.06 26.8292C36.7494 26.8292 37.456 26.6336 37.9879 26.0532C38.3971 25.5826 38.5848 24.8822 38.6497 24.5939C38.8614 23.638 38.6966 23.1917 38.4896 22.9199C38.1752 22.5056 37.6196 22.3727 37.0433 22.3727C36.6967 22.3727 35.8712 22.408 35.2263 23.02C34.7632 23.4614 34.5492 24.0605 34.4201 24.6348C34.2899 25.22 34.14 26.2735 35.0811 26.6656C35.3715 26.7939 35.7901 26.8292 36.06 26.8292ZM36.0061 24.6785C36.1651 23.9547 36.3527 23.3472 36.8316 23.3472C37.2069 23.3472 37.2341 23.7992 37.0673 24.5255C37.0374 24.6867 36.9004 25.286 36.7151 25.5413C36.5857 25.7296 36.4326 25.8438 36.2634 25.8438C36.2131 25.8438 35.9136 25.8438 35.9089 25.3861C35.9066 25.1601 35.9514 24.9293 36.0061 24.6785ZM40.373 26.7361L40.4269 26.6797C40.5033 26.263 40.5159 26.1651 40.6851 25.3213C40.7697 24.9211 40.9447 24.0418 41.027 23.7288C41.1827 23.6543 41.3335 23.5814 41.4845 23.5814C41.8308 23.5814 41.7887 23.8945 41.7749 24.0192C41.7623 24.229 41.6353 24.9127 41.5027 25.5L41.4204 25.8791C41.3575 26.1593 41.289 26.4311 41.2284 26.709L41.2547 26.7644C41.9625 26.7256 42.1695 26.7256 42.7754 26.7361L42.8486 26.6797C42.9549 26.0286 42.9836 25.8544 43.1826 24.907L43.2775 24.4713C43.4672 23.6191 43.5632 23.1873 43.4227 22.8353C43.2672 22.4408 42.9025 22.3456 42.5743 22.3456C42.3568 22.3456 41.9579 22.3996 41.6034 22.5798C41.4766 22.6482 41.3496 22.7268 41.2249 22.8058L41.3335 22.3727L41.2752 22.2995C40.5194 22.4574 40.3467 22.4785 39.6491 22.5798L39.5956 22.6198C39.511 23.312 39.4422 23.8321 39.1415 25.193C39.0271 25.6944 38.9082 26.2006 38.7894 26.7008L38.8213 26.7644C39.5382 26.7256 39.7522 26.7256 40.373 26.7361ZM45.5735 26.7643C45.618 26.5407 45.8823 25.2154 45.8846 25.2154C45.8846 25.2154 46.1098 24.243 46.1235 24.2077C46.1235 24.2077 46.1944 24.1065 46.2652 24.0664H46.3694C47.3527 24.0664 48.463 24.0664 49.3333 23.4074C49.9255 22.9554 50.3303 22.2879 50.5109 21.4767C50.5577 21.2778 50.5923 21.0413 50.5923 20.8047C50.5923 20.4941 50.5317 20.1867 50.3566 19.9465C49.9129 19.3074 49.0291 19.2956 48.009 19.2908C48.0057 19.2908 47.5061 19.2956 47.5061 19.2956C46.2002 19.3122 45.6765 19.3074 45.4614 19.2803C45.4432 19.3782 45.409 19.5524 45.409 19.5524C45.409 19.5524 44.9412 21.7841 44.9412 21.7877C44.9412 21.7877 43.8218 26.5325 43.7691 26.7561C44.9093 26.742 45.3768 26.742 45.5735 26.7643ZM46.4402 22.7999C46.4402 22.7999 46.9376 20.5727 46.9352 20.5811L46.9513 20.4669L46.9584 20.3799L47.1571 20.4009C47.1571 20.4009 48.1828 20.4916 48.2069 20.4941C48.6117 20.6553 48.7785 21.0708 48.662 21.6132C48.5558 22.1089 48.2434 22.5257 47.8421 22.727C47.5116 22.8975 47.1068 22.9117 46.6896 22.9117H46.4198L46.4402 22.7999ZM49.5368 24.7198C49.4054 25.2966 49.2543 26.35 50.1908 26.7255C50.4894 26.8563 50.7569 26.8951 51.0289 26.881C51.316 26.865 51.5821 26.7168 51.8286 26.5034C51.8063 26.5911 51.7841 26.6788 51.7618 26.7668L51.8043 26.8231C52.4779 26.7939 52.6869 26.7939 53.4166 26.7996L53.4828 26.7478C53.5893 26.1029 53.6898 25.4768 53.9667 24.2431C54.1016 23.6522 54.2363 23.067 54.3747 22.4785L54.3531 22.4137C53.5996 22.5574 53.3982 22.5881 52.6734 22.6939L52.6184 22.74C52.611 22.8 52.6034 22.8575 52.5964 22.9151C52.4837 22.7277 52.3204 22.5676 52.0683 22.4679C51.746 22.3374 50.989 22.5056 50.3383 23.1155C49.8811 23.5509 49.6615 24.1476 49.5368 24.7198ZM51.1193 24.7551C51.2806 24.0442 51.4659 23.4427 51.946 23.4427C52.2495 23.4427 52.4094 23.7311 52.3769 24.2229C52.3511 24.3455 52.3233 24.4748 52.2902 24.621C52.2422 24.8322 52.1901 25.0416 52.1395 25.2514C52.0879 25.3948 52.0279 25.5301 51.9621 25.6202C51.8385 25.8004 51.5446 25.9122 51.3754 25.9122C51.3274 25.9122 51.0312 25.9122 51.021 25.4626C51.0186 25.2387 51.0634 25.0082 51.1193 24.7551ZM59.3831 22.4079L59.3249 22.3395C58.5793 22.495 58.4444 22.5197 57.7594 22.6149L57.709 22.6668C57.7067 22.6752 57.7046 22.6882 57.7011 22.6999L57.6988 22.6882C57.1889 23.8992 57.2038 23.638 56.7887 24.5914C56.7864 24.548 56.7864 24.5209 56.784 24.4748L56.6801 22.4079L56.6148 22.3395C55.8338 22.495 55.8154 22.5197 55.0941 22.6149L55.0379 22.6668C55.03 22.6915 55.03 22.7186 55.0253 22.7481L55.03 22.7587C55.1202 23.233 55.0985 23.1272 55.1889 23.8757C55.2311 24.243 55.2873 24.6125 55.3295 24.9753C55.4006 25.5825 55.4404 25.8814 55.5273 26.808C55.0402 27.6355 54.9249 27.9486 54.456 28.6748L54.4592 28.682L54.129 29.2196C54.0912 29.2763 54.057 29.3152 54.009 29.3317C53.9563 29.3585 53.8878 29.3634 53.7926 29.3634H53.6097L53.3377 30.2945L54.2707 30.3111C54.8184 30.3087 55.1626 30.045 55.3479 29.6906L55.9345 28.6558H55.9252L55.9869 28.5829C56.3815 27.7084 59.3831 22.4079 59.3831 22.4079ZM49.5368 34.6369H49.141L50.6058 29.6495H51.0918L51.246 29.1357L51.261 29.707C51.2428 30.0602 51.5127 30.3733 52.2217 30.3215H53.0416L53.3238 29.3611H53.0153C52.8379 29.3611 52.7556 29.315 52.7659 29.2162L52.7509 28.6349H51.2326V28.6379C50.7417 28.6484 49.2757 28.6864 48.9789 28.7678C48.6197 28.863 48.2412 29.1432 48.2412 29.1432L48.3899 28.6289H46.9696L46.6736 29.6495L45.1892 34.7131H44.9012L44.6187 35.6666H47.4476L47.3528 35.9845H48.7467L48.8392 35.6666H49.2303L49.5368 34.6369ZM48.3761 30.6629C48.1487 30.7277 47.7254 30.9241 47.7254 30.9241L48.1019 29.6495H49.2303L48.9581 30.5782C48.9581 30.5782 48.6094 30.5993 48.3761 30.6629ZM48.3978 32.4839C48.3978 32.4839 48.0433 32.5297 47.81 32.5839C47.5802 32.6556 47.1493 32.8816 47.1493 32.8816L47.5381 31.5551H48.6724L48.3978 32.4839ZM47.7655 34.6487H46.6335L46.9617 33.5292H48.0901L47.7655 34.6487ZM50.4916 31.5551H52.1232L51.8887 32.3368H50.2354L49.9872 33.1914H51.4338L50.3385 34.7791C50.2618 34.8958 50.193 34.937 50.1166 34.9699C50.0399 35.01 49.9392 35.057 49.8227 35.057H49.4213L49.1456 35.9929H50.1953C50.741 35.9929 51.0633 35.7374 51.3012 35.402L52.0524 34.3437L52.2137 35.4183C52.2479 35.6196 52.3884 35.7374 52.4836 35.7832C52.5887 35.8374 52.6973 35.9305 52.8506 35.9444C53.0152 35.9516 53.134 35.9574 53.213 35.9574H53.7288L54.0385 34.9099H53.8351C53.7183 34.9099 53.5172 34.8897 53.4829 34.8521C53.4487 34.8063 53.4487 34.7357 53.4302 34.6285L53.2666 33.5515H52.5966L52.8905 33.1914H54.5406L54.7944 32.3368H53.2666L53.5046 31.5551H55.0277L55.3101 30.5912H50.7694L50.4916 31.5551ZM36.7105 34.8663L37.0913 33.5621H38.6565L38.9425 32.5921H37.3759L37.615 31.7894H39.146L39.4296 30.8501H35.599L35.3212 31.7894H36.1915L35.9594 32.5921H35.0867L34.7975 33.5787H35.6675L35.1599 35.3042C35.0914 35.5326 35.1921 35.6197 35.2559 35.7257C35.3212 35.8291 35.3874 35.8975 35.5361 35.9364C35.6895 35.9716 35.7945 35.9927 35.9374 35.9927H37.702L38.0163 34.9181L37.2342 35.0287C37.0831 35.0287 36.6648 35.0101 36.7105 34.8663ZM36.89 28.623L36.4934 29.361C36.4085 29.5222 36.3321 29.6222 36.2633 29.6683C36.2027 29.7072 36.0827 29.7235 35.9088 29.7235H35.7018L35.4252 30.6676H36.1125C36.443 30.6676 36.6968 30.5428 36.818 30.4804C36.9483 30.4087 36.9825 30.4497 37.0832 30.3496L37.3154 30.1426H39.4616L39.7465 29.1597H38.1754L38.4497 28.623H36.89ZM40.0586 34.8853C40.022 34.831 40.0484 34.7355 40.1043 34.5366L40.6909 32.5379H42.7778C43.0819 32.5333 43.3014 32.5297 43.4443 32.5192C43.5977 32.5026 43.7645 32.4463 43.9463 32.345C44.134 32.2389 44.23 32.1271 44.3111 31.9988C44.4015 31.8707 44.5467 31.5905 44.6714 31.1583L45.4088 28.6289L43.2432 28.6419C43.2432 28.6419 42.5764 28.7431 42.2828 28.8549C41.9865 28.9797 41.5632 29.328 41.5632 29.328L41.7588 28.6346H40.421L38.5481 35.0287C38.4817 35.277 38.4372 35.4572 38.427 35.5654C38.4234 35.682 38.5698 35.7974 38.6646 35.8845C38.7768 35.9716 38.9424 35.9574 39.1014 35.9716C39.2685 35.9845 39.5062 35.9927 39.8344 35.9927H40.8624L41.178 34.8958L40.2577 34.9853C40.1593 34.9853 40.0882 34.9311 40.0586 34.8853ZM41.0694 31.1879H43.2613L43.122 31.6375C43.1024 31.648 43.0556 31.6152 42.8325 31.6423H40.9345L41.0694 31.1879ZM41.5085 29.68H43.7189L43.5599 30.2215C43.5599 30.2215 42.5181 30.2109 42.3513 30.2426C41.6171 30.3734 41.1883 30.7771 41.1883 30.7771L41.5085 29.68ZM43.1711 33.143C43.1529 33.2102 43.1242 33.2512 43.0841 33.2819C43.0396 33.3115 42.9676 33.322 42.8602 33.322H42.5479L42.5663 32.7745H41.2672L41.2145 35.4513C41.2124 35.6444 41.2306 35.7562 41.3679 35.8457C41.5052 35.9575 41.9281 35.9717 42.4975 35.9717H43.3116L43.6055 34.9697L42.8968 35.0098L42.6611 35.024C42.6289 35.0098 42.5982 34.9969 42.5639 34.9616C42.5341 34.9312 42.4837 34.9498 42.4919 34.7567L42.4975 34.0705L43.2407 34.0389C43.6421 34.0389 43.8136 33.9045 43.96 33.7764C44.0996 33.6538 44.1453 33.5128 44.198 33.322L44.3227 32.7145H43.3013L43.1711 33.143Z" fill="#FEFEFE"/>
</svg>
