<svg width="87" height="47" viewBox="0 0 87 47" fill="none" xmlns="http://www.w3.org/2000/svg">
<path fill-rule="evenodd" clip-rule="evenodd" d="M51.1237 39.0632C52.7622 37.1386 53.7491 34.2842 53.7491 30.7572C53.7491 27.3529 52.6392 24.6983 50.9352 22.9141C49.2392 21.1384 46.7855 20.044 43.7271 20.044C38.3094 20.044 33.3594 24.0499 33.3594 30.3753C33.3594 33.8572 34.4085 36.8224 36.1557 38.8698C37.8629 40.8706 40.3693 42.1616 43.7271 42.1616C47.1321 42.1616 49.5327 40.9319 51.1237 39.0632ZM43.7271 44.9264C52.016 44.9264 56.5138 38.7936 56.5138 30.7572C56.5138 22.7209 51.2313 17.2793 43.7271 17.2793C36.9733 17.2793 30.5947 22.3389 30.5947 30.3753C30.5947 38.4116 35.4382 44.9264 43.7271 44.9264Z" fill="#F5F5F5"/>
<path fill-rule="evenodd" clip-rule="evenodd" d="M69.2761 43.4521C69.672 43.0419 69.9902 42.3584 69.9902 41.3326C69.9902 40.447 69.6783 39.8522 69.2562 39.4623C68.8156 39.0552 68.0692 38.7061 66.9582 38.7061C66.0105 38.7061 65.1568 39.0247 64.5878 39.4919C64.059 39.9261 63.7696 40.4781 63.7696 41.1798C63.7696 42.1566 64.097 42.8949 64.5598 43.3735C65.0043 43.8331 65.7484 44.2355 66.9582 44.2355C68.2123 44.2355 68.8989 43.8431 69.2761 43.4521ZM66.9582 47.0002C70.7159 47.0002 72.7549 44.5471 72.7549 41.3326C72.7549 38.118 70.3601 35.9414 66.9582 35.9414C63.8965 35.9414 61.0049 37.9653 61.0049 41.1798C61.0049 44.3943 63.2006 47.0002 66.9582 47.0002Z" fill="#F5F5F5"/>
<path fill-rule="evenodd" clip-rule="evenodd" d="M22.9675 43.4521C23.3634 43.0419 23.6816 42.3584 23.6816 41.3326C23.6816 40.447 23.3697 39.8522 22.9476 39.4623C22.507 39.0552 21.7606 38.7061 20.6496 38.7061C19.7019 38.7061 18.8482 39.0247 18.2792 39.4919C17.7504 39.9261 17.461 40.4781 17.461 41.1798C17.461 42.1566 17.7884 42.8949 18.2512 43.3735C18.6957 43.8331 19.4398 44.2355 20.6496 44.2355C21.9037 44.2355 22.5903 43.8431 22.9675 43.4521ZM20.6496 47.0002C24.4073 47.0002 26.4463 44.5471 26.4463 41.3326C26.4463 38.118 24.0515 35.9414 20.6496 35.9414C17.5879 35.9414 14.6963 37.9653 14.6963 41.1798C14.6963 44.3943 16.892 47.0002 20.6496 47.0002Z" fill="#F5F5F5"/>
<path fill-rule="evenodd" clip-rule="evenodd" d="M18.8447 22.8081C18.8447 22.0447 19.4636 21.4258 20.2271 21.4258L34.7418 21.4258V24.1905L20.2271 24.1905C19.4636 24.1905 18.8447 23.5716 18.8447 22.8081Z" fill="#F5F5F5"/>
<path fill-rule="evenodd" clip-rule="evenodd" d="M69.2998 22.8091C69.2998 23.5725 68.6809 24.1914 67.9175 24.1914L52.7116 24.1914V21.4267L67.9175 21.4267C68.6809 21.4267 69.2998 22.0456 69.2998 22.8091Z" fill="#F5F5F5"/>
<path fill-rule="evenodd" clip-rule="evenodd" d="M48.5654 24.1919C48.5654 24.9553 48.0239 25.5742 47.3559 25.5742H40.0985C39.4305 25.5742 38.889 24.9553 38.889 24.1919C38.889 23.4284 39.4305 22.8095 40.0985 22.8095H47.3559C48.0239 22.8095 48.5654 23.4284 48.5654 24.1919Z" fill="#BD2957"/>
<path fill-rule="evenodd" clip-rule="evenodd" d="M59.624 31.7945C59.624 31.031 60.2429 30.4121 61.0064 30.4121L85.8887 30.4121L85.8887 33.1768L61.0064 33.1768C60.2429 33.1768 59.624 32.5579 59.624 31.7945Z" fill="#F5F5F5"/>
<path d="M83.2496 32.2514L83.25 32.2505L83.251 32.2485C83.5721 31.5574 84.3921 31.2562 85.0843 31.5759C85.7774 31.8961 86.0798 32.7174 85.7596 33.4105L84.5048 32.831C85.7596 33.4105 85.7594 33.4109 85.7592 33.4114L85.7578 33.4145L85.7552 33.4201L85.7476 33.4362C85.7415 33.449 85.7333 33.4661 85.7231 33.4871C85.7026 33.5291 85.6738 33.587 85.6369 33.6585C85.5631 33.8013 85.4561 33.9995 85.3172 34.2349C85.0412 34.7025 84.63 35.3321 84.091 35.9686C83.0554 37.1917 81.3216 38.7022 78.9759 38.7028C74.1372 38.704 67.9164 38.7043 62.9053 38.7043L54.0929 38.7041C54.0928 38.7041 54.0927 38.7041 54.0928 37.3217C54.0929 35.9394 54.0935 35.9394 54.0936 35.9394L62.9053 35.9396C67.9164 35.9396 74.1369 35.9393 78.9752 35.9381C80.0854 35.9378 81.1161 35.2036 81.9811 34.1821C82.3924 33.6963 82.7155 33.2037 82.9362 32.8297C83.0457 32.6442 83.1277 32.4917 83.1808 32.3891C83.2073 32.3378 83.2264 32.2993 83.238 32.2755L83.2496 32.2514Z" fill="#F5F5F5"/>
<path fill-rule="evenodd" clip-rule="evenodd" d="M4.25337 32.3826L4.25379 32.3834L4.26534 32.4076C4.27683 32.4313 4.29581 32.4698 4.32211 32.521C4.37481 32.6236 4.45627 32.776 4.56499 32.9613C4.78423 33.3351 5.10506 33.8271 5.51358 34.3122C6.37346 35.3333 7.39505 36.0623 8.49261 36.0616C13.3054 36.0587 19.4932 36.0536 24.4778 36.0494L33.2431 36.0415C33.2433 36.0415 33.2438 36.0415 33.2451 37.4239C33.2464 38.8063 33.2464 38.8063 33.2462 38.8063L24.4802 38.8141C19.4955 38.8183 13.3075 38.8234 8.49432 38.8263C6.15415 38.8278 4.42765 37.3147 3.39888 36.0931C2.86307 35.4569 2.45443 34.8275 2.18028 34.3602C2.0423 34.1249 1.93609 33.9268 1.86279 33.7841C1.82609 33.7126 1.79749 33.6548 1.77715 33.6128C1.76698 33.5918 1.75886 33.5747 1.75281 33.5619L1.74529 33.5458L1.74269 33.5402L1.74126 33.5371C1.74106 33.5367 1.74088 33.5363 2.99729 32.9598L1.74088 33.5363C1.4225 32.8424 1.72691 32.0218 2.42081 31.7034C3.11377 31.3854 3.93309 31.6886 4.2524 32.3805C4.25272 32.3812 4.25305 32.3819 4.25337 32.3826Z" fill="#F5F5F5"/>
<path fill-rule="evenodd" clip-rule="evenodd" d="M27.8291 31.7934C27.8291 32.5569 27.2102 33.1758 26.4467 33.1758L1.5644 33.1758L1.5644 30.4111L26.4467 30.4111C27.2102 30.4111 27.8291 31.03 27.8291 31.7934Z" fill="#F5F5F5"/>
<path fill-rule="evenodd" clip-rule="evenodd" d="M41.9767 7.78939C41.9897 8.5096 42.0035 9.27395 41.9975 10.0302C41.9809 12.1477 41.9809 14.3037 41.9851 15.9311C41.9872 16.7446 41.9903 17.4256 41.9929 17.9031C41.9942 18.1419 41.9953 18.3297 41.9962 18.4578L41.9975 18.6539L39.9241 18.6696L39.9227 18.4715C39.9219 18.3426 39.9207 18.154 39.9194 17.9144C39.9168 17.4352 39.9136 16.7522 39.9116 15.9364C39.9074 14.3052 39.9074 12.1413 39.9241 10.0139C39.9299 9.27798 39.917 8.57125 39.9042 7.87398C39.8967 7.46068 39.8892 7.0507 39.8857 6.63993C39.8766 5.57155 39.8955 4.52352 40.0364 3.60578C40.1756 2.69972 40.4521 1.78584 41.0633 1.09269C41.7157 0.352901 42.6255 0 43.7257 0C44.8473 0 45.7594 0.384988 46.4054 1.14741C47.0082 1.8588 47.2852 2.79082 47.4256 3.71166C47.568 4.64563 47.5878 5.70085 47.5774 6.75918C47.5729 7.21506 47.5631 7.66073 47.5534 8.10534C47.5396 8.73689 47.5259 9.36632 47.5272 10.0199C47.5315 12.1191 47.5315 14.28 47.5305 15.916C47.5299 16.734 47.5291 17.4209 47.5285 17.9033L47.5272 18.6629L47.5272 18.6637L45.4537 18.6597L45.4549 17.9004C45.4556 17.4184 45.4564 16.7321 45.4569 15.9146C45.458 14.2796 45.458 12.1207 45.4537 10.0242C45.4524 9.36324 45.4672 8.67143 45.4814 8.00845C45.4908 7.56649 45.5 7.13734 45.5039 6.73869C45.5142 5.6969 45.4914 4.78271 45.3758 4.02419C45.2581 3.25254 45.0616 2.76898 44.8235 2.4879C44.6285 2.25787 44.3322 2.07353 43.7257 2.07353C43.0981 2.07353 42.8029 2.25505 42.6186 2.46408C42.3931 2.71975 42.2014 3.16908 42.0859 3.9206C41.9723 4.66045 41.9502 5.56437 41.9592 6.62229C41.9623 6.99103 41.9694 7.38319 41.9767 7.78939Z" fill="#F5F5F5"/>
</svg>
