<svg width="60" height="67" viewBox="0 0 60 67" fill="none" xmlns="http://www.w3.org/2000/svg">
<path d="M26.1949 34.4907C25.8284 34.4907 25.5312 34.1936 25.5312 33.8271V32.2276C25.5312 31.861 25.8284 31.5639 26.1949 31.5639H28.561C28.9275 31.5639 29.2247 31.2668 29.2247 30.9002V23.1169C29.2247 22.5778 28.6159 22.2636 28.1765 22.5759L26.5794 23.7109C26.14 24.0232 25.5312 23.709 25.5312 23.1699V21.2206C25.5312 21.006 25.635 20.8046 25.8098 20.6801L29.075 18.3536C29.1875 18.2735 29.3221 18.2305 29.4601 18.2305H32.0918C32.4583 18.2305 32.7555 18.5276 32.7555 18.8942V30.9002C32.7555 31.2668 33.0526 31.5639 33.4191 31.5639H35.0883C35.4549 31.5639 35.752 31.861 35.752 32.2276V33.8271C35.752 34.1936 35.4549 34.4907 35.0883 34.4907H26.1949Z" fill="#BD2957"/>
<path fill-rule="evenodd" clip-rule="evenodd" d="M28.18 0.764991C29.3153 -0.254997 31.0369 -0.254997 32.1721 0.764991L34.4424 2.80476C34.7133 3.04819 35.0956 3.12423 35.439 3.00301L38.3171 1.9873C39.7562 1.47939 41.3468 2.13822 42.0053 3.51501L43.3221 6.2683C43.4793 6.59688 43.8033 6.81341 44.1671 6.83286L47.2147 6.99584C48.7387 7.07733 49.9561 8.2947 50.0375 9.81868L50.2005 12.8663C50.22 13.23 50.4365 13.5541 50.7651 13.7113L53.5184 15.0281C54.8952 15.6866 55.554 17.2772 55.0461 18.7163L54.0304 21.5944C53.9092 21.9378 53.9852 22.3201 54.2286 22.591L56.2684 24.8613C57.2884 25.9965 57.2884 27.7181 56.2684 28.8534L54.2286 31.1236C53.9852 31.3946 53.9092 31.7768 54.0304 32.1203L55.0461 34.9983C55.554 36.4375 54.8952 38.028 53.5184 38.6865L50.7651 40.0034C50.4365 40.1605 50.22 40.4846 50.2005 40.8483L50.1748 41.3296L59.2969 56.5332C59.9605 57.6391 59.1639 59.046 57.8742 59.046H49.6661L45.5561 66.1699C44.9146 67.2819 43.3074 67.2753 42.675 66.1581L34.1782 51.1472L32.1721 52.9496C31.0369 53.9696 29.3153 53.9696 28.18 52.9496L26.1686 51.1424L17.4039 65.1659C16.7038 66.2861 15.039 66.1787 14.4886 64.9778L11.6178 58.7142H1.8298C0.531762 58.7142 -0.263578 57.2909 0.416718 56.1854L10.0688 40.5007C9.97441 40.2861 9.80549 40.1079 9.58705 40.0034L6.83376 38.6865C5.45697 38.028 4.79814 36.4375 5.30605 34.9983L6.32177 32.1203C6.44298 31.7768 6.36695 31.3946 6.12352 31.1236L4.08375 28.8534C3.06376 27.7181 3.06376 25.9965 4.08375 24.8613L6.12352 22.591C6.36695 22.3201 6.44298 21.9378 6.32177 21.5944L5.30605 18.7163C4.79814 17.2772 5.45698 15.6866 6.83376 15.0281L9.58705 13.7113C9.91564 13.5541 10.1322 13.23 10.1516 12.8663L10.3146 9.81867C10.3961 8.2947 11.6135 7.07733 13.1374 6.99584L16.1851 6.83286C16.5488 6.81341 16.8728 6.59688 17.03 6.2683L18.3469 3.51501C19.0054 2.13822 20.5959 1.47939 22.0351 1.9873L24.9131 3.00301C25.2566 3.12423 25.6388 3.0482 25.9098 2.80476L28.18 0.764991ZM10.3148 43.9L2.42365 56.7231H11.8307C12.4795 56.7231 13.0687 57.1013 13.339 57.691L16.042 63.5883L23.8569 51.0844L22.0351 51.7273C20.5959 52.2352 19.0054 51.5764 18.3469 50.1996L17.03 47.4463C16.8728 47.1177 16.5488 46.9012 16.1851 46.8818L13.1374 46.7188C11.6148 46.6374 10.3982 45.4221 10.3148 43.9ZM35.0606 48.6641L35.0245 48.6004L34.8997 48.671C34.2469 48.7167 33.6152 48.9764 33.1117 49.4288L30.8414 51.4686C30.463 51.8086 29.8891 51.8086 29.5107 51.4686L27.2405 49.4288C26.4277 48.6985 25.2809 48.4704 24.2505 48.8341L21.3725 49.8498C20.8927 50.0191 20.3625 49.7995 20.143 49.3405L18.8262 46.5873C18.3547 45.6015 17.3825 44.9519 16.2914 44.8936L13.2438 44.7306C12.7358 44.7034 12.33 44.2976 12.3028 43.7896L12.1398 40.742C12.0815 39.6508 11.4319 38.6787 10.4461 38.2072L7.69285 36.8903C7.23392 36.6708 7.01431 36.1407 7.18361 35.6609L8.19932 32.7829C8.56298 31.7525 8.33488 30.6057 7.60458 29.7929L5.56481 27.5227C5.22481 27.1443 5.22481 26.5704 5.56481 26.192L7.60458 23.9217C8.33488 23.1089 8.56298 21.9621 8.19932 20.9317L7.18361 18.0537C7.01431 17.574 7.23392 17.0438 7.69285 16.8243L10.4461 15.5074C11.4319 15.036 12.0815 14.0638 12.1398 12.9726L12.3028 9.925C12.33 9.417 12.7358 9.01122 13.2438 8.98405L16.2914 8.82107C17.3825 8.76272 18.3547 8.11314 18.8262 7.12738L20.143 4.37409C20.3625 3.91516 20.8927 3.69555 21.3725 3.86485L24.2505 4.88057C25.2809 5.24422 26.4277 5.01612 27.2405 4.28582L29.5107 2.24605C29.8891 1.90606 30.463 1.90606 30.8414 2.24605L33.1117 4.28582C33.9245 5.01612 35.0712 5.24422 36.1017 4.88057L38.9797 3.86485C39.4594 3.69555 39.9896 3.91516 40.2091 4.37409L41.526 7.12738C41.9974 8.11314 42.9696 8.76272 44.0607 8.82107L47.1084 8.98405C47.6164 9.01122 48.0222 9.417 48.0493 9.925L48.2123 12.9726C48.2707 14.0638 48.9202 15.036 49.906 15.5074L52.6593 16.8243C53.1182 17.0438 53.3378 17.574 53.1685 18.0537L52.1528 20.9317C51.7892 21.9621 52.0173 23.1089 52.7476 23.9217L54.7873 26.192C55.1273 26.5704 55.1273 27.1443 54.7873 27.5227L52.7476 29.7929C52.0173 30.6057 51.7892 31.7525 52.1528 32.7829L53.1685 35.6609C53.3378 36.1407 53.1182 36.6708 52.6593 36.8903L49.906 38.2072C48.9202 38.6787 48.2707 39.6508 48.2123 40.742L48.0493 43.7896C48.0222 44.2976 47.6164 44.7034 47.1084 44.7306L44.0607 44.8936C42.9696 44.9519 41.9974 45.6015 41.526 46.5873L40.2091 49.3405C39.9896 49.7995 39.4594 50.0191 38.9797 49.8498L36.1017 48.8341C35.7619 48.7142 35.4095 48.6586 35.0606 48.6641ZM36.4145 51.0559L44.1217 64.672L48.0372 57.885C48.3335 57.3714 48.8815 57.055 49.4744 57.055H57.2881L49.8799 44.708C49.4933 45.8329 48.4556 46.6524 47.2147 46.7188L44.1671 46.8818C43.8033 46.9012 43.4793 47.1177 43.3221 47.4463L42.0053 50.1996C41.3468 51.5764 39.7562 52.2353 38.3171 51.7273L36.4145 51.0559Z" fill="#F5F5F5"/>
<path fill-rule="evenodd" clip-rule="evenodd" d="M27.6405 12.0773C25.2435 12.4702 22.2118 13.4865 19.575 15.9679C16.9366 18.4508 15.8562 21.234 15.431 23.3989C15.218 24.4837 15.1702 25.4113 15.175 26.0619C15.1774 26.3867 15.1929 26.6411 15.2072 26.8098C15.2143 26.8942 15.2211 26.9569 15.2257 26.9962C15.2281 27.0158 15.2299 27.0296 15.2309 27.0372L15.2316 27.0423C15.2317 27.0429 15.2317 27.0435 15.2318 27.044C15.3119 27.5868 14.9376 28.0923 14.3947 28.1737C13.851 28.2553 13.344 27.8807 13.2624 27.337L14.2469 27.1892C13.2624 27.337 13.2624 27.3365 13.2623 27.336L13.2621 27.3349L13.2617 27.3321L13.2607 27.3248L13.2576 27.3029C13.2552 27.2851 13.2521 27.2609 13.2485 27.2306C13.2414 27.1701 13.2323 27.0851 13.2232 26.9775C13.205 26.7625 13.1868 26.4569 13.184 26.0766C13.1783 25.3169 13.2341 24.2533 13.4773 23.0152C13.9645 20.5343 15.2071 17.3443 18.2105 14.5179C21.2157 11.6898 24.655 10.5491 27.3184 10.1124C28.6514 9.8939 29.7997 9.84992 30.6192 9.86092C31.0295 9.86644 31.3587 9.88575 31.5893 9.9042C31.7047 9.91343 31.7954 9.92245 31.8594 9.92945C31.8914 9.93295 31.9168 9.93594 31.9351 9.93821L31.9574 9.94102L31.9646 9.94197L31.9672 9.94231L31.9683 9.94245C31.9687 9.94251 31.9691 9.94257 31.8352 10.9247L31.9691 9.94257C32.5139 10.0169 32.8953 10.5187 32.821 11.0635C32.7468 11.6077 32.2459 11.9889 31.7018 11.9156C31.7014 11.9155 31.7011 11.9155 31.7008 11.9155L31.7001 11.9154L31.6918 11.9143C31.6822 11.9132 31.6659 11.9112 31.643 11.9087C31.5974 11.9037 31.5258 11.8965 31.4305 11.8889C31.2398 11.8737 30.9548 11.8567 30.5925 11.8518C29.8669 11.8421 28.8377 11.881 27.6405 12.0773Z" fill="#BD2957"/>
<path fill-rule="evenodd" clip-rule="evenodd" d="M43.7795 33.7682C43.2614 33.5841 42.9906 33.0149 43.1747 32.4968C44.7874 27.9578 44.3099 24.2056 43.4457 21.5939C43.012 20.283 42.4792 19.2559 42.0588 18.5616C41.8489 18.2149 41.6677 17.9524 41.5423 17.7805C41.4796 17.6945 41.4309 17.6313 41.3997 17.5917C41.384 17.5719 41.3727 17.5579 41.3663 17.55L41.3605 17.543L41.361 17.5436C41.0066 17.1238 41.0593 16.4961 41.4788 16.1413C41.8986 15.7862 42.5268 15.8387 42.8818 16.2585L42.1217 16.9014C42.8818 16.2585 42.8822 16.2589 42.8825 16.2593L42.8834 16.2604L42.8854 16.2628L42.891 16.2695L42.9078 16.2899C42.9215 16.3067 42.9401 16.3297 42.9631 16.3588C43.0091 16.4171 43.0728 16.5001 43.1508 16.607C43.3067 16.8208 43.52 17.1306 43.762 17.5304C44.2457 18.3292 44.8474 19.492 45.336 20.9684C46.3164 23.9312 46.8345 28.1434 45.0509 33.1634C44.8668 33.6815 44.2976 33.9523 43.7795 33.7682Z" fill="#BD2957"/>
<path fill-rule="evenodd" clip-rule="evenodd" d="M40.5309 40.1449C40.1571 40.548 39.5272 40.5718 39.124 40.1979C38.1368 39.2825 37.575 38.8017 37.2685 38.5547C37.1154 38.4313 37.0334 38.3724 36.9994 38.3491C36.9975 38.3479 36.9959 38.3467 36.9944 38.3457C36.5497 38.099 36.3584 37.5493 36.5673 37.0747C36.7888 36.5715 37.3763 36.3431 37.8795 36.5646L37.4785 37.4758C37.8795 36.5646 37.8806 36.5651 37.8817 36.5655L37.8839 36.5665L37.8881 36.5684L37.8965 36.5722L37.9126 36.5799C37.9231 36.5849 37.9332 36.59 37.943 36.5951C37.9624 36.6052 37.9814 36.6159 38.0002 36.6269C38.0373 36.6486 38.0778 36.6745 38.1233 36.7057C38.2137 36.7675 38.3391 36.8604 38.5177 37.0043C38.8747 37.2919 39.4741 37.8072 40.4779 38.738C40.881 39.1118 40.9048 39.7417 40.5309 40.1449Z" fill="#BD2957"/>
<path fill-rule="evenodd" clip-rule="evenodd" d="M40.4945 14.9979C40.1004 15.3812 39.4701 15.3725 39.0868 14.9784C38.5114 14.3869 37.9409 14.0242 37.524 13.8119C37.3156 13.7057 37.1466 13.6377 37.0363 13.5978C36.9812 13.578 36.941 13.5652 36.9182 13.5583C36.9068 13.5549 36.8998 13.5529 36.8974 13.5523C36.8969 13.5521 36.8966 13.552 36.8966 13.552C36.8966 13.552 36.8969 13.5521 36.8975 13.5523L36.9002 13.553L36.9023 13.5535L36.9035 13.5538L36.9041 13.554C36.3711 13.4203 36.0472 12.8801 36.1804 12.3469C36.3138 11.8135 36.8543 11.4892 37.3877 11.6225L37.1462 12.5883C37.3877 11.6225 37.3881 11.6226 37.3884 11.6227L37.3891 11.6229L37.3907 11.6233L37.3942 11.6242L37.4027 11.6264L37.4255 11.6325C37.4433 11.6374 37.4661 11.6439 37.4936 11.6522C37.5485 11.6688 37.6224 11.6926 37.7125 11.7252C37.8926 11.7902 38.1383 11.8903 38.4276 12.0377C39.006 12.3322 39.7626 12.8176 40.514 13.5901C40.8974 13.9842 40.8886 14.6145 40.4945 14.9979Z" fill="#BD2957"/>
<path fill-rule="evenodd" clip-rule="evenodd" d="M34.98 44.0491C34.4448 44.1751 33.9088 43.8434 33.7828 43.3082C33.4742 41.9977 33.2761 41.2853 33.1595 40.9094C33.1012 40.7215 33.0661 40.6269 33.0508 40.5886C33.05 40.5865 33.0492 40.5847 33.0486 40.583C32.8172 40.1301 32.965 39.5673 33.4032 39.2899C33.8677 38.9958 34.4827 39.134 34.7768 39.5985L33.9357 40.131C34.7768 39.5985 34.7774 39.5996 34.7781 39.6006L34.7793 39.6026L34.7818 39.6065L34.7866 39.6144L34.7957 39.6297C34.8016 39.6397 34.8072 39.6496 34.8124 39.6593C34.8229 39.6785 34.8328 39.698 34.8422 39.7176C34.8609 39.7563 34.88 39.8003 34.9005 39.8516C34.941 39.9534 34.9932 40.1004 35.0611 40.3194C35.197 40.7573 35.407 41.5193 35.7208 42.8518C35.8469 43.387 35.5152 43.923 34.98 44.0491Z" fill="#BD2957"/>
<path fill-rule="evenodd" clip-rule="evenodd" d="M29.184 45.4531C28.6345 45.4728 28.1732 45.0433 28.1535 44.4938C28.1054 43.1483 28.0495 42.411 28.0082 42.0196C27.9875 41.824 27.9714 41.7243 27.9639 41.6838C27.9635 41.6816 27.9631 41.6796 27.9627 41.6778C27.8237 41.1887 28.0781 40.6652 28.5618 40.4782C29.0747 40.28 29.6511 40.5351 29.8493 41.0479L28.9207 41.4068C29.8493 41.0479 29.8497 41.049 29.8502 41.0501L29.851 41.0523L29.8527 41.0567L29.8559 41.0653L29.8618 41.0821C29.8656 41.0931 29.8692 41.1039 29.8725 41.1144C29.879 41.1353 29.8849 41.1563 29.8903 41.1774C29.9011 41.219 29.9114 41.2659 29.9214 41.3202C29.9414 41.4279 29.9641 41.5822 29.9882 41.8103C30.0364 42.2662 30.0943 43.0545 30.1433 44.4226C30.163 44.9721 29.7335 45.4334 29.184 45.4531Z" fill="#BD2957"/>
<path fill-rule="evenodd" clip-rule="evenodd" d="M22.2836 43.7173C21.8051 43.4465 21.6368 42.839 21.9077 42.3605C22.571 41.1889 22.9093 40.5314 23.079 40.1763C23.1637 39.9988 23.2022 39.9054 23.217 39.867C23.2178 39.8649 23.2185 39.863 23.2192 39.8613C23.3568 39.3718 23.8475 39.0589 24.3575 39.1528C24.8983 39.2524 25.2559 39.7714 25.1564 40.3121L24.1773 40.1319C25.1564 40.3121 25.1561 40.3133 25.1559 40.3145L25.1555 40.3168L25.1546 40.3214L25.1528 40.3304L25.1491 40.3478C25.1466 40.3592 25.144 40.3702 25.1413 40.3809C25.1359 40.4021 25.1299 40.4231 25.1236 40.4439C25.111 40.485 25.0951 40.5304 25.0753 40.5819C25.036 40.6841 24.9744 40.8275 24.8756 41.0344C24.678 41.4481 24.3148 42.1502 23.6403 43.3414C23.3695 43.8199 22.762 43.9882 22.2836 43.7173Z" fill="#BD2957"/>
<path fill-rule="evenodd" clip-rule="evenodd" d="M17.6671 40.5971C17.2543 40.2339 17.214 39.6048 17.5772 39.192C18.4665 38.1812 18.9324 37.607 19.1712 37.2941C19.2906 37.1378 19.3473 37.0543 19.3697 37.0197C19.3709 37.0178 19.372 37.0161 19.373 37.0146C19.608 36.5636 20.1524 36.358 20.6324 36.5544C21.1412 36.7626 21.3849 37.344 21.1767 37.8528L20.2553 37.4757C21.1767 37.8528 21.1762 37.8539 21.1758 37.855L21.1749 37.8572L21.1731 37.8615L21.1695 37.87L21.1623 37.8863C21.1575 37.8969 21.1527 37.9071 21.1478 37.917C21.1382 37.9367 21.1281 37.956 21.1176 37.9751C21.0968 38.0127 21.072 38.0538 21.042 38.1002C20.9826 38.1922 20.893 38.3199 20.7539 38.5022C20.4757 38.8666 19.9763 39.4794 19.0721 40.5072C18.7089 40.92 18.0799 40.9602 17.6671 40.5971Z" fill="#BD2957"/>
<path fill-rule="evenodd" clip-rule="evenodd" d="M14.0373 35.4953C13.7732 35.013 13.95 34.408 14.4323 34.1439C15.6131 33.4972 16.247 33.1164 16.5782 32.9038C16.7438 32.7976 16.8256 32.7385 16.8584 32.7136C16.8602 32.7123 16.8618 32.711 16.8633 32.7099C17.2381 32.3662 17.82 32.3587 18.2041 32.7071C18.6114 33.0765 18.6421 33.7061 18.2727 34.1133L17.5353 33.4445C18.2727 34.1133 18.2719 34.1142 18.2711 34.1151L18.2695 34.1168L18.2663 34.1202L18.2601 34.127L18.2477 34.1398C18.2396 34.1482 18.2316 34.1562 18.2237 34.1638C18.2079 34.179 18.1918 34.1937 18.1754 34.2081C18.1431 34.2363 18.1057 34.2666 18.0617 34.2999C17.9745 34.3661 17.8467 34.4556 17.6537 34.5795C17.2679 34.8271 16.5893 35.2326 15.3887 35.8902C14.9064 36.1543 14.3014 35.9775 14.0373 35.4953Z" fill="#BD2957"/>
</svg>
