<svg width="16" height="14" viewBox="0 0 16 14" fill="none" xmlns="http://www.w3.org/2000/svg">
<path d="M1.55664 5.89127C1.34781 5.69815 1.46125 5.34902 1.74371 5.31553L5.74609 4.84099C5.86122 4.82734 5.96121 4.75481 6.00977 4.64954L7.69792 0.989633C7.81705 0.731342 8.18425 0.731309 8.30339 0.9896L9.99154 4.64959C10.0401 4.75486 10.1394 4.82735 10.2546 4.841L14.2572 5.31553C14.5396 5.34902 14.653 5.69817 14.4442 5.89129L11.4853 8.62778C11.4002 8.70649 11.3622 8.82381 11.3848 8.93752L12.1701 12.8907C12.2255 13.1697 11.9286 13.3855 11.6804 13.2465L8.16352 11.2779C8.06236 11.2213 7.93914 11.2212 7.83798 11.2778L4.32072 13.2466C4.07252 13.3855 3.77529 13.1697 3.83073 12.8908L4.61625 8.93747C4.63884 8.82377 4.60089 8.70653 4.51578 8.62782L1.55664 5.89127Z" fill="#BD2957" stroke="#BD2957" stroke-width="1.4" stroke-linecap="round" stroke-linejoin="round"/>
</svg>
