<svg width="49" height="51" viewBox="0 0 49 51" fill="none" xmlns="http://www.w3.org/2000/svg">
<path fill-rule="evenodd" clip-rule="evenodd" d="M3.02656 23.0021C0.441188 22.6788 0.441189 22.6788 0.440425 20.2792C0.439661 17.5371 0.487041 14.7943 0.421318 12.0538C0.389221 10.7134 0.90813 10.2181 2.23024 10.2372C5.65626 10.2862 9.08457 10.2533 12.5121 10.2525C13.0272 10.2525 13.5438 10.2525 14.1155 10.2525C12.6581 5.30035 13.1999 2.76618 15.9985 0.970252C18.5816 -0.686588 21.436 -0.228818 24.5907 2.40012C26.032 0.961844 27.7118 -0.205891 29.8463 0.080693C31.1057 0.249587 32.4615 0.669912 33.4924 1.3837C36.1076 3.19491 36.5233 6.10508 34.9009 10.1547C35.4641 10.1899 35.9616 10.2479 36.4584 10.2487C39.8362 10.2564 43.2149 10.2479 46.5935 10.2556C48.4941 10.2594 48.6179 10.3809 48.6241 12.2334C48.6325 14.9754 48.6279 17.7167 48.6256 20.4588C48.6241 22.7339 48.6225 22.7339 46.1885 22.954C46.1885 23.4988 46.1885 24.0659 46.1885 24.6322C46.1885 32.5648 46.1892 40.496 46.1877 48.4286C46.1869 50.651 46.0425 50.8 43.8912 50.8008C30.9659 50.8016 18.0398 50.8016 5.11366 50.8C3.10298 50.8 3.02885 50.7305 3.02809 48.7481C3.02427 40.7673 3.0258 32.7857 3.0258 24.8057C3.02656 24.2249 3.02656 23.6471 3.02656 23.0021ZM5.54545 22.9486C5.4782 23.1656 5.40101 23.3009 5.40101 23.4369C5.38954 31.4162 5.39719 39.3955 5.36509 47.3748C5.36127 48.3866 5.90922 48.4554 6.67115 48.4516C10.0001 48.4386 13.3298 48.3942 16.6573 48.4737C17.9267 48.5043 18.1964 48.0305 18.1896 46.8597C18.1445 39.3703 18.1682 31.8801 18.1628 24.3907C18.1628 23.9199 18.1063 23.4499 18.0734 22.9486C13.8174 22.9486 9.68373 22.9486 5.54545 22.9486ZM30.9987 48.3492C35.2195 48.3492 39.3525 48.3492 43.5488 48.3492C43.5488 39.8181 43.5488 31.3864 43.5488 22.9578C39.2997 22.9578 35.1645 22.9578 30.9987 22.9578C30.9987 31.456 30.9987 39.854 30.9987 48.3492ZM20.6618 22.9234C20.6618 31.2511 20.6542 39.407 20.6932 47.5628C20.6947 47.8516 21.1486 48.3828 21.4024 48.3897C23.6813 48.4554 25.964 48.4279 28.2712 48.4279C28.2712 39.8013 28.2712 31.378 28.2712 22.9234C25.7309 22.9234 23.3037 22.9234 20.6618 22.9234ZM46.2687 20.3113C46.2687 17.933 46.2962 15.6984 46.232 13.4653C46.2244 13.1948 45.7269 12.7118 45.4518 12.708C41.3035 12.6583 37.1553 12.6568 33.0079 12.7011C32.7121 12.7042 32.1749 13.1482 32.1672 13.3988C32.1015 15.6747 32.1283 17.9529 32.1283 20.3113C36.8886 20.3113 41.4587 20.3113 46.2687 20.3113ZM16.8567 12.6721C12.3845 12.6721 8.09414 12.6568 3.80378 12.7034C3.51337 12.7065 2.98682 13.1596 2.97918 13.4149C2.91422 15.6908 2.94173 17.9689 2.94173 20.2815C7.69521 20.2815 12.25 20.2815 16.8567 20.2815C16.8567 17.7419 16.8567 15.3163 16.8567 12.6721ZM29.6247 20.3082C29.6247 18.8982 29.6247 17.6808 29.6247 16.4626C29.6247 12.6606 29.6247 12.6606 25.7967 12.6606C23.7157 12.6606 21.6347 12.6606 19.5659 12.6606C19.5659 15.3759 19.5659 17.839 19.5659 20.3082C22.9339 20.3082 26.1856 20.3082 29.6247 20.3082ZM23.358 7.88725C23.371 7.88649 23.3832 7.88573 23.3962 7.88496C23.3504 7.15589 23.3886 6.41001 23.2457 5.70157C22.8276 3.6351 21.1616 2.38331 19.1357 2.52927C17.2809 2.66301 15.7471 4.20598 15.6355 6.05082C15.5125 8.09512 16.7498 9.7298 18.8391 10.1134C19.7402 10.2785 20.6909 10.1509 21.6049 10.2663C23.037 10.4482 23.5865 9.86965 23.3626 8.47188C23.3313 8.28159 23.358 8.08213 23.358 7.88725ZM28.1512 10.2487C28.1543 10.2732 28.1566 10.2984 28.1596 10.3236C28.9307 10.2403 29.7194 10.2319 30.4699 10.0584C32.5104 9.58765 33.6498 7.90712 33.4229 5.82155C33.231 4.0646 31.6735 2.61945 29.8723 2.52698C27.8868 2.42534 26.2254 3.66109 25.8991 5.64655C25.7111 6.79059 25.7775 7.97437 25.7088 9.13982C25.6606 9.95754 26.0274 10.3037 26.8345 10.2541C27.2716 10.2265 27.7118 10.2487 28.1512 10.2487Z" fill="#271F22"/>
</svg>
